<?xml version="1.0" encoding="UTF-8" standalone="no"?>
<svg xmlns="http://www.w3.org/2000/svg" viewBox="0 0 600 600">
<path d=" M 166.277 407.017 C 178.224 406.434 250.049 405.927 260.976 408.987 Q 304.137 391.614 322.713 391.906 Q 352.216 370.709 366.239 369.726 C 380.261 368.743 388.456 371.038 388.419 388.703 Q 372.903 402.033 352.979 417.075 L 291.934 442.205 L 187.364 464.966 Q 154.331 407.599 166.277 407.017 Z " stroke-width="5.679" stroke="rgb(255,255,255)" stroke-linejoin="miter" stroke-linecap="square" stroke-miterlimit="3"/>
<path d=" M 259.865 424.096 C 271.77 422.941 334.974 410.181 355.903 414.278 Q 398.181 394.855 416.749 394.255 Q 445.201 371.667 459.16 370.012 C 473.12 368.357 481.415 370.256 482.226 387.902 Q 467.367 401.962 448.188 417.942 L 388.419 445.972 L 285.062 473.725 Q 247.961 425.251 259.865 424.096 Z " stroke-width="5.679" stroke="rgb(255,255,255)" stroke-linejoin="miter" stroke-linecap="square" stroke-miterlimit="3"/>
<path d=" M 273.496 437.036 C 287.843 436.268 350.592 420.262 403.131 425.783 Q 454.877 404.67 477.192 404.914 Q 512.51 379.284 529.349 378.023 C 546.187 376.763 556.044 379.473 556.101 400.692 Q 537.538 416.793 513.692 434.975 L 440.507 465.509 L 315.028 493.446 Q 259.149 437.804 273.496 437.036 Z " stroke-width="5.679" stroke="rgb(255,255,255)" stroke-linejoin="miter" stroke-linecap="square" stroke-miterlimit="3"/>
<path d=" M 307.534 457.658 C 321.899 457.392 408.156 459.384 421.165 463.454 Q 473.617 444.159 495.909 445.183 Q 532.1 420.801 548.973 420.129 C 565.845 419.457 575.601 422.509 574.917 443.717 Q 555.804 459.16 531.337 476.499 L 457.132 504.46 L 330.753 528 Q 293.169 457.925 307.534 457.658 Z " stroke-width="5.679" stroke="rgb(255,255,255)" stroke-linejoin="miter" stroke-linecap="square" stroke-miterlimit="3"/>
<path d=" M 25.049 429.324 Q 123.287 368.912 194.587 383.798 Q 243.889 392.064 288.334 426.024 Q 332.778 459.985 423.922 416.911 Q 483.877 391.138 495.522 445.611 Q 449.22 472.207 411.261 504.598 Q 366.57 527.983 290.437 522.729 Q 214.305 517.475 40.646 504.598 L 25.049 429.324 Z " stroke-width="5.679" stroke="rgb(255,255,255)" stroke-linejoin="miter" stroke-linecap="square" stroke-miterlimit="3"/>
<path d=" M 140.021 152.663 C 143.203 147.935 146.796 143.557 150.736 139.564 L 136.704 113.22 L 184.353 87.84 L 198.279 113.984 L 198.279 113.984 C 203.664 112.919 209.175 112.335 214.749 112.263 L 223.267 84 L 223.267 84 L 274.958 99.579 L 266.531 127.537 C 271.432 130.793 275.961 134.489 280.08 138.554 L 305.78 124.865 L 331.16 172.514 L 305.659 186.098 L 305.659 186.098 C 306.758 191.656 307.345 197.348 307.385 203.105 L 335 211.428 L 335 211.428 L 319.421 263.119 L 291.806 254.796 C 288.479 259.74 284.702 264.3 280.55 268.438 L 294.135 293.941 L 294.135 293.941 L 246.486 319.322 L 232.795 293.62 C 227.302 294.659 221.681 295.198 215.998 295.203 L 207.572 323.161 L 155.881 307.582 L 164.399 279.319 L 164.399 279.319 C 159.628 276.067 155.219 272.394 151.207 268.368 L 125.059 282.296 L 125.059 282.296 L 99.678 234.647 L 126.023 220.614 C 125.017 215.293 124.479 209.853 124.441 204.354 L 95.839 195.733 L 111.418 144.042 L 140.021 152.663 L 140.021 152.663 Z  M 179.967 192.374 C 185.971 172.455 207.016 161.158 226.935 167.161 C 246.853 173.165 258.151 194.21 252.147 214.129 C 246.144 234.047 225.099 245.345 205.18 239.341 C 185.261 233.338 173.964 212.293 179.967 192.374 L 179.967 192.374 Z " fill-rule="evenodd" stroke-width="5.679" stroke="rgb(255,255,255)" stroke-linejoin="miter" stroke-linecap="square" stroke-miterlimit="3"/>
<path d=" M 393.708 247.484 C 395.404 245.194 397.299 243.089 399.358 241.185 L 392.948 227.707 L 417.325 216.114 L 423.687 229.49 L 423.687 229.49 C 426.401 229.08 429.166 228.914 431.952 229.005 L 436.85 215.082 L 436.85 215.082 L 462.314 224.039 L 457.469 237.812 C 459.843 239.549 462.021 241.499 463.986 243.623 L 477.134 237.37 L 488.727 261.747 L 475.681 267.952 L 475.681 267.952 C 476.103 270.753 476.267 273.609 476.156 276.486 L 489.76 281.271 L 489.76 281.271 L 480.802 306.736 L 467.198 301.95 C 465.424 304.344 463.434 306.536 461.266 308.508 L 467.471 321.555 L 467.471 321.555 L 443.094 333.149 L 436.841 320 C 434.073 320.394 431.253 320.535 428.414 320.409 L 423.57 334.181 L 398.105 325.224 L 403.003 311.301 L 403.003 311.301 C 400.694 309.568 398.575 307.633 396.663 305.531 L 383.286 311.893 L 383.286 311.893 L 371.692 287.516 L 385.17 281.106 C 384.789 278.425 384.644 275.696 384.75 272.948 L 370.66 267.991 L 379.617 242.527 L 393.708 247.484 L 393.708 247.484 Z  M 412.757 268.227 C 416.209 258.415 426.977 253.251 436.79 256.703 C 446.602 260.154 451.766 270.923 448.315 280.735 C 444.863 290.548 434.094 295.712 424.282 292.26 C 414.469 288.809 409.305 278.04 412.757 268.227 L 412.757 268.227 Z " fill-rule="evenodd" stroke-width="5.679" stroke="rgb(255,255,255)" stroke-linejoin="miter" stroke-linecap="square" stroke-miterlimit="3"/>
</svg>