<?xml version="1.0" encoding="UTF-8" standalone="no"?><!-- Generator: Gravit.io --><svg xmlns="http://www.w3.org/2000/svg" xmlns:xlink="http://www.w3.org/1999/xlink" style="isolation:isolate" viewBox="0 0 800 600" width="800pt" height="600pt"><defs><clipPath id="_clipPath_CEVDlfSGHXNrqylni7YpXTMR4xQYeRGD"><rect width="800" height="600"/></clipPath></defs><g clip-path="url(#_clipPath_CEVDlfSGHXNrqylni7YpXTMR4xQYeRGD)"><g style="isolation:isolate"><defs><filter id="8qs6QjySeoLEqUfoHqBXcSu8MlfChvIu" x="-200%" y="-200%" width="400%" height="400%" filterUnits="objectBoundingBox" color-interpolation-filters="sRGB"><feGaussianBlur xmlns="http://www.w3.org/2000/svg" in="SourceGraphic" stdDeviation="8.587218125678056"/><feOffset xmlns="http://www.w3.org/2000/svg" dx="0" dy="2" result="pf_100_offsetBlur"/><feFlood xmlns="http://www.w3.org/2000/svg" flood-color="#000000" flood-opacity="0.15"/><feComposite xmlns="http://www.w3.org/2000/svg" in2="pf_100_offsetBlur" operator="in" result="pf_100_dropShadow"/><feBlend xmlns="http://www.w3.org/2000/svg" in="SourceGraphic" in2="pf_100_dropShadow" mode="normal"/></filter></defs><g filter="url(#8qs6QjySeoLEqUfoHqBXcSu8MlfChvIu)"><path d=" M 380.976 270.005 L 501.333 200.676 Q 563.393 166.324 621.691 200.676 L 742.048 270.005 Q 763.487 302.565 742.048 339.333 L 621.691 408.662 Q 561.888 448.365 501.333 408.662 L 380.976 339.333 Q 355.024 304.981 380.976 270.005 Z " fill="rgb(139,209,234)"/></g><defs><filter id="epADSYiXlVhpm7dNrYhhnNsQYXi4UNmC" x="-200%" y="-200%" width="400%" height="400%" filterUnits="objectBoundingBox" color-interpolation-filters="sRGB"><feGaussianBlur xmlns="http://www.w3.org/2000/svg" in="SourceGraphic" stdDeviation="8.587218125678056"/><feOffset xmlns="http://www.w3.org/2000/svg" dx="0" dy="2" result="pf_100_offsetBlur"/><feFlood xmlns="http://www.w3.org/2000/svg" flood-color="#000000" flood-opacity="0.15"/><feComposite xmlns="http://www.w3.org/2000/svg" in2="pf_100_offsetBlur" operator="in" result="pf_100_dropShadow"/><feBlend xmlns="http://www.w3.org/2000/svg" in="SourceGraphic" in2="pf_100_dropShadow" mode="normal"/></filter></defs><g filter="url(#epADSYiXlVhpm7dNrYhhnNsQYXi4UNmC)"><path d=" M 101.976 420.005 L 222.333 350.676 Q 284.393 316.324 342.691 350.676 L 463.048 420.005 Q 484.487 452.565 463.048 489.333 L 342.691 558.662 Q 282.888 598.365 222.333 558.662 L 101.976 489.333 Q 76.024 454.981 101.976 420.005 Z " fill="rgb(139,209,234)"/></g></g><g style="isolation:isolate"><g style="isolation:isolate"><linearGradient id="_lgradient_0" x1="0.2623749999999998" y1="0.7686172282542298" x2="0.7367500000000001" y2="0.26952088333459606" gradientTransform="matrix(122.344,0,0,42.076,143,412.001)" gradientUnits="userSpaceOnUse"><stop offset="1.7391304347826086%" stop-opacity="1" style="stop-color:rgb(0,100,136)"/><stop offset="97.3913043478261%" stop-opacity="1" style="stop-color:rgb(60,178,221)"/></linearGradient><ellipse vector-effect="non-scaling-stroke" cx="204.1721489080172" cy="433.03902689412286" rx="61.172148908017476" ry="21.03809700836632" fill="url(#_lgradient_0)"/><path d=" M 143 432.288 L 143 460.839 Q 146.748 479.436 204.172 481.877 Q 262.046 479.06 265.344 460.839 L 265.344 432.288 Q 264.895 449.945 204.172 453.326 Q 147.348 451.072 143 432.288 Z " fill="rgb(26,135,174)"/><linearGradient id="_lgradient_1" x1="0.2623749999999998" y1="0.7686172282542298" x2="0.7367500000000001" y2="0.26952088333459606" gradientTransform="matrix(122.344,0,0,42.076,143,366.168)" gradientUnits="userSpaceOnUse"><stop offset="1.7391304347826086%" stop-opacity="1" style="stop-color:rgb(0,100,136)"/><stop offset="97.3913043478261%" stop-opacity="1" style="stop-color:rgb(60,178,221)"/></linearGradient><ellipse vector-effect="non-scaling-stroke" cx="204.1721489080172" cy="387.2060298401823" rx="61.172148908017476" ry="21.03809700836632" fill="url(#_lgradient_1)"/><defs><filter id="O1zCJXWXMlBrTdX4pBm9oYqTYdqzuzr3" x="-200%" y="-200%" width="400%" height="400%" filterUnits="objectBoundingBox" color-interpolation-filters="sRGB"><feGaussianBlur xmlns="http://www.w3.org/2000/svg" in="SourceGraphic" stdDeviation="8.587218125678056"/><feOffset xmlns="http://www.w3.org/2000/svg" dx="0" dy="10" result="pf_100_offsetBlur"/><feFlood xmlns="http://www.w3.org/2000/svg" flood-color="#00CCFF" flood-opacity="1"/><feComposite xmlns="http://www.w3.org/2000/svg" in2="pf_100_offsetBlur" operator="in" result="pf_100_dropShadow"/><feBlend xmlns="http://www.w3.org/2000/svg" in="SourceGraphic" in2="pf_100_dropShadow" mode="normal"/></filter></defs><g filter="url(#O1zCJXWXMlBrTdX4pBm9oYqTYdqzuzr3)"><ellipse vector-effect="non-scaling-stroke" cx="204.06137482670167" cy="377.31130103227474" rx="46.69399251453663" ry="10.143368200460941" fill="rgb(8,91,121)"/></g><defs><filter id="vJO810eHe9bPPEXZwTYdbZQ1LMSIpfIb" x="-200%" y="-200%" width="400%" height="400%" filterUnits="objectBoundingBox" color-interpolation-filters="sRGB"><feGaussianBlur xmlns="http://www.w3.org/2000/svg" in="SourceGraphic" stdDeviation="8.587218125678056"/><feOffset xmlns="http://www.w3.org/2000/svg" dx="0" dy="10" result="pf_100_offsetBlur"/><feFlood xmlns="http://www.w3.org/2000/svg" flood-color="#00CCFF" flood-opacity="1"/><feComposite xmlns="http://www.w3.org/2000/svg" in2="pf_100_offsetBlur" operator="in" result="pf_100_dropShadow"/><feBlend xmlns="http://www.w3.org/2000/svg" in="SourceGraphic" in2="pf_100_dropShadow" mode="normal"/></filter></defs><g filter="url(#vJO810eHe9bPPEXZwTYdbZQ1LMSIpfIb)"><ellipse vector-effect="non-scaling-stroke" cx="204.06137482670167" cy="424.3113010322749" rx="46.69399251453663" ry="10.143368200460941" fill="rgb(8,91,121)"/></g><path d=" M 143 386.455 L 143 415.006 Q 146.748 433.603 204.172 436.044 Q 262.046 433.227 265.344 415.006 L 265.344 386.455 Q 264.895 404.112 204.172 407.493 Q 147.348 405.239 143 386.455 Z " fill="rgb(26,135,174)"/><linearGradient id="_lgradient_2" x1="0.2623749999999998" y1="0.7686172282542298" x2="0.7367500000000001" y2="0.26952088333459606" gradientTransform="matrix(122.344,0,0,42.076,143,320.335)" gradientUnits="userSpaceOnUse"><stop offset="1.7391304347826086%" stop-opacity="1" style="stop-color:rgb(0,100,136)"/><stop offset="97.3913043478261%" stop-opacity="1" style="stop-color:rgb(60,178,221)"/></linearGradient><ellipse vector-effect="non-scaling-stroke" cx="204.1721489080172" cy="341.3730327862401" rx="61.172148908017476" ry="21.03809700836632" fill="url(#_lgradient_2)"/><path d=" M 143 340.622 L 143 369.173 Q 146.748 387.77 204.172 390.211 Q 262.046 387.394 265.344 369.173 L 265.344 340.622 Q 264.895 358.279 204.172 361.66 Q 147.348 359.406 143 340.622 Z " fill="rgb(26,135,174)"/><path d=" M 185.88 331.274 L 185.88 339.811 Q 187.001 345.372 204.172 346.102 Q 221.478 345.26 222.464 339.811 L 222.464 331.274 Q 222.329 336.554 204.172 337.565 Q 187.181 336.891 185.88 331.274 Z " fill="rgb(8,91,121)"/><linearGradient id="_lgradient_3" x1="0.2623749999999998" y1="0.7686172282542298" x2="0.7367500000000001" y2="0.26952088333459606" gradientTransform="matrix(36.283,0,0,12.478,186.03,325.786)" gradientUnits="userSpaceOnUse"><stop offset="1.7391304347826086%" stop-opacity="1" style="stop-color:rgb(0,100,136)"/><stop offset="97.3913043478261%" stop-opacity="1" style="stop-color:rgb(60,178,221)"/></linearGradient><ellipse vector-effect="non-scaling-stroke" cx="204.17214890801756" cy="332.02521223767025" rx="18.14174023987769" ry="6.239239553951734" fill="url(#_lgradient_3)"/></g><g style="isolation:isolate"><linearGradient id="_lgradient_4" x1="0.2623749999999998" y1="0.7686172282542298" x2="0.7367500000000001" y2="0.26952088333459606" gradientTransform="matrix(122.344,0,0,42.076,307.656,414.001)" gradientUnits="userSpaceOnUse"><stop offset="1.7391304347826086%" stop-opacity="1" style="stop-color:rgb(0,100,136)"/><stop offset="97.3913043478261%" stop-opacity="1" style="stop-color:rgb(60,178,221)"/></linearGradient><ellipse vector-effect="non-scaling-stroke" cx="368.82785109198227" cy="435.0390268941224" rx="61.172148908017505" ry="21.03809700836632" fill="url(#_lgradient_4)"/><defs><filter id="BRy7Vc6Txidjq7FxEXmnUrSyW7Z4mpDF" x="-200%" y="-200%" width="400%" height="400%" filterUnits="objectBoundingBox" color-interpolation-filters="sRGB"><feGaussianBlur xmlns="http://www.w3.org/2000/svg" in="SourceGraphic" stdDeviation="8.587218125678056"/><feOffset xmlns="http://www.w3.org/2000/svg" dx="0" dy="10" result="pf_100_offsetBlur"/><feFlood xmlns="http://www.w3.org/2000/svg" flood-color="#00CCFF" flood-opacity="1"/><feComposite xmlns="http://www.w3.org/2000/svg" in2="pf_100_offsetBlur" operator="in" result="pf_100_dropShadow"/><feBlend xmlns="http://www.w3.org/2000/svg" in="SourceGraphic" in2="pf_100_dropShadow" mode="normal"/></filter></defs><g filter="url(#BRy7Vc6Txidjq7FxEXmnUrSyW7Z4mpDF)"><ellipse vector-effect="non-scaling-stroke" cx="368.7170770106665" cy="424.3113010322746" rx="46.6939925145366" ry="10.143368200460941" fill="rgb(8,91,121)"/></g><path d=" M 307.656 434.288 L 307.656 462.839 Q 311.404 481.436 368.828 483.877 Q 426.702 481.06 430 462.839 L 430 434.288 Q 429.55 451.945 368.828 455.326 Q 312.004 453.072 307.656 434.288 Z " fill="rgb(26,135,174)"/><linearGradient id="_lgradient_5" x1="0.2623749999999998" y1="0.7686172282542298" x2="0.7367500000000001" y2="0.26952088333459606" gradientTransform="matrix(122.344,0,0,42.076,307.656,368.168)" gradientUnits="userSpaceOnUse"><stop offset="1.7391304347826086%" stop-opacity="1" style="stop-color:rgb(0,100,136)"/><stop offset="97.3913043478261%" stop-opacity="1" style="stop-color:rgb(60,178,221)"/></linearGradient><ellipse vector-effect="non-scaling-stroke" cx="368.82785109198227" cy="389.20602984018194" rx="61.172148908017505" ry="21.03809700836632" fill="url(#_lgradient_5)"/><defs><filter id="u9G0FcyF0ktvmzlJguzV7Gf5D9jA5nqa" x="-200%" y="-200%" width="400%" height="400%" filterUnits="objectBoundingBox" color-interpolation-filters="sRGB"><feGaussianBlur xmlns="http://www.w3.org/2000/svg" in="SourceGraphic" stdDeviation="8.587218125678056"/><feOffset xmlns="http://www.w3.org/2000/svg" dx="0" dy="10" result="pf_100_offsetBlur"/><feFlood xmlns="http://www.w3.org/2000/svg" flood-color="#00CCFF" flood-opacity="1"/><feComposite xmlns="http://www.w3.org/2000/svg" in2="pf_100_offsetBlur" operator="in" result="pf_100_dropShadow"/><feBlend xmlns="http://www.w3.org/2000/svg" in="SourceGraphic" in2="pf_100_dropShadow" mode="normal"/></filter></defs><g filter="url(#u9G0FcyF0ktvmzlJguzV7Gf5D9jA5nqa)"><ellipse vector-effect="non-scaling-stroke" cx="368.7170770106665" cy="377.31130103227446" rx="46.6939925145366" ry="10.143368200460941" fill="rgb(8,91,121)"/></g><path d=" M 307.656 388.455 L 307.656 417.006 Q 311.404 435.603 368.828 438.044 Q 426.702 435.227 430 417.006 L 430 388.455 Q 429.55 406.112 368.828 409.493 Q 312.004 407.239 307.656 388.455 Z " fill="rgb(26,135,174)"/><linearGradient id="_lgradient_6" x1="0.2623749999999998" y1="0.7686172282542298" x2="0.7367500000000001" y2="0.26952088333459606" gradientTransform="matrix(122.344,0,0,42.076,307.656,322.335)" gradientUnits="userSpaceOnUse"><stop offset="1.7391304347826086%" stop-opacity="1" style="stop-color:rgb(0,100,136)"/><stop offset="97.3913043478261%" stop-opacity="1" style="stop-color:rgb(60,178,221)"/></linearGradient><ellipse vector-effect="non-scaling-stroke" cx="368.82785109198227" cy="343.37303278623955" rx="61.172148908017505" ry="21.03809700836632" fill="url(#_lgradient_6)"/><path d=" M 307.656 342.622 L 307.656 371.173 Q 311.404 389.77 368.828 392.211 Q 426.702 389.394 430 371.173 L 430 342.622 Q 429.55 360.279 368.828 363.66 Q 312.004 361.406 307.656 342.622 Z " fill="rgb(26,135,174)"/><path d=" M 350.536 333.274 L 350.536 341.811 Q 351.657 347.372 368.828 348.102 Q 386.133 347.26 387.12 341.811 L 387.12 333.274 Q 386.985 338.554 368.828 339.565 Q 351.836 338.891 350.536 333.274 Z " fill="rgb(8,91,121)"/><linearGradient id="_lgradient_7" x1="0.2623749999999998" y1="0.7686172282542298" x2="0.7367500000000001" y2="0.26952088333459606" gradientTransform="matrix(36.283,0,0,12.478,350.686,327.786)" gradientUnits="userSpaceOnUse"><stop offset="1.7391304347826086%" stop-opacity="1" style="stop-color:rgb(0,100,136)"/><stop offset="97.3913043478261%" stop-opacity="1" style="stop-color:rgb(60,178,221)"/></linearGradient><ellipse vector-effect="non-scaling-stroke" cx="368.8278510919826" cy="334.025212237671" rx="18.141740239877663" ry="6.239239553951734" fill="url(#_lgradient_7)"/></g><g style="isolation:isolate"><linearGradient id="_lgradient_8" x1="0.2623749999999998" y1="0.7686172282542298" x2="0.7367500000000001" y2="0.26952088333459606" gradientTransform="matrix(122.344,0,0,42.076,217.656,475.001)" gradientUnits="userSpaceOnUse"><stop offset="1.7391304347826086%" stop-opacity="1" style="stop-color:rgb(0,100,136)"/><stop offset="97.3913043478261%" stop-opacity="1" style="stop-color:rgb(60,178,221)"/></linearGradient><ellipse vector-effect="non-scaling-stroke" cx="278.82785109198227" cy="496.03902689412257" rx="61.17214890801749" ry="21.03809700836632" fill="url(#_lgradient_8)"/><defs><filter id="Y80H2IVeyYsELjI950eAfl1PKBjCMAHQ" x="-200%" y="-200%" width="400%" height="400%" filterUnits="objectBoundingBox" color-interpolation-filters="sRGB"><feGaussianBlur xmlns="http://www.w3.org/2000/svg" in="SourceGraphic" stdDeviation="8.587218125678056"/><feOffset xmlns="http://www.w3.org/2000/svg" dx="0" dy="10" result="pf_100_offsetBlur"/><feFlood xmlns="http://www.w3.org/2000/svg" flood-color="#00CCFF" flood-opacity="1"/><feComposite xmlns="http://www.w3.org/2000/svg" in2="pf_100_offsetBlur" operator="in" result="pf_100_dropShadow"/><feBlend xmlns="http://www.w3.org/2000/svg" in="SourceGraphic" in2="pf_100_dropShadow" mode="normal"/></filter></defs><g filter="url(#Y80H2IVeyYsELjI950eAfl1PKBjCMAHQ)"><ellipse vector-effect="non-scaling-stroke" cx="278.7170770106665" cy="485.31130103227474" rx="46.69399251453662" ry="10.143368200460941" fill="rgb(8,91,121)"/></g><path d=" M 217.656 495.288 L 217.656 523.839 Q 221.404 542.436 278.828 544.877 Q 336.702 542.06 340 523.839 L 340 495.288 Q 339.55 512.945 278.828 516.326 Q 222.004 514.072 217.656 495.288 Z " fill="rgb(26,135,174)"/><linearGradient id="_lgradient_9" x1="0.2623749999999998" y1="0.7686172282542298" x2="0.7367500000000001" y2="0.26952088333459606" gradientTransform="matrix(122.344,0,0,42.076,217.656,429.168)" gradientUnits="userSpaceOnUse"><stop offset="1.7391304347826086%" stop-opacity="1" style="stop-color:rgb(0,100,136)"/><stop offset="97.3913043478261%" stop-opacity="1" style="stop-color:rgb(60,178,221)"/></linearGradient><ellipse vector-effect="non-scaling-stroke" cx="278.82785109198227" cy="450.2060298401821" rx="61.17214890801749" ry="21.03809700836632" fill="url(#_lgradient_9)"/><defs><filter id="d6jwLQ6nQidq7mjmuTwaekAGz4ow46GB" x="-200%" y="-200%" width="400%" height="400%" filterUnits="objectBoundingBox" color-interpolation-filters="sRGB"><feGaussianBlur xmlns="http://www.w3.org/2000/svg" in="SourceGraphic" stdDeviation="8.587218125678056"/><feOffset xmlns="http://www.w3.org/2000/svg" dx="0" dy="10" result="pf_100_offsetBlur"/><feFlood xmlns="http://www.w3.org/2000/svg" flood-color="#00CCFF" flood-opacity="1"/><feComposite xmlns="http://www.w3.org/2000/svg" in2="pf_100_offsetBlur" operator="in" result="pf_100_dropShadow"/><feBlend xmlns="http://www.w3.org/2000/svg" in="SourceGraphic" in2="pf_100_dropShadow" mode="normal"/></filter></defs><g filter="url(#d6jwLQ6nQidq7mjmuTwaekAGz4ow46GB)"><ellipse vector-effect="non-scaling-stroke" cx="278.7170770106665" cy="438.31130103227457" rx="46.69399251453662" ry="10.143368200460941" fill="rgb(8,91,121)"/></g><path d=" M 217.656 449.455 L 217.656 478.006 Q 221.404 496.603 278.828 499.044 Q 336.702 496.227 340 478.006 L 340 449.455 Q 339.55 467.112 278.828 470.493 Q 222.004 468.239 217.656 449.455 Z " fill="rgb(26,135,174)"/><linearGradient id="_lgradient_10" x1="0.2623749999999998" y1="0.7686172282542298" x2="0.7367500000000001" y2="0.26952088333459606" gradientTransform="matrix(122.344,0,0,42.076,217.656,383.335)" gradientUnits="userSpaceOnUse"><stop offset="1.7391304347826086%" stop-opacity="1" style="stop-color:rgb(0,100,136)"/><stop offset="97.3913043478261%" stop-opacity="1" style="stop-color:rgb(60,178,221)"/></linearGradient><ellipse vector-effect="non-scaling-stroke" cx="278.82785109198227" cy="404.3730327862397" rx="61.17214890801749" ry="21.03809700836632" fill="url(#_lgradient_10)"/><path d=" M 217.656 403.622 L 217.656 432.173 Q 221.404 450.77 278.828 453.211 Q 336.702 450.394 340 432.173 L 340 403.622 Q 339.55 421.279 278.828 424.66 Q 222.004 422.406 217.656 403.622 Z " fill="rgb(26,135,174)"/><path d=" M 260.536 394.274 L 260.536 402.811 Q 261.657 408.372 278.828 409.102 Q 296.133 408.26 297.12 402.811 L 297.12 394.274 Q 296.985 399.554 278.828 400.565 Q 261.836 399.891 260.536 394.274 Z " fill="rgb(8,91,121)"/><linearGradient id="_lgradient_11" x1="0.2623749999999998" y1="0.7686172282542298" x2="0.7367500000000001" y2="0.26952088333459606" gradientTransform="matrix(36.283,0,0,12.478,260.686,388.786)" gradientUnits="userSpaceOnUse"><stop offset="1.7391304347826086%" stop-opacity="1" style="stop-color:rgb(0,100,136)"/><stop offset="97.3913043478261%" stop-opacity="1" style="stop-color:rgb(60,178,221)"/></linearGradient><ellipse vector-effect="non-scaling-stroke" cx="278.82785109198267" cy="395.02521223767076" rx="18.141740239877663" ry="6.239239553951734" fill="url(#_lgradient_11)"/></g></g><g style="isolation:isolate"><g style="isolation:isolate"><g style="isolation:isolate"><radialGradient id="_rgradient_0" fx="0.5" fy="0.5" cx="0.5" cy="0.5" r="0.5" gradientTransform="matrix(145.584,0,0,84.053,489.184,202.745)" gradientUnits="userSpaceOnUse"><stop offset="1.7391304347826086%" stop-opacity="1" style="stop-color:rgb(0,213,255)"/><stop offset="100%" stop-opacity="1" style="stop-color:rgb(0,94,117)"/></radialGradient><path d=" M 489.184 244.771 L 561.976 202.745 L 634.767 244.771 L 561.976 286.797 L 489.184 244.771 Z " fill="url(#_rgradient_0)"/><path d=" M 634.767 244.771 L 634.767 248.974 L 561.976 291 L 561.976 286.797 L 634.767 244.771 Z " fill="rgb(0,97,119)"/><path d=" M 489.184 244.771 L 489.184 248.974 L 561.976 291 L 561.976 286.797 L 489.184 244.771 Z " fill="rgb(0,97,119)"/></g><g style="isolation:isolate"><linearGradient id="_lgradient_12" x1="0.2623749999999998" y1="0.7686172282542298" x2="0.7367500000000001" y2="0.26952088333459606" gradientTransform="matrix(72.792,0,0,210.132,559.792,62.026)" gradientUnits="userSpaceOnUse"><stop offset="1.7391304347826086%" stop-opacity="1" style="stop-color:rgb(0,84,115)"/><stop offset="97.82608695652173%" stop-opacity="1" style="stop-color:rgb(27,143,185)"/></linearGradient><path d=" M 632.584 230.132 L 559.792 272.158 L 559.792 104.053 L 632.584 62.026 L 632.584 230.132 Z " fill="url(#_lgradient_12)"/><linearGradient id="_lgradient_13" x1="0.2623749999999998" y1="0.7686172282542298" x2="0.7367500000000001" y2="0.26952088333459606" gradientTransform="matrix(145.584,0,0,84.053,487,20)" gradientUnits="userSpaceOnUse"><stop offset="1.7391304347826086%" stop-opacity="1" style="stop-color:rgb(0,100,136)"/><stop offset="97.3913043478261%" stop-opacity="1" style="stop-color:rgb(60,178,221)"/></linearGradient><path d=" M 487 62.026 L 559.792 20 L 632.584 62.026 L 559.792 104.053 L 487 62.026 Z " fill="url(#_lgradient_13)"/><path d=" M 487 230.132 L 559.792 272.158 L 559.792 104.053 L 487 62.026 L 487 230.132 Z " fill="rgb(8,91,121)"/></g><g style="isolation:isolate"><linearGradient id="_lgradient_14" x1="0.2623749999999998" y1="0.7686172282542298" x2="0.7367500000000001" y2="0.26952088333459606" gradientTransform="matrix(43.675,0,0,159.7,578.718,90.291)" gradientUnits="userSpaceOnUse"><stop offset="1.7391304347826086%" stop-opacity="1" style="stop-color:rgb(0,84,115)"/><stop offset="97.82608695652173%" stop-opacity="1" style="stop-color:rgb(27,143,185)"/></linearGradient><path d=" M 578.718 115.507 L 622.393 90.291 L 622.393 224.775 L 578.718 249.991 L 578.718 115.507 Z " fill="url(#_lgradient_14)"/><path d=" M 578.718 249.991 L 575.078 247.89 L 575.078 113.405 L 578.718 115.507 L 578.718 249.991 Z " fill="rgb(0,59,81)"/><linearGradient id="_lgradient_15" x1="0" y1="0.5" x2="1.038461538461538" y2="-0.40442888750692896" gradientTransform="matrix(47.315,0,0,27.317,575.078,88.189)" gradientUnits="userSpaceOnUse"><stop offset="0%" stop-opacity="1" style="stop-color:rgb(0,59,81)"/><stop offset="97.82608695652173%" stop-opacity="1" style="stop-color:rgb(14,92,121)"/></linearGradient><path d=" M 575.078 113.405 L 578.718 115.507 L 622.393 90.291 L 618.753 88.189 L 575.078 113.405 Z " fill="url(#_lgradient_15)"/><path d=" M 585.997 124.42 L 585.997 162.244 L 615.114 145.434 L 615.114 107.61 L 585.997 124.42 Z " fill="rgb(0,45,62)"/></g><g style="isolation:isolate"><path d=" M 588.909 127.587 L 591.82 125.906 L 591.82 127.587 L 588.909 129.269 L 588.909 127.587 Z " fill="rgb(94,179,210)"/><path d=" M 593.276 125.066 L 596.188 123.385 L 596.188 125.066 L 593.276 126.747 L 593.276 125.066 Z " fill="rgb(94,179,210)"/><path d=" M 597.644 129.269 L 600.555 127.587 L 600.555 129.269 L 597.644 130.95 L 597.644 129.269 Z " fill="rgb(94,179,210)"/><path d=" M 602.011 126.747 L 607.834 123.385 L 607.834 125.066 L 602.011 128.428 L 602.011 126.747 Z " fill="rgb(94,179,210)"/><path d=" M 588.909 141.036 L 594.732 137.674 L 594.732 139.355 L 588.909 142.717 L 588.909 141.036 Z " fill="rgb(94,179,210)"/><path d=" M 591.82 135.993 L 597.644 132.631 L 597.644 134.312 L 591.82 137.674 L 591.82 135.993 Z " fill="rgb(94,179,210)"/><path d=" M 588.909 130.95 L 593.276 128.428 L 593.276 130.109 L 588.909 132.631 L 588.909 130.95 Z " fill="rgb(94,179,210)"/><path d=" M 594.732 127.587 L 599.099 125.066 L 599.099 126.747 L 594.732 129.269 L 594.732 127.587 Z " fill="rgb(94,179,210)"/><path d=" M 588.909 134.424 L 593.276 131.903 L 593.276 133.584 L 588.909 136.105 L 588.909 134.424 Z " fill="rgb(94,179,210)"/><path d=" M 594.732 130.95 L 596.188 130.109 L 596.188 131.79 L 594.732 132.631 L 594.732 130.95 Z " fill="rgb(94,179,210)"/><path d=" M 588.909 137.786 L 590.364 136.946 L 590.364 138.627 L 588.909 139.467 L 588.909 137.786 Z " fill="rgb(94,179,210)"/><path d=" M 588.909 144.398 L 591.82 142.717 L 591.82 144.398 L 588.909 146.079 L 588.909 144.398 Z " fill="rgb(94,179,210)"/><path d=" M 593.276 141.876 L 594.732 141.036 L 594.732 142.717 L 593.276 143.557 L 593.276 141.876 Z " fill="rgb(94,179,210)"/><path d=" M 596.188 140.195 L 596.188 141.876 L 599.099 140.195 L 599.099 138.514 L 596.188 140.195 Z " fill="rgb(94,179,210)"/><path d=" M 600.555 137.674 L 604.923 135.152 L 604.923 136.833 L 600.555 139.355 L 600.555 137.674 Z " fill="rgb(94,179,210)"/><path d=" M 606.379 134.312 L 609.29 132.631 L 609.29 134.312 L 606.379 135.993 L 606.379 134.312 Z " fill="rgb(94,179,210)"/><path d=" M 588.909 147.76 L 588.909 149.441 L 593.276 146.92 L 593.276 145.239 L 588.909 147.76 Z " fill="rgb(94,179,210)"/><path d=" M 588.909 151.122 L 590.364 150.282 L 590.364 151.963 L 588.909 152.803 L 588.909 151.122 Z " fill="rgb(94,179,210)"/><path d=" M 588.909 154.484 L 596.188 150.282 L 596.188 151.963 L 588.909 156.165 L 588.909 154.484 Z " fill="rgb(94,179,210)"/><path d=" M 591.82 149.441 L 594.732 147.76 L 594.732 149.441 L 591.82 151.122 L 591.82 149.441 Z " fill="rgb(94,179,210)"/><path d=" M 597.644 149.441 L 600.555 147.76 L 600.555 149.441 L 597.644 151.122 L 597.644 149.441 Z " fill="rgb(94,179,210)"/><path d=" M 602.011 146.92 L 603.467 146.079 L 603.467 147.76 L 602.011 148.601 L 602.011 146.92 Z " fill="rgb(94,179,210)"/><path d=" M 594.732 144.398 L 597.644 142.717 L 597.644 144.398 L 594.732 146.079 L 594.732 144.398 Z " fill="rgb(94,179,210)"/><path d=" M 599.099 141.876 L 603.467 139.355 L 603.467 141.036 L 599.099 143.557 L 599.099 141.876 Z " fill="rgb(94,179,210)"/></g><g style="isolation:isolate"><g style="isolation:isolate"><path d=" M 492.095 81.093 L 492.095 94.542 L 553.241 129.844 L 553.241 116.396 L 492.095 81.093 Z " fill="rgb(20,127,165)"/><path d=" M 495.007 87.818 L 527.763 106.73 L 527.763 110.932 L 495.007 92.02 L 495.007 87.818 Z " fill="rgb(230,116,255)"/><path d=" M 531.403 108.831 L 535.043 110.932 L 535.043 115.135 L 531.403 113.033 L 531.403 108.831 Z " fill="rgb(0,210,56)"/><path d=" M 538.682 113.033 L 542.322 115.135 L 542.322 119.337 L 538.682 117.236 L 538.682 113.033 Z " fill="rgb(0,210,56)"/><path d=" M 545.961 117.236 L 549.601 119.337 L 549.601 123.54 L 545.961 121.439 L 545.961 117.236 Z " fill="rgb(229,255,113)"/><path d=" M 553.241 129.844 L 554.696 129.003 L 554.696 115.555 L 553.241 116.396 L 553.241 129.844 Z " fill="rgb(0,59,81)"/><path d=" M 554.696 115.555 L 493.551 80.253 L 492.095 81.093 L 553.241 116.396 L 554.696 115.555 Z " fill="rgb(0,59,81)"/></g><g style="isolation:isolate"><path d=" M 492.095 102.931 L 492.095 116.379 L 553.241 151.682 L 553.241 138.233 L 492.095 102.931 Z " fill="rgb(20,127,165)"/><path d=" M 495.007 109.655 L 527.763 128.567 L 527.763 132.77 L 495.007 113.858 L 495.007 109.655 Z " fill="rgb(230,116,255)"/><path d=" M 531.403 130.668 L 535.043 132.77 L 535.043 136.972 L 531.403 134.871 L 531.403 130.668 Z " fill="rgb(0,210,56)"/><path d=" M 538.682 134.871 L 542.322 136.972 L 542.322 141.175 L 538.682 139.074 L 538.682 134.871 Z " fill="rgb(0,210,56)"/><path d=" M 545.961 139.074 L 549.601 141.175 L 549.601 145.378 L 545.961 143.276 L 545.961 139.074 Z " fill="rgb(0,210,56)"/><path d=" M 553.241 151.682 L 554.696 150.841 L 554.696 137.393 L 553.241 138.233 L 553.241 151.682 Z " fill="rgb(0,59,81)"/><path d=" M 554.696 137.393 L 493.551 102.09 L 492.095 102.931 L 553.241 138.233 L 554.696 137.393 Z " fill="rgb(0,59,81)"/></g><g style="isolation:isolate"><path d=" M 492.095 124.768 L 492.095 138.217 L 553.241 173.519 L 553.241 160.071 L 492.095 124.768 Z " fill="rgb(20,127,165)"/><path d=" M 495.007 131.493 L 527.763 150.405 L 527.763 154.607 L 495.007 135.695 L 495.007 131.493 Z " fill="rgb(230,116,255)"/><path d=" M 531.403 152.506 L 535.043 154.607 L 535.043 158.81 L 531.403 156.709 L 531.403 152.506 Z " fill="rgb(0,210,56)"/><path d=" M 538.682 156.709 L 542.322 158.81 L 542.322 163.012 L 538.682 160.911 L 538.682 156.709 Z " fill="rgb(229,255,113)"/><path d=" M 545.961 160.911 L 549.601 163.012 L 549.601 167.215 L 545.961 165.114 L 545.961 160.911 Z " fill="rgb(229,255,113)"/><path d=" M 553.241 173.519 L 554.696 172.679 L 554.696 159.23 L 553.241 160.071 L 553.241 173.519 Z " fill="rgb(0,59,81)"/><path d=" M 554.696 159.23 L 493.551 123.928 L 492.095 124.768 L 553.241 160.071 L 554.696 159.23 Z " fill="rgb(0,59,81)"/></g><g style="isolation:isolate"><path d=" M 492.095 146.606 L 492.095 160.054 L 553.241 195.357 L 553.241 181.908 L 492.095 146.606 Z " fill="rgb(20,127,165)"/><path d=" M 495.007 153.33 L 527.763 172.242 L 527.763 176.445 L 495.007 157.533 L 495.007 153.33 Z " fill="rgb(230,116,255)"/><path d=" M 531.403 174.343 L 535.043 176.445 L 535.043 180.647 L 531.403 178.546 L 531.403 174.343 Z " fill="rgb(229,255,113)"/><path d=" M 538.682 178.546 L 542.322 180.647 L 542.322 184.85 L 538.682 182.749 L 538.682 178.546 Z " fill="rgb(0,210,56)"/><path d=" M 545.961 182.749 L 549.601 184.85 L 549.601 189.053 L 545.961 186.951 L 545.961 182.749 Z " fill="rgb(229,255,113)"/><path d=" M 553.241 195.357 L 554.696 194.516 L 554.696 181.068 L 553.241 181.908 L 553.241 195.357 Z " fill="rgb(0,59,81)"/><path d=" M 554.696 181.068 L 493.551 145.766 L 492.095 146.606 L 553.241 181.908 L 554.696 181.068 Z " fill="rgb(0,59,81)"/></g><g style="isolation:isolate"><path d=" M 492.095 168.444 L 492.095 181.892 L 553.241 217.194 L 553.241 203.746 L 492.095 168.444 Z " fill="rgb(20,127,165)"/><path d=" M 495.007 175.168 L 527.763 194.08 L 527.763 198.282 L 495.007 179.37 L 495.007 175.168 Z " fill="rgb(230,116,255)"/><path d=" M 531.403 196.181 L 535.043 198.282 L 535.043 202.485 L 531.403 200.384 L 531.403 196.181 Z " fill="rgb(0,210,56)"/><path d=" M 538.682 200.384 L 542.322 202.485 L 542.322 206.688 L 538.682 204.586 L 538.682 200.384 Z " fill="rgb(0,210,56)"/><path d=" M 545.961 204.586 L 549.601 206.688 L 549.601 210.89 L 545.961 208.789 L 545.961 204.586 Z " fill="rgb(229,255,113)"/><path d=" M 553.241 217.194 L 554.696 216.354 L 554.696 202.905 L 553.241 203.746 L 553.241 217.194 Z " fill="rgb(0,59,81)"/><path d=" M 554.696 202.905 L 493.551 167.603 L 492.095 168.444 L 553.241 203.746 L 554.696 202.905 Z " fill="rgb(0,59,81)"/></g><g style="isolation:isolate"><path d=" M 492.095 190.281 L 492.095 203.73 L 553.241 239.032 L 553.241 225.583 L 492.095 190.281 Z " fill="rgb(20,127,165)"/><path d=" M 495.007 197.005 L 527.763 215.917 L 527.763 220.12 L 495.007 201.208 L 495.007 197.005 Z " fill="rgb(230,116,255)"/><path d=" M 531.403 218.018 L 535.043 220.12 L 535.043 224.322 L 531.403 222.221 L 531.403 218.018 Z " fill="rgb(0,210,56)"/><path d=" M 538.682 222.221 L 542.322 224.322 L 542.322 228.525 L 538.682 226.424 L 538.682 222.221 Z " fill="rgb(229,255,113)"/><path d=" M 545.961 226.424 L 549.601 228.525 L 549.601 232.728 L 545.961 230.626 L 545.961 226.424 Z " fill="rgb(229,255,113)"/><path d=" M 553.241 239.032 L 554.696 238.191 L 554.696 224.743 L 553.241 225.583 L 553.241 239.032 Z " fill="rgb(0,59,81)"/><path d=" M 554.696 224.743 L 493.551 189.441 L 492.095 190.281 L 553.241 225.583 L 554.696 224.743 Z " fill="rgb(0,59,81)"/></g><g style="isolation:isolate"><path d=" M 492.095 212.119 L 492.095 225.567 L 553.241 260.869 L 553.241 247.421 L 492.095 212.119 Z " fill="rgb(20,127,165)"/><path d=" M 495.007 218.843 L 527.763 237.755 L 527.763 241.957 L 495.007 223.045 L 495.007 218.843 Z " fill="rgb(230,116,255)"/><path d=" M 531.403 239.856 L 535.043 241.957 L 535.043 246.16 L 531.403 244.059 L 531.403 239.856 Z " fill="rgb(0,210,56)"/><path d=" M 538.682 244.059 L 542.322 246.16 L 542.322 250.363 L 538.682 248.261 L 538.682 244.059 Z " fill="rgb(0,210,56)"/><path d=" M 545.961 248.261 L 549.601 250.363 L 549.601 254.565 L 545.961 252.464 L 545.961 248.261 Z " fill="rgb(0,210,56)"/><path d=" M 553.241 260.869 L 554.696 260.029 L 554.696 246.58 L 553.241 247.421 L 553.241 260.869 Z " fill="rgb(0,59,81)"/><path d=" M 554.696 246.58 L 493.551 211.278 L 492.095 212.119 L 553.241 247.421 L 554.696 246.58 Z " fill="rgb(0,59,81)"/></g></g><g style="isolation:isolate"><radialGradient id="_rgradient_1" fx="0.5" fy="0.5" cx="0.5" cy="0.5" r="0.5" gradientTransform="matrix(72.792,0,0,42.026,521.94,40.943)" gradientUnits="userSpaceOnUse"><stop offset="1.7391304347826086%" stop-opacity="1" style="stop-color:rgb(0,100,136)"/><stop offset="97.3913043478261%" stop-opacity="1" style="stop-color:rgb(60,178,221)"/></radialGradient><path d=" M 521.94 61.956 L 558.336 40.943 L 594.732 61.956 L 558.336 82.97 L 521.94 61.956 Z " fill="url(#_rgradient_1)"/><path d=" M 521.94 61.956 L 558.336 40.943 L 558.336 45.146 L 525.58 64.058 L 521.94 61.956 Z " fill="rgb(8,91,121)"/><path d=" M 558.336 40.943 L 558.336 45.146 L 591.092 64.058 L 594.732 61.956 L 558.336 40.943 Z " fill="rgb(8,91,121)"/><g style="isolation:isolate"><radialGradient id="_rgradient_2" fx="0.5" fy="0.5" cx="0.5" cy="0.5" r="0.5" gradientTransform="matrix(3.64,0,0,6.304,558.336,59.855)" gradientUnits="userSpaceOnUse"><stop offset="1.3043478260869565%" stop-opacity="1" style="stop-color:rgb(0,255,115)"/><stop offset="96.95652173913044%" stop-opacity="1" style="stop-color:rgb(34,181,32)"/></radialGradient><path d=" M 558.336 61.956 L 561.976 59.855 L 561.976 64.058 L 558.336 66.159 L 558.336 61.956 Z " fill="url(#_rgradient_2)"/><radialGradient id="_rgradient_3" fx="0.5" fy="0.5" cx="0.5" cy="0.5" r="0.5" gradientTransform="matrix(7.279,0,0,4.203,554.696,57.754)" gradientUnits="userSpaceOnUse"><stop offset="1.3043478260869565%" stop-opacity="1" style="stop-color:rgb(0,255,115)"/><stop offset="96.95652173913044%" stop-opacity="1" style="stop-color:rgb(34,181,32)"/></radialGradient><path d=" M 554.696 59.855 L 558.336 57.754 L 561.976 59.855 L 558.336 61.956 L 554.696 59.855 Z " fill="url(#_rgradient_3)"/><radialGradient id="_rgradient_4" fx="0.5" fy="0.5" cx="0.5" cy="0.5" r="0.5" gradientTransform="matrix(3.64,0,0,6.304,554.696,59.855)" gradientUnits="userSpaceOnUse"><stop offset="1.3043478260869565%" stop-opacity="1" style="stop-color:rgb(0,255,115)"/><stop offset="96.95652173913044%" stop-opacity="1" style="stop-color:rgb(34,181,32)"/></radialGradient><path d=" M 554.696 64.058 L 554.696 59.855 L 558.336 61.956 L 558.336 66.159 L 554.696 64.058 Z " fill="url(#_rgradient_4)"/></g></g></g><g style="isolation:isolate"><g style="isolation:isolate"><radialGradient id="_rgradient_5" fx="0.5" fy="0.5" cx="0.5" cy="0.5" r="0.5" gradientTransform="matrix(145.584,0,0,84.053,389.184,262.745)" gradientUnits="userSpaceOnUse"><stop offset="1.7391304347826086%" stop-opacity="1" style="stop-color:rgb(0,213,255)"/><stop offset="100%" stop-opacity="1" style="stop-color:rgb(0,94,117)"/></radialGradient><path d=" M 389.184 304.771 L 461.976 262.745 L 534.767 304.771 L 461.976 346.797 L 389.184 304.771 Z " fill="url(#_rgradient_5)"/><path d=" M 534.767 304.771 L 534.767 308.974 L 461.976 351 L 461.976 346.797 L 534.767 304.771 Z " fill="rgb(0,97,119)"/><path d=" M 389.184 304.771 L 389.184 308.974 L 461.976 351 L 461.976 346.797 L 389.184 304.771 Z " fill="rgb(0,97,119)"/></g><g style="isolation:isolate"><linearGradient id="_lgradient_16" x1="0.2623749999999998" y1="0.7686172282542298" x2="0.7367500000000001" y2="0.26952088333459606" gradientTransform="matrix(72.792,0,0,210.132,459.792,122.026)" gradientUnits="userSpaceOnUse"><stop offset="1.7391304347826086%" stop-opacity="1" style="stop-color:rgb(0,84,115)"/><stop offset="97.82608695652173%" stop-opacity="1" style="stop-color:rgb(27,143,185)"/></linearGradient><path d=" M 532.584 290.132 L 459.792 332.158 L 459.792 164.053 L 532.584 122.026 L 532.584 290.132 Z " fill="url(#_lgradient_16)"/><linearGradient id="_lgradient_17" x1="0.2623749999999998" y1="0.7686172282542298" x2="0.7367500000000001" y2="0.26952088333459606" gradientTransform="matrix(145.584,0,0,84.053,387,80)" gradientUnits="userSpaceOnUse"><stop offset="1.7391304347826086%" stop-opacity="1" style="stop-color:rgb(0,100,136)"/><stop offset="97.3913043478261%" stop-opacity="1" style="stop-color:rgb(60,178,221)"/></linearGradient><path d=" M 387 122.026 L 459.792 80 L 532.584 122.026 L 459.792 164.053 L 387 122.026 Z " fill="url(#_lgradient_17)"/><path d=" M 387 290.132 L 459.792 332.158 L 459.792 164.053 L 387 122.026 L 387 290.132 Z " fill="rgb(8,91,121)"/></g><g style="isolation:isolate"><linearGradient id="_lgradient_18" x1="0.2623749999999998" y1="0.7686172282542298" x2="0.7367500000000001" y2="0.26952088333459606" gradientTransform="matrix(43.675,0,0,159.7,478.718,150.291)" gradientUnits="userSpaceOnUse"><stop offset="1.7391304347826086%" stop-opacity="1" style="stop-color:rgb(0,84,115)"/><stop offset="97.82608695652173%" stop-opacity="1" style="stop-color:rgb(27,143,185)"/></linearGradient><path d=" M 478.718 175.507 L 522.393 150.291 L 522.393 284.775 L 478.718 309.991 L 478.718 175.507 Z " fill="url(#_lgradient_18)"/><path d=" M 478.718 309.991 L 475.078 307.89 L 475.078 173.405 L 478.718 175.507 L 478.718 309.991 Z " fill="rgb(0,59,81)"/><linearGradient id="_lgradient_19" x1="0" y1="0.5" x2="1.038461538461538" y2="-0.40442888750692896" gradientTransform="matrix(47.315,0,0,27.317,475.078,148.189)" gradientUnits="userSpaceOnUse"><stop offset="0%" stop-opacity="1" style="stop-color:rgb(0,59,81)"/><stop offset="97.82608695652173%" stop-opacity="1" style="stop-color:rgb(14,92,121)"/></linearGradient><path d=" M 475.078 173.405 L 478.718 175.507 L 522.393 150.291 L 518.753 148.189 L 475.078 173.405 Z " fill="url(#_lgradient_19)"/><path d=" M 485.997 184.42 L 485.997 222.244 L 515.114 205.434 L 515.114 167.61 L 485.997 184.42 Z " fill="rgb(0,45,62)"/></g><g style="isolation:isolate"><path d=" M 488.909 187.587 L 491.82 185.906 L 491.82 187.587 L 488.909 189.269 L 488.909 187.587 Z " fill="rgb(94,179,210)"/><path d=" M 493.276 185.066 L 496.188 183.385 L 496.188 185.066 L 493.276 186.747 L 493.276 185.066 Z " fill="rgb(94,179,210)"/><path d=" M 497.644 189.269 L 500.555 187.587 L 500.555 189.269 L 497.644 190.95 L 497.644 189.269 Z " fill="rgb(94,179,210)"/><path d=" M 502.011 186.747 L 507.834 183.385 L 507.834 185.066 L 502.011 188.428 L 502.011 186.747 Z " fill="rgb(94,179,210)"/><path d=" M 488.909 201.036 L 494.732 197.674 L 494.732 199.355 L 488.909 202.717 L 488.909 201.036 Z " fill="rgb(94,179,210)"/><path d=" M 491.82 195.993 L 497.644 192.631 L 497.644 194.312 L 491.82 197.674 L 491.82 195.993 Z " fill="rgb(94,179,210)"/><path d=" M 488.909 190.95 L 493.276 188.428 L 493.276 190.109 L 488.909 192.631 L 488.909 190.95 Z " fill="rgb(94,179,210)"/><path d=" M 494.732 187.587 L 499.099 185.066 L 499.099 186.747 L 494.732 189.269 L 494.732 187.587 Z " fill="rgb(94,179,210)"/><path d=" M 488.909 194.424 L 493.276 191.903 L 493.276 193.584 L 488.909 196.105 L 488.909 194.424 Z " fill="rgb(94,179,210)"/><path d=" M 494.732 190.95 L 496.188 190.109 L 496.188 191.79 L 494.732 192.631 L 494.732 190.95 Z " fill="rgb(94,179,210)"/><path d=" M 488.909 197.786 L 490.364 196.946 L 490.364 198.627 L 488.909 199.467 L 488.909 197.786 Z " fill="rgb(94,179,210)"/><path d=" M 488.909 204.398 L 491.82 202.717 L 491.82 204.398 L 488.909 206.079 L 488.909 204.398 Z " fill="rgb(94,179,210)"/><path d=" M 493.276 201.876 L 494.732 201.036 L 494.732 202.717 L 493.276 203.557 L 493.276 201.876 Z " fill="rgb(94,179,210)"/><path d=" M 496.188 200.195 L 496.188 201.876 L 499.099 200.195 L 499.099 198.514 L 496.188 200.195 Z " fill="rgb(94,179,210)"/><path d=" M 500.555 197.674 L 504.923 195.152 L 504.923 196.833 L 500.555 199.355 L 500.555 197.674 Z " fill="rgb(94,179,210)"/><path d=" M 506.379 194.312 L 509.29 192.631 L 509.29 194.312 L 506.379 195.993 L 506.379 194.312 Z " fill="rgb(94,179,210)"/><path d=" M 488.909 207.76 L 488.909 209.441 L 493.276 206.92 L 493.276 205.239 L 488.909 207.76 Z " fill="rgb(94,179,210)"/><path d=" M 488.909 211.122 L 490.364 210.282 L 490.364 211.963 L 488.909 212.803 L 488.909 211.122 Z " fill="rgb(94,179,210)"/><path d=" M 488.909 214.484 L 496.188 210.282 L 496.188 211.963 L 488.909 216.165 L 488.909 214.484 Z " fill="rgb(94,179,210)"/><path d=" M 491.82 209.441 L 494.732 207.76 L 494.732 209.441 L 491.82 211.122 L 491.82 209.441 Z " fill="rgb(94,179,210)"/><path d=" M 497.644 209.441 L 500.555 207.76 L 500.555 209.441 L 497.644 211.122 L 497.644 209.441 Z " fill="rgb(94,179,210)"/><path d=" M 502.011 206.92 L 503.467 206.079 L 503.467 207.76 L 502.011 208.601 L 502.011 206.92 Z " fill="rgb(94,179,210)"/><path d=" M 494.732 204.398 L 497.644 202.717 L 497.644 204.398 L 494.732 206.079 L 494.732 204.398 Z " fill="rgb(94,179,210)"/><path d=" M 499.099 201.876 L 503.467 199.355 L 503.467 201.036 L 499.099 203.557 L 499.099 201.876 Z " fill="rgb(94,179,210)"/></g><g style="isolation:isolate"><g style="isolation:isolate"><path d=" M 392.095 141.093 L 392.095 154.542 L 453.241 189.844 L 453.241 176.396 L 392.095 141.093 Z " fill="rgb(20,127,165)"/><path d=" M 395.007 147.818 L 427.763 166.73 L 427.763 170.932 L 395.007 152.02 L 395.007 147.818 Z " fill="rgb(230,116,255)"/><path d=" M 431.403 168.831 L 435.043 170.932 L 435.043 175.135 L 431.403 173.033 L 431.403 168.831 Z " fill="rgb(0,210,56)"/><path d=" M 438.682 173.033 L 442.322 175.135 L 442.322 179.337 L 438.682 177.236 L 438.682 173.033 Z " fill="rgb(0,210,56)"/><path d=" M 445.961 177.236 L 449.601 179.337 L 449.601 183.54 L 445.961 181.439 L 445.961 177.236 Z " fill="rgb(229,255,113)"/><path d=" M 453.241 189.844 L 454.696 189.003 L 454.696 175.555 L 453.241 176.396 L 453.241 189.844 Z " fill="rgb(0,59,81)"/><path d=" M 454.696 175.555 L 393.551 140.253 L 392.095 141.093 L 453.241 176.396 L 454.696 175.555 Z " fill="rgb(0,59,81)"/></g><g style="isolation:isolate"><path d=" M 392.095 162.931 L 392.095 176.379 L 453.241 211.682 L 453.241 198.233 L 392.095 162.931 Z " fill="rgb(20,127,165)"/><path d=" M 395.007 169.655 L 427.763 188.567 L 427.763 192.77 L 395.007 173.858 L 395.007 169.655 Z " fill="rgb(230,116,255)"/><path d=" M 431.403 190.668 L 435.043 192.77 L 435.043 196.972 L 431.403 194.871 L 431.403 190.668 Z " fill="rgb(0,210,56)"/><path d=" M 438.682 194.871 L 442.322 196.972 L 442.322 201.175 L 438.682 199.074 L 438.682 194.871 Z " fill="rgb(0,210,56)"/><path d=" M 445.961 199.074 L 449.601 201.175 L 449.601 205.378 L 445.961 203.276 L 445.961 199.074 Z " fill="rgb(0,210,56)"/><path d=" M 453.241 211.682 L 454.696 210.841 L 454.696 197.393 L 453.241 198.233 L 453.241 211.682 Z " fill="rgb(0,59,81)"/><path d=" M 454.696 197.393 L 393.551 162.09 L 392.095 162.931 L 453.241 198.233 L 454.696 197.393 Z " fill="rgb(0,59,81)"/></g><g style="isolation:isolate"><path d=" M 392.095 184.768 L 392.095 198.217 L 453.241 233.519 L 453.241 220.071 L 392.095 184.768 Z " fill="rgb(20,127,165)"/><path d=" M 395.007 191.493 L 427.763 210.405 L 427.763 214.607 L 395.007 195.695 L 395.007 191.493 Z " fill="rgb(230,116,255)"/><path d=" M 431.403 212.506 L 435.043 214.607 L 435.043 218.81 L 431.403 216.709 L 431.403 212.506 Z " fill="rgb(0,210,56)"/><path d=" M 438.682 216.709 L 442.322 218.81 L 442.322 223.012 L 438.682 220.911 L 438.682 216.709 Z " fill="rgb(229,255,113)"/><path d=" M 445.961 220.911 L 449.601 223.012 L 449.601 227.215 L 445.961 225.114 L 445.961 220.911 Z " fill="rgb(229,255,113)"/><path d=" M 453.241 233.519 L 454.696 232.679 L 454.696 219.23 L 453.241 220.071 L 453.241 233.519 Z " fill="rgb(0,59,81)"/><path d=" M 454.696 219.23 L 393.551 183.928 L 392.095 184.768 L 453.241 220.071 L 454.696 219.23 Z " fill="rgb(0,59,81)"/></g><g style="isolation:isolate"><path d=" M 392.095 206.606 L 392.095 220.054 L 453.241 255.357 L 453.241 241.908 L 392.095 206.606 Z " fill="rgb(20,127,165)"/><path d=" M 395.007 213.33 L 427.763 232.242 L 427.763 236.445 L 395.007 217.533 L 395.007 213.33 Z " fill="rgb(230,116,255)"/><path d=" M 431.403 234.343 L 435.043 236.445 L 435.043 240.647 L 431.403 238.546 L 431.403 234.343 Z " fill="rgb(229,255,113)"/><path d=" M 438.682 238.546 L 442.322 240.647 L 442.322 244.85 L 438.682 242.749 L 438.682 238.546 Z " fill="rgb(0,210,56)"/><path d=" M 445.961 242.749 L 449.601 244.85 L 449.601 249.053 L 445.961 246.951 L 445.961 242.749 Z " fill="rgb(229,255,113)"/><path d=" M 453.241 255.357 L 454.696 254.516 L 454.696 241.068 L 453.241 241.908 L 453.241 255.357 Z " fill="rgb(0,59,81)"/><path d=" M 454.696 241.068 L 393.551 205.766 L 392.095 206.606 L 453.241 241.908 L 454.696 241.068 Z " fill="rgb(0,59,81)"/></g><g style="isolation:isolate"><path d=" M 392.095 228.444 L 392.095 241.892 L 453.241 277.194 L 453.241 263.746 L 392.095 228.444 Z " fill="rgb(20,127,165)"/><path d=" M 395.007 235.168 L 427.763 254.08 L 427.763 258.282 L 395.007 239.37 L 395.007 235.168 Z " fill="rgb(230,116,255)"/><path d=" M 431.403 256.181 L 435.043 258.282 L 435.043 262.485 L 431.403 260.384 L 431.403 256.181 Z " fill="rgb(0,210,56)"/><path d=" M 438.682 260.384 L 442.322 262.485 L 442.322 266.688 L 438.682 264.586 L 438.682 260.384 Z " fill="rgb(0,210,56)"/><path d=" M 445.961 264.586 L 449.601 266.688 L 449.601 270.89 L 445.961 268.789 L 445.961 264.586 Z " fill="rgb(229,255,113)"/><path d=" M 453.241 277.194 L 454.696 276.354 L 454.696 262.905 L 453.241 263.746 L 453.241 277.194 Z " fill="rgb(0,59,81)"/><path d=" M 454.696 262.905 L 393.551 227.603 L 392.095 228.444 L 453.241 263.746 L 454.696 262.905 Z " fill="rgb(0,59,81)"/></g><g style="isolation:isolate"><path d=" M 392.095 250.281 L 392.095 263.73 L 453.241 299.032 L 453.241 285.583 L 392.095 250.281 Z " fill="rgb(20,127,165)"/><path d=" M 395.007 257.005 L 427.763 275.917 L 427.763 280.12 L 395.007 261.208 L 395.007 257.005 Z " fill="rgb(230,116,255)"/><path d=" M 431.403 278.018 L 435.043 280.12 L 435.043 284.322 L 431.403 282.221 L 431.403 278.018 Z " fill="rgb(0,210,56)"/><path d=" M 438.682 282.221 L 442.322 284.322 L 442.322 288.525 L 438.682 286.424 L 438.682 282.221 Z " fill="rgb(229,255,113)"/><path d=" M 445.961 286.424 L 449.601 288.525 L 449.601 292.728 L 445.961 290.626 L 445.961 286.424 Z " fill="rgb(229,255,113)"/><path d=" M 453.241 299.032 L 454.696 298.191 L 454.696 284.743 L 453.241 285.583 L 453.241 299.032 Z " fill="rgb(0,59,81)"/><path d=" M 454.696 284.743 L 393.551 249.441 L 392.095 250.281 L 453.241 285.583 L 454.696 284.743 Z " fill="rgb(0,59,81)"/></g><g style="isolation:isolate"><path d=" M 392.095 272.119 L 392.095 285.567 L 453.241 320.869 L 453.241 307.421 L 392.095 272.119 Z " fill="rgb(20,127,165)"/><path d=" M 395.007 278.843 L 427.763 297.755 L 427.763 301.957 L 395.007 283.045 L 395.007 278.843 Z " fill="rgb(230,116,255)"/><path d=" M 431.403 299.856 L 435.043 301.957 L 435.043 306.16 L 431.403 304.059 L 431.403 299.856 Z " fill="rgb(0,210,56)"/><path d=" M 438.682 304.059 L 442.322 306.16 L 442.322 310.363 L 438.682 308.261 L 438.682 304.059 Z " fill="rgb(0,210,56)"/><path d=" M 445.961 308.261 L 449.601 310.363 L 449.601 314.565 L 445.961 312.464 L 445.961 308.261 Z " fill="rgb(0,210,56)"/><path d=" M 453.241 320.869 L 454.696 320.029 L 454.696 306.58 L 453.241 307.421 L 453.241 320.869 Z " fill="rgb(0,59,81)"/><path d=" M 454.696 306.58 L 393.551 271.278 L 392.095 272.119 L 453.241 307.421 L 454.696 306.58 Z " fill="rgb(0,59,81)"/></g></g><g style="isolation:isolate"><radialGradient id="_rgradient_6" fx="0.5" fy="0.5" cx="0.5" cy="0.5" r="0.5" gradientTransform="matrix(72.792,0,0,42.026,421.94,100.943)" gradientUnits="userSpaceOnUse"><stop offset="1.7391304347826086%" stop-opacity="1" style="stop-color:rgb(0,100,136)"/><stop offset="97.3913043478261%" stop-opacity="1" style="stop-color:rgb(60,178,221)"/></radialGradient><path d=" M 421.94 121.956 L 458.336 100.943 L 494.732 121.956 L 458.336 142.97 L 421.94 121.956 Z " fill="url(#_rgradient_6)"/><path d=" M 421.94 121.956 L 458.336 100.943 L 458.336 105.146 L 425.58 124.058 L 421.94 121.956 Z " fill="rgb(8,91,121)"/><path d=" M 458.336 100.943 L 458.336 105.146 L 491.092 124.058 L 494.732 121.956 L 458.336 100.943 Z " fill="rgb(8,91,121)"/><g style="isolation:isolate"><radialGradient id="_rgradient_7" fx="0.5" fy="0.5" cx="0.5" cy="0.5" r="0.5" gradientTransform="matrix(3.64,0,0,6.304,458.336,119.855)" gradientUnits="userSpaceOnUse"><stop offset="1.3043478260869565%" stop-opacity="1" style="stop-color:rgb(0,255,115)"/><stop offset="96.95652173913044%" stop-opacity="1" style="stop-color:rgb(34,181,32)"/></radialGradient><path d=" M 458.336 121.956 L 461.976 119.855 L 461.976 124.058 L 458.336 126.159 L 458.336 121.956 Z " fill="url(#_rgradient_7)"/><radialGradient id="_rgradient_8" fx="0.5" fy="0.5" cx="0.5" cy="0.5" r="0.5" gradientTransform="matrix(7.279,0,0,4.203,454.696,117.754)" gradientUnits="userSpaceOnUse"><stop offset="1.3043478260869565%" stop-opacity="1" style="stop-color:rgb(0,255,115)"/><stop offset="96.95652173913044%" stop-opacity="1" style="stop-color:rgb(34,181,32)"/></radialGradient><path d=" M 454.696 119.855 L 458.336 117.754 L 461.976 119.855 L 458.336 121.956 L 454.696 119.855 Z " fill="url(#_rgradient_8)"/><radialGradient id="_rgradient_9" fx="0.5" fy="0.5" cx="0.5" cy="0.5" r="0.5" gradientTransform="matrix(3.64,0,0,6.304,454.696,119.855)" gradientUnits="userSpaceOnUse"><stop offset="1.3043478260869565%" stop-opacity="1" style="stop-color:rgb(0,255,115)"/><stop offset="96.95652173913044%" stop-opacity="1" style="stop-color:rgb(34,181,32)"/></radialGradient><path d=" M 454.696 124.058 L 454.696 119.855 L 458.336 121.956 L 458.336 126.159 L 454.696 124.058 Z " fill="url(#_rgradient_9)"/></g></g></g><g style="isolation:isolate"><g style="isolation:isolate"><radialGradient id="_rgradient_10" fx="0.5" fy="0.5" cx="0.5" cy="0.5" r="0.5" gradientTransform="matrix(145.584,0,0,84.053,588.184,262.745)" gradientUnits="userSpaceOnUse"><stop offset="1.7391304347826086%" stop-opacity="1" style="stop-color:rgb(0,213,255)"/><stop offset="100%" stop-opacity="1" style="stop-color:rgb(0,94,117)"/></radialGradient><path d=" M 588.184 304.771 L 660.976 262.745 L 733.767 304.771 L 660.976 346.797 L 588.184 304.771 Z " fill="url(#_rgradient_10)"/><path d=" M 733.767 304.771 L 733.767 308.974 L 660.976 351 L 660.976 346.797 L 733.767 304.771 Z " fill="rgb(0,97,119)"/><path d=" M 588.184 304.771 L 588.184 308.974 L 660.976 351 L 660.976 346.797 L 588.184 304.771 Z " fill="rgb(0,97,119)"/></g><g style="isolation:isolate"><linearGradient id="_lgradient_20" x1="0.2623749999999998" y1="0.7686172282542298" x2="0.7367500000000001" y2="0.26952088333459606" gradientTransform="matrix(72.792,0,0,210.132,658.792,122.026)" gradientUnits="userSpaceOnUse"><stop offset="1.7391304347826086%" stop-opacity="1" style="stop-color:rgb(0,84,115)"/><stop offset="97.82608695652173%" stop-opacity="1" style="stop-color:rgb(27,143,185)"/></linearGradient><path d=" M 731.584 290.132 L 658.792 332.158 L 658.792 164.053 L 731.584 122.026 L 731.584 290.132 Z " fill="url(#_lgradient_20)"/><linearGradient id="_lgradient_21" x1="0.2623749999999998" y1="0.7686172282542298" x2="0.7367500000000001" y2="0.26952088333459606" gradientTransform="matrix(145.584,0,0,84.053,586,80)" gradientUnits="userSpaceOnUse"><stop offset="1.7391304347826086%" stop-opacity="1" style="stop-color:rgb(0,100,136)"/><stop offset="97.3913043478261%" stop-opacity="1" style="stop-color:rgb(60,178,221)"/></linearGradient><path d=" M 586 122.026 L 658.792 80 L 731.584 122.026 L 658.792 164.053 L 586 122.026 Z " fill="url(#_lgradient_21)"/><path d=" M 586 290.132 L 658.792 332.158 L 658.792 164.053 L 586 122.026 L 586 290.132 Z " fill="rgb(8,91,121)"/></g><g style="isolation:isolate"><linearGradient id="_lgradient_22" x1="0.2623749999999998" y1="0.7686172282542298" x2="0.7367500000000001" y2="0.26952088333459606" gradientTransform="matrix(43.675,0,0,159.7,677.718,150.291)" gradientUnits="userSpaceOnUse"><stop offset="1.7391304347826086%" stop-opacity="1" style="stop-color:rgb(0,84,115)"/><stop offset="97.82608695652173%" stop-opacity="1" style="stop-color:rgb(27,143,185)"/></linearGradient><path d=" M 677.718 175.507 L 721.393 150.291 L 721.393 284.775 L 677.718 309.991 L 677.718 175.507 Z " fill="url(#_lgradient_22)"/><path d=" M 677.718 309.991 L 674.078 307.89 L 674.078 173.405 L 677.718 175.507 L 677.718 309.991 Z " fill="rgb(0,59,81)"/><linearGradient id="_lgradient_23" x1="0" y1="0.5" x2="1.038461538461538" y2="-0.40442888750692896" gradientTransform="matrix(47.315,0,0,27.317,674.078,148.189)" gradientUnits="userSpaceOnUse"><stop offset="0%" stop-opacity="1" style="stop-color:rgb(0,59,81)"/><stop offset="97.82608695652173%" stop-opacity="1" style="stop-color:rgb(14,92,121)"/></linearGradient><path d=" M 674.078 173.405 L 677.718 175.507 L 721.393 150.291 L 717.753 148.189 L 674.078 173.405 Z " fill="url(#_lgradient_23)"/><path d=" M 684.997 184.42 L 684.997 222.244 L 714.114 205.434 L 714.114 167.61 L 684.997 184.42 Z " fill="rgb(0,45,62)"/></g><g style="isolation:isolate"><path d=" M 687.909 187.587 L 690.82 185.906 L 690.82 187.587 L 687.909 189.269 L 687.909 187.587 Z " fill="rgb(94,179,210)"/><path d=" M 692.276 185.066 L 695.188 183.385 L 695.188 185.066 L 692.276 186.747 L 692.276 185.066 Z " fill="rgb(94,179,210)"/><path d=" M 696.644 189.269 L 699.555 187.587 L 699.555 189.269 L 696.644 190.95 L 696.644 189.269 Z " fill="rgb(94,179,210)"/><path d=" M 701.011 186.747 L 706.834 183.385 L 706.834 185.066 L 701.011 188.428 L 701.011 186.747 Z " fill="rgb(94,179,210)"/><path d=" M 687.909 201.036 L 693.732 197.674 L 693.732 199.355 L 687.909 202.717 L 687.909 201.036 Z " fill="rgb(94,179,210)"/><path d=" M 690.82 195.993 L 696.644 192.631 L 696.644 194.312 L 690.82 197.674 L 690.82 195.993 Z " fill="rgb(94,179,210)"/><path d=" M 687.909 190.95 L 692.276 188.428 L 692.276 190.109 L 687.909 192.631 L 687.909 190.95 Z " fill="rgb(94,179,210)"/><path d=" M 693.732 187.587 L 698.099 185.066 L 698.099 186.747 L 693.732 189.269 L 693.732 187.587 Z " fill="rgb(94,179,210)"/><path d=" M 687.909 194.424 L 692.276 191.903 L 692.276 193.584 L 687.909 196.105 L 687.909 194.424 Z " fill="rgb(94,179,210)"/><path d=" M 693.732 190.95 L 695.188 190.109 L 695.188 191.79 L 693.732 192.631 L 693.732 190.95 Z " fill="rgb(94,179,210)"/><path d=" M 687.909 197.786 L 689.364 196.946 L 689.364 198.627 L 687.909 199.467 L 687.909 197.786 Z " fill="rgb(94,179,210)"/><path d=" M 687.909 204.398 L 690.82 202.717 L 690.82 204.398 L 687.909 206.079 L 687.909 204.398 Z " fill="rgb(94,179,210)"/><path d=" M 692.276 201.876 L 693.732 201.036 L 693.732 202.717 L 692.276 203.557 L 692.276 201.876 Z " fill="rgb(94,179,210)"/><path d=" M 695.188 200.195 L 695.188 201.876 L 698.099 200.195 L 698.099 198.514 L 695.188 200.195 Z " fill="rgb(94,179,210)"/><path d=" M 699.555 197.674 L 703.923 195.152 L 703.923 196.833 L 699.555 199.355 L 699.555 197.674 Z " fill="rgb(94,179,210)"/><path d=" M 705.379 194.312 L 708.29 192.631 L 708.29 194.312 L 705.379 195.993 L 705.379 194.312 Z " fill="rgb(94,179,210)"/><path d=" M 687.909 207.76 L 687.909 209.441 L 692.276 206.92 L 692.276 205.239 L 687.909 207.76 Z " fill="rgb(94,179,210)"/><path d=" M 687.909 211.122 L 689.364 210.282 L 689.364 211.963 L 687.909 212.803 L 687.909 211.122 Z " fill="rgb(94,179,210)"/><path d=" M 687.909 214.484 L 695.188 210.282 L 695.188 211.963 L 687.909 216.165 L 687.909 214.484 Z " fill="rgb(94,179,210)"/><path d=" M 690.82 209.441 L 693.732 207.76 L 693.732 209.441 L 690.82 211.122 L 690.82 209.441 Z " fill="rgb(94,179,210)"/><path d=" M 696.644 209.441 L 699.555 207.76 L 699.555 209.441 L 696.644 211.122 L 696.644 209.441 Z " fill="rgb(94,179,210)"/><path d=" M 701.011 206.92 L 702.467 206.079 L 702.467 207.76 L 701.011 208.601 L 701.011 206.92 Z " fill="rgb(94,179,210)"/><path d=" M 693.732 204.398 L 696.644 202.717 L 696.644 204.398 L 693.732 206.079 L 693.732 204.398 Z " fill="rgb(94,179,210)"/><path d=" M 698.099 201.876 L 702.467 199.355 L 702.467 201.036 L 698.099 203.557 L 698.099 201.876 Z " fill="rgb(94,179,210)"/></g><g style="isolation:isolate"><g style="isolation:isolate"><path d=" M 591.095 141.093 L 591.095 154.542 L 652.241 189.844 L 652.241 176.396 L 591.095 141.093 Z " fill="rgb(20,127,165)"/><path d=" M 594.007 147.818 L 626.763 166.73 L 626.763 170.932 L 594.007 152.02 L 594.007 147.818 Z " fill="rgb(230,116,255)"/><path d=" M 630.403 168.831 L 634.043 170.932 L 634.043 175.135 L 630.403 173.033 L 630.403 168.831 Z " fill="rgb(0,210,56)"/><path d=" M 637.682 173.033 L 641.322 175.135 L 641.322 179.337 L 637.682 177.236 L 637.682 173.033 Z " fill="rgb(0,210,56)"/><path d=" M 644.961 177.236 L 648.601 179.337 L 648.601 183.54 L 644.961 181.439 L 644.961 177.236 Z " fill="rgb(229,255,113)"/><path d=" M 652.241 189.844 L 653.696 189.003 L 653.696 175.555 L 652.241 176.396 L 652.241 189.844 Z " fill="rgb(0,59,81)"/><path d=" M 653.696 175.555 L 592.551 140.253 L 591.095 141.093 L 652.241 176.396 L 653.696 175.555 Z " fill="rgb(0,59,81)"/></g><g style="isolation:isolate"><path d=" M 591.095 162.931 L 591.095 176.379 L 652.241 211.682 L 652.241 198.233 L 591.095 162.931 Z " fill="rgb(20,127,165)"/><path d=" M 594.007 169.655 L 626.763 188.567 L 626.763 192.77 L 594.007 173.858 L 594.007 169.655 Z " fill="rgb(230,116,255)"/><path d=" M 630.403 190.668 L 634.043 192.77 L 634.043 196.972 L 630.403 194.871 L 630.403 190.668 Z " fill="rgb(0,210,56)"/><path d=" M 637.682 194.871 L 641.322 196.972 L 641.322 201.175 L 637.682 199.074 L 637.682 194.871 Z " fill="rgb(0,210,56)"/><path d=" M 644.961 199.074 L 648.601 201.175 L 648.601 205.378 L 644.961 203.276 L 644.961 199.074 Z " fill="rgb(0,210,56)"/><path d=" M 652.241 211.682 L 653.696 210.841 L 653.696 197.393 L 652.241 198.233 L 652.241 211.682 Z " fill="rgb(0,59,81)"/><path d=" M 653.696 197.393 L 592.551 162.09 L 591.095 162.931 L 652.241 198.233 L 653.696 197.393 Z " fill="rgb(0,59,81)"/></g><g style="isolation:isolate"><path d=" M 591.095 184.768 L 591.095 198.217 L 652.241 233.519 L 652.241 220.071 L 591.095 184.768 Z " fill="rgb(20,127,165)"/><path d=" M 594.007 191.493 L 626.763 210.405 L 626.763 214.607 L 594.007 195.695 L 594.007 191.493 Z " fill="rgb(230,116,255)"/><path d=" M 630.403 212.506 L 634.043 214.607 L 634.043 218.81 L 630.403 216.709 L 630.403 212.506 Z " fill="rgb(0,210,56)"/><path d=" M 637.682 216.709 L 641.322 218.81 L 641.322 223.012 L 637.682 220.911 L 637.682 216.709 Z " fill="rgb(229,255,113)"/><path d=" M 644.961 220.911 L 648.601 223.012 L 648.601 227.215 L 644.961 225.114 L 644.961 220.911 Z " fill="rgb(229,255,113)"/><path d=" M 652.241 233.519 L 653.696 232.679 L 653.696 219.23 L 652.241 220.071 L 652.241 233.519 Z " fill="rgb(0,59,81)"/><path d=" M 653.696 219.23 L 592.551 183.928 L 591.095 184.768 L 652.241 220.071 L 653.696 219.23 Z " fill="rgb(0,59,81)"/></g><g style="isolation:isolate"><path d=" M 591.095 206.606 L 591.095 220.054 L 652.241 255.357 L 652.241 241.908 L 591.095 206.606 Z " fill="rgb(20,127,165)"/><path d=" M 594.007 213.33 L 626.763 232.242 L 626.763 236.445 L 594.007 217.533 L 594.007 213.33 Z " fill="rgb(230,116,255)"/><path d=" M 630.403 234.343 L 634.043 236.445 L 634.043 240.647 L 630.403 238.546 L 630.403 234.343 Z " fill="rgb(229,255,113)"/><path d=" M 637.682 238.546 L 641.322 240.647 L 641.322 244.85 L 637.682 242.749 L 637.682 238.546 Z " fill="rgb(0,210,56)"/><path d=" M 644.961 242.749 L 648.601 244.85 L 648.601 249.053 L 644.961 246.951 L 644.961 242.749 Z " fill="rgb(229,255,113)"/><path d=" M 652.241 255.357 L 653.696 254.516 L 653.696 241.068 L 652.241 241.908 L 652.241 255.357 Z " fill="rgb(0,59,81)"/><path d=" M 653.696 241.068 L 592.551 205.766 L 591.095 206.606 L 652.241 241.908 L 653.696 241.068 Z " fill="rgb(0,59,81)"/></g><g style="isolation:isolate"><path d=" M 591.095 228.444 L 591.095 241.892 L 652.241 277.194 L 652.241 263.746 L 591.095 228.444 Z " fill="rgb(20,127,165)"/><path d=" M 594.007 235.168 L 626.763 254.08 L 626.763 258.282 L 594.007 239.37 L 594.007 235.168 Z " fill="rgb(230,116,255)"/><path d=" M 630.403 256.181 L 634.043 258.282 L 634.043 262.485 L 630.403 260.384 L 630.403 256.181 Z " fill="rgb(0,210,56)"/><path d=" M 637.682 260.384 L 641.322 262.485 L 641.322 266.688 L 637.682 264.586 L 637.682 260.384 Z " fill="rgb(0,210,56)"/><path d=" M 644.961 264.586 L 648.601 266.688 L 648.601 270.89 L 644.961 268.789 L 644.961 264.586 Z " fill="rgb(229,255,113)"/><path d=" M 652.241 277.194 L 653.696 276.354 L 653.696 262.905 L 652.241 263.746 L 652.241 277.194 Z " fill="rgb(0,59,81)"/><path d=" M 653.696 262.905 L 592.551 227.603 L 591.095 228.444 L 652.241 263.746 L 653.696 262.905 Z " fill="rgb(0,59,81)"/></g><g style="isolation:isolate"><path d=" M 591.095 250.281 L 591.095 263.73 L 652.241 299.032 L 652.241 285.583 L 591.095 250.281 Z " fill="rgb(20,127,165)"/><path d=" M 594.007 257.005 L 626.763 275.917 L 626.763 280.12 L 594.007 261.208 L 594.007 257.005 Z " fill="rgb(230,116,255)"/><path d=" M 630.403 278.018 L 634.043 280.12 L 634.043 284.322 L 630.403 282.221 L 630.403 278.018 Z " fill="rgb(0,210,56)"/><path d=" M 637.682 282.221 L 641.322 284.322 L 641.322 288.525 L 637.682 286.424 L 637.682 282.221 Z " fill="rgb(229,255,113)"/><path d=" M 644.961 286.424 L 648.601 288.525 L 648.601 292.728 L 644.961 290.626 L 644.961 286.424 Z " fill="rgb(229,255,113)"/><path d=" M 652.241 299.032 L 653.696 298.191 L 653.696 284.743 L 652.241 285.583 L 652.241 299.032 Z " fill="rgb(0,59,81)"/><path d=" M 653.696 284.743 L 592.551 249.441 L 591.095 250.281 L 652.241 285.583 L 653.696 284.743 Z " fill="rgb(0,59,81)"/></g><g style="isolation:isolate"><path d=" M 591.095 272.119 L 591.095 285.567 L 652.241 320.869 L 652.241 307.421 L 591.095 272.119 Z " fill="rgb(20,127,165)"/><path d=" M 594.007 278.843 L 626.763 297.755 L 626.763 301.957 L 594.007 283.045 L 594.007 278.843 Z " fill="rgb(230,116,255)"/><path d=" M 630.403 299.856 L 634.043 301.957 L 634.043 306.16 L 630.403 304.059 L 630.403 299.856 Z " fill="rgb(0,210,56)"/><path d=" M 637.682 304.059 L 641.322 306.16 L 641.322 310.363 L 637.682 308.261 L 637.682 304.059 Z " fill="rgb(0,210,56)"/><path d=" M 644.961 308.261 L 648.601 310.363 L 648.601 314.565 L 644.961 312.464 L 644.961 308.261 Z " fill="rgb(0,210,56)"/><path d=" M 652.241 320.869 L 653.696 320.029 L 653.696 306.58 L 652.241 307.421 L 652.241 320.869 Z " fill="rgb(0,59,81)"/><path d=" M 653.696 306.58 L 592.551 271.278 L 591.095 272.119 L 652.241 307.421 L 653.696 306.58 Z " fill="rgb(0,59,81)"/></g></g><g style="isolation:isolate"><radialGradient id="_rgradient_11" fx="0.5" fy="0.5" cx="0.5" cy="0.5" r="0.5" gradientTransform="matrix(72.792,0,0,42.026,620.94,100.943)" gradientUnits="userSpaceOnUse"><stop offset="1.7391304347826086%" stop-opacity="1" style="stop-color:rgb(0,100,136)"/><stop offset="97.3913043478261%" stop-opacity="1" style="stop-color:rgb(60,178,221)"/></radialGradient><path d=" M 620.94 121.956 L 657.336 100.943 L 693.732 121.956 L 657.336 142.97 L 620.94 121.956 Z " fill="url(#_rgradient_11)"/><path d=" M 620.94 121.956 L 657.336 100.943 L 657.336 105.146 L 624.58 124.058 L 620.94 121.956 Z " fill="rgb(8,91,121)"/><path d=" M 657.336 100.943 L 657.336 105.146 L 690.092 124.058 L 693.732 121.956 L 657.336 100.943 Z " fill="rgb(8,91,121)"/><g style="isolation:isolate"><radialGradient id="_rgradient_12" fx="0.5" fy="0.5" cx="0.5" cy="0.5" r="0.5" gradientTransform="matrix(3.64,0,0,6.304,657.336,119.855)" gradientUnits="userSpaceOnUse"><stop offset="1.3043478260869565%" stop-opacity="1" style="stop-color:rgb(0,255,115)"/><stop offset="96.95652173913044%" stop-opacity="1" style="stop-color:rgb(34,181,32)"/></radialGradient><path d=" M 657.336 121.956 L 660.976 119.855 L 660.976 124.058 L 657.336 126.159 L 657.336 121.956 Z " fill="url(#_rgradient_12)"/><radialGradient id="_rgradient_13" fx="0.5" fy="0.5" cx="0.5" cy="0.5" r="0.5" gradientTransform="matrix(7.279,0,0,4.203,653.696,117.754)" gradientUnits="userSpaceOnUse"><stop offset="1.3043478260869565%" stop-opacity="1" style="stop-color:rgb(0,255,115)"/><stop offset="96.95652173913044%" stop-opacity="1" style="stop-color:rgb(34,181,32)"/></radialGradient><path d=" M 653.696 119.855 L 657.336 117.754 L 660.976 119.855 L 657.336 121.956 L 653.696 119.855 Z " fill="url(#_rgradient_13)"/><radialGradient id="_rgradient_14" fx="0.5" fy="0.5" cx="0.5" cy="0.5" r="0.5" gradientTransform="matrix(3.64,0,0,6.304,653.696,119.855)" gradientUnits="userSpaceOnUse"><stop offset="1.3043478260869565%" stop-opacity="1" style="stop-color:rgb(0,255,115)"/><stop offset="96.95652173913044%" stop-opacity="1" style="stop-color:rgb(34,181,32)"/></radialGradient><path d=" M 653.696 124.058 L 653.696 119.855 L 657.336 121.956 L 657.336 126.159 L 653.696 124.058 Z " fill="url(#_rgradient_14)"/></g></g></g><g style="isolation:isolate"><g style="isolation:isolate"><radialGradient id="_rgradient_15" fx="0.5" fy="0.5" cx="0.5" cy="0.5" r="0.5" gradientTransform="matrix(145.584,0,0,84.053,489.184,322.745)" gradientUnits="userSpaceOnUse"><stop offset="1.7391304347826086%" stop-opacity="1" style="stop-color:rgb(0,213,255)"/><stop offset="100%" stop-opacity="1" style="stop-color:rgb(0,94,117)"/></radialGradient><path d=" M 489.184 364.771 L 561.976 322.745 L 634.767 364.771 L 561.976 406.797 L 489.184 364.771 Z " fill="url(#_rgradient_15)"/><path d=" M 634.767 364.771 L 634.767 368.974 L 561.976 411 L 561.976 406.797 L 634.767 364.771 Z " fill="rgb(0,97,119)"/><path d=" M 489.184 364.771 L 489.184 368.974 L 561.976 411 L 561.976 406.797 L 489.184 364.771 Z " fill="rgb(0,97,119)"/></g><g style="isolation:isolate"><linearGradient id="_lgradient_24" x1="0.2623749999999998" y1="0.7686172282542298" x2="0.7367500000000001" y2="0.26952088333459606" gradientTransform="matrix(72.792,0,0,210.132,559.792,182.026)" gradientUnits="userSpaceOnUse"><stop offset="1.7391304347826086%" stop-opacity="1" style="stop-color:rgb(0,84,115)"/><stop offset="97.82608695652173%" stop-opacity="1" style="stop-color:rgb(27,143,185)"/></linearGradient><path d=" M 632.584 350.132 L 559.792 392.158 L 559.792 224.053 L 632.584 182.026 L 632.584 350.132 Z " fill="url(#_lgradient_24)"/><linearGradient id="_lgradient_25" x1="0.2623749999999998" y1="0.7686172282542298" x2="0.7367500000000001" y2="0.26952088333459606" gradientTransform="matrix(145.584,0,0,84.053,487,140)" gradientUnits="userSpaceOnUse"><stop offset="1.7391304347826086%" stop-opacity="1" style="stop-color:rgb(0,100,136)"/><stop offset="97.3913043478261%" stop-opacity="1" style="stop-color:rgb(60,178,221)"/></linearGradient><path d=" M 487 182.026 L 559.792 140 L 632.584 182.026 L 559.792 224.053 L 487 182.026 Z " fill="url(#_lgradient_25)"/><path d=" M 487 350.132 L 559.792 392.158 L 559.792 224.053 L 487 182.026 L 487 350.132 Z " fill="rgb(8,91,121)"/></g><g style="isolation:isolate"><linearGradient id="_lgradient_26" x1="0.2623749999999998" y1="0.7686172282542298" x2="0.7367500000000001" y2="0.26952088333459606" gradientTransform="matrix(43.675,0,0,159.7,578.718,210.291)" gradientUnits="userSpaceOnUse"><stop offset="1.7391304347826086%" stop-opacity="1" style="stop-color:rgb(0,84,115)"/><stop offset="97.82608695652173%" stop-opacity="1" style="stop-color:rgb(27,143,185)"/></linearGradient><path d=" M 578.718 235.507 L 622.393 210.291 L 622.393 344.775 L 578.718 369.991 L 578.718 235.507 Z " fill="url(#_lgradient_26)"/><path d=" M 578.718 369.991 L 575.078 367.89 L 575.078 233.405 L 578.718 235.507 L 578.718 369.991 Z " fill="rgb(0,59,81)"/><linearGradient id="_lgradient_27" x1="0" y1="0.5" x2="1.038461538461538" y2="-0.40442888750692896" gradientTransform="matrix(47.315,0,0,27.317,575.078,208.189)" gradientUnits="userSpaceOnUse"><stop offset="0%" stop-opacity="1" style="stop-color:rgb(0,59,81)"/><stop offset="97.82608695652173%" stop-opacity="1" style="stop-color:rgb(14,92,121)"/></linearGradient><path d=" M 575.078 233.405 L 578.718 235.507 L 622.393 210.291 L 618.753 208.189 L 575.078 233.405 Z " fill="url(#_lgradient_27)"/><path d=" M 585.997 244.42 L 585.997 282.244 L 615.114 265.434 L 615.114 227.61 L 585.997 244.42 Z " fill="rgb(0,45,62)"/></g><g style="isolation:isolate"><path d=" M 588.909 247.587 L 591.82 245.906 L 591.82 247.587 L 588.909 249.269 L 588.909 247.587 Z " fill="rgb(94,179,210)"/><path d=" M 593.276 245.066 L 596.188 243.385 L 596.188 245.066 L 593.276 246.747 L 593.276 245.066 Z " fill="rgb(94,179,210)"/><path d=" M 597.644 249.269 L 600.555 247.587 L 600.555 249.269 L 597.644 250.95 L 597.644 249.269 Z " fill="rgb(94,179,210)"/><path d=" M 602.011 246.747 L 607.834 243.385 L 607.834 245.066 L 602.011 248.428 L 602.011 246.747 Z " fill="rgb(94,179,210)"/><path d=" M 588.909 261.036 L 594.732 257.674 L 594.732 259.355 L 588.909 262.717 L 588.909 261.036 Z " fill="rgb(94,179,210)"/><path d=" M 591.82 255.993 L 597.644 252.631 L 597.644 254.312 L 591.82 257.674 L 591.82 255.993 Z " fill="rgb(94,179,210)"/><path d=" M 588.909 250.95 L 593.276 248.428 L 593.276 250.109 L 588.909 252.631 L 588.909 250.95 Z " fill="rgb(94,179,210)"/><path d=" M 594.732 247.587 L 599.099 245.066 L 599.099 246.747 L 594.732 249.269 L 594.732 247.587 Z " fill="rgb(94,179,210)"/><path d=" M 588.909 254.424 L 593.276 251.903 L 593.276 253.584 L 588.909 256.105 L 588.909 254.424 Z " fill="rgb(94,179,210)"/><path d=" M 594.732 250.95 L 596.188 250.109 L 596.188 251.79 L 594.732 252.631 L 594.732 250.95 Z " fill="rgb(94,179,210)"/><path d=" M 588.909 257.786 L 590.364 256.946 L 590.364 258.627 L 588.909 259.467 L 588.909 257.786 Z " fill="rgb(94,179,210)"/><path d=" M 588.909 264.398 L 591.82 262.717 L 591.82 264.398 L 588.909 266.079 L 588.909 264.398 Z " fill="rgb(94,179,210)"/><path d=" M 593.276 261.876 L 594.732 261.036 L 594.732 262.717 L 593.276 263.557 L 593.276 261.876 Z " fill="rgb(94,179,210)"/><path d=" M 596.188 260.195 L 596.188 261.876 L 599.099 260.195 L 599.099 258.514 L 596.188 260.195 Z " fill="rgb(94,179,210)"/><path d=" M 600.555 257.674 L 604.923 255.152 L 604.923 256.833 L 600.555 259.355 L 600.555 257.674 Z " fill="rgb(94,179,210)"/><path d=" M 606.379 254.312 L 609.29 252.631 L 609.29 254.312 L 606.379 255.993 L 606.379 254.312 Z " fill="rgb(94,179,210)"/><path d=" M 588.909 267.76 L 588.909 269.441 L 593.276 266.92 L 593.276 265.239 L 588.909 267.76 Z " fill="rgb(94,179,210)"/><path d=" M 588.909 271.122 L 590.364 270.282 L 590.364 271.963 L 588.909 272.803 L 588.909 271.122 Z " fill="rgb(94,179,210)"/><path d=" M 588.909 274.484 L 596.188 270.282 L 596.188 271.963 L 588.909 276.165 L 588.909 274.484 Z " fill="rgb(94,179,210)"/><path d=" M 591.82 269.441 L 594.732 267.76 L 594.732 269.441 L 591.82 271.122 L 591.82 269.441 Z " fill="rgb(94,179,210)"/><path d=" M 597.644 269.441 L 600.555 267.76 L 600.555 269.441 L 597.644 271.122 L 597.644 269.441 Z " fill="rgb(94,179,210)"/><path d=" M 602.011 266.92 L 603.467 266.079 L 603.467 267.76 L 602.011 268.601 L 602.011 266.92 Z " fill="rgb(94,179,210)"/><path d=" M 594.732 264.398 L 597.644 262.717 L 597.644 264.398 L 594.732 266.079 L 594.732 264.398 Z " fill="rgb(94,179,210)"/><path d=" M 599.099 261.876 L 603.467 259.355 L 603.467 261.036 L 599.099 263.557 L 599.099 261.876 Z " fill="rgb(94,179,210)"/></g><g style="isolation:isolate"><g style="isolation:isolate"><path d=" M 492.095 201.093 L 492.095 214.542 L 553.241 249.844 L 553.241 236.396 L 492.095 201.093 Z " fill="rgb(20,127,165)"/><path d=" M 495.007 207.818 L 527.763 226.73 L 527.763 230.932 L 495.007 212.02 L 495.007 207.818 Z " fill="rgb(230,116,255)"/><path d=" M 531.403 228.831 L 535.043 230.932 L 535.043 235.135 L 531.403 233.033 L 531.403 228.831 Z " fill="rgb(0,210,56)"/><path d=" M 538.682 233.033 L 542.322 235.135 L 542.322 239.337 L 538.682 237.236 L 538.682 233.033 Z " fill="rgb(0,210,56)"/><path d=" M 545.961 237.236 L 549.601 239.337 L 549.601 243.54 L 545.961 241.439 L 545.961 237.236 Z " fill="rgb(229,255,113)"/><path d=" M 553.241 249.844 L 554.696 249.003 L 554.696 235.555 L 553.241 236.396 L 553.241 249.844 Z " fill="rgb(0,59,81)"/><path d=" M 554.696 235.555 L 493.551 200.253 L 492.095 201.093 L 553.241 236.396 L 554.696 235.555 Z " fill="rgb(0,59,81)"/></g><g style="isolation:isolate"><path d=" M 492.095 222.931 L 492.095 236.379 L 553.241 271.682 L 553.241 258.233 L 492.095 222.931 Z " fill="rgb(20,127,165)"/><path d=" M 495.007 229.655 L 527.763 248.567 L 527.763 252.77 L 495.007 233.858 L 495.007 229.655 Z " fill="rgb(230,116,255)"/><path d=" M 531.403 250.668 L 535.043 252.77 L 535.043 256.972 L 531.403 254.871 L 531.403 250.668 Z " fill="rgb(0,210,56)"/><path d=" M 538.682 254.871 L 542.322 256.972 L 542.322 261.175 L 538.682 259.074 L 538.682 254.871 Z " fill="rgb(0,210,56)"/><path d=" M 545.961 259.074 L 549.601 261.175 L 549.601 265.378 L 545.961 263.276 L 545.961 259.074 Z " fill="rgb(0,210,56)"/><path d=" M 553.241 271.682 L 554.696 270.841 L 554.696 257.393 L 553.241 258.233 L 553.241 271.682 Z " fill="rgb(0,59,81)"/><path d=" M 554.696 257.393 L 493.551 222.09 L 492.095 222.931 L 553.241 258.233 L 554.696 257.393 Z " fill="rgb(0,59,81)"/></g><g style="isolation:isolate"><path d=" M 492.095 244.768 L 492.095 258.217 L 553.241 293.519 L 553.241 280.071 L 492.095 244.768 Z " fill="rgb(20,127,165)"/><path d=" M 495.007 251.493 L 527.763 270.405 L 527.763 274.607 L 495.007 255.695 L 495.007 251.493 Z " fill="rgb(230,116,255)"/><path d=" M 531.403 272.506 L 535.043 274.607 L 535.043 278.81 L 531.403 276.709 L 531.403 272.506 Z " fill="rgb(0,210,56)"/><path d=" M 538.682 276.709 L 542.322 278.81 L 542.322 283.012 L 538.682 280.911 L 538.682 276.709 Z " fill="rgb(229,255,113)"/><path d=" M 545.961 280.911 L 549.601 283.012 L 549.601 287.215 L 545.961 285.114 L 545.961 280.911 Z " fill="rgb(229,255,113)"/><path d=" M 553.241 293.519 L 554.696 292.679 L 554.696 279.23 L 553.241 280.071 L 553.241 293.519 Z " fill="rgb(0,59,81)"/><path d=" M 554.696 279.23 L 493.551 243.928 L 492.095 244.768 L 553.241 280.071 L 554.696 279.23 Z " fill="rgb(0,59,81)"/></g><g style="isolation:isolate"><path d=" M 492.095 266.606 L 492.095 280.054 L 553.241 315.357 L 553.241 301.908 L 492.095 266.606 Z " fill="rgb(20,127,165)"/><path d=" M 495.007 273.33 L 527.763 292.242 L 527.763 296.445 L 495.007 277.533 L 495.007 273.33 Z " fill="rgb(230,116,255)"/><path d=" M 531.403 294.343 L 535.043 296.445 L 535.043 300.647 L 531.403 298.546 L 531.403 294.343 Z " fill="rgb(229,255,113)"/><path d=" M 538.682 298.546 L 542.322 300.647 L 542.322 304.85 L 538.682 302.749 L 538.682 298.546 Z " fill="rgb(0,210,56)"/><path d=" M 545.961 302.749 L 549.601 304.85 L 549.601 309.053 L 545.961 306.951 L 545.961 302.749 Z " fill="rgb(229,255,113)"/><path d=" M 553.241 315.357 L 554.696 314.516 L 554.696 301.068 L 553.241 301.908 L 553.241 315.357 Z " fill="rgb(0,59,81)"/><path d=" M 554.696 301.068 L 493.551 265.766 L 492.095 266.606 L 553.241 301.908 L 554.696 301.068 Z " fill="rgb(0,59,81)"/></g><g style="isolation:isolate"><path d=" M 492.095 288.444 L 492.095 301.892 L 553.241 337.194 L 553.241 323.746 L 492.095 288.444 Z " fill="rgb(20,127,165)"/><path d=" M 495.007 295.168 L 527.763 314.08 L 527.763 318.282 L 495.007 299.37 L 495.007 295.168 Z " fill="rgb(230,116,255)"/><path d=" M 531.403 316.181 L 535.043 318.282 L 535.043 322.485 L 531.403 320.384 L 531.403 316.181 Z " fill="rgb(0,210,56)"/><path d=" M 538.682 320.384 L 542.322 322.485 L 542.322 326.688 L 538.682 324.586 L 538.682 320.384 Z " fill="rgb(0,210,56)"/><path d=" M 545.961 324.586 L 549.601 326.688 L 549.601 330.89 L 545.961 328.789 L 545.961 324.586 Z " fill="rgb(229,255,113)"/><path d=" M 553.241 337.194 L 554.696 336.354 L 554.696 322.905 L 553.241 323.746 L 553.241 337.194 Z " fill="rgb(0,59,81)"/><path d=" M 554.696 322.905 L 493.551 287.603 L 492.095 288.444 L 553.241 323.746 L 554.696 322.905 Z " fill="rgb(0,59,81)"/></g><g style="isolation:isolate"><path d=" M 492.095 310.281 L 492.095 323.73 L 553.241 359.032 L 553.241 345.583 L 492.095 310.281 Z " fill="rgb(20,127,165)"/><path d=" M 495.007 317.005 L 527.763 335.917 L 527.763 340.12 L 495.007 321.208 L 495.007 317.005 Z " fill="rgb(230,116,255)"/><path d=" M 531.403 338.018 L 535.043 340.12 L 535.043 344.322 L 531.403 342.221 L 531.403 338.018 Z " fill="rgb(0,210,56)"/><path d=" M 538.682 342.221 L 542.322 344.322 L 542.322 348.525 L 538.682 346.424 L 538.682 342.221 Z " fill="rgb(229,255,113)"/><path d=" M 545.961 346.424 L 549.601 348.525 L 549.601 352.728 L 545.961 350.626 L 545.961 346.424 Z " fill="rgb(229,255,113)"/><path d=" M 553.241 359.032 L 554.696 358.191 L 554.696 344.743 L 553.241 345.583 L 553.241 359.032 Z " fill="rgb(0,59,81)"/><path d=" M 554.696 344.743 L 493.551 309.441 L 492.095 310.281 L 553.241 345.583 L 554.696 344.743 Z " fill="rgb(0,59,81)"/></g><g style="isolation:isolate"><path d=" M 492.095 332.119 L 492.095 345.567 L 553.241 380.869 L 553.241 367.421 L 492.095 332.119 Z " fill="rgb(20,127,165)"/><path d=" M 495.007 338.843 L 527.763 357.755 L 527.763 361.957 L 495.007 343.045 L 495.007 338.843 Z " fill="rgb(230,116,255)"/><path d=" M 531.403 359.856 L 535.043 361.957 L 535.043 366.16 L 531.403 364.059 L 531.403 359.856 Z " fill="rgb(0,210,56)"/><path d=" M 538.682 364.059 L 542.322 366.16 L 542.322 370.363 L 538.682 368.261 L 538.682 364.059 Z " fill="rgb(0,210,56)"/><path d=" M 545.961 368.261 L 549.601 370.363 L 549.601 374.565 L 545.961 372.464 L 545.961 368.261 Z " fill="rgb(0,210,56)"/><path d=" M 553.241 380.869 L 554.696 380.029 L 554.696 366.58 L 553.241 367.421 L 553.241 380.869 Z " fill="rgb(0,59,81)"/><path d=" M 554.696 366.58 L 493.551 331.278 L 492.095 332.119 L 553.241 367.421 L 554.696 366.58 Z " fill="rgb(0,59,81)"/></g></g><g style="isolation:isolate"><radialGradient id="_rgradient_16" fx="0.5" fy="0.5" cx="0.5" cy="0.5" r="0.5" gradientTransform="matrix(72.792,0,0,42.026,521.94,160.943)" gradientUnits="userSpaceOnUse"><stop offset="1.7391304347826086%" stop-opacity="1" style="stop-color:rgb(0,100,136)"/><stop offset="97.3913043478261%" stop-opacity="1" style="stop-color:rgb(60,178,221)"/></radialGradient><path d=" M 521.94 181.956 L 558.336 160.943 L 594.732 181.956 L 558.336 202.97 L 521.94 181.956 Z " fill="url(#_rgradient_16)"/><path d=" M 521.94 181.956 L 558.336 160.943 L 558.336 165.146 L 525.58 184.058 L 521.94 181.956 Z " fill="rgb(8,91,121)"/><path d=" M 558.336 160.943 L 558.336 165.146 L 591.092 184.058 L 594.732 181.956 L 558.336 160.943 Z " fill="rgb(8,91,121)"/><g style="isolation:isolate"><radialGradient id="_rgradient_17" fx="0.5" fy="0.5" cx="0.5" cy="0.5" r="0.5" gradientTransform="matrix(3.64,0,0,6.304,558.336,179.855)" gradientUnits="userSpaceOnUse"><stop offset="1.3043478260869565%" stop-opacity="1" style="stop-color:rgb(0,255,115)"/><stop offset="96.95652173913044%" stop-opacity="1" style="stop-color:rgb(34,181,32)"/></radialGradient><path d=" M 558.336 181.956 L 561.976 179.855 L 561.976 184.058 L 558.336 186.159 L 558.336 181.956 Z " fill="url(#_rgradient_17)"/><radialGradient id="_rgradient_18" fx="0.5" fy="0.5" cx="0.5" cy="0.5" r="0.5" gradientTransform="matrix(7.279,0,0,4.203,554.696,177.754)" gradientUnits="userSpaceOnUse"><stop offset="1.3043478260869565%" stop-opacity="1" style="stop-color:rgb(0,255,115)"/><stop offset="96.95652173913044%" stop-opacity="1" style="stop-color:rgb(34,181,32)"/></radialGradient><path d=" M 554.696 179.855 L 558.336 177.754 L 561.976 179.855 L 558.336 181.956 L 554.696 179.855 Z " fill="url(#_rgradient_18)"/><radialGradient id="_rgradient_19" fx="0.5" fy="0.5" cx="0.5" cy="0.5" r="0.5" gradientTransform="matrix(3.64,0,0,6.304,554.696,179.855)" gradientUnits="userSpaceOnUse"><stop offset="1.3043478260869565%" stop-opacity="1" style="stop-color:rgb(0,255,115)"/><stop offset="96.95652173913044%" stop-opacity="1" style="stop-color:rgb(34,181,32)"/></radialGradient><path d=" M 554.696 184.058 L 554.696 179.855 L 558.336 181.956 L 558.336 186.159 L 554.696 184.058 Z " fill="url(#_rgradient_19)"/></g></g></g></g><g style="isolation:isolate"><path d=" M 328.535 106.229 L 91 256 L 62 241.675 Q 38.5 212.239 73 166.62 Q 66.5 94.5 123 69 Q 172.5 58.128 200 91.564 Q 252.5 60.628 283 91.564 Q 301.75 80.75 319 87 L 340 99 L 328.535 106.229 Z " fill="rgb(204,204,204)"/><path d=" M 284 89 C 275.231 82.774 263.75 78.25 255 77 Q 233 73.125 205 89 L 223 103 Q 267.875 95.25 284 89 Z " fill="rgb(204,204,204)"/><path d=" M 196 83 Q 162.25 61.5 131 67 Q 68.5 88.5 73 166 L 93 176.62 Q 96 57 196 83 Z " fill="rgb(204,204,204)"/><path d=" M 343 124.658 L 123 251.675 Q 103 263.35 83 251.675 Q 73 245.615 73 222.808 Q 73 200 93 176.62 Q 87.782 107.608 133 84.244 Q 177.5 61.25 223 101.564 Q 272 70.625 303 101.564 Q 327.875 87.5 343 101.564 Q 353.33 111.169 343 124.658 Z " fill="rgb(227,227,227)"/></g></g></svg>