<?xml version="1.0" encoding="UTF-8" standalone="no"?><!-- Generator: Gravit.io --><svg xmlns="http://www.w3.org/2000/svg" xmlns:xlink="http://www.w3.org/1999/xlink" style="isolation:isolate" viewBox="0 0 800 600" width="800pt" height="600pt"><defs><clipPath id="_clipPath_g8dRHOpXI2Lm7YxRDdfMLPPYEpHmZjy2"><rect width="800" height="600"/></clipPath></defs><g clip-path="url(#_clipPath_g8dRHOpXI2Lm7YxRDdfMLPPYEpHmZjy2)"><g style="isolation:isolate"><path d=" M 499.211 403.63 L 260.027 490.686 Q 253.281 495.033 260.027 504.079 L 370.42 544.259 Q 388.819 551.474 407.217 544.259 L 646.401 457.203 Q 654.374 450.493 646.401 443.81 L 536.009 403.63 Q 517.61 397.168 499.211 403.63 Z " fill="rgb(247,247,247)"/><path d=" M 499.211 392.591 L 260.027 479.647 Q 253.281 483.993 260.027 493.04 L 370.42 533.219 Q 388.819 540.434 407.217 533.219 L 646.401 446.164 Q 654.374 439.453 646.401 432.77 L 536.009 392.591 Q 517.61 386.129 499.211 392.591 Z " fill="rgb(247,247,247)"/><linearGradient id="_lgradient_0" x1="0.9269751544629934" y1="0.5968200572666559" x2="-0.010266859471539935" y2="0.853059745279326" gradientTransform="matrix(349.576,0,0,130.929,282.106,395.594)" gradientUnits="userSpaceOnUse"><stop offset="1.3043478260869565%" stop-opacity="1" style="stop-color:rgb(255,144,196)"/><stop offset="97.3913043478261%" stop-opacity="1" style="stop-color:rgb(26,174,169)"/></linearGradient><path d=" M 497.46 398.463 L 285.101 475.755 Q 279.111 479.615 285.101 487.646 L 383.113 523.32 Q 399.448 529.726 415.783 523.32 L 628.143 446.027 Q 635.221 440.07 628.143 434.136 L 530.131 398.463 Q 513.795 392.725 497.46 398.463 Z " fill="url(#_lgradient_0)"/><linearGradient id="_lgradient_1" x1="0.32581416062892643" y1="0.5618069972717805" x2="0.8162924580246733" y2="0.0010270496778971294" gradientTransform="matrix(393.733,0,0,107.856,256.348,440.144)" gradientUnits="userSpaceOnUse"><stop offset="1.7391304347826086%" stop-opacity="1" style="stop-color:rgb(105,176,175)"/><stop offset="98.69565217391305%" stop-opacity="1" style="stop-color:rgb(170,254,255)"/></linearGradient><path d=" M 256.348 484.301 L 256.348 497.18 Q 257.21 501.549 260.027 504.539 L 370.42 544.259 Q 388.129 551.341 405.377 545.016 L 646.401 457.203 Q 649.966 453.828 650.081 451.183 L 650.081 440.144 Q 648.701 444.594 646.401 446.164 L 405.377 533.977 Q 389.279 539.727 370.42 533.977 L 260.027 493.5 Q 256.491 489.188 256.348 484.301 Z " fill="url(#_lgradient_1)"/><g style="isolation:isolate"><path d=" M 446.161 455.332 L 436.962 458.68 L 492.158 478.77 L 501.358 475.422 L 446.161 455.332 Z " fill="rgb(255,255,255)" fill-opacity="0.5"/><path d=" M 427.763 462.029 L 418.563 465.377 L 473.76 485.467 L 482.959 482.119 L 427.763 462.029 Z " fill="rgb(255,255,255)" fill-opacity="0.5"/><path d=" M 538.155 421.849 L 528.956 425.197 L 584.152 445.287 L 593.351 441.939 L 538.155 421.849 Z " fill="rgb(255,255,255)" fill-opacity="0.5"/><path d=" M 501.358 408.456 L 501.358 415.153 L 528.956 411.804" fill="none" vector-effect="non-scaling-stroke" stroke-width="2" stroke="rgb(23,232,0)" stroke-linejoin="miter" stroke-linecap="square" stroke-miterlimit="3"/><path d=" M 400.164 472.074 L 390.965 475.422 L 446.161 495.512 L 455.361 492.163 L 400.164 472.074 Z " fill="rgb(255,255,255)" fill-opacity="0.5"/><path d=" M 363.367 458.68 L 363.367 465.377 L 390.965 462.029" fill="none" vector-effect="non-scaling-stroke" stroke-width="2" stroke="rgb(23,232,0)" stroke-linejoin="miter" stroke-linecap="square" stroke-miterlimit="3"/><path d=" M 492.158 438.591 L 482.959 441.939 L 538.155 462.029 L 547.355 458.68 L 492.158 438.591 Z " fill="rgb(255,255,255)" fill-opacity="0.5"/><path d=" M 473.76 445.287 L 464.56 448.636 L 519.756 468.725 L 528.956 465.377 L 473.76 445.287 Z " fill="rgb(255,255,255)" fill-opacity="0.5"/><path d=" M 455.361 425.197 L 455.361 431.894 L 482.959 428.546" fill="none" vector-effect="non-scaling-stroke" stroke-width="2" stroke="rgb(23,232,0)" stroke-linejoin="miter" stroke-linecap="square" stroke-miterlimit="3"/><path d=" M 409.364 441.939 L 409.364 448.636 L 436.962 445.287" fill="none" vector-effect="non-scaling-stroke" stroke-width="2" stroke="rgb(23,232,0)" stroke-linejoin="miter" stroke-linecap="square" stroke-miterlimit="3"/></g></g><g style="isolation:isolate"><defs><filter id="h7tbeViM4TYJn4apPNjFIYQbc5pcDN1l" x="-200%" y="-200%" width="400%" height="400%" filterUnits="objectBoundingBox" color-interpolation-filters="sRGB"><feGaussianBlur xmlns="http://www.w3.org/2000/svg" in="SourceGraphic" stdDeviation="2.146804531419514"/><feOffset xmlns="http://www.w3.org/2000/svg" dx="0" dy="0" result="pf_100_offsetBlur"/><feFlood xmlns="http://www.w3.org/2000/svg" flood-color="#000000" flood-opacity="0.65"/><feComposite xmlns="http://www.w3.org/2000/svg" in2="pf_100_offsetBlur" operator="in" result="pf_100_dropShadow"/><feBlend xmlns="http://www.w3.org/2000/svg" in="SourceGraphic" in2="pf_100_dropShadow" mode="normal"/></filter></defs><g filter="url(#h7tbeViM4TYJn4apPNjFIYQbc5pcDN1l)"><path d=" M 125.328 394.637 L 201.735 422.615 Q 239.939 437.027 278.143 422.615 L 316.346 408.626 Q 339.905 394.09 316.346 380.648 L 239.939 352.669 Q 201.735 339.415 163.532 352.669 L 125.328 366.659 Q 107.5 380.43 125.328 394.637 Z " fill="rgb(97,229,232)"/></g><path d=" M 96.391 249.753 L 96.391 292.708 L 227.643 340.436 L 227.643 299.867 L 96.391 249.753 Z " fill="rgb(109,246,249)"/><linearGradient id="_lgradient_2" x1="0.9269751544629934" y1="0.5968200572666559" x2="-0.010266859471539935" y2="0.853059745279326" gradientTransform="matrix(262.901,0,0,104.036,89.232,194.743)" gradientUnits="userSpaceOnUse"><stop offset="1.3043478260869565%" stop-opacity="1" style="stop-color:rgb(255,144,196)"/><stop offset="97.3913043478261%" stop-opacity="1" style="stop-color:rgb(26,174,169)"/></linearGradient><path d=" M 100.302 255.087 L 195.183 289.83 Q 242.624 307.727 290.065 289.83 L 337.505 272.458 Q 366.761 254.408 337.505 237.715 L 242.624 202.972 Q 195.183 186.513 147.742 202.972 L 100.302 220.344 Q 78.163 237.446 100.302 255.087 Z " fill="url(#_lgradient_2)"/><path d=" M 244.348 294.971 L 244.348 435.891 Q 219.253 435.805 206.165 431.119 L 101.164 392.795 Q 89.232 385.628 89.232 371.459 L 89.232 237.698 Q 91.618 246.103 101.164 252.7 Q 125.774 263.624 127.414 276.003 Q 129.055 288.382 153.665 297.481 Q 175.44 303.297 184.688 299.867 C 193.935 296.437 197.067 289.874 210.938 292.708 Q 239.276 296.015 244.348 294.971 Z " fill="rgb(190,240,237)"/><linearGradient id="_lgradient_3" x1="0.9782623573277096" y1="0.35330404669978865" x2="-0.0071774438161177345" y2="0.535234879091065" gradientTransform="matrix(109.782,0,0,183.3,241.961,252.7)" gradientUnits="userSpaceOnUse"><stop offset="0%" stop-opacity="1" style="stop-color:rgb(251,251,251)"/><stop offset="97.82608695652173%" stop-opacity="1" style="stop-color:rgb(190,240,237)"/></linearGradient><path d=" M 241.961 407.43 L 241.961 294.971 Q 266.012 295.94 282.53 290.198 L 337.417 270.072 Q 352.071 260.757 351.735 252.7 L 351.735 392.795 Q 347.596 405.883 337.417 410.167 L 282.53 431.119 Q 262.003 436.728 241.961 435.891 L 241.961 407.43 Z " fill="url(#_lgradient_3)"/><g style="isolation:isolate"><path d=" M 129.72 334.161 C 130.543 332.939 131.471 331.808 132.49 330.776 L 128.863 323.968 L 141.178 317.408 L 144.777 324.165 L 144.777 324.165 C 146.169 323.89 147.593 323.739 149.034 323.72 L 151.235 316.416 L 151.235 316.416 L 164.594 320.442 L 162.417 327.668 C 163.683 328.509 164.854 329.465 165.918 330.515 L 172.56 326.977 L 179.12 339.292 L 172.529 342.803 L 172.529 342.803 C 172.813 344.239 172.965 345.71 172.975 347.198 L 180.112 349.349 L 180.112 349.349 L 176.086 362.708 L 168.949 360.557 C 168.089 361.835 167.113 363.014 166.04 364.083 L 169.551 370.674 L 169.551 370.674 L 157.236 377.234 L 153.698 370.591 C 152.278 370.86 150.825 370.999 149.356 371 L 147.179 378.226 L 133.819 374.2 L 136.021 366.895 L 136.021 366.895 C 134.788 366.055 133.648 365.105 132.611 364.065 L 125.853 367.665 L 125.853 367.665 L 119.294 355.35 L 126.103 351.723 C 125.843 350.348 125.704 348.942 125.694 347.521 L 118.302 345.293 L 122.328 331.933 L 129.72 334.161 L 129.72 334.161 Z  M 140.044 344.425 C 141.596 339.277 147.035 336.357 152.183 337.908 C 157.331 339.46 160.251 344.899 158.699 350.047 C 157.147 355.195 151.708 358.115 146.56 356.563 C 141.413 355.012 138.493 349.573 140.044 344.425 L 140.044 344.425 Z " fill-rule="evenodd" fill="rgb(58,169,172)"/><path d=" M 179.073 365.52 C 179.544 364.82 180.077 364.171 180.66 363.58 L 178.582 359.678 L 185.639 355.919 L 187.702 359.791 L 187.702 359.791 C 188.5 359.633 189.316 359.547 190.141 359.536 L 191.403 355.35 L 191.403 355.35 L 199.059 357.657 L 197.811 361.798 C 198.537 362.281 199.208 362.828 199.818 363.43 L 203.624 361.403 L 207.384 368.46 L 203.607 370.472 L 203.607 370.472 C 203.769 371.295 203.856 372.138 203.862 372.991 L 207.952 374.224 L 207.952 374.224 L 205.645 381.88 L 201.555 380.647 C 201.062 381.38 200.503 382.055 199.888 382.668 L 201.9 386.445 L 201.9 386.445 L 194.842 390.205 L 192.814 386.398 C 192.001 386.552 191.168 386.632 190.326 386.632 L 189.078 390.773 L 181.422 388.466 L 182.684 384.28 L 182.684 384.28 C 181.977 383.798 181.324 383.254 180.73 382.658 L 176.857 384.721 L 176.857 384.721 L 173.098 377.663 L 177 375.585 C 176.851 374.796 176.771 373.991 176.765 373.176 L 172.529 371.899 L 174.836 364.243 L 179.073 365.52 L 179.073 365.52 Z  M 184.99 371.402 C 185.879 368.452 188.996 366.778 191.946 367.667 C 194.897 368.557 196.57 371.674 195.681 374.624 C 194.792 377.574 191.674 379.248 188.724 378.358 C 185.774 377.469 184.101 374.352 184.99 371.402 L 184.99 371.402 Z " fill-rule="evenodd" fill="rgb(58,169,172)"/></g></g><g style="isolation:isolate"><linearGradient id="_lgradient_4" x1="0.045833333333333226" y1="0.551780906421179" x2="1.3208333333333335" y2="0.3192111810500351" gradientTransform="matrix(313.197,0,0,341.927,445.399,12.459)" gradientUnits="userSpaceOnUse"><stop offset="1.3043478260869565%" stop-opacity="1" style="stop-color:rgb(195,255,254)"/><stop offset="97.3913043478261%" stop-opacity="1" style="stop-color:rgb(0,206,203)"/></linearGradient><path d=" M 445.399 215.987 L 445.399 36.882 Q 447.636 15.403 467.767 12.459 L 736.178 110.153 Q 758.545 124.445 758.545 150.858 L 758.545 329.963 Q 759.664 351.442 736.178 354.386 L 467.767 256.693 Q 445.399 245.755 445.399 215.987 Z " fill="url(#_lgradient_4)" fill-opacity="0.15"/><linearGradient id="_lgradient_5" x1="0.045833333333333226" y1="0.551780906421179" x2="1.3208333333333335" y2="0.3192111810500351" gradientTransform="matrix(313.197,0,0,341.927,420.589,33.003)" gradientUnits="userSpaceOnUse"><stop offset="1.3043478260869565%" stop-opacity="1" style="stop-color:rgb(195,255,254)"/><stop offset="97.3913043478261%" stop-opacity="1" style="stop-color:rgb(0,206,203)"/></linearGradient><path d=" M 420.589 236.531 L 420.589 57.426 Q 422.825 35.947 442.956 33.003 L 711.367 130.696 Q 733.734 144.988 733.734 171.402 L 733.734 350.507 Q 734.853 371.986 711.367 374.93 L 442.956 277.236 Q 420.589 266.299 420.589 236.531 Z " fill="url(#_lgradient_5)" fill-opacity="0.25"/><linearGradient id="_lgradient_6" x1="0.045833333333333226" y1="0.551780906421179" x2="1.3208333333333335" y2="0.3192111810500351" gradientTransform="matrix(313.197,0,0,341.927,393.541,49.073)" gradientUnits="userSpaceOnUse"><stop offset="1.3043478260869565%" stop-opacity="1" style="stop-color:rgb(195,255,254)"/><stop offset="97.3913043478261%" stop-opacity="1" style="stop-color:rgb(0,206,203)"/></linearGradient><path d=" M 393.541 252.601 L 393.541 73.496 Q 395.778 52.017 415.909 49.073 L 684.319 146.766 Q 706.687 161.058 706.687 187.472 L 706.687 366.577 Q 707.805 388.056 684.319 391 L 415.909 293.307 Q 393.541 282.369 393.541 252.601 Z " fill="url(#_lgradient_6)" vector-effect="non-scaling-stroke" stroke-width="0.3" stroke="rgb(209,225,225)" stroke-linejoin="miter" stroke-linecap="square" stroke-miterlimit="3"/><g style="isolation:isolate"><path d=" M 614.674 172.961 L 614.674 240.767 L 687.122 267.136 L 687.122 199.33 L 614.674 172.961 Z " fill="rgb(255,255,255)" fill-opacity="0.5"/><path d=" M 644.562 231.504 C 644.259 230.185 646.677 216.978 644.562 215.407 L 660.681 219.554 Q 658.738 227.091 660.073 232.199 L 652.621 233.846 Q 644.864 232.824 644.562 231.504 Z " fill="rgb(232,218,152)"/><path d=" M 648.68 224.669 L 653.238 233.783 L 660.073 232.074 Q 658.872 225.39 660.643 220.111 L 648.68 224.669 Z " fill="rgb(225,212,148)"/><path d=" M 642.361 210.892 C 641.943 202.142 646.108 194.823 651.656 194.558 C 657.203 194.293 662.047 201.182 662.465 209.932 C 662.882 218.682 658.718 226 653.17 226.265 C 647.622 226.53 642.779 219.642 642.361 210.892 Z " fill="rgb(236,222,155)"/><path d=" M 650.389 203.022 L 644.693 200.174 L 641.845 209.288 Q 641.702 199.773 646.402 194.477 L 652.668 192.768 L 658.364 195.047 Q 665.343 204.98 661.782 211.567 L 656.086 201.313 L 650.389 203.022 Z " fill="rgb(117,112,86)"/><path d=" M 626.464 240.222 C 625.641 230.643 629.01 225.155 636.538 223.722 L 642.414 225.238 L 650.959 232.889 L 661.724 231.055 L 666.761 232.889 Q 677.024 237.811 676.835 243.889 L 676.835 258.556 L 626.464 240.222 Z " fill="rgb(41,164,225)"/></g><g style="isolation:isolate"><path d=" M 614.674 250.693 L 614.674 318.499 L 687.122 344.868 L 687.122 277.062 L 614.674 250.693 Z " fill="rgb(255,255,255)" fill-opacity="0.5"/><path d=" M 644.562 309.236 C 644.259 307.917 646.677 294.71 644.562 293.14 L 660.681 297.286 Q 658.738 304.823 660.073 309.932 L 652.621 311.578 Q 644.864 310.556 644.562 309.236 Z " fill="rgb(232,218,152)"/><path d=" M 648.68 302.401 L 653.238 311.515 L 660.073 309.806 Q 658.872 303.122 660.643 297.843 L 648.68 302.401 Z " fill="rgb(225,212,148)"/><path d=" M 642.361 288.624 C 641.943 279.874 646.108 272.555 651.656 272.29 C 657.203 272.025 662.047 278.914 662.465 287.664 C 662.882 296.414 658.718 303.732 653.17 303.997 C 647.622 304.262 642.779 297.374 642.361 288.624 Z " fill="rgb(236,222,155)"/><path d=" M 650.389 280.754 L 644.693 277.906 L 641.845 287.02 Q 641.702 277.505 646.402 272.209 L 652.668 270.5 L 658.364 272.779 Q 665.343 282.712 661.782 289.299 L 656.086 279.045 L 650.389 280.754 Z " fill="rgb(202,186,107)"/><path d=" M 626.464 317.954 C 625.641 308.376 629.01 302.887 636.538 301.454 L 642.414 302.97 L 650.959 310.621 L 661.724 308.787 L 666.761 310.621 Q 677.024 315.543 676.835 321.621 L 676.835 336.288 L 626.464 317.954 Z " fill="rgb(41,225,148)"/></g><g style="isolation:isolate"><path d=" M 411.619 98.402 L 411.619 166.208 L 484.067 192.577 L 484.067 124.771 L 411.619 98.402 Z " fill="rgb(255,255,255)" fill-opacity="0.5"/><path d=" M 441.507 156.945 C 441.204 155.626 443.622 142.419 441.507 140.848 L 457.626 144.995 Q 455.683 152.532 457.018 157.64 L 449.566 159.286 Q 441.809 158.264 441.507 156.945 Z " fill="rgb(232,218,152)"/><path d=" M 445.625 150.109 L 450.182 159.224 L 457.018 157.515 Q 455.817 150.83 457.588 145.552 L 445.625 150.109 Z " fill="rgb(225,212,148)"/><path d=" M 439.306 136.332 C 438.888 127.582 443.053 120.263 448.601 119.999 C 454.148 119.734 458.992 126.622 459.409 135.372 C 459.827 144.122 455.662 151.441 450.115 151.706 C 444.567 151.971 439.724 145.082 439.306 136.332 Z " fill="rgb(236,222,155)"/><path d=" M 447.334 128.463 L 441.638 125.614 L 438.79 134.729 Q 438.647 125.214 443.347 119.918 L 449.613 118.209 L 455.309 120.488 Q 462.287 130.421 458.727 137.007 L 453.031 126.754 L 447.334 128.463 Z " fill="rgb(117,112,86)"/><path d=" M 423.409 165.663 C 422.585 156.084 425.955 150.595 433.483 149.162 L 439.359 150.679 L 447.904 158.329 L 458.669 156.496 L 463.706 158.329 Q 473.969 163.251 473.78 169.329 L 473.78 183.996 L 423.409 165.663 Z " fill="rgb(41,164,225)"/></g><g style="isolation:isolate"><path d=" M 411.619 176.134 L 411.619 243.94 L 484.067 270.309 L 484.067 202.503 L 411.619 176.134 Z " fill="rgb(255,255,255)" fill-opacity="0.5"/><path d=" M 441.507 234.677 C 441.204 233.358 443.622 220.151 441.507 218.58 L 457.626 222.727 Q 455.683 230.264 457.018 235.372 L 449.566 237.018 Q 441.809 235.996 441.507 234.677 Z " fill="rgb(232,218,152)"/><path d=" M 445.625 227.841 L 450.182 236.956 L 457.018 235.247 Q 455.817 228.562 457.588 223.284 L 445.625 227.841 Z " fill="rgb(225,212,148)"/><path d=" M 439.306 214.064 C 438.888 205.314 443.053 197.996 448.601 197.731 C 454.148 197.466 458.992 204.354 459.409 213.104 C 459.827 221.854 455.662 229.173 450.115 229.438 C 444.567 229.703 439.724 222.814 439.306 214.064 Z " fill="rgb(236,222,155)"/><path d=" M 447.334 206.195 L 441.638 203.346 L 438.79 212.461 Q 438.647 202.946 443.347 197.65 L 449.613 195.941 L 455.309 198.22 Q 462.287 208.153 458.727 214.739 L 453.031 204.486 L 447.334 206.195 Z " fill="rgb(202,186,107)"/><path d=" M 423.409 243.395 C 422.585 233.816 425.955 228.328 433.483 226.894 L 439.359 228.411 L 447.904 236.061 L 458.669 234.228 L 463.706 236.061 Q 473.969 240.983 473.78 247.061 L 473.78 261.728 L 423.409 243.395 Z " fill="rgb(41,225,148)"/></g><g style="isolation:isolate"><path d=" M 494.398 148.176 L 494.398 161.393 L 548.867 181.218 L 548.867 168.001 L 494.398 148.176 Z " fill="rgb(255,255,255)"/><path d=" M 608.096 224.238 L 562.705 207.717 L 562.705 220.934 L 608.096 237.455 L 608.096 224.238 Z " fill="rgb(193,158,213)"/><path d=" M 494.398 169.715 L 494.398 182.931 L 530.711 196.148 L 530.711 182.931 L 494.398 169.715 Z " fill="rgb(255,255,255)"/><path d=" M 608.096 274.27 L 544.548 251.141 L 544.548 264.665 L 608.096 286.971 L 608.096 274.27 Z " fill="rgb(193,158,213)"/><path d=" M 494.398 234.085 L 512.554 240.694 L 512.554 253.91 L 494.398 247.302 L 494.398 234.085 Z " fill="rgb(255,255,255)"/><path d=" M 494.398 255.633 L 539.789 272.982 L 539.789 285.375 L 494.398 268.849 L 494.398 255.633 Z " fill="rgb(255,255,255)"/></g></g></g></svg>