<?xml version="1.0" encoding="UTF-8" standalone="no"?><!-- Generator: Gravit.io --><svg xmlns="http://www.w3.org/2000/svg" xmlns:xlink="http://www.w3.org/1999/xlink" style="isolation:isolate" viewBox="0 0 800 600" width="800pt" height="600pt"><defs><clipPath id="_clipPath_THWjZ8OZp0hCFTy0jhJVgp64CNfbGKgw"><rect width="800" height="600"/></clipPath></defs><g clip-path="url(#_clipPath_THWjZ8OZp0hCFTy0jhJVgp64CNfbGKgw)"><g style="isolation:isolate"><path d=" M 479.211 393.63 L 240.027 480.686 Q 233.281 485.033 240.027 494.079 L 350.42 534.259 Q 368.819 541.474 387.217 534.259 L 626.401 447.203 Q 634.374 440.493 626.401 433.81 L 516.009 393.63 Q 497.61 387.168 479.211 393.63 Z " fill="rgb(247,247,247)"/><path d=" M 479.211 382.591 L 240.027 469.647 Q 233.281 473.993 240.027 483.04 L 350.42 523.219 Q 368.819 530.434 387.217 523.219 L 626.401 436.164 Q 634.374 429.453 626.401 422.77 L 516.009 382.591 Q 497.61 376.129 479.211 382.591 Z " fill="rgb(247,247,247)"/><linearGradient id="_lgradient_0" x1="0.9269751544629934" y1="0.5968200572666559" x2="-0.010266859471539935" y2="0.853059745279326" gradientTransform="matrix(349.576,0,0,130.929,262.106,385.594)" gradientUnits="userSpaceOnUse"><stop offset="1.3043478260869565%" stop-opacity="1" style="stop-color:rgb(255,144,196)"/><stop offset="97.3913043478261%" stop-opacity="1" style="stop-color:rgb(26,174,169)"/></linearGradient><path d=" M 477.46 388.463 L 265.101 465.755 Q 259.111 469.615 265.101 477.646 L 363.113 513.32 Q 379.448 519.726 395.783 513.32 L 608.143 436.027 Q 615.221 430.07 608.143 424.136 L 510.131 388.463 Q 493.795 382.725 477.46 388.463 Z " fill="url(#_lgradient_0)"/><linearGradient id="_lgradient_1" x1="0.32581416062892643" y1="0.5618069972717805" x2="0.8162924580246733" y2="0.0010270496778971294" gradientTransform="matrix(393.733,0,0,107.856,236.348,430.144)" gradientUnits="userSpaceOnUse"><stop offset="1.7391304347826086%" stop-opacity="1" style="stop-color:rgb(105,176,175)"/><stop offset="98.69565217391305%" stop-opacity="1" style="stop-color:rgb(170,254,255)"/></linearGradient><path d=" M 236.348 474.301 L 236.348 487.18 Q 237.21 491.549 240.027 494.539 L 350.42 534.259 Q 368.129 541.341 385.377 535.016 L 626.401 447.203 Q 629.966 443.828 630.081 441.183 L 630.081 430.144 Q 628.701 434.594 626.401 436.164 L 385.377 523.977 Q 369.279 529.727 350.42 523.977 L 240.027 483.5 Q 236.491 479.188 236.348 474.301 Z " fill="url(#_lgradient_1)"/><g style="isolation:isolate"><path d=" M 426.161 445.332 L 416.962 448.68 L 472.158 468.77 L 481.358 465.422 L 426.161 445.332 Z " fill="rgb(255,255,255)" fill-opacity="0.5"/><path d=" M 407.763 452.029 L 398.563 455.377 L 453.76 475.467 L 462.959 472.119 L 407.763 452.029 Z " fill="rgb(255,255,255)" fill-opacity="0.5"/><path d=" M 518.155 411.849 L 508.956 415.197 L 564.152 435.287 L 573.351 431.939 L 518.155 411.849 Z " fill="rgb(255,255,255)" fill-opacity="0.5"/><path d=" M 481.358 398.456 L 481.358 405.153 L 508.956 401.804" fill="none" vector-effect="non-scaling-stroke" stroke-width="2" stroke="rgb(23,232,0)" stroke-linejoin="miter" stroke-linecap="square" stroke-miterlimit="3"/><path d=" M 380.164 462.074 L 370.965 465.422 L 426.161 485.512 L 435.361 482.163 L 380.164 462.074 Z " fill="rgb(255,255,255)" fill-opacity="0.5"/><path d=" M 343.367 448.68 L 343.367 455.377 L 370.965 452.029" fill="none" vector-effect="non-scaling-stroke" stroke-width="2" stroke="rgb(23,232,0)" stroke-linejoin="miter" stroke-linecap="square" stroke-miterlimit="3"/><path d=" M 472.158 428.591 L 462.959 431.939 L 518.155 452.029 L 527.355 448.68 L 472.158 428.591 Z " fill="rgb(255,255,255)" fill-opacity="0.5"/><path d=" M 453.76 435.287 L 444.56 438.636 L 499.756 458.725 L 508.956 455.377 L 453.76 435.287 Z " fill="rgb(255,255,255)" fill-opacity="0.5"/><path d=" M 435.361 415.197 L 435.361 421.894 L 462.959 418.546" fill="none" vector-effect="non-scaling-stroke" stroke-width="2" stroke="rgb(23,232,0)" stroke-linejoin="miter" stroke-linecap="square" stroke-miterlimit="3"/><path d=" M 389.364 431.939 L 389.364 438.636 L 416.962 435.287" fill="none" vector-effect="non-scaling-stroke" stroke-width="2" stroke="rgb(23,232,0)" stroke-linejoin="miter" stroke-linecap="square" stroke-miterlimit="3"/></g></g><g style="isolation:isolate"><defs><filter id="p5TwB1ZMVSV4sFNgxCMf1tng1mMzVmQ1" x="-200%" y="-200%" width="400%" height="400%" filterUnits="objectBoundingBox" color-interpolation-filters="sRGB"><feGaussianBlur xmlns="http://www.w3.org/2000/svg" in="SourceGraphic" stdDeviation="2.146804531419514"/><feOffset xmlns="http://www.w3.org/2000/svg" dx="0" dy="0" result="pf_100_offsetBlur"/><feFlood xmlns="http://www.w3.org/2000/svg" flood-color="#000000" flood-opacity="0.65"/><feComposite xmlns="http://www.w3.org/2000/svg" in2="pf_100_offsetBlur" operator="in" result="pf_100_dropShadow"/><feBlend xmlns="http://www.w3.org/2000/svg" in="SourceGraphic" in2="pf_100_dropShadow" mode="normal"/></filter></defs><g filter="url(#p5TwB1ZMVSV4sFNgxCMf1tng1mMzVmQ1)"><path d=" M 130.116 331.15 L 216.658 362.84 Q 259.928 379.164 303.199 362.84 L 346.47 346.995 Q 373.154 330.531 346.47 315.306 L 259.928 283.617 Q 216.658 268.604 173.387 283.617 L 130.116 299.461 Q 109.923 315.06 130.116 331.15 Z " fill="rgb(97,229,232)"/></g><path d=" M 97.341 167.049 L 97.341 215.702 L 246.001 269.76 L 246.001 223.81 L 97.341 167.049 Z " fill="rgb(109,246,249)"/><linearGradient id="_lgradient_2" x1="0.9269751544629934" y1="0.5968200572666559" x2="-0.010266859471539935" y2="0.853059745279326" gradientTransform="matrix(297.772,0,0,117.835,89.232,104.743)" gradientUnits="userSpaceOnUse"><stop offset="1.3043478260869565%" stop-opacity="1" style="stop-color:rgb(255,144,196)"/><stop offset="97.3913043478261%" stop-opacity="1" style="stop-color:rgb(26,174,169)"/></linearGradient><path d=" M 101.77 173.091 L 209.236 212.442 Q 262.969 232.713 316.703 212.442 L 370.436 192.767 Q 403.571 172.322 370.436 153.415 L 262.969 114.064 Q 209.236 95.421 155.503 114.064 L 101.77 133.74 Q 76.694 153.11 101.77 173.091 Z " fill="url(#_lgradient_2)"/><path d=" M 264.922 218.265 L 264.922 377.877 Q 236.499 377.78 221.675 372.471 L 102.747 329.065 Q 89.232 320.947 89.232 304.898 L 89.232 153.395 Q 91.935 162.915 102.747 170.388 Q 130.621 182.76 132.479 196.781 Q 134.337 210.803 162.211 221.108 Q 186.875 227.696 197.349 223.81 C 207.823 219.925 211.37 212.492 227.081 215.702 Q 259.178 219.448 264.922 218.265 Z " fill="rgb(190,240,237)"/><linearGradient id="_lgradient_3" x1="0.9782623573277096" y1="0.35330404669978865" x2="-0.0071774438161177345" y2="0.535234879091065" gradientTransform="matrix(124.343,0,0,207.612,262.219,170.388)" gradientUnits="userSpaceOnUse"><stop offset="0%" stop-opacity="1" style="stop-color:rgb(251,251,251)"/><stop offset="97.82608695652173%" stop-opacity="1" style="stop-color:rgb(190,240,237)"/></linearGradient><path d=" M 262.219 345.64 L 262.219 218.265 Q 289.459 219.363 308.169 212.859 L 370.336 190.064 Q 386.933 179.513 386.553 170.388 L 386.553 329.065 Q 381.865 343.888 370.336 348.74 L 308.169 372.471 Q 284.919 378.825 262.219 377.877 L 262.219 345.64 Z " fill="url(#_lgradient_3)"/><g style="isolation:isolate"><path d=" M 135.091 262.654 C 136.022 261.27 137.074 259.988 138.227 258.819 L 134.12 251.108 L 148.068 243.678 L 152.144 251.331 L 152.144 251.331 C 153.721 251.02 155.334 250.849 156.965 250.828 L 159.459 242.554 L 159.459 242.554 L 174.59 247.115 L 172.124 255.299 C 173.558 256.252 174.884 257.334 176.09 258.524 L 183.613 254.517 L 191.042 268.465 L 183.577 272.441 L 183.577 272.441 C 183.899 274.068 184.071 275.734 184.083 277.42 L 192.166 279.856 L 192.166 279.856 L 187.606 294.987 L 179.522 292.551 C 178.548 293.998 177.443 295.333 176.227 296.544 L 180.204 304.01 L 180.204 304.01 L 166.256 311.439 L 162.248 303.916 C 160.64 304.22 158.995 304.378 157.331 304.379 L 154.865 312.563 L 139.733 308.003 L 142.227 299.729 L 142.227 299.729 C 140.83 298.777 139.539 297.702 138.365 296.524 L 130.711 300.601 L 130.711 300.601 L 123.281 286.653 L 130.993 282.545 C 130.699 280.987 130.541 279.395 130.53 277.785 L 122.157 275.261 L 126.718 260.13 L 135.091 262.654 L 135.091 262.654 Z  M 146.784 274.278 C 148.541 268.447 154.702 265.14 160.533 266.898 C 166.363 268.655 169.67 274.816 167.913 280.646 C 166.156 286.477 159.995 289.784 154.164 288.027 C 148.334 286.269 145.027 280.109 146.784 274.278 L 146.784 274.278 Z " fill-rule="evenodd" fill="rgb(58,169,172)"/><path d=" M 190.989 298.172 C 191.523 297.378 192.126 296.644 192.787 295.974 L 190.433 291.555 L 198.427 287.297 L 200.763 291.683 L 200.763 291.683 C 201.666 291.504 202.591 291.406 203.526 291.394 L 204.955 286.653 L 204.955 286.653 L 213.627 289.266 L 212.213 293.956 C 213.035 294.503 213.795 295.123 214.486 295.805 L 218.797 293.508 L 223.055 301.502 L 218.777 303.781 L 218.777 303.781 C 218.961 304.713 219.06 305.668 219.067 306.634 L 223.699 308.03 L 223.699 308.03 L 221.086 316.702 L 216.453 315.306 C 215.895 316.135 215.261 316.9 214.565 317.594 L 216.844 321.873 L 216.844 321.873 L 208.85 326.131 L 206.553 321.819 C 205.632 321.993 204.689 322.084 203.735 322.084 L 202.322 326.775 L 193.65 324.161 L 195.079 319.42 L 195.079 319.42 C 194.279 318.874 193.539 318.258 192.866 317.582 L 188.479 319.919 L 188.479 319.919 L 184.221 311.925 L 188.641 309.571 C 188.472 308.679 188.382 307.766 188.376 306.843 L 183.577 305.397 L 186.191 296.725 L 190.989 298.172 L 190.989 298.172 Z  M 197.691 304.834 C 198.698 301.492 202.229 299.597 205.57 300.604 C 208.912 301.611 210.807 305.142 209.8 308.483 C 208.793 311.825 205.262 313.72 201.921 312.713 C 198.579 311.706 196.684 308.175 197.691 304.834 L 197.691 304.834 Z " fill-rule="evenodd" fill="rgb(58,169,172)"/></g></g><g style="isolation:isolate"><linearGradient id="_lgradient_4" x1="0.045833333333333226" y1="0.551780906421179" x2="1.3208333333333335" y2="0.3192111810500351" gradientTransform="matrix(225.175,0,0,245.831,510.825,92.459)" gradientUnits="userSpaceOnUse"><stop offset="1.3043478260869565%" stop-opacity="1" style="stop-color:rgb(195,255,254)"/><stop offset="97.3913043478261%" stop-opacity="1" style="stop-color:rgb(0,206,203)"/></linearGradient><path d=" M 510.825 238.787 L 510.825 110.018 Q 512.433 94.576 526.906 92.459 L 719.882 162.697 Q 735.963 172.972 735.963 191.962 L 735.963 320.731 Q 736.768 336.173 719.882 338.29 L 526.906 268.053 Q 510.825 260.189 510.825 238.787 Z " fill="url(#_lgradient_4)" fill-opacity="0.15"/><linearGradient id="_lgradient_5" x1="0.045833333333333226" y1="0.551780906421179" x2="1.3208333333333335" y2="0.3192111810500351" gradientTransform="matrix(225.175,0,0,245.831,492.987,107.229)" gradientUnits="userSpaceOnUse"><stop offset="1.3043478260869565%" stop-opacity="1" style="stop-color:rgb(195,255,254)"/><stop offset="97.3913043478261%" stop-opacity="1" style="stop-color:rgb(0,206,203)"/></linearGradient><path d=" M 492.987 253.557 L 492.987 124.788 Q 494.595 109.346 509.068 107.229 L 702.044 177.467 Q 718.126 187.742 718.126 206.732 L 718.126 335.501 Q 718.93 350.943 702.044 353.06 L 509.068 282.823 Q 492.987 274.959 492.987 253.557 Z " fill="url(#_lgradient_5)" fill-opacity="0.25"/><linearGradient id="_lgradient_6" x1="0.045833333333333226" y1="0.551780906421179" x2="1.3208333333333335" y2="0.3192111810500351" gradientTransform="matrix(225.175,0,0,245.831,473.541,118.783)" gradientUnits="userSpaceOnUse"><stop offset="1.3043478260869565%" stop-opacity="1" style="stop-color:rgb(195,255,254)"/><stop offset="97.3913043478261%" stop-opacity="1" style="stop-color:rgb(0,206,203)"/></linearGradient><path d=" M 473.541 265.111 L 473.541 136.342 Q 475.149 120.899 489.623 118.783 L 682.598 189.02 Q 698.68 199.296 698.68 218.286 L 698.68 347.055 Q 699.484 362.497 682.598 364.614 L 489.623 294.376 Q 473.541 286.513 473.541 265.111 Z " fill="url(#_lgradient_6)" vector-effect="non-scaling-stroke" stroke-width="0.3" stroke="rgb(209,225,225)" stroke-linejoin="miter" stroke-linecap="square" stroke-miterlimit="3"/><g style="isolation:isolate"><path d=" M 632.526 207.853 L 632.526 256.603 L 684.613 275.561 L 684.613 226.811 L 632.526 207.853 Z " fill="rgb(255,255,255)" fill-opacity="0.5"/><path d=" M 654.014 249.943 C 653.797 248.995 655.535 239.5 654.014 238.37 L 665.603 241.352 Q 664.207 246.771 665.166 250.443 L 659.809 251.627 Q 654.232 250.892 654.014 249.943 Z " fill="rgb(232,218,152)"/><path d=" M 656.975 245.029 L 660.252 251.581 L 665.166 250.353 Q 664.303 245.547 665.576 241.752 L 656.975 245.029 Z " fill="rgb(225,212,148)"/><path d=" M 652.432 235.124 C 652.132 228.833 655.126 223.571 659.115 223.38 C 663.103 223.19 666.585 228.143 666.886 234.433 C 667.186 240.724 664.192 245.986 660.203 246.177 C 656.215 246.367 652.732 241.414 652.432 235.124 Z " fill="rgb(236,222,155)"/><path d=" M 658.204 229.466 L 654.109 227.418 L 652.061 233.971 Q 651.958 227.13 655.337 223.322 L 659.842 222.094 L 663.938 223.732 Q 668.955 230.874 666.395 235.609 L 662.3 228.237 L 658.204 229.466 Z " fill="rgb(117,112,86)"/><path d=" M 641.003 256.211 C 640.411 249.324 642.833 245.378 648.246 244.348 L 652.47 245.438 L 658.614 250.938 L 666.353 249.62 L 669.975 250.938 Q 677.353 254.477 677.218 258.847 L 677.218 269.392 L 641.003 256.211 Z " fill="rgb(41,164,225)"/></g><g style="isolation:isolate"><path d=" M 632.526 263.739 L 632.526 312.489 L 684.613 331.447 L 684.613 282.698 L 632.526 263.739 Z " fill="rgb(255,255,255)" fill-opacity="0.5"/><path d=" M 654.014 305.829 C 653.797 304.881 655.535 295.386 654.014 294.256 L 665.603 297.238 Q 664.207 302.657 665.166 306.329 L 659.809 307.513 Q 654.232 306.778 654.014 305.829 Z " fill="rgb(232,218,152)"/><path d=" M 656.975 300.915 L 660.252 307.467 L 665.166 306.239 Q 664.303 301.433 665.576 297.638 L 656.975 300.915 Z " fill="rgb(225,212,148)"/><path d=" M 652.432 291.01 C 652.132 284.719 655.126 279.457 659.115 279.266 C 663.103 279.076 666.585 284.029 666.886 290.319 C 667.186 296.61 664.192 301.872 660.203 302.063 C 656.215 302.253 652.732 297.3 652.432 291.01 Z " fill="rgb(236,222,155)"/><path d=" M 658.204 285.352 L 654.109 283.304 L 652.061 289.857 Q 651.958 283.016 655.337 279.208 L 659.842 277.98 L 663.938 279.618 Q 668.955 286.76 666.395 291.495 L 662.3 284.123 L 658.204 285.352 Z " fill="rgb(202,186,107)"/><path d=" M 641.003 312.097 C 640.411 305.21 642.833 301.264 648.246 300.234 L 652.47 301.324 L 658.614 306.824 L 666.353 305.506 L 669.975 306.824 Q 677.353 310.363 677.218 314.733 L 677.218 325.278 L 641.003 312.097 Z " fill="rgb(41,225,148)"/></g><g style="isolation:isolate"><path d=" M 486.538 154.248 L 486.538 202.998 L 538.625 221.956 L 538.625 173.207 L 486.538 154.248 Z " fill="rgb(255,255,255)" fill-opacity="0.5"/><path d=" M 508.026 196.338 C 507.809 195.39 509.547 185.895 508.026 184.765 L 519.615 187.747 Q 518.219 193.166 519.178 196.838 L 513.821 198.022 Q 508.244 197.287 508.026 196.338 Z " fill="rgb(232,218,152)"/><path d=" M 510.987 191.424 L 514.264 197.977 L 519.178 196.748 Q 518.315 191.942 519.588 188.147 L 510.987 191.424 Z " fill="rgb(225,212,148)"/><path d=" M 506.444 181.519 C 506.144 175.228 509.138 169.966 513.127 169.775 C 517.115 169.585 520.597 174.538 520.898 180.828 C 521.198 187.119 518.204 192.381 514.215 192.572 C 510.227 192.762 506.744 187.809 506.444 181.519 Z " fill="rgb(236,222,155)"/><path d=" M 512.216 175.861 L 508.121 173.813 L 506.073 180.366 Q 505.97 173.525 509.349 169.717 L 513.854 168.489 L 517.95 170.127 Q 522.967 177.269 520.407 182.004 L 516.312 174.632 L 512.216 175.861 Z " fill="rgb(117,112,86)"/><path d=" M 495.015 202.606 C 494.423 195.719 496.845 191.773 502.258 190.743 L 506.482 191.833 L 512.626 197.333 L 520.365 196.015 L 523.987 197.333 Q 531.365 200.872 531.23 205.242 L 531.23 215.787 L 495.015 202.606 Z " fill="rgb(41,164,225)"/></g><g style="isolation:isolate"><path d=" M 486.538 210.134 L 486.538 258.884 L 538.625 277.842 L 538.625 229.093 L 486.538 210.134 Z " fill="rgb(255,255,255)" fill-opacity="0.5"/><path d=" M 508.026 252.224 C 507.809 251.276 509.547 241.781 508.026 240.651 L 519.615 243.633 Q 518.219 249.052 519.178 252.724 L 513.821 253.908 Q 508.244 253.173 508.026 252.224 Z " fill="rgb(232,218,152)"/><path d=" M 510.987 247.31 L 514.264 253.863 L 519.178 252.634 Q 518.315 247.828 519.588 244.033 L 510.987 247.31 Z " fill="rgb(225,212,148)"/><path d=" M 506.444 237.405 C 506.144 231.114 509.138 225.852 513.127 225.661 C 517.115 225.471 520.597 230.424 520.898 236.714 C 521.198 243.005 518.204 248.267 514.215 248.458 C 510.227 248.648 506.744 243.696 506.444 237.405 Z " fill="rgb(236,222,155)"/><path d=" M 512.216 231.747 L 508.121 229.699 L 506.073 236.252 Q 505.97 229.411 509.349 225.603 L 513.854 224.375 L 517.95 226.013 Q 522.967 233.155 520.407 237.89 L 516.312 230.518 L 512.216 231.747 Z " fill="rgb(202,186,107)"/><path d=" M 495.015 258.492 C 494.423 251.605 496.845 247.659 502.258 246.629 L 506.482 247.719 L 512.626 253.22 L 520.365 251.901 L 523.987 253.22 Q 531.365 256.758 531.23 261.128 L 531.23 271.673 L 495.015 258.492 Z " fill="rgb(41,225,148)"/></g><g style="isolation:isolate"><path d=" M 546.053 190.034 L 546.053 199.536 L 585.214 213.79 L 585.214 204.287 L 546.053 190.034 Z " fill="rgb(236,236,236)"/><path d=" M 627.797 244.719 L 595.162 232.841 L 595.162 242.344 L 627.797 254.222 L 627.797 244.719 Z " fill="rgb(193,158,213)"/><path d=" M 546.053 205.519 L 546.053 215.021 L 572.16 224.524 L 572.16 215.021 L 546.053 205.519 Z " fill="rgb(255,255,255)"/><path d=" M 627.797 280.69 L 582.109 264.061 L 582.109 273.784 L 627.797 289.822 L 627.797 280.69 Z " fill="rgb(193,158,213)"/><path d=" M 546.053 251.799 L 559.107 256.55 L 559.107 266.052 L 546.053 261.301 L 546.053 251.799 Z " fill="rgb(255,255,255)"/><path d=" M 546.053 267.29 L 578.687 279.764 L 578.687 288.674 L 546.053 276.793 L 546.053 267.29 Z " fill="rgb(255,255,255)"/></g></g></g></svg>