<svg xmlns="http://www.w3.org/2000/svg">
<symbol id="services-icon" viewBox="0 0 600 600">
    <path d=" M 259.488 407.586 Q 299.902 391.626 317.713 391.906 Q 347.216 370.709 361.239 369.726 C 375.261 368.743 383.456 371.038 383.419 388.703 Q 374.673 400.033 355.903 414.278 Q 324.352 408.287 282.21 420.642 L 259.488 407.586 Z  M 282.21 420.642 C 299.608 414.581 334.745 409.257 355.903 414.278 Q 398.181 394.855 416.749 394.255 Q 445.201 371.667 459.16 370.012 C 473.12 368.357 481.415 370.256 482.226 387.902 Q 471.935 397.64 459.571 408.299 C 443.111 409.276 424.332 415.124 403.175 425.783 Q 344.5 420.525 303 434 Q 290.078 429.71 282.21 420.642 Z  M 403.131 425.783 Q 403.153 425.774 403.175 425.765 L 403 426 Q 353.5 452.35 302 434 C 338.938 424.455 371.992 421.726 403.131 425.783 Z  M 495 445 Q 532.1 420.801 548.973 420.129 C 565.845 419.457 575.601 422.509 574.917 443.717 Q 555.804 459.16 531.337 476.499 L 457.132 504.46 L 403 515 C 455.017 472.737 485.088 449.291 495 445 Z  M 25.049 429.324 Q 123.287 368.912 194.587 383.798 Q 242.751 393.119 288 426 C 320.063 449.3 365.633 446.326 423.922 416.911 Q 483.355 390.528 495 445 Q 449.22 472.207 411.261 504.598 Q 366.57 527.983 290.437 522.729 Q 214.305 517.475 40.646 504.598 L 25.049 429.324 Z  M 477.192 404.914 Q 512.51 379.284 529.349 378.023 C 546.187 376.763 556.044 379.473 556.101 400.692 Q 537.538 415.818 513.692 434 Q 493.78 443.432 495 442.205 Q 486.375 412.625 465 409 Q 464.692 404.777 477.192 404.914 Z " fill-rule="evenodd" stroke-width="10" stroke-linejoin="miter" stroke-linecap="square" stroke-miterlimit="3"/>
    <path d=" M 140.021 152.663 C 143.203 147.935 146.796 143.557 150.736 139.564 L 136.704 113.22 L 184.353 87.84 L 198.279 113.984 L 198.279 113.984 C 203.664 112.919 209.175 112.335 214.749 112.263 L 223.267 84 L 223.267 84 L 274.958 99.579 L 266.531 127.537 C 271.432 130.793 275.961 134.489 280.08 138.554 L 305.78 124.865 L 331.16 172.514 L 305.659 186.098 L 305.659 186.098 C 306.758 191.656 307.345 197.348 307.385 203.105 L 335 211.428 L 335 211.428 L 319.421 263.119 L 291.806 254.796 C 288.479 259.74 284.702 264.3 280.55 268.438 L 294.135 293.941 L 294.135 293.941 L 246.486 319.322 L 232.795 293.62 C 227.302 294.659 221.681 295.198 215.998 295.203 L 207.572 323.161 L 155.881 307.582 L 164.399 279.319 L 164.399 279.319 C 159.628 276.067 155.219 272.394 151.207 268.368 L 125.059 282.296 L 125.059 282.296 L 99.678 234.647 L 126.023 220.614 C 125.017 215.293 124.479 209.853 124.441 204.354 L 95.839 195.733 L 111.418 144.042 L 140.021 152.663 L 140.021 152.663 Z  M 179.967 192.374 C 185.971 172.455 207.016 161.158 226.935 167.161 C 246.853 173.165 258.151 194.21 252.147 214.129 C 246.144 234.047 225.099 245.345 205.18 239.341 C 185.261 233.338 173.964 212.293 179.967 192.374 L 179.967 192.374 Z " fill-rule="evenodd" stroke-width="10" stroke-linejoin="miter" stroke-linecap="square" stroke-miterlimit="3"/>
    <path d=" M 394.6 246.066 C 396.373 243.819 398.338 241.763 400.462 239.913 L 394.434 226.191 L 419.255 215.289 L 425.237 228.907 L 425.237 228.907 C 427.973 228.578 430.755 228.494 433.548 228.67 L 438.885 214.841 L 438.885 214.841 L 438.885 214.841 L 438.885 214.841 L 438.885 214.841 L 438.885 214.841 L 438.885 214.841 L 438.885 214.841 L 464.176 224.601 L 458.897 238.28 C 461.228 240.096 463.355 242.119 465.264 244.31 L 478.65 238.43 L 489.553 263.25 L 476.269 269.085 L 476.269 269.085 C 476.608 271.91 476.687 274.782 476.488 277.666 L 490 282.881 L 490 282.881 L 490 282.881 L 490 282.881 L 490 282.881 L 490 282.881 L 490 282.881 L 480.24 308.172 L 466.729 302.958 C 464.875 305.307 462.811 307.447 460.576 309.361 L 466.411 322.646 L 466.411 322.646 L 466.411 322.646 L 466.411 322.646 L 466.411 322.646 L 441.591 333.548 L 435.71 320.16 C 432.92 320.472 430.085 320.529 427.239 320.316 L 421.961 333.996 L 396.669 324.236 L 402.006 310.407 L 402.006 310.407 C 399.74 308.598 397.671 306.592 395.815 304.424 L 382.195 310.407 L 382.195 310.407 L 382.195 310.407 L 371.293 285.586 L 385.016 279.559 C 384.714 276.856 384.651 274.112 384.84 271.357 L 370.845 265.956 L 380.605 240.665 L 394.6 246.066 L 394.6 246.066 Z  M 413.096 267.463 C 416.857 257.718 427.823 252.859 437.569 256.62 C 447.315 260.38 452.174 271.346 448.413 281.092 C 444.652 290.838 433.686 295.697 423.94 291.936 C 414.194 288.175 409.335 277.209 413.096 267.463 L 413.096 267.463 Z " fill-rule="evenodd" stroke-width="10" stroke-linejoin="miter" stroke-linecap="square" stroke-miterlimit="3"/>
</symbol>
<symbol id="bulb-envelope" viewBox="0 0 64 64">
    <path d=" M 12.205 34 L 51.795 34 L 30.836 47.973 L 12.205 34 Z " vector-effect="non-scaling-stroke" stroke-width="1" stroke-linejoin="miter" stroke-linecap="square" stroke-miterlimit="3"/>
    <path d=" M 32.623 49.11 L 51.795 36.329 L 51.795 59.618 L 35.297 59.618 L 35.297 51 L 32.623 49.11 Z " vector-effect="non-scaling-stroke" stroke-width="1" stroke-linejoin="miter" stroke-linecap="square" stroke-miterlimit="3"/>
    <path d=" M 12.205 36.329 L 12.205 59.618 L 33.164 59.618 L 33.164 52 L 12.205 36.329 Z " vector-effect="non-scaling-stroke" stroke-width="1" stroke-linejoin="miter" stroke-linecap="square" stroke-miterlimit="3"/>
    <path d=" M 31.831 3.007 C 27.219 3.185 23.53 7 23.53 11.674 C 23.53 13.72 24.211 15.602 25.393 17.086 L 25.393 17.086 Q 26.015 18.108 27.087 19.956 Q 28.114 21.847 28.104 23.869 L 31.831 23.869 L 32.169 23.869 L 32.169 23.869 L 35.896 23.869 Q 36.068 21.792 36.913 19.956 Q 37.985 18.108 38.607 17.086 L 38.607 17.086 C 39.789 15.602 40.47 13.72 40.47 11.674 C 40.47 7 36.781 3.185 32.169 3.007 L 32.169 3 C 32.113 3 32.056 3.001 32 3.001 C 31.944 3.001 31.887 3 31.831 3 L 31.831 3.007 Z " fill="none" vector-effect="non-scaling-stroke" stroke-width="1" stroke-linejoin="miter" stroke-linecap="square" stroke-miterlimit="3"/>
    <path d="M 28.427 25.563 L 35.573 25.563 C 35.938 25.563 36.235 25.807 36.235 26.109 L 36.235 26.109 C 36.235 26.41 35.938 26.654 35.573 26.654 L 28.427 26.654 C 28.062 26.654 27.765 26.41 27.765 26.109 L 27.765 26.109 C 27.765 25.807 28.062 25.563 28.427 25.563 Z"/>
    <path d="M 28.878 27.772 L 35.122 27.772 C 35.479 27.772 35.769 28.008 35.769 28.3 L 35.769 28.3 C 35.769 28.591 35.479 28.827 35.122 28.827 L 28.878 28.827 C 28.521 28.827 28.231 28.591 28.231 28.3 L 28.231 28.3 C 28.231 28.008 28.521 27.772 28.878 27.772 Z"/>
    <path d="M 29.428 29.981 L 34.572 29.981 C 34.929 29.981 35.219 30.209 35.219 30.491 L 35.219 30.491 C 35.219 30.772 34.929 31 34.572 31 L 29.428 31 C 29.071 31 28.781 30.772 28.781 30.491 L 28.781 30.491 C 28.781 30.209 29.071 29.981 29.428 29.981 Z"/>
    <path d=" M 32.339 6.219 Q 35.991 7.002 37.082 10.623" vector-effect="non-scaling-stroke" stroke-width="1" stroke-linejoin="miter" stroke-linecap="square" stroke-miterlimit="3"/>
</symbol>
<symbol id="idea" viewBox="0 0 64 64">
<path d=" M 15.602 38 L 48.398 38 L 31.035 47 L 15.602 38 Z " vector-effect="non-scaling-stroke" stroke-width="1" stroke-linejoin="miter" stroke-linecap="square" stroke-miterlimit="3"/>
<path d=" M 34 49 L 48.398 41 L 48.398 59.221 L 37 59.221 L 37 51 L 34 49 Z " vector-effect="non-scaling-stroke" stroke-width="1" stroke-linejoin="miter" stroke-linecap="square" stroke-miterlimit="3"/>
<path d=" M 15.602 41 L 15.602 59.221 L 34 59.221 L 34 52 L 15.602 41 Z " vector-effect="non-scaling-stroke" stroke-width="1" stroke-linejoin="miter" stroke-linecap="square" stroke-miterlimit="3"/>
<path d=" M 31.831 3.007 C 27.219 3.185 23.53 7 23.53 11.674 C 23.53 13.72 24.211 15.602 25.393 17.086 L 25.393 17.086 Q 26.015 18.108 27.087 19.956 Q 28.114 21.847 28.104 23.869 L 31.831 23.869 L 32.169 23.869 L 32.169 23.869 L 35.896 23.869 Q 36.068 21.792 36.913 19.956 Q 37.985 18.108 38.607 17.086 L 38.607 17.086 C 39.789 15.602 40.47 13.72 40.47 11.674 C 40.47 7 36.781 3.185 32.169 3.007 L 32.169 3 C 32.113 3 32.056 3.001 32 3.001 C 31.944 3.001 31.887 3 31.831 3 L 31.831 3.007 Z " fill="none" vector-effect="non-scaling-stroke" stroke-width="1" stroke-linejoin="miter" stroke-linecap="square" stroke-miterlimit="3"/>
<path d="M 28.427 26.908 L 35.573 26.908 C 35.938 26.908 36.235 27.153 36.235 27.454 L 36.235 27.454 C 36.235 27.755 35.938 28 35.573 28 L 28.427 28 C 28.062 28 27.765 27.755 27.765 27.454 L 27.765 27.454 C 27.765 27.153 28.062 26.908 28.427 26.908 Z" stroke="none"/>
<path d="M 28.878 30 L 35.122 30 C 35.479 30 35.769 30.236 35.769 30.528 L 35.769 30.528 C 35.769 30.819 35.479 31.055 35.122 31.055 L 28.878 31.055 C 28.521 31.055 28.231 30.819 28.231 30.528 L 28.231 30.528 C 28.231 30.236 28.521 30 28.878 30 Z" stroke="none"/>
<path d="M 30.679 32.981 L 33.321 32.981 C 33.588 32.981 33.805 33.198 33.805 33.465 L 33.805 33.516 C 33.805 33.783 33.588 34 33.321 34 L 30.679 34 C 30.412 34 30.195 33.783 30.195 33.516 L 30.195 33.465 C 30.195 33.198 30.412 32.981 30.679 32.981 Z" stroke="none"/>
<path d=" M 32.339 6.219 Q 35.991 7.002 37.082 10.623" fill="none" vector-effect="non-scaling-stroke" stroke-width="1" stroke-linejoin="miter" stroke-linecap="square" stroke-miterlimit="3"/>
</symbol>
<symbol id="opened" viewBox="0 0 600 600">
<path d=" M 65 160 L 65 440 L 535 440 L 535 160 L 65 160 Z " fill="none" vector-effect="non-scaling-stroke" stroke-linejoin="miter" stroke-linecap="square" stroke-miterlimit="3"/>
<path d=" M 235 200 L 235 210 L 365 210 L 365 200 L 235 200 Z " stroke="none"/>
<path d=" M 270 220 L 270 230 L 330 230 L 330 220 L 270 220 Z " stroke="none"/>
<path d=" M 112 250 L 262 250 L 262 260 L 112 260 L 112 250 Z " stroke="none"/>
<path d=" M 112 270 L 172 270 L 172 280 L 112 280 L 112 270 Z " stroke="none"/>
<path d=" M 112 290 L 472 290 L 472 300 L 112 300 L 112 290 Z " stroke="none"/>
<path d=" M 112 310 L 112 320 L 192 320 L 192 310 L 112 310 Z " stroke="none"/>
<path d=" M 202 310 L 202 320 L 342 320 L 342 310 L 202 310 Z " stroke="none"/>
<path d=" M 112 370 L 112 380 L 162 380 L 162 370 L 112 370 Z " stroke="none"/>
<path d=" M 112 390 L 142 390 L 142 400 L 112 400 L 112 390 Z " stroke="none"/>
<path d=" M 152 390 L 212 390 L 212 400 L 152 400 L 152 390 Z " stroke="none"/>
</symbol>
<symbol id="plan" viewBox="0 0 64 64">
<path d="M 16.714 8 L 47.286 8 C 47.68 8 48 8.32 48 8.714 L 48 55.286 C 48 55.68 47.68 56 47.286 56 L 16.714 56 C 16.32 56 16 55.68 16 55.286 L 16 8.714 C 16 8.32 16.32 8 16.714 8 Z" style="fill:none;stroke-width:1;stroke-linecap:square;stroke-miterlimit:2;"/><circle vector-effect="non-scaling-stroke" cx="21.50000000000002" cy="14.785714285714318" r="1.357142857142854" fill="#fff"/>
<path d="M 26.097 14.107 L 42.76 14.107 C 43.129 14.107 43.429 14.407 43.429 14.775 L 43.429 14.796 C 43.429 15.165 43.129 15.464 42.76 15.464 L 26.097 15.464 C 25.728 15.464 25.429 15.165 25.429 14.796 L 25.429 14.775 C 25.429 14.407 25.728 14.107 26.097 14.107 Z" stroke="none"/>
<circle vector-effect="non-scaling-stroke" cx="21.50000000000002" cy="20.500000000000018" r="1.357142857142854" fill="#fff"/>
<path d="M 26.097 19.821 L 42.76 19.821 C 43.129 19.821 43.429 20.121 43.429 20.49 L 43.429 20.51 C 43.429 20.879 43.129 21.179 42.76 21.179 L 26.097 21.179 C 25.728 21.179 25.429 20.879 25.429 20.51 L 25.429 20.49 C 25.429 20.121 25.728 19.821 26.097 19.821 Z" stroke="none"/>
<circle vector-effect="non-scaling-stroke" cx="21.50000000000002" cy="26.21428571428571" r="1.357142857142854" fill="#fff"/>
<path d="M 26.097 25.536 L 42.76 25.536 C 43.129 25.536 43.429 25.835 43.429 26.204 L 43.429 26.225 C 43.429 26.593 43.129 26.893 42.76 26.893 L 26.097 26.893 C 25.728 26.893 25.429 26.593 25.429 26.225 L 25.429 26.204 C 25.429 25.835 25.728 25.536 26.097 25.536 Z" stroke="none"/>
<circle vector-effect="non-scaling-stroke" cx="21.50000000000002" cy="31.928571428571388" r="1.357142857142854" fill="#fff"/>
<path d="M 26.097 31.25 L 42.76 31.25 C 43.129 31.25 43.429 31.549 43.429 31.918 L 43.429 31.939 C 43.429 32.308 43.129 32.607 42.76 32.607 L 26.097 32.607 C 25.728 32.607 25.429 32.308 25.429 31.939 L 25.429 31.918 C 25.429 31.549 25.728 31.25 26.097 31.25 Z" stroke="none"/>
<path d="M 23.536 39.143 L 40.464 39.143 C 40.701 39.143 40.893 39.207 40.893 39.286 L 40.893 39.286 C 40.893 39.365 40.701 39.429 40.464 39.429 L 23.536 39.429 C 23.299 39.429 23.107 39.365 23.107 39.286 L 23.107 39.286 C 23.107 39.207 23.299 39.143 23.536 39.143 Z" stroke="none"/>
<path d=" M 30.179 48.509 L 31.511 50.286 L 33.821 45.044" fill="none" vector-effect="non-scaling-stroke" stroke="#fff" stroke-linejoin="miter" stroke-linecap="square" stroke-miterlimit="3"/>
</symbol>
<symbol id="envelope" viewBox="0 0 64 64">
    <path d=" M 37.383 47.813 L 37.383 39.843 C 37.432 38.995 37.118 38.332 36.431 37.845 L 34.259 36.012 C 33.498 35.393 33.5 34.844 34.255 34.355 L 57.802 18.657 C 58.817 17.981 59.333 18.224 59.34 19.377 L 59.34 47.553 C 59.393 48.543 58.957 49.028 58.022 48.999 L 38.471 48.999 C 37.71 49.015 37.35 48.623 37.383 47.813 Z " stroke-linecap="rounded"/>
    <path d=" M 32.267 39.106 L 6.107 18.759 C 5.118 17.983 4.637 17.997 4.656 18.793 L 4.656 47.965 C 4.649 48.674 5.002 49.021 5.707 48.999 L 32.247 48.999 C 32.665 48.995 32.881 48.793 32.887 48.384 L 32.887 40.348 C 32.91 39.834 32.707 39.423 32.267 39.106 Z " stroke-linecap="rounded"/>
    <path d=" M 28.992 30.409 L 10.044 16.199 C 9.17 15.506 9.043 15.023 10.001 15 L 52.967 15 C 53.816 15.006 53.804 15.367 52.898 16.049 L 31.402 30.379 C 30.586 30.936 29.785 30.948 28.992 30.409 Z " stroke-linecap="rounded"/>
</symbol>
<symbol id="github" viewBox="0 0 24 24">
    <path d="M19 0h-14c-2.761 0-5 2.239-5 5v14c0 2.761 2.239 5 5 5h14c2.762 0 5-2.239 5-5v-14c0-2.761-2.238-5-5-5zm-4.466 19.59c-.405.078-.534-.171-.534-.384v-2.195c0-.747-.262-1.233-.55-1.481 1.782-.198 3.654-.875 3.654-3.947 0-.874-.312-1.588-.823-2.147.082-.202.356-1.016-.079-2.117 0 0-.671-.215-2.198.82-.64-.18-1.324-.267-2.004-.271-.68.003-1.364.091-2.003.269-1.528-1.035-2.2-.82-2.2-.82-.434 1.102-.16 1.915-.077 2.118-.512.56-.824 1.273-.824 2.147 0 3.064 1.867 3.751 3.645 3.954-.229.2-.436.552-.508 1.07-.457.204-1.614.557-2.328-.666 0 0-.423-.768-1.227-.825 0 0-.78-.01-.055.487 0 0 .525.246.889 1.17 0 0 .463 1.428 2.688.944v1.489c0 .211-.129.459-.528.385-3.18-1.057-5.472-4.056-5.472-7.59 0-4.419 3.582-8 8-8s8 3.581 8 8c0 3.533-2.289 6.531-5.466 7.59z"/>
</symbol>
<symbol id="linkedin" viewBox="0 0 24 24">
<path d="M19 0h-14c-2.761 0-5 2.239-5 5v14c0 2.761 2.239 5 5 5h14c2.762 0 5-2.239 5-5v-14c0-2.761-2.238-5-5-5zm-11 19h-3v-11h3v11zm-1.5-12.268c-.966 0-1.75-.79-1.75-1.764s.784-1.764 1.75-1.764 1.75.79 1.75 1.764-.783 1.764-1.75 1.764zm13.5 12.268h-3v-5.604c0-3.368-4-3.113-4 0v5.604h-3v-11h3v1.765c1.396-2.586 7-2.777 7 2.476v6.759z"/>
</symbol>
<symbol id="success" viewBox="0 0 64 64">
    <path d=" M 21.478 45.374 L 42.522 10.906 L 53.044 14.796 L 32 49.264 L 21.478 45.374 Z " fill="rgb(28,172,93)"/>
    <path d=" M 0.433 41.604 L 10.956 37.775 L 32 49.264 L 21.478 53.094 L 0.433 41.604 Z " fill="rgb(38,202,112)"/>
    <path d=" M 42.522 10.966 L 63.567 10.966 L 53.044 14.796 L 42.522 10.966 Z " fill="rgb(52,213,124)"/>
</symbol>
</svg>
