<?xml version="1.0" encoding="UTF-8" standalone="no"?><!-- Generator: Gravit.io -->
<svg xmlns="http://www.w3.org/2000/svg" xmlns:xlink="http://www.w3.org/1999/xlink" style="isolation:isolate" viewBox="0 0 64 64" width="64pt" height="64pt">
<path d=" M 15.602 38 L 48.398 38 L 31.035 47 L 15.602 38 Z " fill="rgb(255,255,255)" vector-effect="non-scaling-stroke" stroke-width="1" stroke="rgb(0,0,0)" stroke-linejoin="miter" stroke-linecap="square" stroke-miterlimit="3"/>
<path d=" M 34 49 L 48.398 41 L 48.398 59.221 L 37 59.221 L 37 51 L 34 49 Z " fill="rgb(255,255,255)" vector-effect="non-scaling-stroke" stroke-width="1" stroke="rgb(0,0,0)" stroke-linejoin="miter" stroke-linecap="square" stroke-miterlimit="3"/>
<path d=" M 15.602 41 L 15.602 59.221 L 34 59.221 L 34 52 L 15.602 41 Z " fill="rgb(255,255,255)" vector-effect="non-scaling-stroke" stroke-width="1" stroke="rgb(0,0,0)" stroke-linejoin="miter" stroke-linecap="square" stroke-miterlimit="3"/>
<path d=" M 31.831 3.007 C 27.219 3.185 23.53 7 23.53 11.674 C 23.53 13.72 24.211 15.602 25.393 17.086 L 25.393 17.086 Q 26.015 18.108 27.087 19.956 Q 28.114 21.847 28.104 23.869 L 31.831 23.869 L 32.169 23.869 L 32.169 23.869 L 35.896 23.869 Q 36.068 21.792 36.913 19.956 Q 37.985 18.108 38.607 17.086 L 38.607 17.086 C 39.789 15.602 40.47 13.72 40.47 11.674 C 40.47 7 36.781 3.185 32.169 3.007 L 32.169 3 C 32.113 3 32.056 3.001 32 3.001 C 31.944 3.001 31.887 3 31.831 3 L 31.831 3.007 Z " fill="none" vector-effect="non-scaling-stroke" stroke-width="1" stroke="rgb(0,0,0)" stroke-linejoin="miter" stroke-linecap="square" stroke-miterlimit="3"/>
<path d="M 28.427 26.908 L 35.573 26.908 C 35.938 26.908 36.235 27.153 36.235 27.454 L 36.235 27.454 C 36.235 27.755 35.938 28 35.573 28 L 28.427 28 C 28.062 28 27.765 27.755 27.765 27.454 L 27.765 27.454 C 27.765 27.153 28.062 26.908 28.427 26.908 Z" style="stroke:none;fill:#000000;stroke-miterlimit:10;"/>
<path d="M 28.878 30 L 35.122 30 C 35.479 30 35.769 30.236 35.769 30.528 L 35.769 30.528 C 35.769 30.819 35.479 31.055 35.122 31.055 L 28.878 31.055 C 28.521 31.055 28.231 30.819 28.231 30.528 L 28.231 30.528 C 28.231 30.236 28.521 30 28.878 30 Z" style="stroke:none;fill:#000000;stroke-miterlimit:10;"/>
<path d="M 30.679 32.981 L 33.321 32.981 C 33.588 32.981 33.805 33.198 33.805 33.465 L 33.805 33.516 C 33.805 33.783 33.588 34 33.321 34 L 30.679 34 C 30.412 34 30.195 33.783 30.195 33.516 L 30.195 33.465 C 30.195 33.198 30.412 32.981 30.679 32.981 Z" style="stroke:none;fill:#000000;stroke-miterlimit:10;"/>
<path d=" M 32.339 6.219 Q 35.991 7.002 37.082 10.623" fill="none" vector-effect="non-scaling-stroke" stroke-width="1" stroke="rgb(0,0,0)" stroke-linejoin="miter" stroke-linecap="square" stroke-miterlimit="3"/>
</svg>