<?xml version="1.0" encoding="UTF-8" standalone="no"?><!-- Generator: Gravit.io --><svg xmlns="http://www.w3.org/2000/svg" xmlns:xlink="http://www.w3.org/1999/xlink" style="isolation:isolate" viewBox="0 0 800 600" width="800pt" height="600pt"><defs><clipPath id="_clipPath_l83HPpItdn91Dq9QiC5NdzKAsnr3hbcz"><rect width="800" height="600"/></clipPath></defs><g clip-path="url(#_clipPath_l83HPpItdn91Dq9QiC5NdzKAsnr3hbcz)"><g style="isolation:isolate"><g style="isolation:isolate"><linearGradient id="_lgradient_0" x1="-0.040005760368663705" y1="0.6321962257875836" x2="0.506509216589862" y2="0.5240006340704767" gradientTransform="matrix(460,0,0,458.603,216,32.029)" gradientUnits="userSpaceOnUse"><stop offset="0%" stop-opacity="1" style="stop-color:rgb(255,233,246)"/><stop offset="95.65217391304348%" stop-opacity="1" style="stop-color:rgb(247,247,247)"/></linearGradient><path d=" M 216 32.029 L 216 323.206 L 676 490.632 L 676 199.456 L 216 32.029 Z " fill="url(#_lgradient_0)"/><linearGradient id="_lgradient_1" x1="2.3862404336734753" y1="0.25597061357685896" x2="-0.5290975765306003" y2="0.47933192094349086" gradientTransform="matrix(8,0,0,294.088,676,196.544)" gradientUnits="userSpaceOnUse"><stop offset="1.3043478260869565%" stop-opacity="1" style="stop-color:rgb(228,255,255)"/><stop offset="98.69565217391305%" stop-opacity="1" style="stop-color:rgb(89,187,184)"/></linearGradient><path d=" M 676 199.456 L 684 196.544 L 684 487.72 L 676 490.632 L 676 199.456 Z " fill="url(#_lgradient_1)"/><linearGradient id="_lgradient_2" x1="0.557297235885372" y1="0.427933897218931" x2="0.43970875213857985" y2="0.5522814355160884" gradientTransform="matrix(468,0,0,170.338,216,29.118)" gradientUnits="userSpaceOnUse"><stop offset="1.3043478260869565%" stop-opacity="1" style="stop-color:rgb(228,255,255)"/><stop offset="98.69565217391305%" stop-opacity="1" style="stop-color:rgb(89,187,184)"/></linearGradient><path d=" M 684 196.544 L 224 29.118 L 216 32.029 L 676 199.456 L 684 196.544 Z " fill="url(#_lgradient_2)"/></g><g style="isolation:isolate"/></g><g style="isolation:isolate"><g style="isolation:isolate"><linearGradient id="_lgradient_3" x1="0.7025915261209379" y1="0.2897391949750011" x2="0.10654051830522415" y2="1.0240762798333478" gradientTransform="matrix(207.32,0,0,75.458,175.49,360.147)" gradientUnits="userSpaceOnUse"><stop offset="0.43478260869565216%" stop-opacity="1" style="stop-color:rgb(255,255,255)"/><stop offset="100%" stop-opacity="1" style="stop-color:rgb(0,157,155)"/></linearGradient><path d=" M 175.49 371.466 L 351.711 435.605 L 382.809 424.286 L 206.588 360.147 L 175.49 371.466 Z " fill="url(#_lgradient_3)"/><path d=" M 175.49 371.458 L 175.49 386.55 L 351.711 450.834 L 351.711 435.605 L 175.49 371.458 Z " fill="rgb(82,170,168)"/><linearGradient id="_lgradient_4" x1="1.4833333333333325" y1="-0.007782073354253072" x2="-0.010370370370370141" y2="0.7253146793605433" gradientTransform="matrix(31.098,0,0,26.41,351.711,424.286)" gradientUnits="userSpaceOnUse"><stop offset="0%" stop-opacity="1" style="stop-color:rgb(183,245,244)"/><stop offset="97.82608695652173%" stop-opacity="1" style="stop-color:rgb(79,168,166)"/></linearGradient><path d=" M 382.809 424.286 L 382.809 439.378 L 351.711 450.697 L 351.711 435.605 L 382.809 424.286 Z " fill-rule="evenodd" fill="url(#_lgradient_4)"/></g><g style="isolation:isolate"><linearGradient id="_lgradient_5" x1="0.7025915261209379" y1="0.2897391949750011" x2="0.10654051830522415" y2="1.0240762798333478" gradientTransform="matrix(207.32,0,0,75.847,144.392,386.557)" gradientUnits="userSpaceOnUse"><stop offset="0.43478260869565216%" stop-opacity="1" style="stop-color:rgb(255,255,255)"/><stop offset="100%" stop-opacity="1" style="stop-color:rgb(0,157,155)"/></linearGradient><path d=" M 144.392 397.876 L 320.613 462.404 L 351.711 450.697 L 175.49 386.557 L 144.392 397.876 Z " fill="url(#_lgradient_5)"/><path d=" M 144.392 397.891 L 144.392 412.983 L 320.613 477.267 L 320.613 462.175 L 144.392 397.891 Z " fill="rgb(82,170,168)"/><linearGradient id="_lgradient_6" x1="1.4833333333333325" y1="-0.007782073354253072" x2="-0.010370370370370141" y2="0.7253146793605433" gradientTransform="matrix(31.098,0,0,26.57,320.613,450.697)" gradientUnits="userSpaceOnUse"><stop offset="0%" stop-opacity="1" style="stop-color:rgb(183,245,244)"/><stop offset="97.82608695652173%" stop-opacity="1" style="stop-color:rgb(79,168,166)"/></linearGradient><path d=" M 351.711 450.697 L 351.711 465.948 L 320.613 477.267 L 320.613 462.175 L 351.711 450.697 Z " fill-rule="evenodd" fill="url(#_lgradient_6)"/></g><g style="isolation:isolate"><linearGradient id="_lgradient_7" x1="0.7025915261209379" y1="0.2897391949750011" x2="0.10654051830522415" y2="1.0240762798333478" gradientTransform="matrix(207.32,0,0,75.847,113.294,412.99)" gradientUnits="userSpaceOnUse"><stop offset="0.43478260869565216%" stop-opacity="1" style="stop-color:rgb(255,255,255)"/><stop offset="100%" stop-opacity="1" style="stop-color:rgb(0,157,155)"/></linearGradient><path d=" M 113.294 424.309 L 289.515 488.837 L 320.613 477.13 L 144.392 412.99 L 113.294 424.309 Z " fill="url(#_lgradient_7)"/><path d=" M 113.294 424.324 L 113.294 439.416 L 289.515 503.7 L 289.515 488.609 L 113.294 424.324 Z " fill="rgb(82,170,168)"/><linearGradient id="_lgradient_8" x1="1.4833333333333325" y1="-0.007782073354253072" x2="-0.010370370370370141" y2="0.7253146793605433" gradientTransform="matrix(31.098,0,0,26.57,289.515,477.13)" gradientUnits="userSpaceOnUse"><stop offset="0%" stop-opacity="1" style="stop-color:rgb(183,245,244)"/><stop offset="97.82608695652173%" stop-opacity="1" style="stop-color:rgb(79,168,166)"/></linearGradient><path d=" M 320.613 477.13 L 320.613 492.382 L 289.515 503.7 L 289.515 488.609 L 320.613 477.13 Z " fill-rule="evenodd" fill="url(#_lgradient_8)"/></g><g style="isolation:isolate"><linearGradient id="_lgradient_9" x1="0.7025915261209379" y1="0.2897391949750011" x2="0.10654051830522415" y2="1.0240762798333478" gradientTransform="matrix(207.32,0,0,75.458,82.196,439.447)" gradientUnits="userSpaceOnUse"><stop offset="0.43478260869565216%" stop-opacity="1" style="stop-color:rgb(255,255,255)"/><stop offset="100%" stop-opacity="1" style="stop-color:rgb(0,157,155)"/></linearGradient><path d=" M 82.196 450.765 L 258.418 514.905 L 289.515 503.586 L 113.294 439.447 L 82.196 450.765 Z " fill="url(#_lgradient_9)"/><path d=" M 82.196 450.758 L 82.196 465.849 L 258.418 530.134 L 258.418 514.905 L 82.196 450.758 Z " fill="rgb(82,170,168)"/><linearGradient id="_lgradient_10" x1="1.4833333333333325" y1="-0.007782073354253072" x2="-0.010370370370370141" y2="0.7253146793605433" gradientTransform="matrix(31.098,0,0,26.41,258.418,503.586)" gradientUnits="userSpaceOnUse"><stop offset="0%" stop-opacity="1" style="stop-color:rgb(183,245,244)"/><stop offset="97.82608695652173%" stop-opacity="1" style="stop-color:rgb(79,168,166)"/></linearGradient><path d=" M 289.515 503.586 L 289.515 518.678 L 258.418 529.996 L 258.418 514.905 L 289.515 503.586 Z " fill-rule="evenodd" fill="url(#_lgradient_10)"/></g><g style="isolation:isolate"><linearGradient id="_lgradient_11" x1="0.7025915261209379" y1="0.2897391949750011" x2="0.10654051830522415" y2="1.0240762798333478" gradientTransform="matrix(207.32,0,0,75.847,51.098,465.857)" gradientUnits="userSpaceOnUse"><stop offset="0.43478260869565216%" stop-opacity="1" style="stop-color:rgb(255,255,255)"/><stop offset="100%" stop-opacity="1" style="stop-color:rgb(0,157,155)"/></linearGradient><path d=" M 51.098 477.176 L 227.32 541.704 L 258.418 529.996 L 82.196 465.857 L 51.098 477.176 Z " fill="url(#_lgradient_11)"/><path d=" M 51.098 477.191 L 51.098 492.283 L 227.32 556.567 L 227.32 541.475 L 51.098 477.191 Z " fill="rgb(82,170,168)"/><linearGradient id="_lgradient_12" x1="1.4833333333333325" y1="-0.007782073354253072" x2="-0.010370370370370141" y2="0.7253146793605433" gradientTransform="matrix(31.098,0,0,26.57,227.32,529.996)" gradientUnits="userSpaceOnUse"><stop offset="0%" stop-opacity="1" style="stop-color:rgb(183,245,244)"/><stop offset="97.82608695652173%" stop-opacity="1" style="stop-color:rgb(79,168,166)"/></linearGradient><path d=" M 258.418 529.996 L 258.418 545.248 L 227.32 556.567 L 227.32 541.475 L 258.418 529.996 Z " fill-rule="evenodd" fill="url(#_lgradient_12)"/></g><g style="isolation:isolate"><linearGradient id="_lgradient_13" x1="0.7025915261209379" y1="0.2897391949750011" x2="0.10654051830522415" y2="1.0240762798333478" gradientTransform="matrix(207.32,0,0,75.847,20,492.29)" gradientUnits="userSpaceOnUse"><stop offset="0.43478260869565216%" stop-opacity="1" style="stop-color:rgb(255,255,255)"/><stop offset="100%" stop-opacity="1" style="stop-color:rgb(0,157,155)"/></linearGradient><path d=" M 20 503.609 L 196.222 568.137 L 227.32 556.43 L 51.098 492.29 L 20 503.609 Z " fill="url(#_lgradient_13)"/><path d=" M 20 503.624 L 20 518.716 L 196.222 583 L 196.222 567.908 L 20 503.624 Z " fill="rgb(82,170,168)"/><linearGradient id="_lgradient_14" x1="1.4833333333333325" y1="-0.007782073354253072" x2="-0.010370370370370141" y2="0.7253146793605433" gradientTransform="matrix(31.098,0,0,26.57,196.222,556.43)" gradientUnits="userSpaceOnUse"><stop offset="0%" stop-opacity="1" style="stop-color:rgb(183,245,244)"/><stop offset="97.82608695652173%" stop-opacity="1" style="stop-color:rgb(79,168,166)"/></linearGradient><path d=" M 227.32 556.43 L 227.32 571.681 L 196.222 583 L 196.222 567.908 L 227.32 556.43 Z " fill-rule="evenodd" fill="url(#_lgradient_14)"/></g></g><path d=" M 300 123.75 L 300 138.309 L 380 167.426 L 380 152.867 L 300 123.75 Z " fill="rgb(255,255,255)"/><path d=" M 300 152.75 L 300 167.309 L 380 196.426 L 380 181.867 L 300 152.75 Z " fill="rgb(255,255,255)"/><path d=" M 300 181.75 L 300 196.309 L 380 225.426 L 380 210.867 L 300 181.75 Z " fill="rgb(255,255,255)"/><path d=" M 300 210.75 L 300 225.309 L 380 254.426 L 380 239.867 L 300 210.75 Z " fill="rgb(255,255,255)"/><path d=" M 407 335.132 L 407 364.25 L 547 415.205 L 547 386.088 L 407 335.132 Z " fill="none"/><linearGradient id="_lgradient_15" x1="-0.2948490230905737" y1="0.8003274268104776" x2="1.1676731793960902" y2="0.3314676425269642" gradientTransform="matrix(460,0,0,387.8,216,32.029)" gradientUnits="userSpaceOnUse"><stop offset="0%" stop-opacity="1" style="stop-color:rgb(35,34,102)"/><stop offset="97.82608695652173%" stop-opacity="1" style="stop-color:rgb(126,43,140)"/></linearGradient><path d=" M 216 198 Q 302.594 219.17 396 300.735 C 500.399 391.899 593.752 430.742 676 417.205 L 676 199.456 L 216 32.029 L 216 198 Z " fill="url(#_lgradient_15)" fill-opacity="0.91"/><circle vector-effect="non-scaling-stroke" cx="274.3652694610787" cy="283.12405471528365" r="29.04341317365305" fill="rgb(235,235,235)"/><linearGradient id="_lgradient_16" x1="0.4478260869565218" y1="0.2581669141941779" x2="0.4500384763370528" y2="1.0864471748095264" gradientTransform="matrix(460,0,0,387.8,216,32.029)" gradientUnits="userSpaceOnUse"><stop offset="0%" stop-opacity="1" style="stop-color:rgb(66,19,64)"/><stop offset="98.26086956521739%" stop-opacity="1" style="stop-color:rgb(52,29,96)"/></linearGradient><path d=" M 216 162.426 Q 302.594 219.17 396 300.735 C 500.399 391.899 593.752 430.742 676 417.205 L 676 199.456 L 216 32.029 L 216 162.426 Z " fill="url(#_lgradient_16)" fill-opacity="0.25"/><g style="isolation:isolate"><path d=" M 274.365 94.391 L 274.365 303.183 L 351.808 332.499 L 351.808 123.116 L 274.365 94.391 Z " fill="none" vector-effect="non-scaling-stroke" stroke-width="0.5" stroke="rgb(67,117,255)" stroke-linejoin="miter" stroke-linecap="square" stroke-miterlimit="3"/><circle vector-effect="non-scaling-stroke" cx="274.49999999999994" cy="95.50000000000001" r="2.5" fill="rgb(70,127,238)" stroke-width="1" stroke="rgb(255,255,255)" stroke-linejoin="miter" stroke-linecap="square" stroke-miterlimit="3"/><circle vector-effect="non-scaling-stroke" cx="351.4999999999999" cy="123.49999999999983" r="2.5" fill="rgb(70,127,238)" stroke-width="1" stroke="rgb(255,255,255)" stroke-linejoin="miter" stroke-linecap="square" stroke-miterlimit="3"/><circle vector-effect="non-scaling-stroke" cx="274.49999999999994" cy="304.49999999999966" r="2.5" fill="rgb(70,127,238)" stroke-width="1" stroke="rgb(255,255,255)" stroke-linejoin="miter" stroke-linecap="square" stroke-miterlimit="3"/><circle vector-effect="non-scaling-stroke" cx="351.4999999999999" cy="332.4999999999995" r="2.5" fill="rgb(70,127,238)" stroke-width="1" stroke="rgb(255,255,255)" stroke-linejoin="miter" stroke-linecap="square" stroke-miterlimit="3"/></g><path d=" M 274.365 94.391 L 274.365 303.183 L 351.808 332.499 L 351.808 123.116 L 274.365 94.391 Z " fill="rgb(82,170,168)" fill-opacity="0.2"/><g style="isolation:isolate"><g style="isolation:isolate"><radialGradient id="_rgradient_0" fx="0.5" fy="0.5" cx="0.5" cy="0.5" r="0.5" gradientTransform="matrix(59.093,0,0,34.117,567.886,284.177)" gradientUnits="userSpaceOnUse"><stop offset="1.7391304347826086%" stop-opacity="1" style="stop-color:rgb(0,213,255)"/><stop offset="100%" stop-opacity="1" style="stop-color:rgb(0,94,117)"/></radialGradient><path d=" M 567.886 301.235 L 597.433 284.177 L 626.979 301.235 L 597.433 318.294 L 567.886 301.235 Z " fill="url(#_rgradient_0)"/><path d=" M 626.979 301.235 L 626.979 302.941 L 597.433 320 L 597.433 318.294 L 626.979 301.235 Z " fill="rgb(0,97,119)"/><path d=" M 567.886 301.235 L 567.886 302.941 L 597.433 320 L 597.433 318.294 L 567.886 301.235 Z " fill="rgb(0,97,119)"/></g><g style="isolation:isolate"><linearGradient id="_lgradient_17" x1="0.2623749999999998" y1="0.7686172282542298" x2="0.7367500000000001" y2="0.26952088333459606" gradientTransform="matrix(29.546,0,0,85.293,596.546,227.059)" gradientUnits="userSpaceOnUse"><stop offset="1.7391304347826086%" stop-opacity="1" style="stop-color:rgb(0,84,115)"/><stop offset="97.82608695652173%" stop-opacity="1" style="stop-color:rgb(27,143,185)"/></linearGradient><path d=" M 626.093 295.293 L 596.546 312.352 L 596.546 244.117 L 626.093 227.059 L 626.093 295.293 Z " fill="url(#_lgradient_17)"/><linearGradient id="_lgradient_18" x1="0.2623749999999998" y1="0.7686172282542298" x2="0.7367500000000001" y2="0.26952088333459606" gradientTransform="matrix(59.093,0,0,34.117,567,210)" gradientUnits="userSpaceOnUse"><stop offset="1.7391304347826086%" stop-opacity="1" style="stop-color:rgb(0,100,136)"/><stop offset="97.3913043478261%" stop-opacity="1" style="stop-color:rgb(60,178,221)"/></linearGradient><path d=" M 567 227.059 L 596.546 210 L 626.093 227.059 L 596.546 244.117 L 567 227.059 Z " fill="url(#_lgradient_18)"/><path d=" M 567 295.293 L 596.546 312.352 L 596.546 244.117 L 567 227.059 L 567 295.293 Z " fill="rgb(8,91,121)"/></g><g style="isolation:isolate"><linearGradient id="_lgradient_19" x1="0.2623749999999998" y1="0.7686172282542298" x2="0.7367500000000001" y2="0.26952088333459606" gradientTransform="matrix(17.728,0,0,64.823,604.229,238.531)" gradientUnits="userSpaceOnUse"><stop offset="1.7391304347826086%" stop-opacity="1" style="stop-color:rgb(0,84,115)"/><stop offset="97.82608695652173%" stop-opacity="1" style="stop-color:rgb(27,143,185)"/></linearGradient><path d=" M 604.229 248.766 L 621.956 238.531 L 621.956 293.119 L 604.229 303.354 L 604.229 248.766 Z " fill="url(#_lgradient_19)"/><path d=" M 604.229 303.354 L 602.751 302.501 L 602.751 247.914 L 604.229 248.766 L 604.229 303.354 Z " fill="rgb(0,59,81)"/><linearGradient id="_lgradient_20" x1="0" y1="0.5" x2="1.038461538461538" y2="-0.40442888750692896" gradientTransform="matrix(19.205,0,0,11.088,602.751,237.678)" gradientUnits="userSpaceOnUse"><stop offset="0%" stop-opacity="1" style="stop-color:rgb(0,59,81)"/><stop offset="97.82608695652173%" stop-opacity="1" style="stop-color:rgb(14,92,121)"/></linearGradient><path d=" M 602.751 247.914 L 604.229 248.766 L 621.956 238.531 L 620.479 237.678 L 602.751 247.914 Z " fill="url(#_lgradient_20)"/><path d=" M 607.183 252.385 L 607.183 267.737 L 619.002 260.914 L 619.002 245.561 L 607.183 252.385 Z " fill="rgb(0,45,62)"/></g><g style="isolation:isolate"><path d=" M 608.365 253.67 L 609.547 252.988 L 609.547 253.67 L 608.365 254.353 L 608.365 253.67 Z " fill="rgb(94,179,210)"/><path d=" M 610.138 252.647 L 611.32 251.964 L 611.32 252.647 L 610.138 253.329 L 610.138 252.647 Z " fill="rgb(94,179,210)"/><path d=" M 611.911 254.353 L 613.093 253.67 L 613.093 254.353 L 611.911 255.035 L 611.911 254.353 Z " fill="rgb(94,179,210)"/><path d=" M 613.683 253.329 L 616.047 251.964 L 616.047 252.647 L 613.683 254.011 L 613.683 253.329 Z " fill="rgb(94,179,210)"/><path d=" M 608.365 259.129 L 610.729 257.764 L 610.729 258.447 L 608.365 259.811 L 608.365 259.129 Z " fill="rgb(94,179,210)"/><path d=" M 609.547 257.082 L 611.911 255.717 L 611.911 256.4 L 609.547 257.764 L 609.547 257.082 Z " fill="rgb(94,179,210)"/><path d=" M 608.365 255.035 L 610.138 254.011 L 610.138 254.694 L 608.365 255.717 L 608.365 255.035 Z " fill="rgb(94,179,210)"/><path d=" M 610.729 253.67 L 612.502 252.647 L 612.502 253.329 L 610.729 254.353 L 610.729 253.67 Z " fill="rgb(94,179,210)"/><path d=" M 608.365 256.445 L 610.138 255.422 L 610.138 256.104 L 608.365 257.128 L 608.365 256.445 Z " fill="rgb(94,179,210)"/><path d=" M 610.729 255.035 L 611.32 254.694 L 611.32 255.376 L 610.729 255.717 L 610.729 255.035 Z " fill="rgb(94,179,210)"/><path d=" M 608.365 257.81 L 608.956 257.469 L 608.956 258.151 L 608.365 258.492 L 608.365 257.81 Z " fill="rgb(94,179,210)"/><path d=" M 608.365 260.494 L 609.547 259.811 L 609.547 260.494 L 608.365 261.176 L 608.365 260.494 Z " fill="rgb(94,179,210)"/><path d=" M 610.138 259.47 L 610.729 259.129 L 610.729 259.811 L 610.138 260.152 L 610.138 259.47 Z " fill="rgb(94,179,210)"/><path d=" M 611.32 258.788 L 611.32 259.47 L 612.502 258.788 L 612.502 258.105 L 611.32 258.788 Z " fill="rgb(94,179,210)"/><path d=" M 613.093 257.764 L 614.865 256.741 L 614.865 257.423 L 613.093 258.447 L 613.093 257.764 Z " fill="rgb(94,179,210)"/><path d=" M 615.456 256.4 L 616.638 255.717 L 616.638 256.4 L 615.456 257.082 L 615.456 256.4 Z " fill="rgb(94,179,210)"/><path d=" M 608.365 261.858 L 608.365 262.541 L 610.138 261.517 L 610.138 260.835 L 608.365 261.858 Z " fill="rgb(94,179,210)"/><path d=" M 608.365 263.223 L 608.956 262.882 L 608.956 263.564 L 608.365 263.905 L 608.365 263.223 Z " fill="rgb(94,179,210)"/><path d=" M 608.365 264.588 L 611.32 262.882 L 611.32 263.564 L 608.365 265.27 L 608.365 264.588 Z " fill="rgb(94,179,210)"/><path d=" M 609.547 262.541 L 610.729 261.858 L 610.729 262.541 L 609.547 263.223 L 609.547 262.541 Z " fill="rgb(94,179,210)"/><path d=" M 611.911 262.541 L 613.093 261.858 L 613.093 262.541 L 611.911 263.223 L 611.911 262.541 Z " fill="rgb(94,179,210)"/><path d=" M 613.683 261.517 L 614.274 261.176 L 614.274 261.858 L 613.683 262.2 L 613.683 261.517 Z " fill="rgb(94,179,210)"/><path d=" M 610.729 260.494 L 611.911 259.811 L 611.911 260.494 L 610.729 261.176 L 610.729 260.494 Z " fill="rgb(94,179,210)"/><path d=" M 612.502 259.47 L 614.274 258.447 L 614.274 259.129 L 612.502 260.152 L 612.502 259.47 Z " fill="rgb(94,179,210)"/></g><g style="isolation:isolate"><g style="isolation:isolate"><path d=" M 569.068 234.798 L 569.068 240.257 L 593.887 254.586 L 593.887 249.127 L 569.068 234.798 Z " fill="rgb(20,127,165)"/><path d=" M 570.25 237.527 L 583.546 245.204 L 583.546 246.91 L 570.25 239.233 L 570.25 237.527 Z " fill="rgb(230,116,255)"/><path d=" M 585.023 246.057 L 586.501 246.91 L 586.501 248.616 L 585.023 247.763 L 585.023 246.057 Z " fill="rgb(0,210,56)"/><path d=" M 587.978 247.763 L 589.455 248.616 L 589.455 250.321 L 587.978 249.469 L 587.978 247.763 Z " fill="rgb(0,210,56)"/><path d=" M 590.933 249.469 L 592.41 250.321 L 592.41 252.027 L 590.933 251.174 L 590.933 249.469 Z " fill="rgb(229,255,113)"/><path d=" M 593.887 254.586 L 594.478 254.245 L 594.478 248.786 L 593.887 249.127 L 593.887 254.586 Z " fill="rgb(0,59,81)"/><path d=" M 594.478 248.786 L 569.659 234.457 L 569.068 234.798 L 593.887 249.127 L 594.478 248.786 Z " fill="rgb(0,59,81)"/></g><g style="isolation:isolate"><path d=" M 569.068 243.662 L 569.068 249.121 L 593.887 263.45 L 593.887 257.991 L 569.068 243.662 Z " fill="rgb(20,127,165)"/><path d=" M 570.25 246.391 L 583.546 254.068 L 583.546 255.774 L 570.25 248.097 L 570.25 246.391 Z " fill="rgb(230,116,255)"/><path d=" M 585.023 254.921 L 586.501 255.774 L 586.501 257.48 L 585.023 256.627 L 585.023 254.921 Z " fill="rgb(0,210,56)"/><path d=" M 587.978 256.627 L 589.455 257.48 L 589.455 259.185 L 587.978 258.332 L 587.978 256.627 Z " fill="rgb(0,210,56)"/><path d=" M 590.933 258.332 L 592.41 259.185 L 592.41 260.891 L 590.933 260.038 L 590.933 258.332 Z " fill="rgb(0,210,56)"/><path d=" M 593.887 263.45 L 594.478 263.109 L 594.478 257.65 L 593.887 257.991 L 593.887 263.45 Z " fill="rgb(0,59,81)"/><path d=" M 594.478 257.65 L 569.659 243.321 L 569.068 243.662 L 593.887 257.991 L 594.478 257.65 Z " fill="rgb(0,59,81)"/></g><g style="isolation:isolate"><path d=" M 569.068 252.526 L 569.068 257.985 L 593.887 272.314 L 593.887 266.855 L 569.068 252.526 Z " fill="rgb(20,127,165)"/><path d=" M 570.25 255.255 L 583.546 262.932 L 583.546 264.638 L 570.25 256.961 L 570.25 255.255 Z " fill="rgb(230,116,255)"/><path d=" M 585.023 263.785 L 586.501 264.638 L 586.501 266.343 L 585.023 265.491 L 585.023 263.785 Z " fill="rgb(0,210,56)"/><path d=" M 587.978 265.491 L 589.455 266.343 L 589.455 268.049 L 587.978 267.196 L 587.978 265.491 Z " fill="rgb(229,255,113)"/><path d=" M 590.933 267.196 L 592.41 268.049 L 592.41 269.755 L 590.933 268.902 L 590.933 267.196 Z " fill="rgb(229,255,113)"/><path d=" M 593.887 272.314 L 594.478 271.973 L 594.478 266.514 L 593.887 266.855 L 593.887 272.314 Z " fill="rgb(0,59,81)"/><path d=" M 594.478 266.514 L 569.659 252.185 L 569.068 252.526 L 593.887 266.855 L 594.478 266.514 Z " fill="rgb(0,59,81)"/></g><g style="isolation:isolate"><path d=" M 569.068 261.39 L 569.068 266.849 L 593.887 281.178 L 593.887 275.719 L 569.068 261.39 Z " fill="rgb(20,127,165)"/><path d=" M 570.25 264.119 L 583.546 271.796 L 583.546 273.502 L 570.25 265.825 L 570.25 264.119 Z " fill="rgb(230,116,255)"/><path d=" M 585.023 272.649 L 586.501 273.502 L 586.501 275.207 L 585.023 274.354 L 585.023 272.649 Z " fill="rgb(229,255,113)"/><path d=" M 587.978 274.354 L 589.455 275.207 L 589.455 276.913 L 587.978 276.06 L 587.978 274.354 Z " fill="rgb(0,210,56)"/><path d=" M 590.933 276.06 L 592.41 276.913 L 592.41 278.619 L 590.933 277.766 L 590.933 276.06 Z " fill="rgb(229,255,113)"/><path d=" M 593.887 281.178 L 594.478 280.837 L 594.478 275.378 L 593.887 275.719 L 593.887 281.178 Z " fill="rgb(0,59,81)"/><path d=" M 594.478 275.378 L 569.659 261.049 L 569.068 261.39 L 593.887 275.719 L 594.478 275.378 Z " fill="rgb(0,59,81)"/></g><g style="isolation:isolate"><path d=" M 569.068 270.254 L 569.068 275.713 L 593.887 290.042 L 593.887 284.583 L 569.068 270.254 Z " fill="rgb(20,127,165)"/><path d=" M 570.25 272.983 L 583.546 280.66 L 583.546 282.366 L 570.25 274.689 L 570.25 272.983 Z " fill="rgb(230,116,255)"/><path d=" M 585.023 281.513 L 586.501 282.366 L 586.501 284.071 L 585.023 283.218 L 585.023 281.513 Z " fill="rgb(0,210,56)"/><path d=" M 587.978 283.218 L 589.455 284.071 L 589.455 285.777 L 587.978 284.924 L 587.978 283.218 Z " fill="rgb(0,210,56)"/><path d=" M 590.933 284.924 L 592.41 285.777 L 592.41 287.483 L 590.933 286.63 L 590.933 284.924 Z " fill="rgb(229,255,113)"/><path d=" M 593.887 290.042 L 594.478 289.701 L 594.478 284.242 L 593.887 284.583 L 593.887 290.042 Z " fill="rgb(0,59,81)"/><path d=" M 594.478 284.242 L 569.659 269.913 L 569.068 270.254 L 593.887 284.583 L 594.478 284.242 Z " fill="rgb(0,59,81)"/></g><g style="isolation:isolate"><path d=" M 569.068 279.118 L 569.068 284.577 L 593.887 298.906 L 593.887 293.447 L 569.068 279.118 Z " fill="rgb(20,127,165)"/><path d=" M 570.25 281.847 L 583.546 289.524 L 583.546 291.229 L 570.25 283.553 L 570.25 281.847 Z " fill="rgb(230,116,255)"/><path d=" M 585.023 290.377 L 586.501 291.229 L 586.501 292.935 L 585.023 292.082 L 585.023 290.377 Z " fill="rgb(0,210,56)"/><path d=" M 587.978 292.082 L 589.455 292.935 L 589.455 294.641 L 587.978 293.788 L 587.978 292.082 Z " fill="rgb(229,255,113)"/><path d=" M 590.933 293.788 L 592.41 294.641 L 592.41 296.347 L 590.933 295.494 L 590.933 293.788 Z " fill="rgb(229,255,113)"/><path d=" M 593.887 298.906 L 594.478 298.565 L 594.478 293.106 L 593.887 293.447 L 593.887 298.906 Z " fill="rgb(0,59,81)"/><path d=" M 594.478 293.106 L 569.659 278.777 L 569.068 279.118 L 593.887 293.447 L 594.478 293.106 Z " fill="rgb(0,59,81)"/></g><g style="isolation:isolate"><path d=" M 569.068 287.982 L 569.068 293.441 L 593.887 307.77 L 593.887 302.311 L 569.068 287.982 Z " fill="rgb(20,127,165)"/><path d=" M 570.25 290.711 L 583.546 298.388 L 583.546 300.093 L 570.25 292.417 L 570.25 290.711 Z " fill="rgb(230,116,255)"/><path d=" M 585.023 299.24 L 586.501 300.093 L 586.501 301.799 L 585.023 300.946 L 585.023 299.24 Z " fill="rgb(0,210,56)"/><path d=" M 587.978 300.946 L 589.455 301.799 L 589.455 303.505 L 587.978 302.652 L 587.978 300.946 Z " fill="rgb(0,210,56)"/><path d=" M 590.933 302.652 L 592.41 303.505 L 592.41 305.211 L 590.933 304.358 L 590.933 302.652 Z " fill="rgb(0,210,56)"/><path d=" M 593.887 307.77 L 594.478 307.429 L 594.478 301.97 L 593.887 302.311 L 593.887 307.77 Z " fill="rgb(0,59,81)"/><path d=" M 594.478 301.97 L 569.659 287.641 L 569.068 287.982 L 593.887 302.311 L 594.478 301.97 Z " fill="rgb(0,59,81)"/></g></g><g style="isolation:isolate"><radialGradient id="_rgradient_1" fx="0.5" fy="0.5" cx="0.5" cy="0.5" r="0.5" gradientTransform="matrix(29.546,0,0,17.059,581.182,218.501)" gradientUnits="userSpaceOnUse"><stop offset="1.7391304347826086%" stop-opacity="1" style="stop-color:rgb(0,100,136)"/><stop offset="97.3913043478261%" stop-opacity="1" style="stop-color:rgb(60,178,221)"/></radialGradient><path d=" M 581.182 227.03 L 595.956 218.501 L 610.729 227.03 L 595.956 235.56 L 581.182 227.03 Z " fill="url(#_rgradient_1)"/><path d=" M 581.182 227.03 L 595.956 218.501 L 595.956 220.207 L 582.66 227.883 L 581.182 227.03 Z " fill="rgb(8,91,121)"/><path d=" M 595.956 218.501 L 595.956 220.207 L 609.251 227.883 L 610.729 227.03 L 595.956 218.501 Z " fill="rgb(8,91,121)"/><g style="isolation:isolate"><radialGradient id="_rgradient_2" fx="0.5" fy="0.5" cx="0.5" cy="0.5" r="0.5" gradientTransform="matrix(1.477,0,0,2.559,595.956,226.177)" gradientUnits="userSpaceOnUse"><stop offset="1.3043478260869565%" stop-opacity="1" style="stop-color:rgb(0,255,115)"/><stop offset="96.95652173913044%" stop-opacity="1" style="stop-color:rgb(34,181,32)"/></radialGradient><path d=" M 595.956 227.03 L 597.433 226.177 L 597.433 227.883 L 595.956 228.736 L 595.956 227.03 Z " fill="url(#_rgradient_2)"/><radialGradient id="_rgradient_3" fx="0.5" fy="0.5" cx="0.5" cy="0.5" r="0.5" gradientTransform="matrix(2.955,0,0,1.706,594.478,225.324)" gradientUnits="userSpaceOnUse"><stop offset="1.3043478260869565%" stop-opacity="1" style="stop-color:rgb(0,255,115)"/><stop offset="96.95652173913044%" stop-opacity="1" style="stop-color:rgb(34,181,32)"/></radialGradient><path d=" M 594.478 226.177 L 595.956 225.324 L 597.433 226.177 L 595.956 227.03 L 594.478 226.177 Z " fill="url(#_rgradient_3)"/><radialGradient id="_rgradient_4" fx="0.5" fy="0.5" cx="0.5" cy="0.5" r="0.5" gradientTransform="matrix(1.477,0,0,2.559,594.478,226.177)" gradientUnits="userSpaceOnUse"><stop offset="1.3043478260869565%" stop-opacity="1" style="stop-color:rgb(0,255,115)"/><stop offset="96.95652173913044%" stop-opacity="1" style="stop-color:rgb(34,181,32)"/></radialGradient><path d=" M 594.478 227.883 L 594.478 226.177 L 595.956 227.03 L 595.956 228.736 L 594.478 227.883 Z " fill="url(#_rgradient_4)"/></g></g></g><g style="isolation:isolate"><linearGradient id="_lgradient_21" x1="0.2623749999999998" y1="0.7686172282542298" x2="0.7367500000000001" y2="0.26952088333459606" gradientTransform="matrix(43.673,0,0,15.02,617.656,316.057)" gradientUnits="userSpaceOnUse"><stop offset="1.7391304347826086%" stop-opacity="1" style="stop-color:rgb(0,100,136)"/><stop offset="97.3913043478261%" stop-opacity="1" style="stop-color:rgb(60,178,221)"/></linearGradient><ellipse vector-effect="non-scaling-stroke" cx="639.4920314917053" cy="323.5663759328466" rx="21.83632930774081" ry="7.509868828928347" fill="url(#_lgradient_21)"/><defs><filter id="nfDCzyJ1nneQNgHedLHxiXe1R5gWqCsB" x="-200%" y="-200%" width="400%" height="400%" filterUnits="objectBoundingBox" color-interpolation-filters="sRGB"><feGaussianBlur xmlns="http://www.w3.org/2000/svg" in="SourceGraphic" stdDeviation="8.587218125678056"/><feOffset xmlns="http://www.w3.org/2000/svg" dx="0" dy="10" result="pf_100_offsetBlur"/><feFlood xmlns="http://www.w3.org/2000/svg" flood-color="#00CCFF" flood-opacity="1"/><feComposite xmlns="http://www.w3.org/2000/svg" in2="pf_100_offsetBlur" operator="in" result="pf_100_dropShadow"/><feBlend xmlns="http://www.w3.org/2000/svg" in="SourceGraphic" in2="pf_100_dropShadow" mode="normal"/></filter></defs><g filter="url(#nfDCzyJ1nneQNgHedLHxiXe1R5gWqCsB)"><ellipse vector-effect="non-scaling-stroke" cx="639.4524889979141" cy="319.73695096046754" rx="16.668131093020406" ry="3.6208296139470804" fill="rgb(8,91,121)"/></g><path d=" M 617.656 323.298 L 617.656 333.49 Q 618.994 340.128 639.492 341 Q 660.151 339.994 661.328 333.49 L 661.328 323.298 Q 661.168 329.601 639.492 330.808 Q 619.208 330.003 617.656 323.298 Z " fill="rgb(26,135,174)"/><linearGradient id="_lgradient_22" x1="0.2623749999999998" y1="0.7686172282542298" x2="0.7367500000000001" y2="0.26952088333459606" gradientTransform="matrix(43.673,0,0,15.02,617.656,299.696)" gradientUnits="userSpaceOnUse"><stop offset="1.7391304347826086%" stop-opacity="1" style="stop-color:rgb(0,100,136)"/><stop offset="97.3913043478261%" stop-opacity="1" style="stop-color:rgb(60,178,221)"/></linearGradient><ellipse vector-effect="non-scaling-stroke" cx="639.4920314917053" cy="307.2055902698246" rx="21.83632930774081" ry="7.509868828928347" fill="url(#_lgradient_22)"/><defs><filter id="do5icPuiuzLcyrY01ALLS61yN3rHq3sO" x="-200%" y="-200%" width="400%" height="400%" filterUnits="objectBoundingBox" color-interpolation-filters="sRGB"><feGaussianBlur xmlns="http://www.w3.org/2000/svg" in="SourceGraphic" stdDeviation="8.587218125678056"/><feOffset xmlns="http://www.w3.org/2000/svg" dx="0" dy="10" result="pf_100_offsetBlur"/><feFlood xmlns="http://www.w3.org/2000/svg" flood-color="#00CCFF" flood-opacity="1"/><feComposite xmlns="http://www.w3.org/2000/svg" in2="pf_100_offsetBlur" operator="in" result="pf_100_dropShadow"/><feBlend xmlns="http://www.w3.org/2000/svg" in="SourceGraphic" in2="pf_100_dropShadow" mode="normal"/></filter></defs><g filter="url(#do5icPuiuzLcyrY01ALLS61yN3rHq3sO)"><ellipse vector-effect="non-scaling-stroke" cx="639.4524889979141" cy="302.95958583950306" rx="16.668131093020406" ry="3.6208296139470804" fill="rgb(8,91,121)"/></g><path d=" M 617.656 306.937 L 617.656 317.129 Q 618.994 323.768 639.492 324.639 Q 660.151 323.633 661.328 317.129 L 661.328 306.937 Q 661.168 313.24 639.492 314.447 Q 619.208 313.643 617.656 306.937 Z " fill="rgb(26,135,174)"/><linearGradient id="_lgradient_23" x1="0.2623749999999998" y1="0.7686172282542298" x2="0.7367500000000001" y2="0.26952088333459606" gradientTransform="matrix(43.673,0,0,15.02,617.656,283.335)" gradientUnits="userSpaceOnUse"><stop offset="1.7391304347826086%" stop-opacity="1" style="stop-color:rgb(0,100,136)"/><stop offset="97.3913043478261%" stop-opacity="1" style="stop-color:rgb(60,178,221)"/></linearGradient><ellipse vector-effect="non-scaling-stroke" cx="639.4920314917053" cy="290.8448046068017" rx="21.83632930774081" ry="7.509868828928347" fill="url(#_lgradient_23)"/><path d=" M 617.656 290.577 L 617.656 300.769 Q 618.994 307.407 639.492 308.278 Q 660.151 307.273 661.328 300.769 L 661.328 290.577 Q 661.168 296.88 639.492 298.086 Q 619.208 297.282 617.656 290.577 Z " fill="rgb(26,135,174)"/><path d=" M 632.963 287.24 L 632.963 290.287 Q 633.363 292.272 639.492 292.533 Q 645.669 292.232 646.022 290.287 L 646.022 287.24 Q 645.974 289.124 639.492 289.485 Q 633.427 289.245 632.963 287.24 Z " fill="rgb(8,91,121)"/><linearGradient id="_lgradient_24" x1="0.2623749999999998" y1="0.7686172282542298" x2="0.7367500000000001" y2="0.26952088333459606" gradientTransform="matrix(12.952,0,0,4.454,633.016,285.281)" gradientUnits="userSpaceOnUse"><stop offset="1.7391304347826086%" stop-opacity="1" style="stop-color:rgb(0,100,136)"/><stop offset="97.3913043478261%" stop-opacity="1" style="stop-color:rgb(60,178,221)"/></linearGradient><ellipse vector-effect="non-scaling-stroke" cx="639.4920314917051" cy="287.5079578317253" rx="6.475970211364256" ry="2.227191490932171" fill="url(#_lgradient_24)"/></g><g style="isolation:isolate"><g style="isolation:isolate"><path d=" M 246.257 379.653 L 247.927 383.033 Q 245.121 390.882 250.481 389.901 L 268.064 388.836 Q 269.463 386.476 256.327 384.6 Q 253.01 382.511 253.992 379.307 L 246.257 379.653 Z " fill="rgb(187,187,187)"/><path d=" M 210.977 408.46 L 212.434 411.937 Q 209.145 419.596 214.556 418.95 L 232.171 418.978 Q 233.714 416.71 220.72 414.022 Q 217.539 411.732 218.717 408.594 L 210.977 408.46 Z " fill="rgb(187,187,187)"/><linearGradient id="_lgradient_25" x1="0" y1="0.5" x2="0.9673835826831669" y2="0.13267704665499663" gradientTransform="matrix(48.128,0,0,69.867,208.271,338.593)" gradientUnits="userSpaceOnUse"><stop offset="1.3043478260869565%" stop-opacity="1" style="stop-color:rgb(255,167,167)"/><stop offset="97.3913043478261%" stop-opacity="1" style="stop-color:rgb(59,190,255)"/></linearGradient><path d=" M 218.701 387.349 L 220.46 408.46 L 209.151 408.46 L 209.151 386.344 L 209.151 363.725 Q 207.392 347.931 209.151 345.67 L 211.161 338.593 L 235.037 338.593 L 236.796 347.138 L 251.875 358.95 L 256.399 379.307 L 244.336 382.323 L 244.336 365.233 L 225.534 358.95 L 218.701 387.349" fill="url(#_lgradient_25)"/></g><path d=" M 263.92 305.781 L 271.014 303.007 L 272.062 299.628 L 273.607 296.337 L 274.887 294.726 Q 276.094 294.374 274.539 296.913 L 274.302 298.411 Q 275.532 298.318 276.457 297.729 L 278.302 295.78 L 280.116 294.021 L 281.352 292.682 C 281.948 292.333 282.519 293.076 281.035 294.679 L 279.799 296.018 C 278.892 297.254 277.493 298.582 277.831 298.745 C 277.718 299.054 279.047 298.238 280.719 296.675 C 281.45 296.52 281.85 296.937 281.595 297.605 C 281.133 298.02 279.72 299.371 279.166 300.011 C 279.279 300.157 280.045 299.666 281.449 298.521 C 282.272 298.473 282.54 298.996 282.289 299.678 C 279.891 300.991 278.941 301.634 279.427 301.588 L 282.161 300.487 C 282.572 300.699 282.694 301.07 282.502 301.564 Q 280.449 302.606 280.267 302.745 Q 280.085 302.884 278.002 304.116 Q 276.692 305.12 274.221 305.368 L 268.516 309.069 L 263.92 305.781 Z " fill="rgb(236,222,155)"/><g style="isolation:isolate"><path d=" M 228.754 292.629 Q 230.96 292.335 230.205 289.92 C 228.994 286.051 230.855 287.611 231.101 286.342 Q 231.142 286.131 229.676 283.925 Q 228.697 282.486 229.676 281.507 Q 230.626 279.334 227.302 274.727 Q 224.513 271.997 220.181 272.828 Q 209.024 275.736 214.958 287.072 Q 216.205 288.971 217.807 289.92 Q 219.409 290.87 220.181 295.046 Q 227.089 291.571 228.754 292.629 Z " fill="rgb(236,222,155)"/><path d=" M 220.043 298.466 L 220.043 294.627 Q 227.364 290.725 228.754 292.629 L 228.819 297.918 Q 225.322 300.249 220.043 298.466 Z " fill="rgb(236,222,155)"/><path d=" M 227.76 276.055 L 229.374 272.011 L 227.254 272.516 L 226.243 271 L 224.221 272.011 L 221.694 271 L 216.639 271.505 L 214.618 273.527 L 212.09 276.055 L 210.574 279.593 L 210.574 282.626 L 212.09 287.175 L 214.112 289.197 L 215.215 291.082 L 218.599 290.395 L 221.694 291.082 L 220.181 287.175 L 220.181 283.441 L 221.694 282.626 L 222.705 280.098 L 224.221 278.077 L 225.738 277.571 L 227.76 276.055 Z " fill="rgb(202,202,141)"/><path d=" M 226.243 271 L 226.039 273.39 L 227.254 272.516 L 226.243 271 Z " fill="rgb(217,217,153)"/><path d=" M 229.374 272.011 L 227.556 273.896 L 227.76 276.055 L 229.374 272.011 Z " fill="rgb(217,217,153)"/><path d=" M 225.534 274.906 L 224.221 278.077 L 222.705 279.961 L 225.534 274.906 Z " fill="rgb(217,217,153)"/><path d=" M 225.028 273.896 L 224.221 275.412 L 221.996 276.423 L 225.028 273.896 Z " fill="rgb(217,217,153)"/><path d=" M 224.221 272.011 L 220.985 272.379 L 221.694 271 L 224.221 272.011 Z " fill="rgb(217,217,153)"/></g><g style="isolation:isolate"><linearGradient id="_lgradient_26" x1="0" y1="0.5" x2="2.0407557162274013" y2="-0.3584728179402735" gradientTransform="matrix(42.963,0,0,51.515,198.745,295.166)" gradientUnits="userSpaceOnUse"><stop offset="0%" stop-opacity="1" style="stop-color:rgb(111,255,128)"/><stop offset="100%" stop-opacity="1" style="stop-color:rgb(0,0,0)"/></linearGradient><path d=" M 213.11 346.68 L 236.148 343.648 L 233.621 331.011 L 238.675 313.321 L 241.708 298.157 Q 232.863 295.251 229.428 295.166 Q 222.89 298.414 219.155 295.166 Q 209.494 297.114 206.789 299.843 L 198.745 320.5 L 209.494 327.582 L 209.865 332.022 L 207.843 346.68 L 213.11 346.68 Z " fill="url(#_lgradient_26)"/><linearGradient id="_lgradient_27" x1="0" y1="0.5" x2="4.353798889031552" y2="-0.8468108427343373" gradientTransform="matrix(34.58,0,0,18.702,238.675,298.157)" gradientUnits="userSpaceOnUse"><stop offset="0%" stop-opacity="1" style="stop-color:rgb(66,152,76)"/><stop offset="100%" stop-opacity="1" style="stop-color:rgb(0,0,0)"/></linearGradient><path d=" M 241.708 298.157 L 254.32 309.197 Q 266.337 303.201 267.992 302.706 L 273.256 309.197 Q 265.843 310.414 254.85 316.859 Q 243.184 310.808 238.675 310.288 L 241.708 298.157 Z " fill="url(#_lgradient_27)"/><path d=" M 210.876 318.881 L 209.494 317.87 L 212.392 308.266 L 210.876 318.881 Z " fill="rgb(83,190,95)"/><line x1="209.494" y1="327.473" x2="210.876" y2="318.772" vector-effect="non-scaling-stroke" stroke-width="0.3" stroke="rgb(83,190,95)" stroke-linejoin="miter" stroke-linecap="square" stroke-miterlimit="3"/></g></g><g style="isolation:isolate"><path d=" M 234.079 53.28 L 234.066 55.268 L 233.333 55.035 L 233.345 53.16 L 233.345 53.16 Q 233.347 52.807 233.188 52.582 L 233.188 52.582 L 233.188 52.582 Q 233.029 52.357 232.682 52.247 L 232.682 52.247 L 232.682 52.247 Q 232.222 52.1 232.004 52.275 L 232.004 52.275 L 232.004 52.275 Q 231.787 52.45 231.783 53.024 L 231.783 53.024 L 231.773 54.538 L 231.043 54.305 L 231.071 50.015 L 231.801 50.247 L 231.794 51.336 L 231.794 51.336 Q 231.792 51.598 231.753 51.884 L 231.753 51.884 L 231.8 51.899 L 231.8 51.899 Q 231.95 51.726 232.217 51.689 L 232.217 51.689 L 232.217 51.689 Q 232.483 51.653 232.837 51.766 L 232.837 51.766 L 232.837 51.766 Q 234.086 52.164 234.079 53.28 L 234.079 53.28 Z  M 238.139 55.033 L 238.139 55.033 L 238.139 55.033 Q 238.134 55.78 237.7 56.062 L 237.7 56.062 L 237.7 56.062 Q 237.265 56.343 236.495 56.098 L 236.495 56.098 L 236.495 56.098 Q 236.013 55.944 235.645 55.634 L 235.645 55.634 L 235.645 55.634 Q 235.276 55.323 235.08 54.898 L 235.08 54.898 L 235.08 54.898 Q 234.883 54.474 234.887 53.997 L 234.887 53.997 L 234.887 53.997 Q 234.891 53.255 235.323 52.975 L 235.323 52.975 L 235.323 52.975 Q 235.754 52.695 236.534 52.944 L 236.534 52.944 L 236.534 52.944 Q 237.279 53.182 237.712 53.746 L 237.712 53.746 L 237.712 53.746 Q 238.144 54.311 238.139 55.033 Z  M 235.638 54.236 L 235.638 54.236 L 235.638 54.236 Q 235.632 55.292 236.511 55.572 L 236.511 55.572 L 236.511 55.572 Q 237.38 55.85 237.387 54.794 L 237.387 54.794 L 237.387 54.794 Q 237.394 53.749 236.518 53.469 L 236.518 53.469 L 236.518 53.469 Q 236.058 53.323 235.85 53.527 L 235.85 53.527 L 235.85 53.527 Q 235.642 53.732 235.638 54.236 Z  M 241.874 56.138 L 241.863 57.754 L 241.13 57.52 L 241.142 55.64 L 241.142 55.64 Q 241.144 55.289 240.996 55.07 L 240.996 55.07 L 240.996 55.07 Q 240.848 54.85 240.532 54.749 L 240.532 54.749 L 240.532 54.749 Q 240.109 54.614 239.91 54.795 L 239.91 54.795 L 239.91 54.795 Q 239.711 54.976 239.708 55.544 L 239.708 55.544 L 239.698 57.064 L 238.968 56.831 L 238.988 53.781 L 239.559 53.963 L 239.659 54.396 L 239.696 54.408 L 239.696 54.408 Q 239.841 54.236 240.113 54.204 L 240.113 54.204 L 240.113 54.204 Q 240.386 54.172 240.712 54.276 L 240.712 54.276 L 240.712 54.276 Q 241.504 54.528 241.759 55.09 L 241.759 55.09 L 241.809 55.106 L 241.809 55.106 Q 241.962 54.928 242.24 54.89 L 242.24 54.89 L 242.24 54.89 Q 242.517 54.851 242.874 54.965 L 242.874 54.965 L 242.874 54.965 Q 243.489 55.161 243.769 55.526 L 243.769 55.526 L 243.769 55.526 Q 244.048 55.892 244.044 56.457 L 244.044 56.457 L 244.031 58.445 L 243.301 58.212 L 243.314 56.332 L 243.314 56.332 Q 243.316 55.981 243.166 55.761 L 243.166 55.761 L 243.166 55.761 Q 243.017 55.541 242.7 55.44 L 242.7 55.44 L 242.7 55.44 Q 242.274 55.304 242.076 55.477 L 242.076 55.477 L 242.076 55.477 Q 241.877 55.65 241.874 56.138 L 241.874 56.138 Z  M 246.55 59.303 L 246.55 59.303 L 246.55 59.303 Q 245.749 59.048 245.3 58.488 L 245.3 58.488 L 245.3 58.488 Q 244.85 57.929 244.855 57.202 L 244.855 57.202 L 244.855 57.202 Q 244.86 56.454 245.282 56.161 L 245.282 56.161 L 245.282 56.161 Q 245.704 55.867 246.437 56.101 L 246.437 56.101 L 246.437 56.101 Q 247.118 56.317 247.51 56.81 L 247.51 56.81 L 247.51 56.81 Q 247.902 57.302 247.898 57.945 L 247.898 57.945 L 247.896 58.295 L 245.606 57.565 L 245.606 57.565 Q 245.619 58.014 245.872 58.334 L 245.872 58.334 L 245.872 58.334 Q 246.125 58.653 246.588 58.801 L 246.588 58.801 L 246.588 58.801 Q 246.892 58.898 247.155 58.931 L 247.155 58.931 L 247.155 58.931 Q 247.418 58.963 247.72 58.941 L 247.72 58.941 L 247.717 59.467 L 247.717 59.467 Q 247.449 59.495 247.175 59.455 L 247.175 59.455 L 247.175 59.455 Q 246.902 59.415 246.55 59.303 Z  M 246.434 56.591 L 246.434 56.591 L 246.434 56.591 Q 246.086 56.48 245.875 56.609 L 245.875 56.609 L 245.875 56.609 Q 245.664 56.738 245.621 57.1 L 245.621 57.1 L 247.181 57.597 L 247.181 57.597 Q 247.177 57.218 246.98 56.96 L 246.98 56.96 L 246.98 56.96 Q 246.782 56.702 246.434 56.591 Z " fill="rgb(255,255,255)"/><path d=" M 259.543 61.151 L 259.523 61.641 L 258.693 61.345 L 258.588 63.9 L 257.863 63.642 L 257.968 61.087 L 257.409 60.887 L 257.421 60.585 L 257.989 60.586 L 257.997 60.387 L 257.997 60.387 Q 258.019 59.848 258.312 59.688 L 258.312 59.688 L 258.312 59.688 Q 258.606 59.529 259.186 59.736 L 259.186 59.736 L 259.186 59.736 Q 259.567 59.872 259.931 60.116 L 259.931 60.116 L 259.721 60.539 L 259.721 60.539 Q 259.457 60.366 259.214 60.28 L 259.214 60.28 L 259.214 60.28 Q 258.968 60.192 258.85 60.288 L 258.85 60.288 L 258.85 60.288 Q 258.733 60.385 258.721 60.657 L 258.721 60.657 L 258.713 60.855 L 259.543 61.151 Z  M 263.072 63.949 L 263.072 63.949 L 263.072 63.949 Q 263.042 64.695 262.597 64.961 L 262.597 64.961 L 262.597 64.961 Q 262.153 65.228 261.391 64.956 L 261.391 64.956 L 261.391 64.956 Q 260.915 64.786 260.557 64.463 L 260.557 64.463 L 260.557 64.463 Q 260.199 64.14 260.018 63.709 L 260.018 63.709 L 260.018 63.709 Q 259.836 63.278 259.855 62.802 L 259.855 62.802 L 259.855 62.802 Q 259.886 62.061 260.327 61.797 L 260.327 61.797 L 260.327 61.797 Q 260.768 61.532 261.539 61.807 L 261.539 61.807 L 261.539 61.807 Q 262.276 62.07 262.689 62.649 L 262.689 62.649 L 262.689 62.649 Q 263.102 63.228 263.072 63.949 Z  M 260.599 63.067 L 260.599 63.067 L 260.599 63.067 Q 260.555 64.121 261.425 64.432 L 261.425 64.432 L 261.425 64.432 Q 262.285 64.738 262.329 63.684 L 262.329 63.684 L 262.329 63.684 Q 262.372 62.64 261.505 62.331 L 261.505 62.331 L 261.505 62.331 Q 261.05 62.169 260.835 62.366 L 260.835 62.366 L 260.835 62.366 Q 260.62 62.563 260.599 63.067 Z  M 264.737 61.746 L 264.561 66.03 L 263.839 65.773 L 264.015 61.489 L 264.737 61.746 Z  M 266.441 63.611 L 266.315 66.656 L 265.593 66.399 L 265.718 63.354 L 266.441 63.611 Z  M 265.709 62.532 L 265.709 62.532 L 265.709 62.532 Q 265.716 62.358 265.826 62.302 L 265.826 62.302 L 265.826 62.302 Q 265.935 62.246 266.132 62.317 L 266.132 62.317 L 266.132 62.317 Q 266.323 62.385 266.425 62.516 L 266.425 62.516 L 266.425 62.516 Q 266.527 62.647 266.52 62.821 L 266.52 62.821 L 266.52 62.821 Q 266.513 62.986 266.403 63.043 L 266.403 63.043 L 266.403 63.043 Q 266.293 63.1 266.103 63.032 L 266.103 63.032 L 266.103 63.032 Q 265.906 62.962 265.804 62.83 L 265.804 62.83 L 265.804 62.83 Q 265.702 62.697 265.709 62.532 Z  M 270.425 66.571 L 270.425 66.571 L 270.425 66.571 Q 270.394 67.317 269.95 67.583 L 269.95 67.583 L 269.95 67.583 Q 269.505 67.85 268.743 67.578 L 268.743 67.578 L 268.743 67.578 Q 268.267 67.408 267.91 67.085 L 267.91 67.085 L 267.91 67.085 Q 267.552 66.762 267.37 66.331 L 267.37 66.331 L 267.37 66.331 Q 267.188 65.9 267.208 65.424 L 267.208 65.424 L 267.208 65.424 Q 267.238 64.683 267.679 64.419 L 267.679 64.419 L 267.679 64.419 Q 268.12 64.154 268.892 64.429 L 268.892 64.429 L 268.892 64.429 Q 269.629 64.692 270.042 65.271 L 270.042 65.271 L 270.042 65.271 Q 270.454 65.85 270.425 66.571 Z  M 267.951 65.689 L 267.951 65.689 L 267.951 65.689 Q 267.908 66.744 268.777 67.054 L 268.777 67.054 L 268.777 67.054 Q 269.638 67.36 269.681 66.306 L 269.681 66.306 L 269.681 66.306 Q 269.724 65.262 268.858 64.954 L 268.858 64.954 L 268.858 64.954 Q 268.403 64.791 268.187 64.988 L 268.187 64.988 L 268.187 64.988 Q 267.972 65.185 267.951 65.689 Z " fill="rgb(255,255,255)"/><path d=" M 289.816 74.728 L 289.816 74.728 L 289.816 74.728 Q 289.792 75.173 289.418 75.278 L 289.418 75.278 L 289.418 75.278 Q 289.045 75.382 288.372 75.133 L 288.372 75.133 L 288.372 75.133 Q 287.696 74.882 287.296 74.546 L 287.296 74.546 L 287.325 73.987 L 287.325 73.987 Q 287.909 74.456 288.423 74.646 L 288.423 74.646 L 288.423 74.646 Q 289.086 74.892 289.106 74.532 L 289.106 74.532 L 289.106 74.532 Q 289.112 74.416 289.042 74.312 L 289.042 74.312 L 289.042 74.312 Q 288.973 74.208 288.809 74.063 L 288.809 74.063 L 288.809 74.063 Q 288.646 73.918 288.351 73.702 L 288.351 73.702 L 288.351 73.702 Q 287.778 73.282 287.582 73.002 L 287.582 73.002 L 287.582 73.002 Q 287.387 72.722 287.404 72.398 L 287.404 72.398 L 287.404 72.398 Q 287.425 72.007 287.787 71.921 L 287.787 71.921 L 287.787 71.921 Q 288.148 71.834 288.751 72.058 L 288.751 72.058 L 288.751 72.058 Q 289.348 72.279 289.868 72.693 L 289.868 72.693 L 289.61 73.094 L 289.61 73.094 Q 289.073 72.688 288.7 72.549 L 288.7 72.549 L 288.7 72.549 Q 288.131 72.339 288.115 72.63 L 288.115 72.63 L 288.115 72.63 Q 288.108 72.773 288.251 72.927 L 288.251 72.927 L 288.251 72.927 Q 288.394 73.081 288.883 73.439 L 288.883 73.439 L 288.883 73.439 Q 289.294 73.74 289.478 73.932 L 289.478 73.932 L 289.478 73.932 Q 289.661 74.123 289.744 74.315 L 289.744 74.315 L 289.744 74.315 Q 289.827 74.507 289.816 74.728 Z  M 292.021 76.485 L 292.021 76.485 L 292.021 76.485 Q 291.232 76.192 290.809 75.613 L 290.809 75.613 L 290.809 75.613 Q 290.386 75.034 290.425 74.308 L 290.425 74.308 L 290.425 74.308 Q 290.464 73.562 290.9 73.289 L 290.9 73.289 L 290.9 73.289 Q 291.336 73.015 292.058 73.283 L 292.058 73.283 L 292.058 73.283 Q 292.728 73.531 293.096 74.041 L 293.096 74.041 L 293.096 74.041 Q 293.465 74.55 293.431 75.192 L 293.431 75.192 L 293.413 75.541 L 291.158 74.706 L 291.158 74.706 Q 291.15 75.155 291.388 75.485 L 291.388 75.485 L 291.388 75.485 Q 291.626 75.816 292.082 75.985 L 292.082 75.985 L 292.082 75.985 Q 292.382 76.096 292.643 76.141 L 292.643 76.141 L 292.643 76.141 Q 292.904 76.186 293.207 76.178 L 293.207 76.178 L 293.179 76.703 L 293.179 76.703 Q 292.91 76.719 292.638 76.666 L 292.638 76.666 L 292.638 76.666 Q 292.367 76.613 292.021 76.485 Z  M 292.032 73.772 L 292.032 73.772 L 292.032 73.772 Q 291.689 73.645 291.472 73.764 L 291.472 73.764 L 291.472 73.764 Q 291.255 73.883 291.195 74.243 L 291.195 74.243 L 292.731 74.811 L 292.731 74.811 Q 292.745 74.432 292.56 74.166 L 292.56 74.166 L 292.56 74.166 Q 292.374 73.899 292.032 73.772 Z  M 296.037 74.757 L 296.037 74.757 L 296.037 74.757 Q 296.254 74.837 296.394 74.917 L 296.394 74.917 L 296.291 75.493 L 296.291 75.493 Q 296.14 75.404 295.975 75.343 L 295.975 75.343 L 295.975 75.343 Q 295.544 75.183 295.262 75.337 L 295.262 75.337 L 295.262 75.337 Q 294.981 75.491 294.96 75.895 L 294.96 75.895 L 294.875 77.486 L 294.156 77.219 L 294.318 74.176 L 294.881 74.385 L 294.947 74.956 L 294.984 74.97 L 294.984 74.97 Q 295.167 74.76 295.446 74.701 L 295.446 74.701 L 295.446 74.701 Q 295.725 74.641 296.037 74.757 Z  M 298.405 78.793 L 297.628 78.506 L 296.505 74.986 L 297.264 75.267 L 297.858 77.292 L 297.858 77.292 Q 298.011 77.803 298.034 78.092 L 298.034 78.092 L 298.058 78.101 L 298.058 78.101 Q 298.096 77.913 298.311 77.459 L 298.311 77.459 L 299.093 75.945 L 299.858 76.228 L 298.405 78.793 Z  M 301.091 76.685 L 300.928 79.728 L 300.209 79.462 L 300.372 76.419 L 301.091 76.685 Z  M 300.372 75.597 L 300.372 75.597 L 300.372 75.597 Q 300.381 75.423 300.492 75.369 L 300.492 75.369 L 300.492 75.369 Q 300.602 75.314 300.798 75.387 L 300.798 75.387 L 300.798 75.387 Q 300.988 75.457 301.088 75.59 L 301.088 75.59 L 301.088 75.59 Q 301.189 75.722 301.18 75.896 L 301.18 75.896 L 301.18 75.896 Q 301.171 76.061 301.06 76.117 L 301.06 76.117 L 301.06 76.117 Q 300.95 76.173 300.76 76.102 L 300.76 76.102 L 300.76 76.102 Q 300.564 76.03 300.464 75.896 L 300.464 75.896 L 300.464 75.896 Q 300.363 75.762 300.372 75.597 Z  M 303.317 80.669 L 303.317 80.669 L 303.317 80.669 Q 302.55 80.385 302.172 79.834 L 302.172 79.834 L 302.172 79.834 Q 301.794 79.283 301.834 78.529 L 301.834 78.529 L 301.834 78.529 Q 301.875 77.761 302.315 77.503 L 302.315 77.503 L 302.315 77.503 Q 302.755 77.245 303.544 77.538 L 303.544 77.538 L 303.544 77.538 Q 304.079 77.736 304.498 78.074 L 304.498 78.074 L 304.253 78.513 L 304.253 78.513 Q 303.806 78.185 303.509 78.075 L 303.509 78.075 L 303.509 78.075 Q 302.631 77.75 302.575 78.798 L 302.575 78.798 L 302.575 78.798 Q 302.548 79.31 302.753 79.648 L 302.753 79.648 L 302.753 79.648 Q 302.958 79.986 303.38 80.143 L 303.38 80.143 L 303.38 80.143 Q 303.86 80.321 304.3 80.265 L 304.3 80.265 L 304.27 80.829 L 304.27 80.829 Q 304.072 80.859 303.85 80.822 L 303.85 80.822 L 303.85 80.822 Q 303.629 80.785 303.317 80.669 Z  M 306.532 81.86 L 306.532 81.86 L 306.532 81.86 Q 305.743 81.568 305.32 80.989 L 305.32 80.989 L 305.32 80.989 Q 304.897 80.41 304.936 79.684 L 304.936 79.684 L 304.936 79.684 Q 304.976 78.938 305.411 78.665 L 305.411 78.665 L 305.411 78.665 Q 305.847 78.391 306.569 78.658 L 306.569 78.658 L 306.569 78.658 Q 307.239 78.907 307.608 79.417 L 307.608 79.417 L 307.608 79.417 Q 307.977 79.926 307.943 80.567 L 307.943 80.567 L 307.924 80.917 L 305.67 80.082 L 305.67 80.082 Q 305.661 80.53 305.899 80.861 L 305.899 80.861 L 305.899 80.861 Q 306.137 81.192 306.593 81.361 L 306.593 81.361 L 306.593 81.361 Q 306.893 81.472 307.154 81.517 L 307.154 81.517 L 307.154 81.517 Q 307.415 81.562 307.718 81.554 L 307.718 81.554 L 307.69 82.079 L 307.69 82.079 Q 307.421 82.094 307.15 82.041 L 307.15 82.041 L 307.15 82.041 Q 306.878 81.989 306.532 81.86 Z  M 306.543 79.148 L 306.543 79.148 L 306.543 79.148 Q 306.2 79.021 305.983 79.14 L 305.983 79.14 L 305.983 79.14 Q 305.766 79.259 305.707 79.619 L 305.707 79.619 L 307.242 80.187 L 307.242 80.187 Q 307.256 79.808 307.071 79.542 L 307.071 79.542 L 307.071 79.542 Q 306.885 79.275 306.543 79.148 Z  M 310.986 82.571 L 310.986 82.571 L 310.986 82.571 Q 310.962 83.016 310.589 83.121 L 310.589 83.121 L 310.589 83.121 Q 310.215 83.225 309.542 82.976 L 309.542 82.976 L 309.542 82.976 Q 308.866 82.725 308.466 82.389 L 308.466 82.389 L 308.496 81.83 L 308.496 81.83 Q 309.079 82.299 309.593 82.489 L 309.593 82.489 L 309.593 82.489 Q 310.257 82.735 310.276 82.375 L 310.276 82.375 L 310.276 82.375 Q 310.282 82.259 310.213 82.155 L 310.213 82.155 L 310.213 82.155 Q 310.144 82.051 309.98 81.906 L 309.98 81.906 L 309.98 81.906 Q 309.816 81.761 309.522 81.545 L 309.522 81.545 L 309.522 81.545 Q 308.948 81.125 308.753 80.845 L 308.753 80.845 L 308.753 80.845 Q 308.557 80.565 308.575 80.24 L 308.575 80.24 L 308.575 80.24 Q 308.595 79.85 308.957 79.763 L 308.957 79.763 L 308.957 79.763 Q 309.319 79.677 309.921 79.9 L 309.921 79.9 L 309.921 79.9 Q 310.518 80.121 311.039 80.536 L 311.039 80.536 L 310.78 80.937 L 310.78 80.937 Q 310.243 80.53 309.87 80.392 L 309.87 80.392 L 309.87 80.392 Q 309.301 80.181 309.286 80.473 L 309.286 80.473 L 309.286 80.473 Q 309.278 80.616 309.421 80.77 L 309.421 80.77 L 309.421 80.77 Q 309.564 80.924 310.054 81.282 L 310.054 81.282 L 310.054 81.282 Q 310.465 81.583 310.648 81.775 L 310.648 81.775 L 310.648 81.775 Q 310.831 81.966 310.915 82.158 L 310.915 82.158 L 310.915 82.158 Q 310.998 82.35 310.986 82.571 Z " fill="rgb(255,255,255)"/><path d=" M 331.569 90.228 L 331.569 90.228 L 331.569 90.228 Q 330.926 89.994 330.589 89.45 L 330.589 89.45 L 330.547 89.434 L 330.547 89.434 Q 330.571 89.835 330.567 89.917 L 330.567 89.917 L 330.509 91.164 L 329.788 90.903 L 329.995 86.504 L 330.578 86.716 L 330.578 86.716 Q 330.598 86.81 330.66 87.16 L 330.66 87.16 L 330.696 87.173 L 330.696 87.173 Q 331.055 86.833 331.73 87.078 L 331.73 87.078 L 331.73 87.078 Q 332.365 87.309 332.699 87.85 L 332.699 87.85 L 332.699 87.85 Q 333.034 88.392 332.999 89.138 L 332.999 89.138 L 332.999 89.138 Q 332.964 89.884 332.584 90.171 L 332.584 90.171 L 332.584 90.171 Q 332.204 90.459 331.569 90.228 Z  M 331.518 87.539 L 331.518 87.539 L 331.518 87.539 Q 331.089 87.383 330.88 87.537 L 330.88 87.537 L 330.88 87.537 Q 330.672 87.691 330.649 88.186 L 330.649 88.186 L 330.644 88.283 L 330.644 88.283 Q 330.618 88.839 330.803 89.159 L 330.803 89.159 L 330.803 89.159 Q 330.987 89.479 331.432 89.641 L 331.432 89.641 L 331.432 89.641 Q 331.806 89.777 332.021 89.575 L 332.021 89.575 L 332.021 89.575 Q 332.236 89.373 332.26 88.864 L 332.26 88.864 L 332.26 88.864 Q 332.284 88.352 332.096 88.016 L 332.096 88.016 L 332.096 88.016 Q 331.907 87.68 331.518 87.539 Z  M 335.63 88.495 L 335.63 88.495 L 335.63 88.495 Q 335.848 88.574 335.987 88.653 L 335.987 88.653 L 335.888 89.23 L 335.888 89.23 Q 335.737 89.141 335.571 89.081 L 335.571 89.081 L 335.571 89.081 Q 335.139 88.924 334.859 89.08 L 334.859 89.08 L 334.859 89.08 Q 334.578 89.236 334.559 89.64 L 334.559 89.64 L 334.485 91.231 L 333.764 90.97 L 333.907 87.925 L 334.471 88.13 L 334.541 88.702 L 334.578 88.715 L 334.578 88.715 Q 334.759 88.504 335.038 88.443 L 335.038 88.443 L 335.038 88.443 Q 335.317 88.382 335.63 88.495 Z  M 337.335 89.171 L 337.192 92.215 L 336.471 91.953 L 336.615 88.909 L 337.335 89.171 Z  M 336.61 88.087 L 336.61 88.087 L 336.61 88.087 Q 336.618 87.913 336.728 87.858 L 336.728 87.858 L 336.728 87.858 Q 336.838 87.803 337.034 87.874 L 337.034 87.874 L 337.034 87.874 Q 337.224 87.943 337.326 88.075 L 337.326 88.075 L 337.326 88.075 Q 337.427 88.207 337.419 88.381 L 337.419 88.381 L 337.419 88.381 Q 337.411 88.546 337.301 88.603 L 337.301 88.603 L 337.301 88.603 Q 337.191 88.659 337.001 88.59 L 337.001 88.59 L 337.001 88.59 Q 336.804 88.519 336.703 88.385 L 336.703 88.385 L 336.703 88.385 Q 336.602 88.252 336.61 88.087 Z  M 339.587 93.141 L 339.587 93.141 L 339.587 93.141 Q 338.817 92.861 338.436 92.313 L 338.436 92.313 L 338.436 92.313 Q 338.055 91.764 338.091 91.01 L 338.091 91.01 L 338.091 91.01 Q 338.127 90.242 338.565 89.981 L 338.565 89.981 L 338.565 89.981 Q 339.002 89.72 339.794 90.008 L 339.794 90.008 L 339.794 90.008 Q 340.33 90.203 340.751 90.537 L 340.751 90.537 L 340.509 90.979 L 340.509 90.979 Q 340.059 90.653 339.762 90.545 L 339.762 90.545 L 339.762 90.545 Q 338.882 90.225 338.833 91.274 L 338.833 91.274 L 338.833 91.274 Q 338.809 91.786 339.016 92.123 L 339.016 92.123 L 339.016 92.123 Q 339.223 92.46 339.646 92.614 L 339.646 92.614 L 339.646 92.614 Q 340.127 92.789 340.567 92.73 L 340.567 92.73 L 340.54 93.294 L 340.54 93.294 Q 340.342 93.326 340.121 93.29 L 340.121 93.29 L 340.121 93.29 Q 339.9 93.254 339.587 93.141 Z  M 342.809 94.311 L 342.809 94.311 L 342.809 94.311 Q 342.018 94.024 341.592 93.448 L 341.592 93.448 L 341.592 93.448 Q 341.165 92.872 341.199 92.145 L 341.199 92.145 L 341.199 92.145 Q 341.234 91.399 341.668 91.123 L 341.668 91.123 L 341.668 91.123 Q 342.102 90.846 342.826 91.109 L 342.826 91.109 L 342.826 91.109 Q 343.497 91.353 343.869 91.861 L 343.869 91.861 L 343.869 91.861 Q 344.242 92.368 344.211 93.01 L 344.211 93.01 L 344.195 93.359 L 341.935 92.538 L 341.935 92.538 Q 341.93 92.987 342.17 93.316 L 342.17 93.316 L 342.17 93.316 Q 342.41 93.646 342.867 93.812 L 342.867 93.812 L 342.867 93.812 Q 343.168 93.921 343.429 93.964 L 343.429 93.964 L 343.429 93.964 Q 343.691 94.007 343.994 93.997 L 343.994 93.997 L 343.969 94.523 L 343.969 94.523 Q 343.7 94.54 343.428 94.489 L 343.428 94.489 L 343.428 94.489 Q 343.156 94.437 342.809 94.311 Z  M 342.803 91.599 L 342.803 91.599 L 342.803 91.599 Q 342.459 91.474 342.243 91.595 L 342.243 91.595 L 342.243 91.595 Q 342.027 91.715 341.97 92.075 L 341.97 92.075 L 343.509 92.634 L 343.509 92.634 Q 343.52 92.255 343.333 91.989 L 343.333 91.989 L 343.333 91.989 Q 343.146 91.724 342.803 91.599 Z  M 347.268 94.993 L 347.268 94.993 L 347.268 94.993 Q 347.247 95.439 346.874 95.546 L 346.874 95.546 L 346.874 95.546 Q 346.501 95.652 345.826 95.407 L 345.826 95.407 L 345.826 95.407 Q 345.149 95.161 344.747 94.828 L 344.747 94.828 L 344.773 94.269 L 344.773 94.269 Q 345.359 94.734 345.874 94.921 L 345.874 94.921 L 345.874 94.921 Q 346.539 95.163 346.556 94.802 L 346.556 94.802 L 346.556 94.802 Q 346.562 94.686 346.492 94.583 L 346.492 94.583 L 346.492 94.583 Q 346.422 94.479 346.257 94.335 L 346.257 94.335 L 346.257 94.335 Q 346.092 94.191 345.797 93.977 L 345.797 93.977 L 345.797 93.977 Q 345.221 93.561 345.023 93.282 L 345.023 93.282 L 345.023 93.282 Q 344.826 93.003 344.841 92.679 L 344.841 92.679 L 344.841 92.679 Q 344.86 92.288 345.221 92.199 L 345.221 92.199 L 345.221 92.199 Q 345.582 92.111 346.186 92.33 L 346.186 92.33 L 346.186 92.33 Q 346.784 92.547 347.307 92.958 L 347.307 92.958 L 347.051 93.361 L 347.051 93.361 Q 346.512 92.958 346.138 92.822 L 346.138 92.822 L 346.138 92.822 Q 345.568 92.615 345.554 92.907 L 345.554 92.907 L 345.554 92.907 Q 345.547 93.05 345.691 93.203 L 345.691 93.203 L 345.691 93.203 Q 345.835 93.356 346.327 93.711 L 346.327 93.711 L 346.327 93.711 Q 346.74 94.009 346.925 94.2 L 346.925 94.2 L 346.925 94.2 Q 347.109 94.39 347.194 94.581 L 347.194 94.581 L 347.194 94.581 Q 347.278 94.773 347.268 94.993 Z " fill="rgb(255,255,255)"/><path d=" M 367.292 103.593 L 367.292 103.593 L 367.292 103.593 Q 366.522 103.315 366.14 102.767 L 366.14 102.767 L 366.14 102.767 Q 365.758 102.219 365.792 101.465 L 365.792 101.465 L 365.792 101.465 Q 365.826 100.697 366.264 100.435 L 366.264 100.435 L 366.264 100.435 Q 366.701 100.174 367.493 100.46 L 367.493 100.46 L 367.493 100.46 Q 368.03 100.653 368.451 100.987 L 368.451 100.987 L 368.21 101.429 L 368.21 101.429 Q 367.76 101.104 367.462 100.997 L 367.462 100.997 L 367.462 100.997 Q 366.582 100.679 366.535 101.728 L 366.535 101.728 L 366.535 101.728 Q 366.512 102.24 366.719 102.576 L 366.719 102.576 L 366.719 102.576 Q 366.927 102.913 367.351 103.066 L 367.351 103.066 L 367.351 103.066 Q 367.832 103.24 368.271 103.18 L 368.271 103.18 L 368.246 103.744 L 368.246 103.744 Q 368.048 103.776 367.827 103.741 L 367.827 103.741 L 367.827 103.741 Q 367.605 103.706 367.292 103.593 Z  M 372.116 103.726 L 372.116 103.726 L 372.116 103.726 Q 372.083 104.472 371.637 104.737 L 371.637 104.737 L 371.637 104.737 Q 371.192 105.001 370.431 104.726 L 370.431 104.726 L 370.431 104.726 Q 369.956 104.555 369.599 104.23 L 369.599 104.23 L 369.599 104.23 Q 369.243 103.906 369.063 103.474 L 369.063 103.474 L 369.063 103.474 Q 368.883 103.043 368.904 102.566 L 368.904 102.566 L 368.904 102.566 Q 368.937 101.826 369.379 101.563 L 369.379 101.563 L 369.379 101.563 Q 369.822 101.3 370.592 101.578 L 370.592 101.578 L 370.592 101.578 Q 371.328 101.844 371.738 102.425 L 371.738 102.425 L 371.738 102.425 Q 372.149 103.005 372.116 103.726 Z  M 369.646 102.835 L 369.646 102.835 L 369.646 102.835 Q 369.599 103.889 370.467 104.202 L 370.467 104.202 L 370.467 104.202 Q 371.326 104.512 371.374 103.458 L 371.374 103.458 L 371.374 103.458 Q 371.421 102.415 370.556 102.103 L 370.556 102.103 L 370.556 102.103 Q 370.102 101.939 369.885 102.135 L 369.885 102.135 L 369.885 102.135 Q 369.669 102.331 369.646 102.835 Z  M 375.951 104.646 L 375.861 106.631 L 375.137 106.37 L 375.221 104.498 L 375.221 104.498 Q 375.237 104.145 375.087 103.915 L 375.087 103.915 L 375.087 103.915 Q 374.937 103.684 374.593 103.56 L 374.593 103.56 L 374.593 103.56 Q 374.136 103.395 373.914 103.561 L 373.914 103.561 L 373.914 103.561 Q 373.691 103.727 373.665 104.297 L 373.665 104.297 L 373.597 105.813 L 372.876 105.553 L 373.013 102.509 L 373.578 102.712 L 373.661 103.148 L 373.698 103.161 L 373.698 103.161 Q 373.861 102.999 374.148 102.983 L 374.148 102.983 L 374.148 102.983 Q 374.436 102.966 374.78 103.091 L 374.78 103.091 L 374.78 103.091 Q 376.001 103.531 375.951 104.646 L 375.951 104.646 Z  M 378.15 106.982 L 378.15 106.982 L 378.15 106.982 Q 378.414 107.077 378.681 107.098 L 378.681 107.098 L 378.659 107.585 L 378.659 107.585 Q 378.537 107.589 378.347 107.552 L 378.347 107.552 L 378.347 107.552 Q 378.157 107.516 377.954 107.443 L 377.954 107.443 L 377.954 107.443 Q 376.93 107.073 376.973 106.104 L 376.973 106.104 L 377.047 104.463 L 376.584 104.296 L 376.597 104.01 L 377.104 103.952 L 377.379 103.397 L 377.824 103.557 L 377.793 104.235 L 378.76 104.584 L 378.738 105.074 L 377.771 104.725 L 377.698 106.354 L 377.698 106.354 Q 377.687 106.588 377.813 106.747 L 377.813 106.747 L 377.813 106.747 Q 377.938 106.905 378.15 106.982 Z  M 381.973 108.838 L 381.458 108.652 L 381.333 108.176 L 381.308 108.167 L 381.308 108.167 Q 381.05 108.356 380.797 108.367 L 380.797 108.367 L 380.797 108.367 Q 380.544 108.378 380.154 108.237 L 380.154 108.237 L 380.154 108.237 Q 379.654 108.056 379.384 107.713 L 379.384 107.713 L 379.384 107.713 Q 379.114 107.369 379.134 106.926 L 379.134 106.926 L 379.134 106.926 Q 379.156 106.455 379.556 106.357 L 379.556 106.357 L 379.556 106.357 Q 379.957 106.258 380.755 106.524 L 380.755 106.524 L 381.342 106.719 L 381.349 106.556 L 381.349 106.556 Q 381.362 106.265 381.217 106.065 L 381.217 106.065 L 381.217 106.065 Q 381.072 105.866 380.753 105.751 L 380.753 105.751 L 380.753 105.751 Q 380.492 105.657 380.249 105.639 L 380.249 105.639 L 380.249 105.639 Q 380.007 105.621 379.782 105.635 L 379.782 105.635 L 379.57 105.089 L 379.57 105.089 Q 379.852 105.059 380.183 105.11 L 380.183 105.11 L 380.183 105.11 Q 380.514 105.161 380.806 105.266 L 380.806 105.266 L 380.806 105.266 Q 381.453 105.5 381.771 105.872 L 381.771 105.872 L 381.771 105.872 Q 382.09 106.245 382.065 106.787 L 382.065 106.787 L 381.973 108.838 Z  M 380.404 107.823 L 380.404 107.823 L 380.404 107.823 Q 380.796 107.965 381.043 107.854 L 381.043 107.854 L 381.043 107.854 Q 381.29 107.743 381.306 107.388 L 381.306 107.388 L 381.318 107.124 L 380.881 106.983 L 380.881 106.983 Q 380.371 106.816 380.133 106.868 L 380.133 106.868 L 380.133 106.868 Q 379.895 106.921 379.883 107.202 L 379.883 107.202 L 379.883 107.202 Q 379.874 107.406 380.004 107.566 L 380.004 107.566 L 380.004 107.566 Q 380.134 107.726 380.404 107.823 Z  M 384.345 109.75 L 384.345 109.75 L 384.345 109.75 Q 383.575 109.472 383.193 108.924 L 383.193 108.924 L 383.193 108.924 Q 382.811 108.376 382.845 107.622 L 382.845 107.622 L 382.845 107.622 Q 382.879 106.854 383.317 106.593 L 383.317 106.593 L 383.317 106.593 Q 383.754 106.331 384.546 106.617 L 384.546 106.617 L 384.546 106.617 Q 385.083 106.811 385.504 107.145 L 385.504 107.145 L 385.263 107.586 L 385.263 107.586 Q 384.813 107.261 384.515 107.154 L 384.515 107.154 L 384.515 107.154 Q 383.635 106.836 383.587 107.885 L 383.587 107.885 L 383.587 107.885 Q 383.564 108.397 383.772 108.733 L 383.772 108.733 L 383.772 108.733 Q 383.98 109.07 384.403 109.223 L 384.403 109.223 L 384.403 109.223 Q 384.885 109.397 385.324 109.337 L 385.324 109.337 L 385.299 109.901 L 385.299 109.901 Q 385.101 109.934 384.88 109.898 L 384.88 109.898 L 384.88 109.898 Q 384.658 109.863 384.345 109.75 Z  M 387.376 110.313 L 387.376 110.313 L 387.376 110.313 Q 387.64 110.408 387.907 110.429 L 387.907 110.429 L 387.885 110.916 L 387.885 110.916 Q 387.763 110.92 387.573 110.883 L 387.573 110.883 L 387.573 110.883 Q 387.383 110.847 387.18 110.774 L 387.18 110.774 L 387.18 110.774 Q 386.156 110.404 386.199 109.435 L 386.199 109.435 L 386.273 107.794 L 385.81 107.627 L 385.823 107.341 L 386.33 107.283 L 386.605 106.728 L 387.05 106.889 L 387.019 107.566 L 387.986 107.915 L 387.964 108.405 L 386.997 108.056 L 386.924 109.685 L 386.924 109.685 Q 386.913 109.919 387.039 110.078 L 387.039 110.078 L 387.039 110.078 Q 387.164 110.236 387.376 110.313 Z " fill="rgb(255,255,255)"/></g><g style="isolation:isolate" filter="url(#BdOo9m5NHYTPMKr4FxS2nOrw25BZw9ej)"><path d=" M 360 189.426 L 360 286.285 L 581.764 367 L 581.764 270.142 L 360 189.426 Z " fill="rgb(255,255,255)"/><path d=" M 360 189.426 L 360 197.498 L 581.764 278.213 L 581.764 270.142 L 360 189.426 Z " fill="rgb(151,151,151)"/><path d=" M 360 197.188 L 360 205.26 L 581.764 285.975 L 581.764 277.903 L 360 197.188 Z " fill="rgb(236,236,236)" vector-effect="non-scaling-stroke" stroke-width="0.1" stroke="rgb(145,145,145)" stroke-linejoin="miter" stroke-linecap="square" stroke-miterlimit="3"/><path d=" M 493.058 253.999 L 581.764 286.285 L 581.764 367 L 493.058 334.714 L 493.058 253.999 Z " fill="rgb(255,255,255)" vector-effect="non-scaling-stroke" stroke-width="0.1" stroke="rgb(125,125,125)" stroke-linejoin="miter" stroke-linecap="square" stroke-miterlimit="3"/><path d=" M 493.058 253.999 L 493.058 262.07 L 581.764 294.356 L 581.764 286.285 L 493.058 253.999 Z " fill="rgb(236,236,236)"/><path d=" M 493.058 261.76 L 493.058 269.832 L 581.764 302.118 L 581.764 294.046 L 493.058 261.76 Z " fill="rgb(236,236,236)" vector-effect="non-scaling-stroke" stroke-width="0.1" stroke="rgb(159,159,159)" stroke-linejoin="miter" stroke-linecap="square" stroke-miterlimit="3"/><path d=" M 494.167 263.244 L 494.167 268.788 L 551.825 289.856 L 551.825 284.312 L 494.167 263.244 Z " fill="rgb(255,255,255)" vector-effect="non-scaling-stroke" stroke-width="0.1" stroke="rgb(159,159,159)" stroke-linejoin="miter" stroke-linecap="square" stroke-miterlimit="3"/><text transform="matrix(1.182,0.429,0,1.04,360.938,209.524)" style="font-family:'Open Sans';font-weight:400;font-size:4px;font-style:normal;fill:#84007b;stroke:none;">&#x3C;html&#x3E;</text><text transform="matrix(1.182,0.429,0,1.04,360.938,214.971)" style="font-family:'Open Sans';font-weight:400;font-size:4px;font-style:normal;fill:#84007b;stroke:none;">&#x3C;body&#x3E;   </text><text transform="matrix(1.182,0.429,0,1.04,364.055,220.418)" style="font-family:'Open Sans';font-weight:400;font-size:4px;font-style:normal;fill:#84007b;stroke:none;">&#x3C;nav class="main-nav"&#x3E;      </text><text transform="matrix(1.182,0.429,0,1.04,367.172,225.865)" style="font-family:'Open Sans';font-weight:400;font-size:4px;font-style:normal;fill:#84007b;stroke:none;">&#x3C;ul class="nav-links"&#x3E;         </text><text transform="matrix(1.182,0.429,0,1.04,370.289,231.313)" style="font-family:'Open Sans';font-weight:400;font-size:4px;font-style:normal;fill:#84007b;stroke:none;">&#x3C;li&#x3E;&#x3C;a class="nav-link-item" href="/"&#x3E;home&#x3C;/a&#x3E;&#x3C;/li&#x3E;         </text><text transform="matrix(1.182,0.429,0,1.04,370.289,236.76)" style="font-family:'Open Sans';font-weight:400;font-size:4px;font-style:normal;fill:#84007b;stroke:none;">&#x3C;li&#x3E;&#x3C;a class="nav-link-item" href="/folio"</text><text transform="matrix(1.182,0.429,0,1.04,360.938,242.207)" style="font-family:'Open Sans';font-weight:400;font-size:4px;font-style:normal;fill:#84007b;stroke:none;">&#x3E;folio&#x3C;/a&#x3E;&#x3C;/li&#x3E;         </text><text transform="matrix(1.182,0.429,0,1.04,370.289,247.655)" style="font-family:'Open Sans';font-weight:400;font-size:4px;font-style:normal;fill:#84007b;stroke:none;">&#x3C;li&#x3E;&#x3C;a class="nav-link-item" href="/services"</text><text transform="matrix(1.182,0.429,0,1.04,360.938,253.102)" style="font-family:'Open Sans';font-weight:400;font-size:4px;font-style:normal;fill:#84007b;stroke:none;">&#x3E;services&#x3C;/a&#x3E;&#x3C;/li&#x3E;         </text><text transform="matrix(1.182,0.429,0,1.04,370.289,258.549)" style="font-family:'Open Sans';font-weight:400;font-size:4px;font-style:normal;fill:#84007b;stroke:none;">&#x3C;li&#x3E;&#x3C;a class="nav-link-item" href="/prices"</text><text transform="matrix(1.182,0.429,0,1.04,360.938,263.996)" style="font-family:'Open Sans';font-weight:400;font-size:4px;font-style:normal;fill:#84007b;stroke:none;">&#x3E;prices&#x3C;/a&#x3E;&#x3C;/li&#x3E;         </text><text transform="matrix(1.182,0.429,0,1.04,370.289,269.444)" style="font-family:'Open Sans';font-weight:400;font-size:4px;font-style:normal;fill:#84007b;stroke:none;">&#x3C;li&#x3E;&#x3C;a class="nav-link-item" href="/contact"</text><text transform="matrix(1.182,0.429,0,1.04,360.938,274.891)" style="font-family:'Open Sans';font-weight:400;font-size:4px;font-style:normal;fill:#84007b;stroke:none;">&#x3E;contact&#x3C;/a&#x3E;&#x3C;/li&#x3E;      </text><text transform="matrix(1.182,0.429,0,1.04,367.172,280.338)" style="font-family:'Open Sans';font-weight:400;font-size:4px;font-style:normal;fill:#84007b;stroke:none;">&#x3C;/ul&#x3E;   </text><text transform="matrix(1.182,0.429,0,1.04,364.055,285.785)" style="font-family:'Open Sans';font-weight:400;font-size:4px;font-style:normal;fill:#84007b;stroke:none;">&#x3C;/nav&#x3E;</text><g style="isolation:isolate"><path d=" M 360 197.184 L 360 205.191 L 380 212.47 L 380 204.463 L 360 197.184 Z " fill="none" vector-effect="non-scaling-stroke" stroke-width="0.1" stroke="rgb(125,125,125)" stroke-linejoin="miter" stroke-linecap="square" stroke-miterlimit="3"/><text transform="matrix(1.053,0.378,-0.03,0.939,360.546,202.669)" style="font-family:'Open Sans';font-weight:400;font-size:4px;font-style:normal;fill:#000000;stroke:none;">Elements</text><text transform="matrix(1.053,0.378,-0.03,0.939,360.546,208.116)" style="font-family:'Open Sans';font-weight:400;font-size:4px;font-style:normal;fill:#000000;stroke:none;">dasdad</text></g><g style="isolation:isolate"><path d=" M 380 204.463 L 380 212.463 L 398 219.022 L 398 211 L 380 204.463 Z " fill="none" vector-effect="non-scaling-stroke" stroke-width="0.1" stroke="rgb(125,125,125)" stroke-linejoin="miter" stroke-linecap="square" stroke-miterlimit="3"/><text transform="matrix(1.053,0.378,-0.03,0.939,380.546,210.669)" style="font-family:'Open Sans';font-weight:400;font-size:4px;font-style:normal;fill:#000000;stroke:none;">Console</text></g><g style="isolation:isolate"><path d=" M 398 211 L 398 219 L 417 226 L 417 218 L 398 211 Z " fill="none" vector-effect="non-scaling-stroke" stroke-width="0.1" stroke="rgb(125,125,125)" stroke-linejoin="miter" stroke-linecap="square" stroke-miterlimit="3"/><text transform="matrix(1.053,0.378,-0.03,0.939,399.546,217.669)" style="font-family:'Open Sans';font-weight:400;font-size:4px;font-style:normal;fill:#000000;stroke:none;">Network</text></g><g style="isolation:isolate"><path d=" M 417 218 L 417 226 L 436 233 L 436 225 L 417 218 Z " fill="none" vector-effect="non-scaling-stroke" stroke-width="0.1" stroke="rgb(125,125,125)" stroke-linejoin="miter" stroke-linecap="square" stroke-miterlimit="3"/><text transform="matrix(1.053,0.378,-0.03,0.939,418.546,224.669)" style="font-family:'Open Sans';font-weight:400;font-size:4px;font-style:normal;fill:#000000;stroke:none;">Sources</text></g><g style="isolation:isolate"><path d=" M 436 225 L 436 233 L 464 243 L 464 235 L 436 225 Z " fill="none" vector-effect="non-scaling-stroke" stroke-width="0.1" stroke="rgb(125,125,125)" stroke-linejoin="miter" stroke-linecap="square" stroke-miterlimit="3"/><text transform="matrix(1.053,0.378,-0.03,0.939,437.546,231.669)" style="font-family:'Open Sans';font-weight:400;font-size:4px;font-style:normal;fill:#000000;stroke:none;">Performance</text></g><g style="isolation:isolate"><path d=" M 464 235 L 464 243 L 483 250 L 483 242 L 464 235 Z " fill="none" vector-effect="non-scaling-stroke" stroke-width="0.1" stroke="rgb(125,125,125)" stroke-linejoin="miter" stroke-linecap="square" stroke-miterlimit="3"/><text transform="matrix(1.053,0.378,-0.03,0.939,465.546,241.669)" style="font-family:'Open Sans';font-weight:400;font-size:4px;font-style:normal;fill:#000000;stroke:none;">Memory</text></g><g style="isolation:isolate"><path d=" M 483 242 L 483 250 L 508 259 L 508 251 L 483 242 Z " fill="none" vector-effect="non-scaling-stroke" stroke-width="0.1" stroke="rgb(125,125,125)" stroke-linejoin="miter" stroke-linecap="square" stroke-miterlimit="3"/><text transform="matrix(1.053,0.378,-0.03,0.939,484.546,248.669)" style="font-family:'Open Sans';font-weight:400;font-size:4px;font-style:normal;fill:#000000;stroke:none;">Application</text></g><text transform="matrix(1.108,0.38,0.003,0.903,496.355,279.356)" style="font-family:'Open Sans';font-weight:400;font-size:4px;font-style:normal;fill:#666666;stroke:none;">element.style {</text><text transform="matrix(1.108,0.38,0.003,0.903,496.355,284.803)" style="font-family:'Open Sans';font-weight:400;font-size:4px;font-style:normal;fill:#666666;stroke:none;">}</text><text transform="matrix(1.057,0.366,-0.018,0.94,497.201,297.52)" style="font-family:'Open Sans';font-weight:400;font-size:4px;font-style:normal;fill:#000000;stroke:none;">.nav-links {    </text><text transform="matrix(1.057,0.366,-0.018,0.94,501.357,302.967)" style="font-family:'Open Sans';font-weight:400;font-size:4px;font-style:normal;fill:#e31b1b;stroke:none;">margin</text><text transform="matrix(1.057,0.366,-0.018,0.94,514.593,302.967)" style="font-family:'Open Sans';font-weight:400;font-size:4px;font-style:normal;fill:#000000;stroke:none;">: 0;    </text><text transform="matrix(1.057,0.366,-0.018,0.94,501.357,308.415)" style="font-family:'Open Sans';font-weight:400;font-size:4px;font-style:normal;fill:#e31b1b;stroke:none;">padding</text><text transform="matrix(1.057,0.366,-0.018,0.94,516.593,308.415)" style="font-family:'Open Sans';font-weight:400;font-size:4px;font-style:normal;fill:#000000;stroke:none;">: 0;    </text><text transform="matrix(1.057,0.366,-0.018,0.94,501.357,313.862)" style="font-family:'Open Sans';font-weight:400;font-size:4px;font-style:normal;fill:#e31b1b;stroke:none;">box-sizing</text><text transform="matrix(1.057,0.366,-0.018,0.94,520.056,313.862)" style="font-family:'Open Sans';font-weight:400;font-size:4px;font-style:normal;fill:#000000;stroke:none;">: border-box;    </text><text transform="matrix(1.057,0.366,-0.018,0.94,501.357,319.309)" style="font-family:'Open Sans';font-weight:400;font-size:4px;font-style:normal;fill:#e31b1b;stroke:none;">scroll-behavior</text><text transform="matrix(1.057,0.366,-0.018,0.94,528.968,319.309)" style="font-family:'Open Sans';font-weight:400;font-size:4px;font-style:normal;fill:#000000;stroke:none;">: smooth;</text><text transform="matrix(1.057,0.366,-0.018,0.94,497.201,324.756)" style="font-family:'Open Sans';font-weight:400;font-size:4px;font-style:normal;fill:#000000;stroke:none;">}</text><line x1="493" y1="287" x2="582" y2="320" vector-effect="non-scaling-stroke" stroke-width="0.1" stroke="rgb(108,108,108)" stroke-linejoin="miter" stroke-linecap="square" stroke-miterlimit="3"/></g><defs><filter id="BdOo9m5NHYTPMKr4FxS2nOrw25BZw9ej" x="-200%" y="-200%" width="400%" height="400%" filterUnits="objectBoundingBox" color-interpolation-filters="sRGB"><feGaussianBlur xmlns="http://www.w3.org/2000/svg" in="SourceGraphic" stdDeviation="8.587218125678056"/><feOffset xmlns="http://www.w3.org/2000/svg" dx="0" dy="0" result="pf_100_offsetBlur"/><feFlood xmlns="http://www.w3.org/2000/svg" flood-color="#000000" flood-opacity="0.35"/><feComposite xmlns="http://www.w3.org/2000/svg" in2="pf_100_offsetBlur" operator="in" result="pf_100_dropShadow"/><feBlend xmlns="http://www.w3.org/2000/svg" in="SourceGraphic" in2="pf_100_dropShadow" mode="normal"/></filter></defs><g style="isolation:isolate"><path d=" M 587.629 527.039 L 496.686 493.938 L 496.686 394.635 L 587.629 427.736 L 587.629 527.039 Z " fill="rgb(183,180,94)"/><linearGradient id="_lgradient_28" x1="-0.0031250000000007383" y1="0.6979389271824985" x2="1.0281249999999995" y2="0.3485314727518563" gradientTransform="matrix(145.51,0,0,152.264,351.175,394.635)" gradientUnits="userSpaceOnUse"><stop offset="1.3043478260869565%" stop-opacity="1" style="stop-color:rgb(189,186,97)"/><stop offset="97.3913043478261%" stop-opacity="1" style="stop-color:rgb(238,234,122)"/></linearGradient><path d=" M 351.175 546.899 L 496.686 493.938 L 496.686 394.635 L 351.175 447.596 L 351.175 546.899 Z " fill="url(#_lgradient_28)"/><g style="isolation:isolate"><g><path d=" M 486.892 318.21 L 633.274 344.905 L 606.579 491.286 L 460.197 464.591 L 486.892 318.21 Z " fill="none"/><path d=" M 573.933 465.358 L 535.095 468.575 L 499.892 451.855 L 508.227 357.746 L 599.356 374.365 L 573.933 465.358 Z " fill="rgb(32,98,175)"/><path d=" M 552.424 373.552 L 536.545 460.624 L 536.624 460.662 L 568.054 458.059 L 589.382 380.292 L 552.424 373.552 L 552.424 373.552 Z " fill="rgb(60,156,215)"/><path d=" M 548.171 396.687 L 519.661 402.89 L 518.548 413.976 L 546.163 407.695 L 575.539 401.013 L 578.707 390.043 L 548.171 396.687 Z " fill="rgb(255,255,255)"/><linearGradient id="_lgradient_29" x1="0.5" y1="1.0000123760844555" x2="0.5000000000000001" y2="0.00001237608445325833" gradientTransform="matrix(26.497,4.832,-4.005,21.961,521.674,391.855)" gradientUnits="userSpaceOnUse"><stop offset="38.7%" stop-opacity="0" style="stop-color:rgb(209,211,212)"/><stop offset="100%" stop-opacity="1" style="stop-color:rgb(209,211,212)"/></linearGradient><path d=" M 519.661 402.89 L 518.547 413.976 L 546.163 407.695 L 548.17 396.687 L 519.661 402.89 L 519.661 402.89 Z " fill="url(#_lgradient_29)"/><linearGradient id="_lgradient_30" x1="0.4999904234739807" y1="1.0000119063210646" x2="0.49999042347398076" y2="0.000011906321067289838" gradientTransform="matrix(28.381,5.176,-4.163,22.827,550.326,384.867)" gradientUnits="userSpaceOnUse"><stop offset="38.7%" stop-opacity="0" style="stop-color:rgb(209,211,212)"/><stop offset="100%" stop-opacity="1" style="stop-color:rgb(209,211,212)"/></linearGradient><path d=" M 578.707 390.043 L 548.171 396.687 L 546.163 407.695 L 575.539 401.013 L 578.707 390.043 Z " fill="url(#_lgradient_30)"/><linearGradient id="_lgradient_31" x1="5.551115123125783e-16" y1="0.5000065584952196" x2="0.9999948470873167" y2="0.5000065584952196" gradientTransform="matrix(52.745,9.619,-7.557,41.441,519.702,402.898)" gradientUnits="userSpaceOnUse"><stop offset="0%" stop-opacity="1" style="stop-color:rgb(232,231,229)"/><stop offset="100%" stop-opacity="1" style="stop-color:rgb(255,255,255)"/></linearGradient><path d=" M 519.702 402.898 L 518.588 413.984 L 557.873 421.277 L 554.337 435.684 L 540.739 436.967 L 528.877 431.56 L 529.773 422.381 L 518.22 420.274 L 516.543 438.004 L 538.643 449.171 L 563.112 446.626 L 572.447 412.517 L 519.702 402.898 L 519.702 402.898 Z " fill="url(#_lgradient_31)"/><g opacity="0.05"><path d=" M 546.158 407.722 L 519.661 402.89 L 518.548 413.976 L 544.151 418.73 L 546.158 407.722 Z  M 540.828 436.947 L 540.696 436.96 L 528.837 431.553 L 529.732 422.374 L 518.179 420.267 L 516.503 437.997 L 538.601 449.164 L 540.828 436.947 Z " fill="rgb(0,0,0)"/></g><linearGradient id="_lgradient_32" x1="2.220446049250313e-16" y1="0.5000000000000018" x2="0.9999952537353107" y2="0.5000000000000018" gradientTransform="matrix(57.264,10.443,-2.038,11.177,521.443,379.6)" gradientUnits="userSpaceOnUse"><stop offset="0%" stop-opacity="1" style="stop-color:rgb(232,231,229)"/><stop offset="100%" stop-opacity="1" style="stop-color:rgb(255,255,255)"/></linearGradient><path d=" M 521.443 379.6 L 578.707 390.043 L 575.539 401.014 L 520.786 391.028 L 521.443 379.6 L 521.443 379.6 Z " fill="url(#_lgradient_32)"/><g opacity="0.05"><path d=" M 550.326 384.867 L 521.443 379.6 L 520.786 391.028 L 548.288 396.044 L 550.326 384.867 L 550.326 384.867 Z " fill="rgb(0,0,0)"/></g></g><g><path d=" M 434.543 479.73 L 422.202 390.093 L 510.395 385.867 L 506.675 476.261 L 471.035 488 L 434.543 479.73 Z " fill="rgb(228,77,38)"/><path d=" M 499.521 470.858 L 502.703 393.614 L 466.651 395.341 L 470.725 480.349 L 499.521 470.858 Z " fill="rgb(241,101,41)"/><path d=" M 467.143 406.383 L 439.494 407.708 L 444.072 440.953 L 468.78 439.769 L 468.251 428.729 L 453.642 429.429 L 452.091 418.172 L 467.71 417.424 L 467.18 406.381 L 467.143 406.383 Z  M 469.624 457.366 L 469.577 457.381 L 457.122 454.651 L 455.919 445.883 L 444.829 446.415 L 447.207 463.675 L 470.124 468.843 L 470.173 468.825 L 469.624 457.366 Z " fill="rgb(235,235,235)"/><path d=" M 468.743 439.771 L 482.339 439.119 L 481.775 453.494 L 469.619 457.407 L 470.17 468.894 L 492.505 461.536 L 493.913 427.493 L 468.251 428.723 L 468.743 439.771 Z  M 494.678 408.033 L 494.799 405.057 L 467.137 406.383 L 467.666 417.423 L 494.334 416.145 L 494.434 413.652 L 494.678 408.033 Z " fill="rgb(255,255,255)"/></g><path d=" M 372.925 440.566 C 372.987 439.405 373.201 438.434 373.564 437.658 C 373.915 436.918 374.433 436.27 375.078 435.767 C 375.714 435.297 376.442 434.968 377.215 434.8 C 378.02 434.62 378.877 434.554 379.796 434.602 C 380.624 434.641 381.443 434.797 382.228 435.066 C 383.007 435.33 383.682 435.725 384.25 436.252 C 384.819 436.779 385.254 437.459 385.556 438.292 C 385.86 439.104 385.983 440.09 385.921 441.253 C 385.862 442.366 385.638 443.309 385.25 444.084 C 384.892 444.819 384.375 445.466 383.736 445.976 C 383.116 446.464 382.402 446.797 381.598 446.978 C 380.792 447.187 379.959 447.268 379.128 447.218 C 378.209 447.17 377.365 447.004 376.584 446.713 C 375.828 446.462 375.137 446.045 374.564 445.49 C 373.996 444.939 373.562 444.259 373.258 443.45 C 372.978 442.642 372.866 441.683 372.925 440.566 Z  M 392.611 465.241 C 391.402 465.177 390.202 465.027 388.949 464.788 C 387.696 464.55 386.656 464.269 385.831 463.954 L 386.302 455.048 C 387.056 455.335 387.765 455.547 388.451 455.683 C 389.192 455.851 389.946 455.954 390.705 455.989 C 391.324 456.021 391.909 455.955 392.461 455.783 C 393.049 455.645 393.576 455.321 393.965 454.859 C 394.411 454.412 394.779 453.786 395.069 452.982 C 395.357 452.204 395.535 451.183 395.602 449.921 L 397.946 405.606 L 409.263 406.205 L 406.831 452.188 C 406.73 454.094 406.389 455.86 405.807 457.469 C 405.292 459.06 404.412 460.508 403.238 461.698 C 402.107 462.904 400.669 463.817 398.922 464.448 C 397.174 465.078 395.08 465.324 392.63 465.194 M 398.052 394.806 C 398.108 393.742 398.316 392.873 398.676 392.171 C 399.036 391.47 399.499 390.925 400.065 390.533 C 400.657 390.118 401.328 389.843 402.08 389.708 C 402.856 389.575 403.666 389.533 404.507 389.577 C 405.306 389.614 406.099 389.743 406.868 389.961 C 407.566 390.155 408.21 390.508 408.749 390.992 C 409.312 391.466 409.741 392.079 409.993 392.77 C 410.303 393.482 410.43 394.369 410.373 395.458 C 410.318 396.498 410.097 397.366 409.712 398.09 C 409.352 398.791 408.877 399.348 408.285 399.761 C 407.688 400.166 407.015 400.447 406.306 400.587 C 405.518 400.724 404.716 400.77 403.918 400.723 C 403.076 400.678 402.278 400.551 401.518 400.334 C 400.819 400.114 400.169 399.764 399.601 399.301 C 399.08 398.828 398.678 398.222 398.395 397.492 C 398.111 396.761 397.995 395.87 398.052 394.806 Z  M 447.012 437.452 C 446.897 439.629 446.4 441.514 445.501 443.103 C 444.639 444.678 443.405 446.018 441.906 447.006 C 440.388 448.017 438.577 448.741 436.469 449.175 C 434.36 449.609 432.024 449.76 429.449 449.623 C 428.087 449.551 426.828 449.436 425.672 449.278 C 424.567 449.151 423.471 448.957 422.39 448.695 C 421.361 448.441 420.373 448.142 419.424 447.793 C 418.441 447.43 417.482 447.007 416.551 446.526 L 417.046 437.177 C 418.058 437.752 419.123 438.257 420.236 438.759 L 423.628 440.054 L 426.894 440.935 C 427.879 441.153 428.879 441.293 429.886 441.353 C 430.902 441.407 431.772 441.368 432.497 441.232 C 433.226 441.071 433.821 440.817 434.28 440.545 C 434.767 440.224 435.124 439.845 435.345 439.389 C 435.59 438.937 435.731 438.435 435.757 437.922 C 435.784 437.402 435.722 436.94 435.571 436.534 C 435.448 436.106 435.132 435.655 434.563 435.179 C 434.02 434.68 433.205 434.137 432.121 433.488 L 427.821 431.078 L 423.233 428.415 C 421.965 427.528 420.923 426.595 420.111 425.534 C 419.32 424.496 418.738 423.315 418.396 422.055 C 418.044 420.747 417.916 419.217 418.009 417.456 C 418.111 415.527 418.57 413.863 419.389 412.468 C 420.202 411.054 421.351 409.863 422.734 408.998 C 424.147 408.103 425.817 407.473 427.749 407.081 C 429.705 406.687 431.858 406.554 434.209 406.678 C 436.683 406.809 439.018 407.219 441.215 407.905 C 443.412 408.591 445.655 409.566 447.947 410.832 L 444.109 418.667 C 442.274 417.678 440.519 416.853 438.844 416.194 C 437.224 415.548 435.509 415.168 433.767 415.07 C 432.234 414.989 431.105 415.203 430.387 415.71 C 429.691 416.219 429.318 416.944 429.268 417.882 C 429.242 418.378 429.304 418.854 429.456 419.233 C 429.61 419.615 429.935 420.027 430.432 420.497 C 430.931 420.922 431.638 421.405 432.55 421.948 L 436.133 423.884 L 440.761 426.432 C 442.05 427.184 443.228 428.111 444.263 429.186 C 445.218 430.191 445.953 431.383 446.423 432.688 C 446.899 434.003 447.089 435.577 446.993 437.408" fill="rgb(0,0,0)"/></g><path d=" M 351.175 447.596 L 351.175 546.899 L 442.119 580 L 442.119 480.697 L 351.175 447.596 Z " fill="rgb(183,180,94)"/><linearGradient id="_lgradient_33" x1="-0.0031250000000007383" y1="0.6979389271824985" x2="1.0281249999999995" y2="0.3485314727518563" gradientTransform="matrix(145.51,0,0,152.264,442.119,427.736)" gradientUnits="userSpaceOnUse"><stop offset="2.1739130434782608%" stop-opacity="1" style="stop-color:rgb(189,186,97)"/><stop offset="97.82608695652173%" stop-opacity="1" style="stop-color:rgb(255,250,107)"/></linearGradient><path d=" M 442.119 580 L 587.629 527.039 L 587.629 427.736 L 442.119 480.697 L 442.119 580 Z " fill="url(#_lgradient_33)"/><path d=" M 393.278 481.884 C 394.987 480.916 397.166 480.912 398.833 481.884 L 424.351 496.269 C 425.947 497.166 427.015 498.946 427 500.785 L 427 529.627 C 427.011 531.544 425.838 533.362 424.154 534.242 L 398.773 548.561 C 397.005 549.538 394.846 549.478 393.135 548.405 L 385.519 544.004 C 384.999 543.694 384.416 543.448 384.049 542.946 C 384.373 542.51 384.95 542.455 385.42 542.262 C 386.48 541.925 387.45 541.408 388.424 540.861 C 388.67 540.69 388.971 540.754 389.206 540.908 L 395.701 544.664 C 396.164 544.931 396.634 544.578 397.032 544.354 L 421.954 530.29 C 422.261 530.14 422.432 529.815 422.406 529.478 L 422.406 500.914 C 422.441 500.529 422.221 500.179 421.872 500.023 L 396.555 485.766 C 396.257 485.559 395.862 485.559 395.562 485.764 L 370.281 500.05 C 369.94 500.206 369.705 500.552 369.747 500.937 L 369.747 529.501 C 369.717 529.839 369.897 530.157 370.207 530.303 L 376.962 534.116 C 378.231 534.8 379.789 535.184 381.186 534.682 C 382.438 534.21 383.265 533.01 383.26 531.672 L 383.267 503.279 C 383.237 502.858 383.634 502.509 384.042 502.552 L 387.29 502.552 C 387.717 502.541 388.052 502.994 387.995 503.417 L 387.988 531.99 C 387.99 534.528 386.948 537.289 384.6 538.534 C 381.707 540.03 378.131 539.716 375.272 538.278 L 368.008 534.261 C 366.299 533.407 365.152 531.561 365.162 529.647 L 365.162 500.805 C 365.177 498.896 366.225 497.145 367.901 496.23 L 393.278 481.884 Z  M 400.636 501.877 C 404.326 501.663 408.276 501.736 411.596 503.554 C 414.166 504.947 415.591 507.87 415.638 510.728 C 415.566 511.113 415.164 511.327 414.796 511.299 C 413.728 511.297 412.656 511.314 411.583 511.292 C 411.128 511.309 410.865 510.891 410.808 510.489 C 410.5 509.122 409.754 507.769 408.468 507.109 C 406.494 506.12 404.204 506.169 402.05 506.191 C 400.478 506.276 398.788 506.411 397.457 507.334 C 396.432 508.034 396.124 509.47 396.489 510.585 C 396.831 511.403 397.777 511.666 398.549 511.91 C 402.997 513.072 407.708 512.978 412.072 514.489 C 413.878 515.112 415.645 516.326 416.264 518.217 C 417.072 520.75 416.719 523.78 414.918 525.814 C 413.457 527.489 411.329 528.378 409.203 528.895 C 406.377 529.525 403.445 529.54 400.576 529.258 C 397.878 528.95 395.071 528.241 392.988 526.404 C 391.206 524.857 390.338 522.447 390.424 520.122 C 390.445 519.729 390.836 519.456 391.214 519.488 L 394.419 519.488 C 394.851 519.458 395.167 519.83 395.188 520.236 C 395.387 521.517 395.876 522.906 397.013 523.654 C 399.205 525.068 401.954 524.97 404.462 525.011 C 406.541 524.919 408.874 524.891 410.573 523.515 C 411.47 522.731 411.733 521.421 411.491 520.293 C 411.229 519.34 410.209 518.898 409.355 518.584 C 404.964 517.195 400.2 517.7 395.853 516.127 C 394.088 515.503 392.381 514.324 391.704 512.51 C 390.757 509.946 391.191 506.77 393.184 504.804 C 395.107 502.849 397.927 502.095 400.598 501.826 L 400.636 501.877 Z " fill="rgb(93,134,49)"/></g></g></svg>