<?xml version="1.0" encoding="UTF-8" standalone="no"?>
<svg viewBox="0 0 600 600" width="600pt" height="600pt">
<path d=" M 65 160 L 65 440 L 535 440 L 535 160 L 65 160 Z " fill="none" vector-effect="non-scaling-stroke" stroke-width="5" stroke="rgb(0,0,0)" stroke-linejoin="miter" stroke-linecap="square" stroke-miterlimit="3"/>
<path d=" M 235 200 L 235 210 L 365 210 L 365 200 L 235 200 Z " fill="rgb(0,0,0)"/>
<path d=" M 270 220 L 270 230 L 330 230 L 330 220 L 270 220 Z " fill="rgb(0,0,0)"/>
<path d=" M 112 250 L 262 250 L 262 260 L 112 260 L 112 250 Z " fill="rgb(0,0,0)"/>
<path d=" M 112 270 L 172 270 L 172 280 L 112 280 L 112 270 Z " fill="rgb(0,0,0)"/>
<path d=" M 112 290 L 472 290 L 472 300 L 112 300 L 112 290 Z " fill="rgb(0,0,0)"/>
<path d=" M 112 310 L 112 320 L 192 320 L 192 310 L 112 310 Z " fill="rgb(0,0,0)"/>
<path d=" M 202 310 L 202 320 L 342 320 L 342 310 L 202 310 Z " fill="rgb(0,0,0)"/>
<path d=" M 112 370 L 112 380 L 162 380 L 162 370 L 112 370 Z " fill="rgb(0,0,0)"/>
<path d=" M 112 390 L 142 390 L 142 400 L 112 400 L 112 390 Z " fill="rgb(0,0,0)"/>
<path d=" M 152 390 L 212 390 L 212 400 L 152 400 L 152 390 Z " fill="rgb(0,0,0)"/>
</svg>