<?xml version="1.0" encoding="UTF-8" standalone="no"?><!-- Generator: Gravit.io --><svg xmlns="http://www.w3.org/2000/svg" xmlns:xlink="http://www.w3.org/1999/xlink" style="isolation:isolate" viewBox="0 0 64 64" width="64pt" height="64pt"><defs><clipPath id="_clipPath_tEJBfjgVXi2MpJZ4f9EiHYA4GB1E2GbP"><rect width="64" height="64"/></clipPath></defs><g clip-path="url(#_clipPath_tEJBfjgVXi2MpJZ4f9EiHYA4GB1E2GbP)"><g style="isolation:isolate"><path d=" M 37.383 47.813 L 37.383 39.843 C 37.432 38.995 37.118 38.332 36.431 37.845 L 34.259 36.012 C 33.498 35.393 33.5 34.844 34.255 34.355 L 57.802 18.657 C 58.817 17.981 59.333 18.224 59.34 19.377 L 59.34 47.553 C 59.393 48.543 58.957 49.028 58.022 48.999 L 38.471 48.999 C 37.71 49.015 37.35 48.623 37.383 47.813 Z " fill="rgb(255,255,255)" vector-effect="non-scaling-stroke" stroke-width="1" stroke="rgb(0,0,0)" stroke-linejoin="miter" stroke-linecap="square" stroke-miterlimit="3"/><path d=" M 32.267 39.106 L 6.107 18.759 C 5.118 17.983 4.637 17.997 4.656 18.793 L 4.656 47.965 C 4.649 48.674 5.002 49.021 5.707 48.999 L 32.247 48.999 C 32.665 48.995 32.881 48.793 32.887 48.384 L 32.887 40.348 C 32.91 39.834 32.707 39.423 32.267 39.106 Z " fill="rgb(255,255,255)" vector-effect="non-scaling-stroke" stroke-width="1" stroke="rgb(0,0,0)" stroke-linejoin="miter" stroke-linecap="square" stroke-miterlimit="3"/><path d=" M 28.992 30.409 L 10.044 16.199 C 9.17 15.506 9.043 15.023 10.001 15 L 52.967 15 C 53.816 15.006 53.804 15.367 52.898 16.049 L 31.402 30.379 C 30.586 30.936 29.785 30.948 28.992 30.409 Z " fill="rgb(255,255,255)" vector-effect="non-scaling-stroke" stroke-width="1" stroke="rgb(0,0,0)" stroke-linejoin="miter" stroke-linecap="square" stroke-miterlimit="3"/></g></g></svg>