<?xml version="1.0" encoding="UTF-8" standalone="no"?><!-- Generator: Gravit.io --><svg xmlns="http://www.w3.org/2000/svg" xmlns:xlink="http://www.w3.org/1999/xlink" style="isolation:isolate" viewBox="0 0 800 600" width="800pt" height="600pt"><defs><clipPath id="_clipPath_t7uArg8cv0G831jSWBIFMVWPxIrT1RRH"><rect width="800" height="600"/></clipPath></defs><g clip-path="url(#_clipPath_t7uArg8cv0G831jSWBIFMVWPxIrT1RRH)"><g style="isolation:isolate" filter="url(#DS4JZknmSpR7dAueMJ9DgXzkoD6hbLVo)"><g style="isolation:isolate"><linearGradient id="_lgradient_0" x1="-0.040005760368663705" y1="0.6321962257875836" x2="0.506509216589862" y2="0.5240006340704767" gradientTransform="matrix(460,0,0,458.603,266,32.029)" gradientUnits="userSpaceOnUse"><stop offset="0%" stop-opacity="1" style="stop-color:rgb(255,233,246)"/><stop offset="95.65217391304348%" stop-opacity="1" style="stop-color:rgb(247,247,247)"/></linearGradient><path d=" M 266 32.029 L 266 323.206 L 726 490.632 L 726 199.456 L 266 32.029 Z " fill="url(#_lgradient_0)"/><linearGradient id="_lgradient_1" x1="2.3862404336734753" y1="0.25597061357685896" x2="-0.5290975765306003" y2="0.47933192094349086" gradientTransform="matrix(8,0,0,294.088,726,196.544)" gradientUnits="userSpaceOnUse"><stop offset="1.3043478260869565%" stop-opacity="1" style="stop-color:rgb(228,255,255)"/><stop offset="98.69565217391305%" stop-opacity="1" style="stop-color:rgb(89,187,184)"/></linearGradient><path d=" M 726 199.456 L 734 196.544 L 734 487.72 L 726 490.632 L 726 199.456 Z " fill="url(#_lgradient_1)"/><linearGradient id="_lgradient_2" x1="0.557297235885372" y1="0.427933897218931" x2="0.43970875213857985" y2="0.5522814355160884" gradientTransform="matrix(468,0,0,170.338,266,29.118)" gradientUnits="userSpaceOnUse"><stop offset="1.3043478260869565%" stop-opacity="1" style="stop-color:rgb(228,255,255)"/><stop offset="98.69565217391305%" stop-opacity="1" style="stop-color:rgb(89,187,184)"/></linearGradient><path d=" M 734 196.544 L 274 29.118 L 266 32.029 L 726 199.456 L 734 196.544 Z " fill="url(#_lgradient_2)"/></g><g style="isolation:isolate"/></g><defs><filter id="DS4JZknmSpR7dAueMJ9DgXzkoD6hbLVo" x="-200%" y="-200%" width="400%" height="400%" filterUnits="objectBoundingBox" color-interpolation-filters="sRGB"><feGaussianBlur xmlns="http://www.w3.org/2000/svg" in="SourceGraphic" stdDeviation="21.46804531419514"/><feOffset xmlns="http://www.w3.org/2000/svg" dx="10" dy="10" result="pf_100_offsetBlur"/><feFlood xmlns="http://www.w3.org/2000/svg" flood-color="#000000" flood-opacity="0.25"/><feComposite xmlns="http://www.w3.org/2000/svg" in2="pf_100_offsetBlur" operator="in" result="pf_100_dropShadow"/><feBlend xmlns="http://www.w3.org/2000/svg" in="SourceGraphic" in2="pf_100_dropShadow" mode="normal"/></filter></defs><g style="isolation:isolate"><g style="isolation:isolate"><linearGradient id="_lgradient_3" x1="0.7025915261209379" y1="0.2897391949750011" x2="0.10654051830522415" y2="1.0240762798333478" gradientTransform="matrix(207.32,0,0,75.458,225.49,360.147)" gradientUnits="userSpaceOnUse"><stop offset="0.43478260869565216%" stop-opacity="1" style="stop-color:rgb(255,255,255)"/><stop offset="100%" stop-opacity="1" style="stop-color:rgb(0,157,155)"/></linearGradient><path d=" M 225.49 371.466 L 401.711 435.605 L 432.809 424.286 L 256.588 360.147 L 225.49 371.466 Z " fill="url(#_lgradient_3)"/><path d=" M 225.49 371.458 L 225.49 386.55 L 401.711 450.834 L 401.711 435.605 L 225.49 371.458 Z " fill="rgb(82,170,168)"/><linearGradient id="_lgradient_4" x1="1.4833333333333325" y1="-0.007782073354253072" x2="-0.010370370370370141" y2="0.7253146793605433" gradientTransform="matrix(31.098,0,0,26.41,401.711,424.286)" gradientUnits="userSpaceOnUse"><stop offset="0%" stop-opacity="1" style="stop-color:rgb(183,245,244)"/><stop offset="97.82608695652173%" stop-opacity="1" style="stop-color:rgb(79,168,166)"/></linearGradient><path d=" M 432.809 424.286 L 432.809 439.378 L 401.711 450.697 L 401.711 435.605 L 432.809 424.286 Z " fill-rule="evenodd" fill="url(#_lgradient_4)"/></g><g style="isolation:isolate"><linearGradient id="_lgradient_5" x1="0.7025915261209379" y1="0.2897391949750011" x2="0.10654051830522415" y2="1.0240762798333478" gradientTransform="matrix(207.32,0,0,75.847,194.392,386.557)" gradientUnits="userSpaceOnUse"><stop offset="0.43478260869565216%" stop-opacity="1" style="stop-color:rgb(255,255,255)"/><stop offset="100%" stop-opacity="1" style="stop-color:rgb(0,157,155)"/></linearGradient><path d=" M 194.392 397.876 L 370.613 462.404 L 401.711 450.697 L 225.49 386.557 L 194.392 397.876 Z " fill="url(#_lgradient_5)"/><path d=" M 194.392 397.891 L 194.392 412.983 L 370.613 477.267 L 370.613 462.175 L 194.392 397.891 Z " fill="rgb(82,170,168)"/><linearGradient id="_lgradient_6" x1="1.4833333333333325" y1="-0.007782073354253072" x2="-0.010370370370370141" y2="0.7253146793605433" gradientTransform="matrix(31.098,0,0,26.57,370.613,450.697)" gradientUnits="userSpaceOnUse"><stop offset="0%" stop-opacity="1" style="stop-color:rgb(183,245,244)"/><stop offset="97.82608695652173%" stop-opacity="1" style="stop-color:rgb(79,168,166)"/></linearGradient><path d=" M 401.711 450.697 L 401.711 465.948 L 370.613 477.267 L 370.613 462.175 L 401.711 450.697 Z " fill-rule="evenodd" fill="url(#_lgradient_6)"/></g><g style="isolation:isolate"><linearGradient id="_lgradient_7" x1="0.7025915261209379" y1="0.2897391949750011" x2="0.10654051830522415" y2="1.0240762798333478" gradientTransform="matrix(207.32,0,0,75.847,163.294,412.99)" gradientUnits="userSpaceOnUse"><stop offset="0.43478260869565216%" stop-opacity="1" style="stop-color:rgb(255,255,255)"/><stop offset="100%" stop-opacity="1" style="stop-color:rgb(0,157,155)"/></linearGradient><path d=" M 163.294 424.309 L 339.515 488.837 L 370.613 477.13 L 194.392 412.99 L 163.294 424.309 Z " fill="url(#_lgradient_7)"/><path d=" M 163.294 424.324 L 163.294 439.416 L 339.515 503.7 L 339.515 488.609 L 163.294 424.324 Z " fill="rgb(82,170,168)"/><linearGradient id="_lgradient_8" x1="1.4833333333333325" y1="-0.007782073354253072" x2="-0.010370370370370141" y2="0.7253146793605433" gradientTransform="matrix(31.098,0,0,26.57,339.515,477.13)" gradientUnits="userSpaceOnUse"><stop offset="0%" stop-opacity="1" style="stop-color:rgb(183,245,244)"/><stop offset="97.82608695652173%" stop-opacity="1" style="stop-color:rgb(79,168,166)"/></linearGradient><path d=" M 370.613 477.13 L 370.613 492.382 L 339.515 503.7 L 339.515 488.609 L 370.613 477.13 Z " fill-rule="evenodd" fill="url(#_lgradient_8)"/></g><g style="isolation:isolate"><linearGradient id="_lgradient_9" x1="0.7025915261209379" y1="0.2897391949750011" x2="0.10654051830522415" y2="1.0240762798333478" gradientTransform="matrix(207.32,0,0,75.458,132.196,439.447)" gradientUnits="userSpaceOnUse"><stop offset="0.43478260869565216%" stop-opacity="1" style="stop-color:rgb(255,255,255)"/><stop offset="100%" stop-opacity="1" style="stop-color:rgb(0,157,155)"/></linearGradient><path d=" M 132.196 450.765 L 308.418 514.905 L 339.515 503.586 L 163.294 439.447 L 132.196 450.765 Z " fill="url(#_lgradient_9)"/><path d=" M 132.196 450.758 L 132.196 465.849 L 308.418 530.134 L 308.418 514.905 L 132.196 450.758 Z " fill="rgb(82,170,168)"/><linearGradient id="_lgradient_10" x1="1.4833333333333325" y1="-0.007782073354253072" x2="-0.010370370370370141" y2="0.7253146793605433" gradientTransform="matrix(31.098,0,0,26.41,308.418,503.586)" gradientUnits="userSpaceOnUse"><stop offset="0%" stop-opacity="1" style="stop-color:rgb(183,245,244)"/><stop offset="97.82608695652173%" stop-opacity="1" style="stop-color:rgb(79,168,166)"/></linearGradient><path d=" M 339.515 503.586 L 339.515 518.678 L 308.418 529.996 L 308.418 514.905 L 339.515 503.586 Z " fill-rule="evenodd" fill="url(#_lgradient_10)"/></g><g style="isolation:isolate"><linearGradient id="_lgradient_11" x1="0.7025915261209379" y1="0.2897391949750011" x2="0.10654051830522415" y2="1.0240762798333478" gradientTransform="matrix(207.32,0,0,75.847,101.098,465.857)" gradientUnits="userSpaceOnUse"><stop offset="0.43478260869565216%" stop-opacity="1" style="stop-color:rgb(255,255,255)"/><stop offset="100%" stop-opacity="1" style="stop-color:rgb(0,157,155)"/></linearGradient><path d=" M 101.098 477.176 L 277.32 541.704 L 308.418 529.996 L 132.196 465.857 L 101.098 477.176 Z " fill="url(#_lgradient_11)"/><path d=" M 101.098 477.191 L 101.098 492.283 L 277.32 556.567 L 277.32 541.475 L 101.098 477.191 Z " fill="rgb(82,170,168)"/><linearGradient id="_lgradient_12" x1="1.4833333333333325" y1="-0.007782073354253072" x2="-0.010370370370370141" y2="0.7253146793605433" gradientTransform="matrix(31.098,0,0,26.57,277.32,529.996)" gradientUnits="userSpaceOnUse"><stop offset="0%" stop-opacity="1" style="stop-color:rgb(183,245,244)"/><stop offset="97.82608695652173%" stop-opacity="1" style="stop-color:rgb(79,168,166)"/></linearGradient><path d=" M 308.418 529.996 L 308.418 545.248 L 277.32 556.567 L 277.32 541.475 L 308.418 529.996 Z " fill-rule="evenodd" fill="url(#_lgradient_12)"/></g><g style="isolation:isolate"><linearGradient id="_lgradient_13" x1="0.7025915261209379" y1="0.2897391949750011" x2="0.10654051830522415" y2="1.0240762798333478" gradientTransform="matrix(207.32,0,0,75.847,70,492.29)" gradientUnits="userSpaceOnUse"><stop offset="0.43478260869565216%" stop-opacity="1" style="stop-color:rgb(255,255,255)"/><stop offset="100%" stop-opacity="1" style="stop-color:rgb(0,157,155)"/></linearGradient><path d=" M 70 503.609 L 246.222 568.137 L 277.32 556.43 L 101.098 492.29 L 70 503.609 Z " fill="url(#_lgradient_13)"/><path d=" M 70 503.624 L 70 518.716 L 246.222 583 L 246.222 567.908 L 70 503.624 Z " fill="rgb(82,170,168)"/><linearGradient id="_lgradient_14" x1="1.4833333333333325" y1="-0.007782073354253072" x2="-0.010370370370370141" y2="0.7253146793605433" gradientTransform="matrix(31.098,0,0,26.57,246.222,556.43)" gradientUnits="userSpaceOnUse"><stop offset="0%" stop-opacity="1" style="stop-color:rgb(183,245,244)"/><stop offset="97.82608695652173%" stop-opacity="1" style="stop-color:rgb(79,168,166)"/></linearGradient><path d=" M 277.32 556.43 L 277.32 571.681 L 246.222 583 L 246.222 567.908 L 277.32 556.43 Z " fill-rule="evenodd" fill="url(#_lgradient_14)"/></g></g><g style="isolation:isolate"><linearGradient id="_lgradient_15" x1="-0.2948490230905737" y1="0.8003274268104776" x2="1.1676731793960902" y2="0.3314676425269642" gradientTransform="matrix(460,0,0,387.8,266,32.029)" gradientUnits="userSpaceOnUse"><stop offset="0%" stop-opacity="1" style="stop-color:rgb(35,34,102)"/><stop offset="97.82608695652173%" stop-opacity="1" style="stop-color:rgb(126,43,140)"/></linearGradient><path d=" M 266 198 Q 352.594 219.17 446 300.735 C 550.399 391.899 643.752 430.742 726 417.205 L 726 199.456 L 266 32.029 L 266 198 Z " fill="url(#_lgradient_15)" fill-opacity="0.91"/><circle vector-effect="non-scaling-stroke" cx="324.3652694610787" cy="283.12405471528365" r="29.04341317365305" fill="rgb(235,235,235)"/><linearGradient id="_lgradient_16" x1="0.4478260869565218" y1="0.2581669141941779" x2="0.4500384763370528" y2="1.0864471748095264" gradientTransform="matrix(460,0,0,387.8,266,32.029)" gradientUnits="userSpaceOnUse"><stop offset="0%" stop-opacity="1" style="stop-color:rgb(66,19,64)"/><stop offset="98.26086956521739%" stop-opacity="1" style="stop-color:rgb(52,29,96)"/></linearGradient><path d=" M 266 162.426 Q 352.594 219.17 446 300.735 C 550.399 391.899 643.752 430.742 726 417.205 L 726 199.456 L 266 32.029 L 266 162.426 Z " fill="url(#_lgradient_16)" fill-opacity="0.25"/><g style="isolation:isolate"><path d=" M 324.365 94.391 L 324.365 303.183 L 401.808 332.499 L 401.808 123.116 L 324.365 94.391 Z " fill="none" vector-effect="non-scaling-stroke" stroke-width="0.5" stroke="rgb(67,117,255)" stroke-linejoin="miter" stroke-linecap="square" stroke-miterlimit="3"/><circle vector-effect="non-scaling-stroke" cx="324.4999999999998" cy="95.49999999999999" r="2.5" fill="rgb(70,127,238)" stroke-width="1" stroke="rgb(255,255,255)" stroke-linejoin="miter" stroke-linecap="square" stroke-miterlimit="3"/><circle vector-effect="non-scaling-stroke" cx="401.4999999999998" cy="123.4999999999998" r="2.5" fill="rgb(70,127,238)" stroke-width="1" stroke="rgb(255,255,255)" stroke-linejoin="miter" stroke-linecap="square" stroke-miterlimit="3"/><circle vector-effect="non-scaling-stroke" cx="324.4999999999998" cy="304.49999999999966" r="2.5" fill="rgb(70,127,238)" stroke-width="1" stroke="rgb(255,255,255)" stroke-linejoin="miter" stroke-linecap="square" stroke-miterlimit="3"/><circle vector-effect="non-scaling-stroke" cx="401.4999999999998" cy="332.4999999999994" r="2.5" fill="rgb(70,127,238)" stroke-width="1" stroke="rgb(255,255,255)" stroke-linejoin="miter" stroke-linecap="square" stroke-miterlimit="3"/><path d=" M 324.365 94.391 L 324.365 303.183 L 401.808 332.499 L 401.808 123.116 L 324.365 94.391 Z " fill="rgb(82,170,168)" fill-opacity="0.2"/></g><g style="isolation:isolate"><g style="isolation:isolate"><radialGradient id="_rgradient_0" fx="0.5" fy="0.5" cx="0.5" cy="0.5" r="0.5" gradientTransform="matrix(59.093,0,0,34.117,617.886,284.177)" gradientUnits="userSpaceOnUse"><stop offset="1.7391304347826086%" stop-opacity="1" style="stop-color:rgb(0,213,255)"/><stop offset="100%" stop-opacity="1" style="stop-color:rgb(0,94,117)"/></radialGradient><path d=" M 617.886 301.235 L 647.433 284.177 L 676.979 301.235 L 647.433 318.294 L 617.886 301.235 Z " fill="url(#_rgradient_0)"/><path d=" M 676.979 301.235 L 676.979 302.941 L 647.433 320 L 647.433 318.294 L 676.979 301.235 Z " fill="rgb(0,97,119)"/><path d=" M 617.886 301.235 L 617.886 302.941 L 647.433 320 L 647.433 318.294 L 617.886 301.235 Z " fill="rgb(0,97,119)"/></g><g style="isolation:isolate"><linearGradient id="_lgradient_17" x1="0.2623749999999998" y1="0.7686172282542298" x2="0.7367500000000001" y2="0.26952088333459606" gradientTransform="matrix(29.546,0,0,85.293,646.546,227.059)" gradientUnits="userSpaceOnUse"><stop offset="1.7391304347826086%" stop-opacity="1" style="stop-color:rgb(0,84,115)"/><stop offset="97.82608695652173%" stop-opacity="1" style="stop-color:rgb(27,143,185)"/></linearGradient><path d=" M 676.093 295.293 L 646.546 312.352 L 646.546 244.117 L 676.093 227.059 L 676.093 295.293 Z " fill="url(#_lgradient_17)"/><linearGradient id="_lgradient_18" x1="0.2623749999999998" y1="0.7686172282542298" x2="0.7367500000000001" y2="0.26952088333459606" gradientTransform="matrix(59.093,0,0,34.117,617,210)" gradientUnits="userSpaceOnUse"><stop offset="1.7391304347826086%" stop-opacity="1" style="stop-color:rgb(0,100,136)"/><stop offset="97.3913043478261%" stop-opacity="1" style="stop-color:rgb(60,178,221)"/></linearGradient><path d=" M 617 227.059 L 646.546 210 L 676.093 227.059 L 646.546 244.117 L 617 227.059 Z " fill="url(#_lgradient_18)"/><path d=" M 617 295.293 L 646.546 312.352 L 646.546 244.117 L 617 227.059 L 617 295.293 Z " fill="rgb(8,91,121)"/></g><g style="isolation:isolate"><linearGradient id="_lgradient_19" x1="0.2623749999999998" y1="0.7686172282542298" x2="0.7367500000000001" y2="0.26952088333459606" gradientTransform="matrix(17.728,0,0,64.823,654.229,238.531)" gradientUnits="userSpaceOnUse"><stop offset="1.7391304347826086%" stop-opacity="1" style="stop-color:rgb(0,84,115)"/><stop offset="97.82608695652173%" stop-opacity="1" style="stop-color:rgb(27,143,185)"/></linearGradient><path d=" M 654.229 248.766 L 671.956 238.531 L 671.956 293.119 L 654.229 303.354 L 654.229 248.766 Z " fill="url(#_lgradient_19)"/><path d=" M 654.229 303.354 L 652.751 302.501 L 652.751 247.914 L 654.229 248.766 L 654.229 303.354 Z " fill="rgb(0,59,81)"/><linearGradient id="_lgradient_20" x1="0" y1="0.5" x2="1.038461538461538" y2="-0.40442888750692896" gradientTransform="matrix(19.205,0,0,11.088,652.751,237.678)" gradientUnits="userSpaceOnUse"><stop offset="0%" stop-opacity="1" style="stop-color:rgb(0,59,81)"/><stop offset="97.82608695652173%" stop-opacity="1" style="stop-color:rgb(14,92,121)"/></linearGradient><path d=" M 652.751 247.914 L 654.229 248.766 L 671.956 238.531 L 670.479 237.678 L 652.751 247.914 Z " fill="url(#_lgradient_20)"/><path d=" M 657.183 252.385 L 657.183 267.737 L 669.002 260.914 L 669.002 245.561 L 657.183 252.385 Z " fill="rgb(0,45,62)"/></g><g style="isolation:isolate"><path d=" M 658.365 253.67 L 659.547 252.988 L 659.547 253.67 L 658.365 254.353 L 658.365 253.67 Z " fill="rgb(94,179,210)"/><path d=" M 660.138 252.647 L 661.32 251.964 L 661.32 252.647 L 660.138 253.329 L 660.138 252.647 Z " fill="rgb(94,179,210)"/><path d=" M 661.911 254.353 L 663.093 253.67 L 663.093 254.353 L 661.911 255.035 L 661.911 254.353 Z " fill="rgb(94,179,210)"/><path d=" M 663.683 253.329 L 666.047 251.964 L 666.047 252.647 L 663.683 254.011 L 663.683 253.329 Z " fill="rgb(94,179,210)"/><path d=" M 658.365 259.129 L 660.729 257.764 L 660.729 258.447 L 658.365 259.811 L 658.365 259.129 Z " fill="rgb(94,179,210)"/><path d=" M 659.547 257.082 L 661.911 255.717 L 661.911 256.4 L 659.547 257.764 L 659.547 257.082 Z " fill="rgb(94,179,210)"/><path d=" M 658.365 255.035 L 660.138 254.011 L 660.138 254.694 L 658.365 255.717 L 658.365 255.035 Z " fill="rgb(94,179,210)"/><path d=" M 660.729 253.67 L 662.502 252.647 L 662.502 253.329 L 660.729 254.353 L 660.729 253.67 Z " fill="rgb(94,179,210)"/><path d=" M 658.365 256.445 L 660.138 255.422 L 660.138 256.104 L 658.365 257.128 L 658.365 256.445 Z " fill="rgb(94,179,210)"/><path d=" M 660.729 255.035 L 661.32 254.694 L 661.32 255.376 L 660.729 255.717 L 660.729 255.035 Z " fill="rgb(94,179,210)"/><path d=" M 658.365 257.81 L 658.956 257.469 L 658.956 258.151 L 658.365 258.492 L 658.365 257.81 Z " fill="rgb(94,179,210)"/><path d=" M 658.365 260.494 L 659.547 259.811 L 659.547 260.494 L 658.365 261.176 L 658.365 260.494 Z " fill="rgb(94,179,210)"/><path d=" M 660.138 259.47 L 660.729 259.129 L 660.729 259.811 L 660.138 260.152 L 660.138 259.47 Z " fill="rgb(94,179,210)"/><path d=" M 661.32 258.788 L 661.32 259.47 L 662.502 258.788 L 662.502 258.105 L 661.32 258.788 Z " fill="rgb(94,179,210)"/><path d=" M 663.093 257.764 L 664.865 256.741 L 664.865 257.423 L 663.093 258.447 L 663.093 257.764 Z " fill="rgb(94,179,210)"/><path d=" M 665.456 256.4 L 666.638 255.717 L 666.638 256.4 L 665.456 257.082 L 665.456 256.4 Z " fill="rgb(94,179,210)"/><path d=" M 658.365 261.858 L 658.365 262.541 L 660.138 261.517 L 660.138 260.835 L 658.365 261.858 Z " fill="rgb(94,179,210)"/><path d=" M 658.365 263.223 L 658.956 262.882 L 658.956 263.564 L 658.365 263.905 L 658.365 263.223 Z " fill="rgb(94,179,210)"/><path d=" M 658.365 264.588 L 661.32 262.882 L 661.32 263.564 L 658.365 265.27 L 658.365 264.588 Z " fill="rgb(94,179,210)"/><path d=" M 659.547 262.541 L 660.729 261.858 L 660.729 262.541 L 659.547 263.223 L 659.547 262.541 Z " fill="rgb(94,179,210)"/><path d=" M 661.911 262.541 L 663.093 261.858 L 663.093 262.541 L 661.911 263.223 L 661.911 262.541 Z " fill="rgb(94,179,210)"/><path d=" M 663.683 261.517 L 664.274 261.176 L 664.274 261.858 L 663.683 262.2 L 663.683 261.517 Z " fill="rgb(94,179,210)"/><path d=" M 660.729 260.494 L 661.911 259.811 L 661.911 260.494 L 660.729 261.176 L 660.729 260.494 Z " fill="rgb(94,179,210)"/><path d=" M 662.502 259.47 L 664.274 258.447 L 664.274 259.129 L 662.502 260.152 L 662.502 259.47 Z " fill="rgb(94,179,210)"/></g><g style="isolation:isolate"><g style="isolation:isolate"><path d=" M 619.068 234.798 L 619.068 240.257 L 643.887 254.586 L 643.887 249.127 L 619.068 234.798 Z " fill="rgb(20,127,165)"/><path d=" M 620.25 237.527 L 633.546 245.204 L 633.546 246.91 L 620.25 239.233 L 620.25 237.527 Z " fill="rgb(230,116,255)"/><path d=" M 635.023 246.057 L 636.501 246.91 L 636.501 248.616 L 635.023 247.763 L 635.023 246.057 Z " fill="rgb(0,210,56)"/><path d=" M 637.978 247.763 L 639.455 248.616 L 639.455 250.321 L 637.978 249.469 L 637.978 247.763 Z " fill="rgb(0,210,56)"/><path d=" M 640.933 249.469 L 642.41 250.321 L 642.41 252.027 L 640.933 251.174 L 640.933 249.469 Z " fill="rgb(229,255,113)"/><path d=" M 643.887 254.586 L 644.478 254.245 L 644.478 248.786 L 643.887 249.127 L 643.887 254.586 Z " fill="rgb(0,59,81)"/><path d=" M 644.478 248.786 L 619.659 234.457 L 619.068 234.798 L 643.887 249.127 L 644.478 248.786 Z " fill="rgb(0,59,81)"/></g><g style="isolation:isolate"><path d=" M 619.068 243.662 L 619.068 249.121 L 643.887 263.45 L 643.887 257.991 L 619.068 243.662 Z " fill="rgb(20,127,165)"/><path d=" M 620.25 246.391 L 633.546 254.068 L 633.546 255.774 L 620.25 248.097 L 620.25 246.391 Z " fill="rgb(230,116,255)"/><path d=" M 635.023 254.921 L 636.501 255.774 L 636.501 257.48 L 635.023 256.627 L 635.023 254.921 Z " fill="rgb(0,210,56)"/><path d=" M 637.978 256.627 L 639.455 257.48 L 639.455 259.185 L 637.978 258.332 L 637.978 256.627 Z " fill="rgb(0,210,56)"/><path d=" M 640.933 258.332 L 642.41 259.185 L 642.41 260.891 L 640.933 260.038 L 640.933 258.332 Z " fill="rgb(0,210,56)"/><path d=" M 643.887 263.45 L 644.478 263.109 L 644.478 257.65 L 643.887 257.991 L 643.887 263.45 Z " fill="rgb(0,59,81)"/><path d=" M 644.478 257.65 L 619.659 243.321 L 619.068 243.662 L 643.887 257.991 L 644.478 257.65 Z " fill="rgb(0,59,81)"/></g><g style="isolation:isolate"><path d=" M 619.068 252.526 L 619.068 257.985 L 643.887 272.314 L 643.887 266.855 L 619.068 252.526 Z " fill="rgb(20,127,165)"/><path d=" M 620.25 255.255 L 633.546 262.932 L 633.546 264.638 L 620.25 256.961 L 620.25 255.255 Z " fill="rgb(230,116,255)"/><path d=" M 635.023 263.785 L 636.501 264.638 L 636.501 266.343 L 635.023 265.491 L 635.023 263.785 Z " fill="rgb(0,210,56)"/><path d=" M 637.978 265.491 L 639.455 266.343 L 639.455 268.049 L 637.978 267.196 L 637.978 265.491 Z " fill="rgb(229,255,113)"/><path d=" M 640.933 267.196 L 642.41 268.049 L 642.41 269.755 L 640.933 268.902 L 640.933 267.196 Z " fill="rgb(229,255,113)"/><path d=" M 643.887 272.314 L 644.478 271.973 L 644.478 266.514 L 643.887 266.855 L 643.887 272.314 Z " fill="rgb(0,59,81)"/><path d=" M 644.478 266.514 L 619.659 252.185 L 619.068 252.526 L 643.887 266.855 L 644.478 266.514 Z " fill="rgb(0,59,81)"/></g><g style="isolation:isolate"><path d=" M 619.068 261.39 L 619.068 266.849 L 643.887 281.178 L 643.887 275.719 L 619.068 261.39 Z " fill="rgb(20,127,165)"/><path d=" M 620.25 264.119 L 633.546 271.796 L 633.546 273.502 L 620.25 265.825 L 620.25 264.119 Z " fill="rgb(230,116,255)"/><path d=" M 635.023 272.649 L 636.501 273.502 L 636.501 275.207 L 635.023 274.354 L 635.023 272.649 Z " fill="rgb(229,255,113)"/><path d=" M 637.978 274.354 L 639.455 275.207 L 639.455 276.913 L 637.978 276.06 L 637.978 274.354 Z " fill="rgb(0,210,56)"/><path d=" M 640.933 276.06 L 642.41 276.913 L 642.41 278.619 L 640.933 277.766 L 640.933 276.06 Z " fill="rgb(229,255,113)"/><path d=" M 643.887 281.178 L 644.478 280.837 L 644.478 275.378 L 643.887 275.719 L 643.887 281.178 Z " fill="rgb(0,59,81)"/><path d=" M 644.478 275.378 L 619.659 261.049 L 619.068 261.39 L 643.887 275.719 L 644.478 275.378 Z " fill="rgb(0,59,81)"/></g><g style="isolation:isolate"><path d=" M 619.068 270.254 L 619.068 275.713 L 643.887 290.042 L 643.887 284.583 L 619.068 270.254 Z " fill="rgb(20,127,165)"/><path d=" M 620.25 272.983 L 633.546 280.66 L 633.546 282.366 L 620.25 274.689 L 620.25 272.983 Z " fill="rgb(230,116,255)"/><path d=" M 635.023 281.513 L 636.501 282.366 L 636.501 284.071 L 635.023 283.218 L 635.023 281.513 Z " fill="rgb(0,210,56)"/><path d=" M 637.978 283.218 L 639.455 284.071 L 639.455 285.777 L 637.978 284.924 L 637.978 283.218 Z " fill="rgb(0,210,56)"/><path d=" M 640.933 284.924 L 642.41 285.777 L 642.41 287.483 L 640.933 286.63 L 640.933 284.924 Z " fill="rgb(229,255,113)"/><path d=" M 643.887 290.042 L 644.478 289.701 L 644.478 284.242 L 643.887 284.583 L 643.887 290.042 Z " fill="rgb(0,59,81)"/><path d=" M 644.478 284.242 L 619.659 269.913 L 619.068 270.254 L 643.887 284.583 L 644.478 284.242 Z " fill="rgb(0,59,81)"/></g><g style="isolation:isolate"><path d=" M 619.068 279.118 L 619.068 284.577 L 643.887 298.906 L 643.887 293.447 L 619.068 279.118 Z " fill="rgb(20,127,165)"/><path d=" M 620.25 281.847 L 633.546 289.524 L 633.546 291.229 L 620.25 283.553 L 620.25 281.847 Z " fill="rgb(230,116,255)"/><path d=" M 635.023 290.377 L 636.501 291.229 L 636.501 292.935 L 635.023 292.082 L 635.023 290.377 Z " fill="rgb(0,210,56)"/><path d=" M 637.978 292.082 L 639.455 292.935 L 639.455 294.641 L 637.978 293.788 L 637.978 292.082 Z " fill="rgb(229,255,113)"/><path d=" M 640.933 293.788 L 642.41 294.641 L 642.41 296.347 L 640.933 295.494 L 640.933 293.788 Z " fill="rgb(229,255,113)"/><path d=" M 643.887 298.906 L 644.478 298.565 L 644.478 293.106 L 643.887 293.447 L 643.887 298.906 Z " fill="rgb(0,59,81)"/><path d=" M 644.478 293.106 L 619.659 278.777 L 619.068 279.118 L 643.887 293.447 L 644.478 293.106 Z " fill="rgb(0,59,81)"/></g><g style="isolation:isolate"><path d=" M 619.068 287.982 L 619.068 293.441 L 643.887 307.77 L 643.887 302.311 L 619.068 287.982 Z " fill="rgb(20,127,165)"/><path d=" M 620.25 290.711 L 633.546 298.388 L 633.546 300.093 L 620.25 292.417 L 620.25 290.711 Z " fill="rgb(230,116,255)"/><path d=" M 635.023 299.24 L 636.501 300.093 L 636.501 301.799 L 635.023 300.946 L 635.023 299.24 Z " fill="rgb(0,210,56)"/><path d=" M 637.978 300.946 L 639.455 301.799 L 639.455 303.505 L 637.978 302.652 L 637.978 300.946 Z " fill="rgb(0,210,56)"/><path d=" M 640.933 302.652 L 642.41 303.505 L 642.41 305.211 L 640.933 304.358 L 640.933 302.652 Z " fill="rgb(0,210,56)"/><path d=" M 643.887 307.77 L 644.478 307.429 L 644.478 301.97 L 643.887 302.311 L 643.887 307.77 Z " fill="rgb(0,59,81)"/><path d=" M 644.478 301.97 L 619.659 287.641 L 619.068 287.982 L 643.887 302.311 L 644.478 301.97 Z " fill="rgb(0,59,81)"/></g></g><g style="isolation:isolate"><radialGradient id="_rgradient_1" fx="0.5" fy="0.5" cx="0.5" cy="0.5" r="0.5" gradientTransform="matrix(29.546,0,0,17.059,631.182,218.501)" gradientUnits="userSpaceOnUse"><stop offset="1.7391304347826086%" stop-opacity="1" style="stop-color:rgb(0,100,136)"/><stop offset="97.3913043478261%" stop-opacity="1" style="stop-color:rgb(60,178,221)"/></radialGradient><path d=" M 631.182 227.03 L 645.956 218.501 L 660.729 227.03 L 645.956 235.56 L 631.182 227.03 Z " fill="url(#_rgradient_1)"/><path d=" M 631.182 227.03 L 645.956 218.501 L 645.956 220.207 L 632.66 227.883 L 631.182 227.03 Z " fill="rgb(8,91,121)"/><path d=" M 645.956 218.501 L 645.956 220.207 L 659.251 227.883 L 660.729 227.03 L 645.956 218.501 Z " fill="rgb(8,91,121)"/><g style="isolation:isolate"><radialGradient id="_rgradient_2" fx="0.5" fy="0.5" cx="0.5" cy="0.5" r="0.5" gradientTransform="matrix(1.477,0,0,2.559,645.956,226.177)" gradientUnits="userSpaceOnUse"><stop offset="1.3043478260869565%" stop-opacity="1" style="stop-color:rgb(0,255,115)"/><stop offset="96.95652173913044%" stop-opacity="1" style="stop-color:rgb(34,181,32)"/></radialGradient><path d=" M 645.956 227.03 L 647.433 226.177 L 647.433 227.883 L 645.956 228.736 L 645.956 227.03 Z " fill="url(#_rgradient_2)"/><radialGradient id="_rgradient_3" fx="0.5" fy="0.5" cx="0.5" cy="0.5" r="0.5" gradientTransform="matrix(2.955,0,0,1.706,644.478,225.324)" gradientUnits="userSpaceOnUse"><stop offset="1.3043478260869565%" stop-opacity="1" style="stop-color:rgb(0,255,115)"/><stop offset="96.95652173913044%" stop-opacity="1" style="stop-color:rgb(34,181,32)"/></radialGradient><path d=" M 644.478 226.177 L 645.956 225.324 L 647.433 226.177 L 645.956 227.03 L 644.478 226.177 Z " fill="url(#_rgradient_3)"/><radialGradient id="_rgradient_4" fx="0.5" fy="0.5" cx="0.5" cy="0.5" r="0.5" gradientTransform="matrix(1.477,0,0,2.559,644.478,226.177)" gradientUnits="userSpaceOnUse"><stop offset="1.3043478260869565%" stop-opacity="1" style="stop-color:rgb(0,255,115)"/><stop offset="96.95652173913044%" stop-opacity="1" style="stop-color:rgb(34,181,32)"/></radialGradient><path d=" M 644.478 227.883 L 644.478 226.177 L 645.956 227.03 L 645.956 228.736 L 644.478 227.883 Z " fill="url(#_rgradient_4)"/></g></g></g><g style="isolation:isolate"><linearGradient id="_lgradient_21" x1="0.2623749999999998" y1="0.7686172282542298" x2="0.7367500000000001" y2="0.26952088333459606" gradientTransform="matrix(43.673,0,0,15.02,667.656,316.057)" gradientUnits="userSpaceOnUse"><stop offset="1.7391304347826086%" stop-opacity="1" style="stop-color:rgb(0,100,136)"/><stop offset="97.3913043478261%" stop-opacity="1" style="stop-color:rgb(60,178,221)"/></linearGradient><ellipse vector-effect="non-scaling-stroke" cx="689.4920314917053" cy="323.5663759328466" rx="21.83632930774081" ry="7.509868828928347" fill="url(#_lgradient_21)"/><defs><filter id="lXD8blNQmnhv1rG7NOaDARnqthHvJmoR" x="-200%" y="-200%" width="400%" height="400%" filterUnits="objectBoundingBox" color-interpolation-filters="sRGB"><feGaussianBlur xmlns="http://www.w3.org/2000/svg" in="SourceGraphic" stdDeviation="8.587218125678056"/><feOffset xmlns="http://www.w3.org/2000/svg" dx="0" dy="10" result="pf_100_offsetBlur"/><feFlood xmlns="http://www.w3.org/2000/svg" flood-color="#00CCFF" flood-opacity="1"/><feComposite xmlns="http://www.w3.org/2000/svg" in2="pf_100_offsetBlur" operator="in" result="pf_100_dropShadow"/><feBlend xmlns="http://www.w3.org/2000/svg" in="SourceGraphic" in2="pf_100_dropShadow" mode="normal"/></filter></defs><g filter="url(#lXD8blNQmnhv1rG7NOaDARnqthHvJmoR)"><ellipse vector-effect="non-scaling-stroke" cx="689.4524889979141" cy="319.73695096046754" rx="16.668131093020406" ry="3.6208296139470804" fill="rgb(8,91,121)"/></g><path d=" M 667.656 323.298 L 667.656 333.49 Q 668.994 340.128 689.492 341 Q 710.151 339.994 711.328 333.49 L 711.328 323.298 Q 711.168 329.601 689.492 330.808 Q 669.208 330.003 667.656 323.298 Z " fill="rgb(26,135,174)"/><linearGradient id="_lgradient_22" x1="0.2623749999999998" y1="0.7686172282542298" x2="0.7367500000000001" y2="0.26952088333459606" gradientTransform="matrix(43.673,0,0,15.02,667.656,299.696)" gradientUnits="userSpaceOnUse"><stop offset="1.7391304347826086%" stop-opacity="1" style="stop-color:rgb(0,100,136)"/><stop offset="97.3913043478261%" stop-opacity="1" style="stop-color:rgb(60,178,221)"/></linearGradient><ellipse vector-effect="non-scaling-stroke" cx="689.4920314917053" cy="307.2055902698246" rx="21.83632930774081" ry="7.509868828928347" fill="url(#_lgradient_22)"/><defs><filter id="coBwLbgYbu1yySV8cHxtUTotTkwKrVii" x="-200%" y="-200%" width="400%" height="400%" filterUnits="objectBoundingBox" color-interpolation-filters="sRGB"><feGaussianBlur xmlns="http://www.w3.org/2000/svg" in="SourceGraphic" stdDeviation="8.587218125678056"/><feOffset xmlns="http://www.w3.org/2000/svg" dx="0" dy="10" result="pf_100_offsetBlur"/><feFlood xmlns="http://www.w3.org/2000/svg" flood-color="#00CCFF" flood-opacity="1"/><feComposite xmlns="http://www.w3.org/2000/svg" in2="pf_100_offsetBlur" operator="in" result="pf_100_dropShadow"/><feBlend xmlns="http://www.w3.org/2000/svg" in="SourceGraphic" in2="pf_100_dropShadow" mode="normal"/></filter></defs><g filter="url(#coBwLbgYbu1yySV8cHxtUTotTkwKrVii)"><ellipse vector-effect="non-scaling-stroke" cx="689.4524889979141" cy="302.95958583950306" rx="16.668131093020406" ry="3.6208296139470804" fill="rgb(8,91,121)"/></g><path d=" M 667.656 306.937 L 667.656 317.129 Q 668.994 323.768 689.492 324.639 Q 710.151 323.633 711.328 317.129 L 711.328 306.937 Q 711.168 313.24 689.492 314.447 Q 669.208 313.643 667.656 306.937 Z " fill="rgb(26,135,174)"/><linearGradient id="_lgradient_23" x1="0.2623749999999998" y1="0.7686172282542298" x2="0.7367500000000001" y2="0.26952088333459606" gradientTransform="matrix(43.673,0,0,15.02,667.656,283.335)" gradientUnits="userSpaceOnUse"><stop offset="1.7391304347826086%" stop-opacity="1" style="stop-color:rgb(0,100,136)"/><stop offset="97.3913043478261%" stop-opacity="1" style="stop-color:rgb(60,178,221)"/></linearGradient><ellipse vector-effect="non-scaling-stroke" cx="689.4920314917053" cy="290.8448046068017" rx="21.83632930774081" ry="7.509868828928347" fill="url(#_lgradient_23)"/><path d=" M 667.656 290.577 L 667.656 300.769 Q 668.994 307.407 689.492 308.278 Q 710.151 307.273 711.328 300.769 L 711.328 290.577 Q 711.168 296.88 689.492 298.086 Q 669.208 297.282 667.656 290.577 Z " fill="rgb(26,135,174)"/><path d=" M 682.963 287.24 L 682.963 290.287 Q 683.363 292.272 689.492 292.533 Q 695.669 292.232 696.022 290.287 L 696.022 287.24 Q 695.974 289.124 689.492 289.485 Q 683.427 289.245 682.963 287.24 Z " fill="rgb(8,91,121)"/><linearGradient id="_lgradient_24" x1="0.2623749999999998" y1="0.7686172282542298" x2="0.7367500000000001" y2="0.26952088333459606" gradientTransform="matrix(12.952,0,0,4.454,683.016,285.281)" gradientUnits="userSpaceOnUse"><stop offset="1.7391304347826086%" stop-opacity="1" style="stop-color:rgb(0,100,136)"/><stop offset="97.3913043478261%" stop-opacity="1" style="stop-color:rgb(60,178,221)"/></linearGradient><ellipse vector-effect="non-scaling-stroke" cx="689.4920314917048" cy="287.5079578317253" rx="6.475970211364256" ry="2.227191490932171" fill="url(#_lgradient_24)"/></g><g style="isolation:isolate" filter="url(#eLfBnv0n02GBt8wvkLAwcQrwmNXn2qG0)"><path d=" M 410 189.426 L 410 286.285 L 631.764 367 L 631.764 270.142 L 410 189.426 Z " fill="rgb(255,255,255)"/><path d=" M 410 189.426 L 410 197.498 L 631.764 278.213 L 631.764 270.142 L 410 189.426 Z " fill="rgb(151,151,151)"/><path d=" M 410 197.188 L 410 205.26 L 631.764 285.975 L 631.764 277.903 L 410 197.188 Z " fill="rgb(236,236,236)" vector-effect="non-scaling-stroke" stroke-width="0.1" stroke="rgb(145,145,145)" stroke-linejoin="miter" stroke-linecap="square" stroke-miterlimit="3"/><path d=" M 543.058 253.999 L 631.764 286.285 L 631.764 367 L 543.058 334.714 L 543.058 253.999 Z " fill="rgb(255,255,255)" vector-effect="non-scaling-stroke" stroke-width="0.1" stroke="rgb(125,125,125)" stroke-linejoin="miter" stroke-linecap="square" stroke-miterlimit="3"/><path d=" M 543.058 253.999 L 543.058 262.07 L 631.764 294.356 L 631.764 286.285 L 543.058 253.999 Z " fill="rgb(236,236,236)"/><path d=" M 543.058 261.76 L 543.058 269.832 L 631.764 302.118 L 631.764 294.046 L 543.058 261.76 Z " fill="rgb(236,236,236)" vector-effect="non-scaling-stroke" stroke-width="0.1" stroke="rgb(159,159,159)" stroke-linejoin="miter" stroke-linecap="square" stroke-miterlimit="3"/><path d=" M 544.167 263.244 L 544.167 268.788 L 601.825 289.856 L 601.825 284.312 L 544.167 263.244 Z " fill="rgb(255,255,255)" vector-effect="non-scaling-stroke" stroke-width="0.1" stroke="rgb(159,159,159)" stroke-linejoin="miter" stroke-linecap="square" stroke-miterlimit="3"/><text transform="matrix(1.182,0.429,0,1.04,410.938,209.524)" style="font-family:'Open Sans';font-weight:400;font-size:4px;font-style:normal;fill:#84007b;stroke:none;">&#x3C;html&#x3E;</text><text transform="matrix(1.182,0.429,0,1.04,410.938,214.971)" style="font-family:'Open Sans';font-weight:400;font-size:4px;font-style:normal;fill:#84007b;stroke:none;">&#x3C;body&#x3E;   </text><text transform="matrix(1.182,0.429,0,1.04,414.055,220.418)" style="font-family:'Open Sans';font-weight:400;font-size:4px;font-style:normal;fill:#84007b;stroke:none;">&#x3C;nav class="main-nav"&#x3E;      </text><text transform="matrix(1.182,0.429,0,1.04,417.172,225.865)" style="font-family:'Open Sans';font-weight:400;font-size:4px;font-style:normal;fill:#84007b;stroke:none;">&#x3C;ul class="nav-links"&#x3E;         </text><text transform="matrix(1.182,0.429,0,1.04,420.289,231.313)" style="font-family:'Open Sans';font-weight:400;font-size:4px;font-style:normal;fill:#84007b;stroke:none;">&#x3C;li&#x3E;&#x3C;a class="nav-link-item" href="/"&#x3E;home&#x3C;/a&#x3E;&#x3C;/li&#x3E;         </text><text transform="matrix(1.182,0.429,0,1.04,420.289,236.76)" style="font-family:'Open Sans';font-weight:400;font-size:4px;font-style:normal;fill:#84007b;stroke:none;">&#x3C;li&#x3E;&#x3C;a class="nav-link-item" href="/folio"</text><text transform="matrix(1.182,0.429,0,1.04,410.938,242.207)" style="font-family:'Open Sans';font-weight:400;font-size:4px;font-style:normal;fill:#84007b;stroke:none;">&#x3E;folio&#x3C;/a&#x3E;&#x3C;/li&#x3E;         </text><text transform="matrix(1.182,0.429,0,1.04,420.289,247.655)" style="font-family:'Open Sans';font-weight:400;font-size:4px;font-style:normal;fill:#84007b;stroke:none;">&#x3C;li&#x3E;&#x3C;a class="nav-link-item" href="/services"</text><text transform="matrix(1.182,0.429,0,1.04,410.938,253.102)" style="font-family:'Open Sans';font-weight:400;font-size:4px;font-style:normal;fill:#84007b;stroke:none;">&#x3E;services&#x3C;/a&#x3E;&#x3C;/li&#x3E;         </text><text transform="matrix(1.182,0.429,0,1.04,420.289,258.549)" style="font-family:'Open Sans';font-weight:400;font-size:4px;font-style:normal;fill:#84007b;stroke:none;">&#x3C;li&#x3E;&#x3C;a class="nav-link-item" href="/prices"</text><text transform="matrix(1.182,0.429,0,1.04,410.938,263.996)" style="font-family:'Open Sans';font-weight:400;font-size:4px;font-style:normal;fill:#84007b;stroke:none;">&#x3E;prices&#x3C;/a&#x3E;&#x3C;/li&#x3E;         </text><text transform="matrix(1.182,0.429,0,1.04,420.289,269.444)" style="font-family:'Open Sans';font-weight:400;font-size:4px;font-style:normal;fill:#84007b;stroke:none;">&#x3C;li&#x3E;&#x3C;a class="nav-link-item" href="/contact"</text><text transform="matrix(1.182,0.429,0,1.04,410.938,274.891)" style="font-family:'Open Sans';font-weight:400;font-size:4px;font-style:normal;fill:#84007b;stroke:none;">&#x3E;contact&#x3C;/a&#x3E;&#x3C;/li&#x3E;      </text><text transform="matrix(1.182,0.429,0,1.04,417.172,280.338)" style="font-family:'Open Sans';font-weight:400;font-size:4px;font-style:normal;fill:#84007b;stroke:none;">&#x3C;/ul&#x3E;   </text><text transform="matrix(1.182,0.429,0,1.04,414.055,285.785)" style="font-family:'Open Sans';font-weight:400;font-size:4px;font-style:normal;fill:#84007b;stroke:none;">&#x3C;/nav&#x3E;</text><g style="isolation:isolate"><path d=" M 410 197.184 L 410 205.191 L 430 212.47 L 430 204.463 L 410 197.184 Z " fill="none" vector-effect="non-scaling-stroke" stroke-width="0.1" stroke="rgb(125,125,125)" stroke-linejoin="miter" stroke-linecap="square" stroke-miterlimit="3"/><text transform="matrix(1.053,0.378,-0.03,0.939,410.546,202.669)" style="font-family:'Open Sans';font-weight:400;font-size:4px;font-style:normal;fill:#000000;stroke:none;">Elements</text><text transform="matrix(1.053,0.378,-0.03,0.939,410.546,208.116)" style="font-family:'Open Sans';font-weight:400;font-size:4px;font-style:normal;fill:#000000;stroke:none;">dasdad</text></g><g style="isolation:isolate"><path d=" M 430 204.463 L 430 212.463 L 448 219.022 L 448 211 L 430 204.463 Z " fill="none" vector-effect="non-scaling-stroke" stroke-width="0.1" stroke="rgb(125,125,125)" stroke-linejoin="miter" stroke-linecap="square" stroke-miterlimit="3"/><text transform="matrix(1.053,0.378,-0.03,0.939,430.546,210.669)" style="font-family:'Open Sans';font-weight:400;font-size:4px;font-style:normal;fill:#000000;stroke:none;">Console</text></g><g style="isolation:isolate"><path d=" M 448 211 L 448 219 L 467 226 L 467 218 L 448 211 Z " fill="none" vector-effect="non-scaling-stroke" stroke-width="0.1" stroke="rgb(125,125,125)" stroke-linejoin="miter" stroke-linecap="square" stroke-miterlimit="3"/><text transform="matrix(1.053,0.378,-0.03,0.939,449.546,217.669)" style="font-family:'Open Sans';font-weight:400;font-size:4px;font-style:normal;fill:#000000;stroke:none;">Network</text></g><g style="isolation:isolate"><path d=" M 467 218 L 467 226 L 486 233 L 486 225 L 467 218 Z " fill="none" vector-effect="non-scaling-stroke" stroke-width="0.1" stroke="rgb(125,125,125)" stroke-linejoin="miter" stroke-linecap="square" stroke-miterlimit="3"/><text transform="matrix(1.053,0.378,-0.03,0.939,468.546,224.669)" style="font-family:'Open Sans';font-weight:400;font-size:4px;font-style:normal;fill:#000000;stroke:none;">Sources</text></g><g style="isolation:isolate"><path d=" M 486 225 L 486 233 L 514 243 L 514 235 L 486 225 Z " fill="none" vector-effect="non-scaling-stroke" stroke-width="0.1" stroke="rgb(125,125,125)" stroke-linejoin="miter" stroke-linecap="square" stroke-miterlimit="3"/><text transform="matrix(1.053,0.378,-0.03,0.939,487.546,231.669)" style="font-family:'Open Sans';font-weight:400;font-size:4px;font-style:normal;fill:#000000;stroke:none;">Performance</text></g><g style="isolation:isolate"><path d=" M 514 235 L 514 243 L 533 250 L 533 242 L 514 235 Z " fill="none" vector-effect="non-scaling-stroke" stroke-width="0.1" stroke="rgb(125,125,125)" stroke-linejoin="miter" stroke-linecap="square" stroke-miterlimit="3"/><text transform="matrix(1.053,0.378,-0.03,0.939,515.546,241.669)" style="font-family:'Open Sans';font-weight:400;font-size:4px;font-style:normal;fill:#000000;stroke:none;">Memory</text></g><g style="isolation:isolate"><path d=" M 533 242 L 533 250 L 558 259 L 558 251 L 533 242 Z " fill="none" vector-effect="non-scaling-stroke" stroke-width="0.1" stroke="rgb(125,125,125)" stroke-linejoin="miter" stroke-linecap="square" stroke-miterlimit="3"/><text transform="matrix(1.053,0.378,-0.03,0.939,534.546,248.669)" style="font-family:'Open Sans';font-weight:400;font-size:4px;font-style:normal;fill:#000000;stroke:none;">Application</text></g><text transform="matrix(1.108,0.38,0.003,0.903,546.355,279.356)" style="font-family:'Open Sans';font-weight:400;font-size:4px;font-style:normal;fill:#666666;stroke:none;">element.style {</text><text transform="matrix(1.108,0.38,0.003,0.903,546.355,284.803)" style="font-family:'Open Sans';font-weight:400;font-size:4px;font-style:normal;fill:#666666;stroke:none;">}</text><text transform="matrix(1.057,0.366,-0.018,0.94,547.201,297.52)" style="font-family:'Open Sans';font-weight:400;font-size:4px;font-style:normal;fill:#000000;stroke:none;">.nav-links {    </text><text transform="matrix(1.057,0.366,-0.018,0.94,551.357,302.967)" style="font-family:'Open Sans';font-weight:400;font-size:4px;font-style:normal;fill:#e31b1b;stroke:none;">margin</text><text transform="matrix(1.057,0.366,-0.018,0.94,564.593,302.967)" style="font-family:'Open Sans';font-weight:400;font-size:4px;font-style:normal;fill:#000000;stroke:none;">: 0;    </text><text transform="matrix(1.057,0.366,-0.018,0.94,551.357,308.415)" style="font-family:'Open Sans';font-weight:400;font-size:4px;font-style:normal;fill:#e31b1b;stroke:none;">padding</text><text transform="matrix(1.057,0.366,-0.018,0.94,566.593,308.415)" style="font-family:'Open Sans';font-weight:400;font-size:4px;font-style:normal;fill:#000000;stroke:none;">: 0;    </text><text transform="matrix(1.057,0.366,-0.018,0.94,551.357,313.862)" style="font-family:'Open Sans';font-weight:400;font-size:4px;font-style:normal;fill:#e31b1b;stroke:none;">box-sizing</text><text transform="matrix(1.057,0.366,-0.018,0.94,570.056,313.862)" style="font-family:'Open Sans';font-weight:400;font-size:4px;font-style:normal;fill:#000000;stroke:none;">: border-box;    </text><text transform="matrix(1.057,0.366,-0.018,0.94,551.357,319.309)" style="font-family:'Open Sans';font-weight:400;font-size:4px;font-style:normal;fill:#e31b1b;stroke:none;">scroll-behavior</text><text transform="matrix(1.057,0.366,-0.018,0.94,578.968,319.309)" style="font-family:'Open Sans';font-weight:400;font-size:4px;font-style:normal;fill:#000000;stroke:none;">: smooth;</text><text transform="matrix(1.057,0.366,-0.018,0.94,547.201,324.756)" style="font-family:'Open Sans';font-weight:400;font-size:4px;font-style:normal;fill:#000000;stroke:none;">}</text><line x1="543" y1="287" x2="632" y2="320" vector-effect="non-scaling-stroke" stroke-width="0.1" stroke="rgb(108,108,108)" stroke-linejoin="miter" stroke-linecap="square" stroke-miterlimit="3"/></g><defs><filter id="eLfBnv0n02GBt8wvkLAwcQrwmNXn2qG0" x="-200%" y="-200%" width="400%" height="400%" filterUnits="objectBoundingBox" color-interpolation-filters="sRGB"><feGaussianBlur xmlns="http://www.w3.org/2000/svg" in="SourceGraphic" stdDeviation="8.587218125678056"/><feOffset xmlns="http://www.w3.org/2000/svg" dx="0" dy="0" result="pf_100_offsetBlur"/><feFlood xmlns="http://www.w3.org/2000/svg" flood-color="#000000" flood-opacity="0.35"/><feComposite xmlns="http://www.w3.org/2000/svg" in2="pf_100_offsetBlur" operator="in" result="pf_100_dropShadow"/><feBlend xmlns="http://www.w3.org/2000/svg" in="SourceGraphic" in2="pf_100_dropShadow" mode="normal"/></filter></defs></g><g style="isolation:isolate"><g style="isolation:isolate"><path d=" M 296.257 379.653 L 297.927 383.033 Q 295.121 390.882 300.481 389.901 L 318.064 388.836 Q 319.463 386.476 306.327 384.6 Q 303.01 382.511 303.992 379.307 L 296.257 379.653 Z " fill="rgb(187,187,187)"/><path d=" M 260.977 408.46 L 262.434 411.937 Q 259.145 419.596 264.556 418.95 L 282.171 418.978 Q 283.714 416.71 270.72 414.022 Q 267.539 411.732 268.717 408.594 L 260.977 408.46 Z " fill="rgb(187,187,187)"/><linearGradient id="_lgradient_25" x1="0" y1="0.5" x2="0.9673835826831669" y2="0.13267704665499663" gradientTransform="matrix(48.128,0,0,69.867,258.271,338.593)" gradientUnits="userSpaceOnUse"><stop offset="1.3043478260869565%" stop-opacity="1" style="stop-color:rgb(255,167,167)"/><stop offset="97.3913043478261%" stop-opacity="1" style="stop-color:rgb(59,190,255)"/></linearGradient><path d=" M 268.701 387.349 L 270.46 408.46 L 259.151 408.46 L 259.151 386.344 L 259.151 363.725 Q 257.392 347.931 259.151 345.67 L 261.161 338.593 L 285.037 338.593 L 286.796 347.138 L 301.875 358.95 L 306.399 379.307 L 294.336 382.323 L 294.336 365.233 L 275.534 358.95 L 268.701 387.349" fill="url(#_lgradient_25)"/></g><path d=" M 313.92 305.781 L 321.014 303.007 L 322.062 299.628 L 323.607 296.337 L 324.887 294.726 Q 326.094 294.374 324.539 296.913 L 324.302 298.411 Q 325.532 298.318 326.457 297.729 L 328.302 295.78 L 330.116 294.021 L 331.352 292.682 C 331.948 292.333 332.519 293.076 331.035 294.679 L 329.799 296.018 C 328.892 297.254 327.493 298.582 327.831 298.745 C 327.718 299.054 329.047 298.238 330.719 296.675 C 331.45 296.52 331.85 296.937 331.595 297.605 C 331.133 298.02 329.72 299.371 329.166 300.011 C 329.279 300.157 330.045 299.666 331.449 298.521 C 332.272 298.473 332.54 298.996 332.289 299.678 C 329.891 300.991 328.941 301.634 329.427 301.588 L 332.161 300.487 C 332.572 300.699 332.694 301.07 332.502 301.564 Q 330.449 302.606 330.267 302.745 Q 330.085 302.884 328.002 304.116 Q 326.692 305.12 324.221 305.368 L 318.516 309.069 L 313.92 305.781 Z " fill="rgb(236,222,155)"/><g style="isolation:isolate"><path d=" M 278.754 292.629 Q 280.96 292.335 280.205 289.92 C 278.994 286.051 280.855 287.611 281.101 286.342 Q 281.142 286.131 279.676 283.925 Q 278.697 282.486 279.676 281.507 Q 280.626 279.334 277.302 274.727 Q 274.513 271.997 270.181 272.828 Q 259.024 275.736 264.958 287.072 Q 266.205 288.971 267.807 289.92 Q 269.409 290.87 270.181 295.046 Q 277.089 291.571 278.754 292.629 Z " fill="rgb(236,222,155)"/><path d=" M 270.043 298.466 L 270.043 294.627 Q 277.364 290.725 278.754 292.629 L 278.819 297.918 Q 275.322 300.249 270.043 298.466 Z " fill="rgb(236,222,155)"/><path d=" M 277.76 276.055 L 279.374 272.011 L 277.254 272.516 L 276.243 271 L 274.221 272.011 L 271.694 271 L 266.639 271.505 L 264.618 273.527 L 262.09 276.055 L 260.574 279.593 L 260.574 282.626 L 262.09 287.175 L 264.112 289.197 L 265.215 291.082 L 268.599 290.395 L 271.694 291.082 L 270.181 287.175 L 270.181 283.441 L 271.694 282.626 L 272.705 280.098 L 274.221 278.077 L 275.738 277.571 L 277.76 276.055 Z " fill="rgb(202,202,141)"/><path d=" M 276.243 271 L 276.039 273.39 L 277.254 272.516 L 276.243 271 Z " fill="rgb(217,217,153)"/><path d=" M 279.374 272.011 L 277.556 273.896 L 277.76 276.055 L 279.374 272.011 Z " fill="rgb(217,217,153)"/><path d=" M 275.534 274.906 L 274.221 278.077 L 272.705 279.961 L 275.534 274.906 Z " fill="rgb(217,217,153)"/><path d=" M 275.028 273.896 L 274.221 275.412 L 271.996 276.423 L 275.028 273.896 Z " fill="rgb(217,217,153)"/><path d=" M 274.221 272.011 L 270.985 272.379 L 271.694 271 L 274.221 272.011 Z " fill="rgb(217,217,153)"/></g><g style="isolation:isolate"><linearGradient id="_lgradient_26" x1="0" y1="0.5" x2="2.0407557162274013" y2="-0.3584728179402735" gradientTransform="matrix(42.963,0,0,51.515,248.745,295.166)" gradientUnits="userSpaceOnUse"><stop offset="0%" stop-opacity="1" style="stop-color:rgb(111,255,128)"/><stop offset="100%" stop-opacity="1" style="stop-color:rgb(0,0,0)"/></linearGradient><path d=" M 263.11 346.68 L 286.148 343.648 L 283.621 331.011 L 288.675 313.321 L 291.708 298.157 Q 282.863 295.251 279.428 295.166 Q 272.89 298.414 269.155 295.166 Q 259.494 297.114 256.789 299.843 L 248.745 320.5 L 259.494 327.582 L 259.865 332.022 L 257.843 346.68 L 263.11 346.68 Z " fill="url(#_lgradient_26)"/><linearGradient id="_lgradient_27" x1="0" y1="0.5" x2="4.353798889031552" y2="-0.8468108427343373" gradientTransform="matrix(34.58,0,0,18.702,288.675,298.157)" gradientUnits="userSpaceOnUse"><stop offset="0%" stop-opacity="1" style="stop-color:rgb(66,152,76)"/><stop offset="100%" stop-opacity="1" style="stop-color:rgb(0,0,0)"/></linearGradient><path d=" M 291.708 298.157 L 304.32 309.197 Q 316.337 303.201 317.992 302.706 L 323.256 309.197 Q 315.843 310.414 304.85 316.859 Q 293.184 310.808 288.675 310.288 L 291.708 298.157 Z " fill="url(#_lgradient_27)"/><path d=" M 260.876 318.881 L 259.494 317.87 L 262.392 308.266 L 260.876 318.881 Z " fill="rgb(83,190,95)"/><line x1="259.494" y1="327.473" x2="260.876" y2="318.772" vector-effect="non-scaling-stroke" stroke-width="0.3" stroke="rgb(83,190,95)" stroke-linejoin="miter" stroke-linecap="square" stroke-miterlimit="3"/></g></g><g style="isolation:isolate"><path d=" M 284.079 53.28 L 284.066 55.268 L 283.333 55.035 L 283.345 53.16 L 283.345 53.16 Q 283.347 52.807 283.188 52.582 L 283.188 52.582 L 283.188 52.582 Q 283.029 52.357 282.682 52.247 L 282.682 52.247 L 282.682 52.247 Q 282.222 52.1 282.004 52.275 L 282.004 52.275 L 282.004 52.275 Q 281.787 52.45 281.783 53.024 L 281.783 53.024 L 281.773 54.538 L 281.043 54.305 L 281.071 50.015 L 281.801 50.247 L 281.794 51.336 L 281.794 51.336 Q 281.792 51.598 281.753 51.884 L 281.753 51.884 L 281.8 51.899 L 281.8 51.899 Q 281.95 51.726 282.217 51.689 L 282.217 51.689 L 282.217 51.689 Q 282.483 51.653 282.837 51.766 L 282.837 51.766 L 282.837 51.766 Q 284.086 52.164 284.079 53.28 L 284.079 53.28 Z  M 288.139 55.033 L 288.139 55.033 L 288.139 55.033 Q 288.134 55.78 287.7 56.062 L 287.7 56.062 L 287.7 56.062 Q 287.265 56.343 286.495 56.098 L 286.495 56.098 L 286.495 56.098 Q 286.013 55.944 285.645 55.634 L 285.645 55.634 L 285.645 55.634 Q 285.276 55.323 285.08 54.898 L 285.08 54.898 L 285.08 54.898 Q 284.883 54.474 284.887 53.997 L 284.887 53.997 L 284.887 53.997 Q 284.891 53.255 285.323 52.975 L 285.323 52.975 L 285.323 52.975 Q 285.754 52.695 286.534 52.944 L 286.534 52.944 L 286.534 52.944 Q 287.279 53.182 287.712 53.746 L 287.712 53.746 L 287.712 53.746 Q 288.144 54.311 288.139 55.033 Z  M 285.638 54.236 L 285.638 54.236 L 285.638 54.236 Q 285.632 55.292 286.511 55.572 L 286.511 55.572 L 286.511 55.572 Q 287.38 55.85 287.387 54.794 L 287.387 54.794 L 287.387 54.794 Q 287.394 53.749 286.518 53.469 L 286.518 53.469 L 286.518 53.469 Q 286.058 53.323 285.85 53.527 L 285.85 53.527 L 285.85 53.527 Q 285.642 53.732 285.638 54.236 Z  M 291.874 56.138 L 291.863 57.754 L 291.13 57.52 L 291.142 55.64 L 291.142 55.64 Q 291.144 55.289 290.996 55.07 L 290.996 55.07 L 290.996 55.07 Q 290.848 54.85 290.532 54.749 L 290.532 54.749 L 290.532 54.749 Q 290.109 54.614 289.91 54.795 L 289.91 54.795 L 289.91 54.795 Q 289.711 54.976 289.708 55.544 L 289.708 55.544 L 289.698 57.064 L 288.968 56.831 L 288.988 53.781 L 289.559 53.963 L 289.659 54.396 L 289.696 54.408 L 289.696 54.408 Q 289.841 54.236 290.113 54.204 L 290.113 54.204 L 290.113 54.204 Q 290.386 54.172 290.712 54.276 L 290.712 54.276 L 290.712 54.276 Q 291.504 54.528 291.759 55.09 L 291.759 55.09 L 291.809 55.106 L 291.809 55.106 Q 291.962 54.928 292.24 54.89 L 292.24 54.89 L 292.24 54.89 Q 292.517 54.851 292.874 54.965 L 292.874 54.965 L 292.874 54.965 Q 293.489 55.161 293.769 55.526 L 293.769 55.526 L 293.769 55.526 Q 294.048 55.892 294.044 56.457 L 294.044 56.457 L 294.031 58.445 L 293.301 58.212 L 293.314 56.332 L 293.314 56.332 Q 293.316 55.981 293.166 55.761 L 293.166 55.761 L 293.166 55.761 Q 293.017 55.541 292.7 55.44 L 292.7 55.44 L 292.7 55.44 Q 292.274 55.304 292.076 55.477 L 292.076 55.477 L 292.076 55.477 Q 291.877 55.65 291.874 56.138 L 291.874 56.138 Z  M 296.55 59.303 L 296.55 59.303 L 296.55 59.303 Q 295.749 59.048 295.3 58.488 L 295.3 58.488 L 295.3 58.488 Q 294.85 57.929 294.855 57.202 L 294.855 57.202 L 294.855 57.202 Q 294.86 56.454 295.282 56.161 L 295.282 56.161 L 295.282 56.161 Q 295.704 55.867 296.437 56.101 L 296.437 56.101 L 296.437 56.101 Q 297.118 56.317 297.51 56.81 L 297.51 56.81 L 297.51 56.81 Q 297.902 57.302 297.898 57.945 L 297.898 57.945 L 297.896 58.295 L 295.606 57.565 L 295.606 57.565 Q 295.619 58.014 295.872 58.334 L 295.872 58.334 L 295.872 58.334 Q 296.125 58.653 296.588 58.801 L 296.588 58.801 L 296.588 58.801 Q 296.892 58.898 297.155 58.931 L 297.155 58.931 L 297.155 58.931 Q 297.418 58.963 297.72 58.941 L 297.72 58.941 L 297.717 59.467 L 297.717 59.467 Q 297.449 59.495 297.175 59.455 L 297.175 59.455 L 297.175 59.455 Q 296.902 59.415 296.55 59.303 Z  M 296.434 56.591 L 296.434 56.591 L 296.434 56.591 Q 296.086 56.48 295.875 56.609 L 295.875 56.609 L 295.875 56.609 Q 295.664 56.738 295.621 57.1 L 295.621 57.1 L 297.181 57.597 L 297.181 57.597 Q 297.177 57.218 296.98 56.96 L 296.98 56.96 L 296.98 56.96 Q 296.782 56.702 296.434 56.591 Z " fill="rgb(255,255,255)"/><path d=" M 309.543 61.151 L 309.523 61.641 L 308.693 61.345 L 308.588 63.9 L 307.863 63.642 L 307.968 61.087 L 307.409 60.887 L 307.421 60.585 L 307.989 60.586 L 307.997 60.387 L 307.997 60.387 Q 308.019 59.848 308.312 59.688 L 308.312 59.688 L 308.312 59.688 Q 308.606 59.529 309.186 59.736 L 309.186 59.736 L 309.186 59.736 Q 309.567 59.872 309.931 60.116 L 309.931 60.116 L 309.721 60.539 L 309.721 60.539 Q 309.457 60.366 309.214 60.28 L 309.214 60.28 L 309.214 60.28 Q 308.968 60.192 308.85 60.288 L 308.85 60.288 L 308.85 60.288 Q 308.733 60.385 308.721 60.657 L 308.721 60.657 L 308.713 60.855 L 309.543 61.151 Z  M 313.072 63.949 L 313.072 63.949 L 313.072 63.949 Q 313.042 64.695 312.597 64.961 L 312.597 64.961 L 312.597 64.961 Q 312.153 65.228 311.391 64.956 L 311.391 64.956 L 311.391 64.956 Q 310.915 64.786 310.557 64.463 L 310.557 64.463 L 310.557 64.463 Q 310.199 64.14 310.018 63.709 L 310.018 63.709 L 310.018 63.709 Q 309.836 63.278 309.855 62.802 L 309.855 62.802 L 309.855 62.802 Q 309.886 62.061 310.327 61.797 L 310.327 61.797 L 310.327 61.797 Q 310.768 61.532 311.539 61.807 L 311.539 61.807 L 311.539 61.807 Q 312.276 62.07 312.689 62.649 L 312.689 62.649 L 312.689 62.649 Q 313.102 63.228 313.072 63.949 Z  M 310.599 63.067 L 310.599 63.067 L 310.599 63.067 Q 310.555 64.121 311.425 64.432 L 311.425 64.432 L 311.425 64.432 Q 312.285 64.738 312.329 63.684 L 312.329 63.684 L 312.329 63.684 Q 312.372 62.64 311.505 62.331 L 311.505 62.331 L 311.505 62.331 Q 311.05 62.169 310.835 62.366 L 310.835 62.366 L 310.835 62.366 Q 310.62 62.563 310.599 63.067 Z  M 314.737 61.746 L 314.561 66.03 L 313.839 65.773 L 314.015 61.489 L 314.737 61.746 Z  M 316.441 63.611 L 316.315 66.656 L 315.593 66.399 L 315.718 63.354 L 316.441 63.611 Z  M 315.709 62.532 L 315.709 62.532 L 315.709 62.532 Q 315.716 62.358 315.826 62.302 L 315.826 62.302 L 315.826 62.302 Q 315.935 62.246 316.132 62.317 L 316.132 62.317 L 316.132 62.317 Q 316.323 62.385 316.425 62.516 L 316.425 62.516 L 316.425 62.516 Q 316.527 62.647 316.52 62.821 L 316.52 62.821 L 316.52 62.821 Q 316.513 62.986 316.403 63.043 L 316.403 63.043 L 316.403 63.043 Q 316.293 63.1 316.103 63.032 L 316.103 63.032 L 316.103 63.032 Q 315.906 62.962 315.804 62.83 L 315.804 62.83 L 315.804 62.83 Q 315.702 62.697 315.709 62.532 Z  M 320.425 66.571 L 320.425 66.571 L 320.425 66.571 Q 320.394 67.317 319.95 67.583 L 319.95 67.583 L 319.95 67.583 Q 319.505 67.85 318.743 67.578 L 318.743 67.578 L 318.743 67.578 Q 318.267 67.408 317.91 67.085 L 317.91 67.085 L 317.91 67.085 Q 317.552 66.762 317.37 66.331 L 317.37 66.331 L 317.37 66.331 Q 317.188 65.9 317.208 65.424 L 317.208 65.424 L 317.208 65.424 Q 317.238 64.683 317.679 64.419 L 317.679 64.419 L 317.679 64.419 Q 318.12 64.154 318.892 64.429 L 318.892 64.429 L 318.892 64.429 Q 319.629 64.692 320.042 65.271 L 320.042 65.271 L 320.042 65.271 Q 320.454 65.85 320.425 66.571 Z  M 317.951 65.689 L 317.951 65.689 L 317.951 65.689 Q 317.908 66.744 318.777 67.054 L 318.777 67.054 L 318.777 67.054 Q 319.638 67.36 319.681 66.306 L 319.681 66.306 L 319.681 66.306 Q 319.724 65.262 318.858 64.954 L 318.858 64.954 L 318.858 64.954 Q 318.403 64.791 318.187 64.988 L 318.187 64.988 L 318.187 64.988 Q 317.972 65.185 317.951 65.689 Z " fill="rgb(255,255,255)"/><path d=" M 339.816 74.728 L 339.816 74.728 L 339.816 74.728 Q 339.792 75.173 339.418 75.278 L 339.418 75.278 L 339.418 75.278 Q 339.045 75.382 338.372 75.133 L 338.372 75.133 L 338.372 75.133 Q 337.696 74.882 337.296 74.546 L 337.296 74.546 L 337.325 73.987 L 337.325 73.987 Q 337.909 74.456 338.423 74.646 L 338.423 74.646 L 338.423 74.646 Q 339.086 74.892 339.106 74.532 L 339.106 74.532 L 339.106 74.532 Q 339.112 74.416 339.042 74.312 L 339.042 74.312 L 339.042 74.312 Q 338.973 74.208 338.809 74.063 L 338.809 74.063 L 338.809 74.063 Q 338.646 73.918 338.351 73.702 L 338.351 73.702 L 338.351 73.702 Q 337.778 73.282 337.582 73.002 L 337.582 73.002 L 337.582 73.002 Q 337.387 72.722 337.404 72.398 L 337.404 72.398 L 337.404 72.398 Q 337.425 72.007 337.787 71.921 L 337.787 71.921 L 337.787 71.921 Q 338.148 71.834 338.751 72.058 L 338.751 72.058 L 338.751 72.058 Q 339.348 72.279 339.868 72.693 L 339.868 72.693 L 339.61 73.094 L 339.61 73.094 Q 339.073 72.688 338.7 72.549 L 338.7 72.549 L 338.7 72.549 Q 338.131 72.339 338.115 72.63 L 338.115 72.63 L 338.115 72.63 Q 338.108 72.773 338.251 72.927 L 338.251 72.927 L 338.251 72.927 Q 338.394 73.081 338.883 73.439 L 338.883 73.439 L 338.883 73.439 Q 339.294 73.74 339.478 73.932 L 339.478 73.932 L 339.478 73.932 Q 339.661 74.123 339.744 74.315 L 339.744 74.315 L 339.744 74.315 Q 339.827 74.507 339.816 74.728 Z  M 342.021 76.485 L 342.021 76.485 L 342.021 76.485 Q 341.232 76.192 340.809 75.613 L 340.809 75.613 L 340.809 75.613 Q 340.386 75.034 340.425 74.308 L 340.425 74.308 L 340.425 74.308 Q 340.464 73.562 340.9 73.289 L 340.9 73.289 L 340.9 73.289 Q 341.336 73.015 342.058 73.283 L 342.058 73.283 L 342.058 73.283 Q 342.728 73.531 343.096 74.041 L 343.096 74.041 L 343.096 74.041 Q 343.465 74.55 343.431 75.192 L 343.431 75.192 L 343.413 75.541 L 341.158 74.706 L 341.158 74.706 Q 341.15 75.155 341.388 75.485 L 341.388 75.485 L 341.388 75.485 Q 341.626 75.816 342.082 75.985 L 342.082 75.985 L 342.082 75.985 Q 342.382 76.096 342.643 76.141 L 342.643 76.141 L 342.643 76.141 Q 342.904 76.186 343.207 76.178 L 343.207 76.178 L 343.179 76.703 L 343.179 76.703 Q 342.91 76.719 342.638 76.666 L 342.638 76.666 L 342.638 76.666 Q 342.367 76.613 342.021 76.485 Z  M 342.032 73.772 L 342.032 73.772 L 342.032 73.772 Q 341.689 73.645 341.472 73.764 L 341.472 73.764 L 341.472 73.764 Q 341.255 73.883 341.195 74.243 L 341.195 74.243 L 342.731 74.811 L 342.731 74.811 Q 342.745 74.432 342.56 74.166 L 342.56 74.166 L 342.56 74.166 Q 342.374 73.899 342.032 73.772 Z  M 346.037 74.757 L 346.037 74.757 L 346.037 74.757 Q 346.254 74.837 346.394 74.917 L 346.394 74.917 L 346.291 75.493 L 346.291 75.493 Q 346.14 75.404 345.975 75.343 L 345.975 75.343 L 345.975 75.343 Q 345.544 75.183 345.262 75.337 L 345.262 75.337 L 345.262 75.337 Q 344.981 75.491 344.96 75.895 L 344.96 75.895 L 344.875 77.486 L 344.156 77.219 L 344.318 74.176 L 344.881 74.385 L 344.947 74.956 L 344.984 74.97 L 344.984 74.97 Q 345.167 74.76 345.446 74.701 L 345.446 74.701 L 345.446 74.701 Q 345.725 74.641 346.037 74.757 Z  M 348.405 78.793 L 347.628 78.506 L 346.505 74.986 L 347.264 75.267 L 347.858 77.292 L 347.858 77.292 Q 348.011 77.803 348.034 78.092 L 348.034 78.092 L 348.058 78.101 L 348.058 78.101 Q 348.096 77.913 348.311 77.459 L 348.311 77.459 L 349.093 75.945 L 349.858 76.228 L 348.405 78.793 Z  M 351.091 76.685 L 350.928 79.728 L 350.209 79.462 L 350.372 76.419 L 351.091 76.685 Z  M 350.372 75.597 L 350.372 75.597 L 350.372 75.597 Q 350.381 75.423 350.492 75.369 L 350.492 75.369 L 350.492 75.369 Q 350.602 75.314 350.798 75.387 L 350.798 75.387 L 350.798 75.387 Q 350.988 75.457 351.088 75.59 L 351.088 75.59 L 351.088 75.59 Q 351.189 75.722 351.18 75.896 L 351.18 75.896 L 351.18 75.896 Q 351.171 76.061 351.06 76.117 L 351.06 76.117 L 351.06 76.117 Q 350.95 76.173 350.76 76.102 L 350.76 76.102 L 350.76 76.102 Q 350.564 76.03 350.464 75.896 L 350.464 75.896 L 350.464 75.896 Q 350.363 75.762 350.372 75.597 Z  M 353.317 80.669 L 353.317 80.669 L 353.317 80.669 Q 352.55 80.385 352.172 79.834 L 352.172 79.834 L 352.172 79.834 Q 351.794 79.283 351.834 78.529 L 351.834 78.529 L 351.834 78.529 Q 351.875 77.761 352.315 77.503 L 352.315 77.503 L 352.315 77.503 Q 352.755 77.245 353.544 77.538 L 353.544 77.538 L 353.544 77.538 Q 354.079 77.736 354.498 78.074 L 354.498 78.074 L 354.253 78.513 L 354.253 78.513 Q 353.806 78.185 353.509 78.075 L 353.509 78.075 L 353.509 78.075 Q 352.631 77.75 352.575 78.798 L 352.575 78.798 L 352.575 78.798 Q 352.548 79.31 352.753 79.648 L 352.753 79.648 L 352.753 79.648 Q 352.958 79.986 353.38 80.143 L 353.38 80.143 L 353.38 80.143 Q 353.86 80.321 354.3 80.265 L 354.3 80.265 L 354.27 80.829 L 354.27 80.829 Q 354.072 80.859 353.85 80.822 L 353.85 80.822 L 353.85 80.822 Q 353.629 80.785 353.317 80.669 Z  M 356.532 81.86 L 356.532 81.86 L 356.532 81.86 Q 355.743 81.568 355.32 80.989 L 355.32 80.989 L 355.32 80.989 Q 354.897 80.41 354.936 79.684 L 354.936 79.684 L 354.936 79.684 Q 354.976 78.938 355.411 78.665 L 355.411 78.665 L 355.411 78.665 Q 355.847 78.391 356.569 78.658 L 356.569 78.658 L 356.569 78.658 Q 357.239 78.907 357.608 79.417 L 357.608 79.417 L 357.608 79.417 Q 357.977 79.926 357.943 80.567 L 357.943 80.567 L 357.924 80.917 L 355.67 80.082 L 355.67 80.082 Q 355.661 80.53 355.899 80.861 L 355.899 80.861 L 355.899 80.861 Q 356.137 81.192 356.593 81.361 L 356.593 81.361 L 356.593 81.361 Q 356.893 81.472 357.154 81.517 L 357.154 81.517 L 357.154 81.517 Q 357.415 81.562 357.718 81.554 L 357.718 81.554 L 357.69 82.079 L 357.69 82.079 Q 357.421 82.094 357.15 82.041 L 357.15 82.041 L 357.15 82.041 Q 356.878 81.989 356.532 81.86 Z  M 356.543 79.148 L 356.543 79.148 L 356.543 79.148 Q 356.2 79.021 355.983 79.14 L 355.983 79.14 L 355.983 79.14 Q 355.766 79.259 355.707 79.619 L 355.707 79.619 L 357.242 80.187 L 357.242 80.187 Q 357.256 79.808 357.071 79.542 L 357.071 79.542 L 357.071 79.542 Q 356.885 79.275 356.543 79.148 Z  M 360.986 82.571 L 360.986 82.571 L 360.986 82.571 Q 360.962 83.016 360.589 83.121 L 360.589 83.121 L 360.589 83.121 Q 360.215 83.225 359.542 82.976 L 359.542 82.976 L 359.542 82.976 Q 358.866 82.725 358.466 82.389 L 358.466 82.389 L 358.496 81.83 L 358.496 81.83 Q 359.079 82.299 359.593 82.489 L 359.593 82.489 L 359.593 82.489 Q 360.257 82.735 360.276 82.375 L 360.276 82.375 L 360.276 82.375 Q 360.282 82.259 360.213 82.155 L 360.213 82.155 L 360.213 82.155 Q 360.144 82.051 359.98 81.906 L 359.98 81.906 L 359.98 81.906 Q 359.816 81.761 359.522 81.545 L 359.522 81.545 L 359.522 81.545 Q 358.948 81.125 358.753 80.845 L 358.753 80.845 L 358.753 80.845 Q 358.557 80.565 358.575 80.24 L 358.575 80.24 L 358.575 80.24 Q 358.595 79.85 358.957 79.763 L 358.957 79.763 L 358.957 79.763 Q 359.319 79.677 359.921 79.9 L 359.921 79.9 L 359.921 79.9 Q 360.518 80.121 361.039 80.536 L 361.039 80.536 L 360.78 80.937 L 360.78 80.937 Q 360.243 80.53 359.87 80.392 L 359.87 80.392 L 359.87 80.392 Q 359.301 80.181 359.286 80.473 L 359.286 80.473 L 359.286 80.473 Q 359.278 80.616 359.421 80.77 L 359.421 80.77 L 359.421 80.77 Q 359.564 80.924 360.054 81.282 L 360.054 81.282 L 360.054 81.282 Q 360.465 81.583 360.648 81.775 L 360.648 81.775 L 360.648 81.775 Q 360.831 81.966 360.915 82.158 L 360.915 82.158 L 360.915 82.158 Q 360.998 82.35 360.986 82.571 Z " fill="rgb(255,255,255)"/><path d=" M 381.569 90.228 L 381.569 90.228 L 381.569 90.228 Q 380.926 89.994 380.589 89.45 L 380.589 89.45 L 380.547 89.434 L 380.547 89.434 Q 380.571 89.835 380.567 89.917 L 380.567 89.917 L 380.509 91.164 L 379.788 90.903 L 379.995 86.504 L 380.578 86.716 L 380.578 86.716 Q 380.598 86.81 380.66 87.16 L 380.66 87.16 L 380.696 87.173 L 380.696 87.173 Q 381.055 86.833 381.73 87.078 L 381.73 87.078 L 381.73 87.078 Q 382.365 87.309 382.699 87.85 L 382.699 87.85 L 382.699 87.85 Q 383.034 88.392 382.999 89.138 L 382.999 89.138 L 382.999 89.138 Q 382.964 89.884 382.584 90.171 L 382.584 90.171 L 382.584 90.171 Q 382.204 90.459 381.569 90.228 Z  M 381.518 87.539 L 381.518 87.539 L 381.518 87.539 Q 381.089 87.383 380.88 87.537 L 380.88 87.537 L 380.88 87.537 Q 380.672 87.691 380.649 88.186 L 380.649 88.186 L 380.644 88.283 L 380.644 88.283 Q 380.618 88.839 380.803 89.159 L 380.803 89.159 L 380.803 89.159 Q 380.987 89.479 381.432 89.641 L 381.432 89.641 L 381.432 89.641 Q 381.806 89.777 382.021 89.575 L 382.021 89.575 L 382.021 89.575 Q 382.236 89.373 382.26 88.864 L 382.26 88.864 L 382.26 88.864 Q 382.284 88.352 382.096 88.016 L 382.096 88.016 L 382.096 88.016 Q 381.907 87.68 381.518 87.539 Z  M 385.63 88.495 L 385.63 88.495 L 385.63 88.495 Q 385.848 88.574 385.987 88.653 L 385.987 88.653 L 385.888 89.23 L 385.888 89.23 Q 385.737 89.141 385.571 89.081 L 385.571 89.081 L 385.571 89.081 Q 385.139 88.924 384.859 89.08 L 384.859 89.08 L 384.859 89.08 Q 384.578 89.236 384.559 89.64 L 384.559 89.64 L 384.485 91.231 L 383.764 90.97 L 383.907 87.925 L 384.471 88.13 L 384.541 88.702 L 384.578 88.715 L 384.578 88.715 Q 384.759 88.504 385.038 88.443 L 385.038 88.443 L 385.038 88.443 Q 385.317 88.382 385.63 88.495 Z  M 387.335 89.171 L 387.192 92.215 L 386.471 91.953 L 386.615 88.909 L 387.335 89.171 Z  M 386.61 88.087 L 386.61 88.087 L 386.61 88.087 Q 386.618 87.913 386.728 87.858 L 386.728 87.858 L 386.728 87.858 Q 386.838 87.803 387.034 87.874 L 387.034 87.874 L 387.034 87.874 Q 387.224 87.943 387.326 88.075 L 387.326 88.075 L 387.326 88.075 Q 387.427 88.207 387.419 88.381 L 387.419 88.381 L 387.419 88.381 Q 387.411 88.546 387.301 88.603 L 387.301 88.603 L 387.301 88.603 Q 387.191 88.659 387.001 88.59 L 387.001 88.59 L 387.001 88.59 Q 386.804 88.519 386.703 88.385 L 386.703 88.385 L 386.703 88.385 Q 386.602 88.252 386.61 88.087 Z  M 389.587 93.141 L 389.587 93.141 L 389.587 93.141 Q 388.817 92.861 388.436 92.313 L 388.436 92.313 L 388.436 92.313 Q 388.055 91.764 388.091 91.01 L 388.091 91.01 L 388.091 91.01 Q 388.127 90.242 388.565 89.981 L 388.565 89.981 L 388.565 89.981 Q 389.002 89.72 389.794 90.008 L 389.794 90.008 L 389.794 90.008 Q 390.33 90.203 390.751 90.537 L 390.751 90.537 L 390.509 90.979 L 390.509 90.979 Q 390.059 90.653 389.762 90.545 L 389.762 90.545 L 389.762 90.545 Q 388.882 90.225 388.833 91.274 L 388.833 91.274 L 388.833 91.274 Q 388.809 91.786 389.016 92.123 L 389.016 92.123 L 389.016 92.123 Q 389.223 92.46 389.646 92.614 L 389.646 92.614 L 389.646 92.614 Q 390.127 92.789 390.567 92.73 L 390.567 92.73 L 390.54 93.294 L 390.54 93.294 Q 390.342 93.326 390.121 93.29 L 390.121 93.29 L 390.121 93.29 Q 389.9 93.254 389.587 93.141 Z  M 392.809 94.311 L 392.809 94.311 L 392.809 94.311 Q 392.018 94.024 391.592 93.448 L 391.592 93.448 L 391.592 93.448 Q 391.165 92.872 391.199 92.145 L 391.199 92.145 L 391.199 92.145 Q 391.234 91.399 391.668 91.123 L 391.668 91.123 L 391.668 91.123 Q 392.102 90.846 392.826 91.109 L 392.826 91.109 L 392.826 91.109 Q 393.497 91.353 393.869 91.861 L 393.869 91.861 L 393.869 91.861 Q 394.242 92.368 394.211 93.01 L 394.211 93.01 L 394.195 93.359 L 391.935 92.538 L 391.935 92.538 Q 391.93 92.987 392.17 93.316 L 392.17 93.316 L 392.17 93.316 Q 392.41 93.646 392.867 93.812 L 392.867 93.812 L 392.867 93.812 Q 393.168 93.921 393.429 93.964 L 393.429 93.964 L 393.429 93.964 Q 393.691 94.007 393.994 93.997 L 393.994 93.997 L 393.969 94.523 L 393.969 94.523 Q 393.7 94.54 393.428 94.489 L 393.428 94.489 L 393.428 94.489 Q 393.156 94.437 392.809 94.311 Z  M 392.803 91.599 L 392.803 91.599 L 392.803 91.599 Q 392.459 91.474 392.243 91.595 L 392.243 91.595 L 392.243 91.595 Q 392.027 91.715 391.97 92.075 L 391.97 92.075 L 393.509 92.634 L 393.509 92.634 Q 393.52 92.255 393.333 91.989 L 393.333 91.989 L 393.333 91.989 Q 393.146 91.724 392.803 91.599 Z  M 397.268 94.993 L 397.268 94.993 L 397.268 94.993 Q 397.247 95.439 396.874 95.546 L 396.874 95.546 L 396.874 95.546 Q 396.501 95.652 395.826 95.407 L 395.826 95.407 L 395.826 95.407 Q 395.149 95.161 394.747 94.828 L 394.747 94.828 L 394.773 94.269 L 394.773 94.269 Q 395.359 94.734 395.874 94.921 L 395.874 94.921 L 395.874 94.921 Q 396.539 95.163 396.556 94.802 L 396.556 94.802 L 396.556 94.802 Q 396.562 94.686 396.492 94.583 L 396.492 94.583 L 396.492 94.583 Q 396.422 94.479 396.257 94.335 L 396.257 94.335 L 396.257 94.335 Q 396.092 94.191 395.797 93.977 L 395.797 93.977 L 395.797 93.977 Q 395.221 93.561 395.023 93.282 L 395.023 93.282 L 395.023 93.282 Q 394.826 93.003 394.841 92.679 L 394.841 92.679 L 394.841 92.679 Q 394.86 92.288 395.221 92.199 L 395.221 92.199 L 395.221 92.199 Q 395.582 92.111 396.186 92.33 L 396.186 92.33 L 396.186 92.33 Q 396.784 92.547 397.307 92.958 L 397.307 92.958 L 397.051 93.361 L 397.051 93.361 Q 396.512 92.958 396.138 92.822 L 396.138 92.822 L 396.138 92.822 Q 395.568 92.615 395.554 92.907 L 395.554 92.907 L 395.554 92.907 Q 395.547 93.05 395.691 93.203 L 395.691 93.203 L 395.691 93.203 Q 395.835 93.356 396.327 93.711 L 396.327 93.711 L 396.327 93.711 Q 396.74 94.009 396.925 94.2 L 396.925 94.2 L 396.925 94.2 Q 397.109 94.39 397.194 94.581 L 397.194 94.581 L 397.194 94.581 Q 397.278 94.773 397.268 94.993 Z " fill="rgb(255,255,255)"/><path d=" M 417.292 103.593 L 417.292 103.593 L 417.292 103.593 Q 416.522 103.315 416.14 102.767 L 416.14 102.767 L 416.14 102.767 Q 415.758 102.219 415.792 101.465 L 415.792 101.465 L 415.792 101.465 Q 415.826 100.697 416.264 100.435 L 416.264 100.435 L 416.264 100.435 Q 416.701 100.174 417.493 100.46 L 417.493 100.46 L 417.493 100.46 Q 418.03 100.653 418.451 100.987 L 418.451 100.987 L 418.21 101.429 L 418.21 101.429 Q 417.76 101.104 417.462 100.997 L 417.462 100.997 L 417.462 100.997 Q 416.582 100.679 416.535 101.728 L 416.535 101.728 L 416.535 101.728 Q 416.512 102.24 416.719 102.576 L 416.719 102.576 L 416.719 102.576 Q 416.927 102.913 417.351 103.066 L 417.351 103.066 L 417.351 103.066 Q 417.832 103.24 418.271 103.18 L 418.271 103.18 L 418.246 103.744 L 418.246 103.744 Q 418.048 103.776 417.827 103.741 L 417.827 103.741 L 417.827 103.741 Q 417.605 103.706 417.292 103.593 Z  M 422.116 103.726 L 422.116 103.726 L 422.116 103.726 Q 422.083 104.472 421.637 104.737 L 421.637 104.737 L 421.637 104.737 Q 421.192 105.001 420.431 104.726 L 420.431 104.726 L 420.431 104.726 Q 419.956 104.555 419.599 104.23 L 419.599 104.23 L 419.599 104.23 Q 419.243 103.906 419.063 103.474 L 419.063 103.474 L 419.063 103.474 Q 418.883 103.043 418.904 102.566 L 418.904 102.566 L 418.904 102.566 Q 418.937 101.826 419.379 101.563 L 419.379 101.563 L 419.379 101.563 Q 419.822 101.3 420.592 101.578 L 420.592 101.578 L 420.592 101.578 Q 421.328 101.844 421.738 102.425 L 421.738 102.425 L 421.738 102.425 Q 422.149 103.005 422.116 103.726 Z  M 419.646 102.835 L 419.646 102.835 L 419.646 102.835 Q 419.599 103.889 420.467 104.202 L 420.467 104.202 L 420.467 104.202 Q 421.326 104.512 421.374 103.458 L 421.374 103.458 L 421.374 103.458 Q 421.421 102.415 420.556 102.103 L 420.556 102.103 L 420.556 102.103 Q 420.102 101.939 419.885 102.135 L 419.885 102.135 L 419.885 102.135 Q 419.669 102.331 419.646 102.835 Z  M 425.951 104.646 L 425.861 106.631 L 425.137 106.37 L 425.221 104.498 L 425.221 104.498 Q 425.237 104.145 425.087 103.915 L 425.087 103.915 L 425.087 103.915 Q 424.937 103.684 424.593 103.56 L 424.593 103.56 L 424.593 103.56 Q 424.136 103.395 423.914 103.561 L 423.914 103.561 L 423.914 103.561 Q 423.691 103.727 423.665 104.297 L 423.665 104.297 L 423.597 105.813 L 422.876 105.553 L 423.013 102.509 L 423.578 102.712 L 423.661 103.148 L 423.698 103.161 L 423.698 103.161 Q 423.861 102.999 424.148 102.983 L 424.148 102.983 L 424.148 102.983 Q 424.436 102.966 424.78 103.091 L 424.78 103.091 L 424.78 103.091 Q 426.001 103.531 425.951 104.646 L 425.951 104.646 Z  M 428.15 106.982 L 428.15 106.982 L 428.15 106.982 Q 428.414 107.077 428.681 107.098 L 428.681 107.098 L 428.659 107.585 L 428.659 107.585 Q 428.537 107.589 428.347 107.552 L 428.347 107.552 L 428.347 107.552 Q 428.157 107.516 427.954 107.443 L 427.954 107.443 L 427.954 107.443 Q 426.93 107.073 426.973 106.104 L 426.973 106.104 L 427.047 104.463 L 426.584 104.296 L 426.597 104.01 L 427.104 103.952 L 427.379 103.397 L 427.824 103.557 L 427.793 104.235 L 428.76 104.584 L 428.738 105.074 L 427.771 104.725 L 427.698 106.354 L 427.698 106.354 Q 427.687 106.588 427.813 106.747 L 427.813 106.747 L 427.813 106.747 Q 427.938 106.905 428.15 106.982 Z  M 431.973 108.838 L 431.458 108.652 L 431.333 108.176 L 431.308 108.167 L 431.308 108.167 Q 431.05 108.356 430.797 108.367 L 430.797 108.367 L 430.797 108.367 Q 430.544 108.378 430.154 108.237 L 430.154 108.237 L 430.154 108.237 Q 429.654 108.056 429.384 107.713 L 429.384 107.713 L 429.384 107.713 Q 429.114 107.369 429.134 106.926 L 429.134 106.926 L 429.134 106.926 Q 429.156 106.455 429.556 106.357 L 429.556 106.357 L 429.556 106.357 Q 429.957 106.258 430.755 106.524 L 430.755 106.524 L 431.342 106.719 L 431.349 106.556 L 431.349 106.556 Q 431.362 106.265 431.217 106.065 L 431.217 106.065 L 431.217 106.065 Q 431.072 105.866 430.753 105.751 L 430.753 105.751 L 430.753 105.751 Q 430.492 105.657 430.249 105.639 L 430.249 105.639 L 430.249 105.639 Q 430.007 105.621 429.782 105.635 L 429.782 105.635 L 429.57 105.089 L 429.57 105.089 Q 429.852 105.059 430.183 105.11 L 430.183 105.11 L 430.183 105.11 Q 430.514 105.161 430.806 105.266 L 430.806 105.266 L 430.806 105.266 Q 431.453 105.5 431.771 105.872 L 431.771 105.872 L 431.771 105.872 Q 432.09 106.245 432.065 106.787 L 432.065 106.787 L 431.973 108.838 Z  M 430.404 107.823 L 430.404 107.823 L 430.404 107.823 Q 430.796 107.965 431.043 107.854 L 431.043 107.854 L 431.043 107.854 Q 431.29 107.743 431.306 107.388 L 431.306 107.388 L 431.318 107.124 L 430.881 106.983 L 430.881 106.983 Q 430.371 106.816 430.133 106.868 L 430.133 106.868 L 430.133 106.868 Q 429.895 106.921 429.883 107.202 L 429.883 107.202 L 429.883 107.202 Q 429.874 107.406 430.004 107.566 L 430.004 107.566 L 430.004 107.566 Q 430.134 107.726 430.404 107.823 Z  M 434.345 109.75 L 434.345 109.75 L 434.345 109.75 Q 433.575 109.472 433.193 108.924 L 433.193 108.924 L 433.193 108.924 Q 432.811 108.376 432.845 107.622 L 432.845 107.622 L 432.845 107.622 Q 432.879 106.854 433.317 106.593 L 433.317 106.593 L 433.317 106.593 Q 433.754 106.331 434.546 106.617 L 434.546 106.617 L 434.546 106.617 Q 435.083 106.811 435.504 107.145 L 435.504 107.145 L 435.263 107.586 L 435.263 107.586 Q 434.813 107.261 434.515 107.154 L 434.515 107.154 L 434.515 107.154 Q 433.635 106.836 433.587 107.885 L 433.587 107.885 L 433.587 107.885 Q 433.564 108.397 433.772 108.733 L 433.772 108.733 L 433.772 108.733 Q 433.98 109.07 434.403 109.223 L 434.403 109.223 L 434.403 109.223 Q 434.885 109.397 435.324 109.337 L 435.324 109.337 L 435.299 109.901 L 435.299 109.901 Q 435.101 109.934 434.88 109.898 L 434.88 109.898 L 434.88 109.898 Q 434.658 109.863 434.345 109.75 Z  M 437.376 110.313 L 437.376 110.313 L 437.376 110.313 Q 437.64 110.408 437.907 110.429 L 437.907 110.429 L 437.885 110.916 L 437.885 110.916 Q 437.763 110.92 437.573 110.883 L 437.573 110.883 L 437.573 110.883 Q 437.383 110.847 437.18 110.774 L 437.18 110.774 L 437.18 110.774 Q 436.156 110.404 436.199 109.435 L 436.199 109.435 L 436.273 107.794 L 435.81 107.627 L 435.823 107.341 L 436.33 107.283 L 436.605 106.728 L 437.05 106.889 L 437.019 107.566 L 437.986 107.915 L 437.964 108.405 L 436.997 108.056 L 436.924 109.685 L 436.924 109.685 Q 436.913 109.919 437.039 110.078 L 437.039 110.078 L 437.039 110.078 Q 437.164 110.236 437.376 110.313 Z " fill="rgb(255,255,255)"/></g><g style="isolation:isolate" filter="url(#wKRx3hq0Dmwn7xmYczOMnvL1qeDlpIEx)"><path d=" M 637.629 527.039 L 546.686 493.938 L 546.686 394.635 L 637.629 427.736 L 637.629 527.039 Z " fill="rgb(183,180,94)"/><linearGradient id="_lgradient_28" x1="-0.0031250000000007383" y1="0.6979389271824985" x2="1.0281249999999995" y2="0.3485314727518563" gradientTransform="matrix(145.51,0,0,152.264,401.175,394.635)" gradientUnits="userSpaceOnUse"><stop offset="1.3043478260869565%" stop-opacity="1" style="stop-color:rgb(189,186,97)"/><stop offset="97.3913043478261%" stop-opacity="1" style="stop-color:rgb(238,234,122)"/></linearGradient><path d=" M 401.175 546.899 L 546.686 493.938 L 546.686 394.635 L 401.175 447.596 L 401.175 546.899 Z " fill="url(#_lgradient_28)"/><g style="isolation:isolate"><g><path d=" M 536.892 318.21 L 683.274 344.905 L 656.579 491.286 L 510.197 464.591 L 536.892 318.21 Z " fill="none"/><path d=" M 623.933 465.358 L 585.095 468.575 L 549.892 451.855 L 558.227 357.746 L 649.356 374.365 L 623.933 465.358 Z " fill="rgb(32,98,175)"/><path d=" M 602.424 373.552 L 586.545 460.624 L 586.624 460.662 L 618.054 458.059 L 639.382 380.292 L 602.424 373.552 L 602.424 373.552 Z " fill="rgb(60,156,215)"/><path d=" M 598.171 396.687 L 569.661 402.89 L 568.548 413.976 L 596.163 407.695 L 625.539 401.013 L 628.707 390.043 L 598.171 396.687 Z " fill="rgb(255,255,255)"/><linearGradient id="_lgradient_29" x1="0.5" y1="1.0000123760844555" x2="0.5000000000000001" y2="0.00001237608445325833" gradientTransform="matrix(26.497,4.832,-4.005,21.961,571.674,391.855)" gradientUnits="userSpaceOnUse"><stop offset="38.7%" stop-opacity="0" style="stop-color:rgb(209,211,212)"/><stop offset="100%" stop-opacity="1" style="stop-color:rgb(209,211,212)"/></linearGradient><path d=" M 569.661 402.89 L 568.547 413.976 L 596.163 407.695 L 598.17 396.687 L 569.661 402.89 L 569.661 402.89 Z " fill="url(#_lgradient_29)"/><linearGradient id="_lgradient_30" x1="0.4999904234739807" y1="1.0000119063210646" x2="0.49999042347398076" y2="0.000011906321067289838" gradientTransform="matrix(28.381,5.176,-4.163,22.827,600.326,384.867)" gradientUnits="userSpaceOnUse"><stop offset="38.7%" stop-opacity="0" style="stop-color:rgb(209,211,212)"/><stop offset="100%" stop-opacity="1" style="stop-color:rgb(209,211,212)"/></linearGradient><path d=" M 628.707 390.043 L 598.171 396.687 L 596.163 407.695 L 625.539 401.013 L 628.707 390.043 Z " fill="url(#_lgradient_30)"/><linearGradient id="_lgradient_31" x1="5.551115123125783e-16" y1="0.5000065584952196" x2="0.9999948470873167" y2="0.5000065584952196" gradientTransform="matrix(52.745,9.619,-7.557,41.441,569.702,402.898)" gradientUnits="userSpaceOnUse"><stop offset="0%" stop-opacity="1" style="stop-color:rgb(232,231,229)"/><stop offset="100%" stop-opacity="1" style="stop-color:rgb(255,255,255)"/></linearGradient><path d=" M 569.702 402.898 L 568.588 413.984 L 607.873 421.277 L 604.337 435.684 L 590.739 436.967 L 578.877 431.56 L 579.773 422.381 L 568.22 420.274 L 566.543 438.004 L 588.643 449.171 L 613.112 446.626 L 622.447 412.517 L 569.702 402.898 L 569.702 402.898 Z " fill="url(#_lgradient_31)"/><g opacity="0.05"><path d=" M 596.158 407.722 L 569.661 402.89 L 568.548 413.976 L 594.151 418.73 L 596.158 407.722 Z  M 590.828 436.947 L 590.696 436.96 L 578.837 431.553 L 579.732 422.374 L 568.179 420.267 L 566.503 437.997 L 588.601 449.164 L 590.828 436.947 Z " fill="rgb(0,0,0)"/></g><linearGradient id="_lgradient_32" x1="2.220446049250313e-16" y1="0.5" x2="0.9999952537353107" y2="0.5" gradientTransform="matrix(57.264,10.443,-2.038,11.177,571.443,379.6)" gradientUnits="userSpaceOnUse"><stop offset="0%" stop-opacity="1" style="stop-color:rgb(232,231,229)"/><stop offset="100%" stop-opacity="1" style="stop-color:rgb(255,255,255)"/></linearGradient><path d=" M 571.443 379.6 L 628.707 390.043 L 625.539 401.014 L 570.786 391.028 L 571.443 379.6 L 571.443 379.6 Z " fill="url(#_lgradient_32)"/><g opacity="0.05"><path d=" M 600.326 384.867 L 571.443 379.6 L 570.786 391.028 L 598.288 396.044 L 600.326 384.867 L 600.326 384.867 Z " fill="rgb(0,0,0)"/></g></g><g><path d=" M 484.543 479.73 L 472.202 390.093 L 560.395 385.867 L 556.675 476.261 L 521.035 488 L 484.543 479.73 Z " fill="rgb(228,77,38)"/><path d=" M 549.521 470.858 L 552.703 393.614 L 516.651 395.341 L 520.725 480.349 L 549.521 470.858 Z " fill="rgb(241,101,41)"/><path d=" M 517.143 406.383 L 489.494 407.708 L 494.072 440.953 L 518.78 439.769 L 518.251 428.729 L 503.642 429.429 L 502.091 418.172 L 517.71 417.424 L 517.18 406.381 L 517.143 406.383 Z  M 519.624 457.366 L 519.577 457.381 L 507.122 454.651 L 505.919 445.883 L 494.829 446.415 L 497.207 463.675 L 520.124 468.843 L 520.173 468.825 L 519.624 457.366 Z " fill="rgb(235,235,235)"/><path d=" M 518.743 439.771 L 532.339 439.119 L 531.775 453.494 L 519.619 457.407 L 520.17 468.894 L 542.505 461.536 L 543.913 427.493 L 518.251 428.723 L 518.743 439.771 Z  M 544.678 408.033 L 544.799 405.057 L 517.137 406.383 L 517.666 417.423 L 544.334 416.145 L 544.434 413.652 L 544.678 408.033 Z " fill="rgb(255,255,255)"/></g><path d=" M 422.925 440.566 C 422.987 439.405 423.201 438.434 423.564 437.658 C 423.915 436.918 424.433 436.27 425.078 435.767 C 425.714 435.297 426.442 434.968 427.215 434.8 C 428.02 434.62 428.877 434.554 429.796 434.602 C 430.624 434.641 431.443 434.797 432.228 435.066 C 433.007 435.33 433.682 435.725 434.25 436.252 C 434.819 436.779 435.254 437.459 435.556 438.292 C 435.86 439.104 435.983 440.09 435.921 441.253 C 435.862 442.366 435.638 443.309 435.25 444.084 C 434.892 444.819 434.375 445.466 433.736 445.976 C 433.116 446.464 432.402 446.797 431.598 446.978 C 430.792 447.187 429.959 447.268 429.128 447.218 C 428.209 447.17 427.365 447.004 426.584 446.713 C 425.828 446.462 425.137 446.045 424.564 445.49 C 423.996 444.939 423.562 444.259 423.258 443.45 C 422.978 442.642 422.866 441.683 422.925 440.566 Z  M 442.611 465.241 C 441.402 465.177 440.202 465.027 438.949 464.788 C 437.696 464.55 436.656 464.269 435.831 463.954 L 436.302 455.048 C 437.056 455.335 437.765 455.547 438.451 455.683 C 439.192 455.851 439.946 455.954 440.705 455.989 C 441.324 456.021 441.909 455.955 442.461 455.783 C 443.049 455.645 443.576 455.321 443.965 454.859 C 444.411 454.412 444.779 453.786 445.069 452.982 C 445.357 452.204 445.535 451.183 445.602 449.921 L 447.946 405.606 L 459.263 406.205 L 456.831 452.188 C 456.73 454.094 456.389 455.86 455.807 457.469 C 455.292 459.06 454.412 460.508 453.238 461.698 C 452.107 462.904 450.669 463.817 448.922 464.448 C 447.174 465.078 445.08 465.324 442.63 465.194 M 448.052 394.806 C 448.108 393.742 448.316 392.873 448.676 392.171 C 449.036 391.47 449.499 390.925 450.065 390.533 C 450.657 390.118 451.328 389.843 452.08 389.708 C 452.856 389.575 453.666 389.533 454.507 389.577 C 455.306 389.614 456.099 389.743 456.868 389.961 C 457.566 390.155 458.21 390.508 458.749 390.992 C 459.312 391.466 459.741 392.079 459.993 392.77 C 460.303 393.482 460.43 394.369 460.373 395.458 C 460.318 396.498 460.097 397.366 459.712 398.09 C 459.352 398.791 458.877 399.348 458.285 399.761 C 457.688 400.166 457.015 400.447 456.306 400.587 C 455.518 400.724 454.716 400.77 453.918 400.723 C 453.076 400.678 452.278 400.551 451.518 400.334 C 450.819 400.114 450.169 399.764 449.601 399.301 C 449.08 398.828 448.678 398.222 448.395 397.492 C 448.111 396.761 447.995 395.87 448.052 394.806 Z  M 497.012 437.452 C 496.897 439.629 496.4 441.514 495.501 443.103 C 494.639 444.678 493.405 446.018 491.906 447.006 C 490.388 448.017 488.577 448.741 486.469 449.175 C 484.36 449.609 482.024 449.76 479.449 449.623 C 478.087 449.551 476.828 449.436 475.672 449.278 C 474.567 449.151 473.471 448.957 472.39 448.695 C 471.361 448.441 470.373 448.142 469.424 447.793 C 468.441 447.43 467.482 447.007 466.551 446.526 L 467.046 437.177 C 468.058 437.752 469.123 438.257 470.236 438.759 L 473.628 440.054 L 476.894 440.935 C 477.879 441.153 478.879 441.293 479.886 441.353 C 480.902 441.407 481.772 441.368 482.497 441.232 C 483.226 441.071 483.821 440.817 484.28 440.545 C 484.767 440.224 485.124 439.845 485.345 439.389 C 485.59 438.937 485.731 438.435 485.757 437.922 C 485.784 437.402 485.722 436.94 485.571 436.534 C 485.448 436.106 485.132 435.655 484.563 435.179 C 484.02 434.68 483.205 434.137 482.121 433.488 L 477.821 431.078 L 473.233 428.415 C 471.965 427.528 470.923 426.595 470.111 425.534 C 469.32 424.496 468.738 423.315 468.396 422.055 C 468.044 420.747 467.916 419.217 468.009 417.456 C 468.111 415.527 468.57 413.863 469.389 412.468 C 470.202 411.054 471.351 409.863 472.734 408.998 C 474.147 408.103 475.817 407.473 477.749 407.081 C 479.705 406.687 481.858 406.554 484.209 406.678 C 486.683 406.809 489.018 407.219 491.215 407.905 C 493.412 408.591 495.655 409.566 497.947 410.832 L 494.109 418.667 C 492.274 417.678 490.519 416.853 488.844 416.194 C 487.224 415.548 485.509 415.168 483.767 415.07 C 482.234 414.989 481.105 415.203 480.387 415.71 C 479.691 416.219 479.318 416.944 479.268 417.882 C 479.242 418.378 479.304 418.854 479.456 419.233 C 479.61 419.615 479.935 420.027 480.432 420.497 C 480.931 420.922 481.638 421.405 482.55 421.948 L 486.133 423.884 L 490.761 426.432 C 492.05 427.184 493.228 428.111 494.263 429.186 C 495.218 430.191 495.953 431.383 496.423 432.688 C 496.899 434.003 497.089 435.577 496.993 437.408" fill="rgb(0,0,0)"/></g><path d=" M 401.175 447.596 L 401.175 546.899 L 492.119 580 L 492.119 480.697 L 401.175 447.596 Z " fill="rgb(183,180,94)"/><linearGradient id="_lgradient_33" x1="-0.0031250000000007383" y1="0.6979389271824985" x2="1.0281249999999995" y2="0.3485314727518563" gradientTransform="matrix(145.51,0,0,152.264,492.119,427.736)" gradientUnits="userSpaceOnUse"><stop offset="2.1739130434782608%" stop-opacity="1" style="stop-color:rgb(189,186,97)"/><stop offset="97.82608695652173%" stop-opacity="1" style="stop-color:rgb(255,250,107)"/></linearGradient><path d=" M 492.119 580 L 637.629 527.039 L 637.629 427.736 L 492.119 480.697 L 492.119 580 Z " fill="url(#_lgradient_33)"/><path d=" M 443.278 481.884 C 444.987 480.916 447.166 480.912 448.833 481.884 L 474.351 496.269 C 475.947 497.166 477.015 498.946 477 500.785 L 477 529.627 C 477.011 531.544 475.838 533.362 474.154 534.242 L 448.773 548.561 C 447.005 549.538 444.846 549.478 443.135 548.405 L 435.519 544.004 C 434.999 543.694 434.416 543.448 434.049 542.946 C 434.373 542.51 434.95 542.455 435.42 542.262 C 436.48 541.925 437.45 541.408 438.424 540.861 C 438.67 540.69 438.971 540.754 439.206 540.908 L 445.701 544.664 C 446.164 544.931 446.634 544.578 447.032 544.354 L 471.954 530.29 C 472.261 530.14 472.432 529.815 472.406 529.478 L 472.406 500.914 C 472.441 500.529 472.221 500.179 471.872 500.023 L 446.555 485.766 C 446.257 485.559 445.862 485.559 445.562 485.764 L 420.281 500.05 C 419.94 500.206 419.705 500.552 419.747 500.937 L 419.747 529.501 C 419.717 529.839 419.897 530.157 420.207 530.303 L 426.962 534.116 C 428.231 534.8 429.789 535.184 431.186 534.682 C 432.438 534.21 433.265 533.01 433.26 531.672 L 433.267 503.279 C 433.237 502.858 433.634 502.509 434.042 502.552 L 437.29 502.552 C 437.717 502.541 438.052 502.994 437.995 503.417 L 437.988 531.99 C 437.99 534.528 436.948 537.289 434.6 538.534 C 431.707 540.03 428.131 539.716 425.272 538.278 L 418.008 534.261 C 416.299 533.407 415.152 531.561 415.162 529.647 L 415.162 500.805 C 415.177 498.896 416.225 497.145 417.901 496.23 L 443.278 481.884 Z  M 450.636 501.877 C 454.326 501.663 458.276 501.736 461.596 503.554 C 464.166 504.947 465.591 507.87 465.638 510.728 C 465.566 511.113 465.164 511.327 464.796 511.299 C 463.728 511.297 462.656 511.314 461.583 511.292 C 461.128 511.309 460.865 510.891 460.808 510.489 C 460.5 509.122 459.754 507.769 458.468 507.109 C 456.494 506.12 454.204 506.169 452.05 506.191 C 450.478 506.276 448.788 506.411 447.457 507.334 C 446.432 508.034 446.124 509.47 446.489 510.585 C 446.831 511.403 447.777 511.666 448.549 511.91 C 452.997 513.072 457.708 512.978 462.072 514.489 C 463.878 515.112 465.645 516.326 466.264 518.217 C 467.072 520.75 466.719 523.78 464.918 525.814 C 463.457 527.489 461.329 528.378 459.203 528.895 C 456.377 529.525 453.445 529.54 450.576 529.258 C 447.878 528.95 445.071 528.241 442.988 526.404 C 441.206 524.857 440.338 522.447 440.424 520.122 C 440.445 519.729 440.836 519.456 441.214 519.488 L 444.419 519.488 C 444.851 519.458 445.167 519.83 445.188 520.236 C 445.387 521.517 445.876 522.906 447.013 523.654 C 449.205 525.068 451.954 524.97 454.462 525.011 C 456.541 524.919 458.874 524.891 460.573 523.515 C 461.47 522.731 461.733 521.421 461.491 520.293 C 461.229 519.34 460.209 518.898 459.355 518.584 C 454.964 517.195 450.2 517.7 445.853 516.127 C 444.088 515.503 442.381 514.324 441.704 512.51 C 440.757 509.946 441.191 506.77 443.184 504.804 C 445.107 502.849 447.927 502.095 450.598 501.826 L 450.636 501.877 Z " fill="rgb(93,134,49)"/></g><defs><filter id="wKRx3hq0Dmwn7xmYczOMnvL1qeDlpIEx" x="-200%" y="-200%" width="400%" height="400%" filterUnits="objectBoundingBox" color-interpolation-filters="sRGB"><feGaussianBlur xmlns="http://www.w3.org/2000/svg" in="SourceGraphic" stdDeviation="8.587218125678056"/><feOffset xmlns="http://www.w3.org/2000/svg" dx="0" dy="10" result="pf_100_offsetBlur"/><feFlood xmlns="http://www.w3.org/2000/svg" flood-color="#000000" flood-opacity="0.25"/><feComposite xmlns="http://www.w3.org/2000/svg" in2="pf_100_offsetBlur" operator="in" result="pf_100_dropShadow"/><feBlend xmlns="http://www.w3.org/2000/svg" in="SourceGraphic" in2="pf_100_dropShadow" mode="normal"/></filter></defs><g style="isolation:isolate" filter="url(#wn7mvUMhB6iQq4GFXOrEhA63r7CXKA56)"><path d=" M 115 272.978 Q 103.125 271.813 100 265 L 100 74 Q 101 68.188 109 65 L 190 35.559 Q 193 34.618 196 35.559 L 206 39.559 Q 208.688 40.938 210 43 L 210 234 Q 209.375 240.408 200 243.86 L 120 272.978 Q 117.125 273.455 115 272.978 Z " fill="rgb(0,142,138)"/><path d=" M 110 79.596 Q 109.75 72.353 120 68.676 L 200 39.559 Q 206.75 37.897 210 43.199 L 210 232.941 Q 210.125 240.154 200 243.86 L 120 272.978 Q 112.125 274.11 110 269.338 L 110 79.596 Z " fill="rgb(255,255,255)"/><linearGradient id="_lgradient_34" x1="0.5600176525709823" y1="0.05912757015963632" x2="0.5600176525709823" y2="0.864571079238765" gradientTransform="matrix(100.007,0,0,234.033,109.994,39.162)" gradientUnits="userSpaceOnUse"><stop offset="0.8695652173913043%" stop-opacity="1" style="stop-color:rgb(84,31,119)"/><stop offset="98.69565217391305%" stop-opacity="0.54" style="stop-color:rgb(250,241,255)"/></linearGradient><path d=" M 110 79.596 Q 109.75 72.353 120 68.676 L 200 39.559 Q 206.75 37.897 210 43.199 L 210 232.941 Q 210.125 240.154 200 243.86 L 120 272.978 Q 112.125 274.11 110 269.338 L 110 79.596 Z " fill="url(#_lgradient_34)"/><path d=" M 100 75.596 Q 99.75 68.353 110 64.676 L 190 35.559 Q 196.75 33.897 200 39.199 L 200 228.941 Q 200.125 236.154 190 239.86 L 110 268.978 Q 102.125 270.11 100 265.338 L 100 75.596 Z " fill="none"/><linearGradient id="_lgradient_35" x1="-0.2948490230905737" y1="0.8003274268104776" x2="1.1676731793960902" y2="0.3314676425269642" gradientTransform="matrix(100.089,0,0,161.436,109.911,50.676)" gradientUnits="userSpaceOnUse"><stop offset="0%" stop-opacity="1" style="stop-color:rgb(35,34,102)"/><stop offset="97.82608695652173%" stop-opacity="1" style="stop-color:rgb(126,43,140)"/></linearGradient><path d=" M 110 174.426 C 110.139 179.17 138.776 171.056 160 192.625 C 176.065 208.951 192.742 215.027 210 210.823 L 210 50.676 L 110 87.073 L 110 159.867 Q 109.823 168.382 110 174.426 Z " fill="url(#_lgradient_35)" fill-opacity="0.91"/><linearGradient id="_lgradient_36" x1="-0.2948490230905737" y1="0.8003274268104776" x2="1.1676731793960902" y2="0.3314676425269642" gradientTransform="matrix(100,0,0,161.764,110,50.676)" gradientUnits="userSpaceOnUse"><stop offset="0%" stop-opacity="1" style="stop-color:rgb(35,34,102)"/><stop offset="97.82608695652173%" stop-opacity="1" style="stop-color:rgb(126,43,140)"/></linearGradient><path d=" M 110 145.309 Q 129.82 150.164 150.127 178.958 C 172.824 211.14 192.119 215.602 210 210.823 L 210 50.676 L 110 87.073 L 110 145.309 Z " fill="url(#_lgradient_36)" fill-opacity="0.91"/><linearGradient id="_lgradient_37" x1="-0.2948490230905737" y1="0.8003274268104776" x2="1.1676731793960902" y2="0.3314676425269642" gradientTransform="matrix(30,0,0,32.757,121,196.625)" gradientUnits="userSpaceOnUse"><stop offset="0%" stop-opacity="1" style="stop-color:rgb(35,34,102)"/><stop offset="97.82608695652173%" stop-opacity="1" style="stop-color:rgb(126,43,140)"/></linearGradient><ellipse vector-effect="non-scaling-stroke" cx="136" cy="213.0034800177423" rx="15" ry="16.378660541979116" fill="url(#_lgradient_37)" fill-opacity="0.91"/><path d=" M 110 262.059 L 110 269.338 Q 111.812 273.893 120 272.978 L 200 243.86 Q 210.063 240.507 210 232.941 L 210 225.662 L 110 262.059 Z " fill="rgb(238,238,238)"/><line x1="190" y1="65.515" x2="200" y2="61.875" vector-effect="non-scaling-stroke" stroke-width="1" stroke="rgb(255,255,255)" stroke-linejoin="miter" stroke-linecap="square" stroke-miterlimit="3"/><line x1="190" y1="69.794" x2="200" y2="66.154" vector-effect="non-scaling-stroke" stroke-width="1" stroke="rgb(255,255,255)" stroke-linejoin="miter" stroke-linecap="square" stroke-miterlimit="3"/><path d=" M 210 50.676 L 210 43 C 207.98 39.563 204.214 38.139 200 39.559 L 119 69 Q 109.5 73 110 80 L 110 87.073 L 210 50.676 Z " fill="rgb(238,238,238)"/></g><defs><filter id="wn7mvUMhB6iQq4GFXOrEhA63r7CXKA56" x="-200%" y="-200%" width="400%" height="400%" filterUnits="objectBoundingBox" color-interpolation-filters="sRGB"><feGaussianBlur xmlns="http://www.w3.org/2000/svg" in="SourceGraphic" stdDeviation="21.46804531419514"/><feOffset xmlns="http://www.w3.org/2000/svg" dx="10" dy="10" result="pf_100_offsetBlur"/><feFlood xmlns="http://www.w3.org/2000/svg" flood-color="#000000" flood-opacity="0.25"/><feComposite xmlns="http://www.w3.org/2000/svg" in2="pf_100_offsetBlur" operator="in" result="pf_100_dropShadow"/><feBlend xmlns="http://www.w3.org/2000/svg" in="SourceGraphic" in2="pf_100_dropShadow" mode="normal"/></filter></defs></g></svg>