<?xml version="1.0" encoding="UTF-8" standalone="no"?><!-- Generator: Gravit.io --><svg xmlns="http://www.w3.org/2000/svg" xmlns:xlink="http://www.w3.org/1999/xlink" style="isolation:isolate" viewBox="0 0 64 64" width="64pt" height="64pt"><defs><clipPath id="_clipPath_r1jnM2hZXrOBLpC4lG5kbHuTZuJmICwo"><rect width="64" height="64"/></clipPath></defs><g clip-path="url(#_clipPath_r1jnM2hZXrOBLpC4lG5kbHuTZuJmICwo)"><g style="isolation:isolate"><path d="M 16.714 8 L 47.286 8 C 47.68 8 48 8.32 48 8.714 L 48 55.286 C 48 55.68 47.68 56 47.286 56 L 16.714 56 C 16.32 56 16 55.68 16 55.286 L 16 8.714 C 16 8.32 16.32 8 16.714 8 Z" style="fill:none;stroke:#000000;stroke-width:1;stroke-linecap:square;stroke-miterlimit:2;"/><circle vector-effect="non-scaling-stroke" cx="21.50000000000002" cy="14.785714285714318" r="1.357142857142854" fill="rgb(0,0,0)"/><path d="M 26.097 14.107 L 42.76 14.107 C 43.129 14.107 43.429 14.407 43.429 14.775 L 43.429 14.796 C 43.429 15.165 43.129 15.464 42.76 15.464 L 26.097 15.464 C 25.728 15.464 25.429 15.165 25.429 14.796 L 25.429 14.775 C 25.429 14.407 25.728 14.107 26.097 14.107 Z" style="stroke:none;fill:#000000;stroke-linecap:square;stroke-miterlimit:2;"/><circle vector-effect="non-scaling-stroke" cx="21.50000000000002" cy="20.500000000000018" r="1.357142857142854" fill="rgb(0,0,0)"/><path d="M 26.097 19.821 L 42.76 19.821 C 43.129 19.821 43.429 20.121 43.429 20.49 L 43.429 20.51 C 43.429 20.879 43.129 21.179 42.76 21.179 L 26.097 21.179 C 25.728 21.179 25.429 20.879 25.429 20.51 L 25.429 20.49 C 25.429 20.121 25.728 19.821 26.097 19.821 Z" style="stroke:none;fill:#000000;stroke-linecap:square;stroke-miterlimit:2;"/><circle vector-effect="non-scaling-stroke" cx="21.50000000000002" cy="26.21428571428571" r="1.357142857142854" fill="rgb(0,0,0)"/><path d="M 26.097 25.536 L 42.76 25.536 C 43.129 25.536 43.429 25.835 43.429 26.204 L 43.429 26.225 C 43.429 26.593 43.129 26.893 42.76 26.893 L 26.097 26.893 C 25.728 26.893 25.429 26.593 25.429 26.225 L 25.429 26.204 C 25.429 25.835 25.728 25.536 26.097 25.536 Z" style="stroke:none;fill:#000000;stroke-linecap:square;stroke-miterlimit:2;"/><circle vector-effect="non-scaling-stroke" cx="21.50000000000002" cy="31.928571428571388" r="1.357142857142854" fill="rgb(0,0,0)"/><path d="M 26.097 31.25 L 42.76 31.25 C 43.129 31.25 43.429 31.549 43.429 31.918 L 43.429 31.939 C 43.429 32.308 43.129 32.607 42.76 32.607 L 26.097 32.607 C 25.728 32.607 25.429 32.308 25.429 31.939 L 25.429 31.918 C 25.429 31.549 25.728 31.25 26.097 31.25 Z" style="stroke:none;fill:#000000;stroke-linecap:square;stroke-miterlimit:2;"/><path d="M 23.536 39.143 L 40.464 39.143 C 40.701 39.143 40.893 39.207 40.893 39.286 L 40.893 39.286 C 40.893 39.365 40.701 39.429 40.464 39.429 L 23.536 39.429 C 23.299 39.429 23.107 39.365 23.107 39.286 L 23.107 39.286 C 23.107 39.207 23.299 39.143 23.536 39.143 Z" style="stroke:none;fill:#000000;stroke-linecap:square;stroke-miterlimit:2;"/><path d=" M 30.179 48.509 L 31.511 50.286 L 33.821 45.044" fill="none" vector-effect="non-scaling-stroke" stroke-width="1" stroke="rgb(0,0,0)" stroke-linejoin="miter" stroke-linecap="square" stroke-miterlimit="3"/></g></g></svg>