<?xml version="1.0" encoding="UTF-8" standalone="no"?><!-- Generator: Gravit.io --><svg xmlns="http://www.w3.org/2000/svg" xmlns:xlink="http://www.w3.org/1999/xlink" style="isolation:isolate" viewBox="0 0 800 600" width="800pt" height="600pt"><defs><clipPath id="_clipPath_WGrRRhUzLPSs3QkSNDGcmWii8HwVeVcJ"><rect width="800" height="600"/></clipPath></defs><g clip-path="url(#_clipPath_WGrRRhUzLPSs3QkSNDGcmWii8HwVeVcJ)"><g style="isolation:isolate"><g style="isolation:isolate"><linearGradient id="_lgradient_0" x1="0.15243736383442258" y1="0.7851430976430975" x2="1.0737109658678285" y2="-0.2716049382716046" gradientTransform="matrix(153.278,0,0,42.076,133,421.001)" gradientUnits="userSpaceOnUse"><stop offset="2.608695652173913%" stop-opacity="1" style="stop-color:rgb(91,118,181)"/><stop offset="95.65217391304348%" stop-opacity="1" style="stop-color:rgb(45,255,241)"/></linearGradient><ellipse vector-effect="non-scaling-stroke" cx="209.63878195904834" cy="442.0390268941214" rx="76.63878195904867" ry="21.03809700836632" fill="url(#_lgradient_0)"/><path d=" M 133 441.288 L 133 469.839 Q 137.696 488.436 209.639 490.877 Q 282.145 488.06 286.278 469.839 L 286.278 441.288 Q 285.714 458.945 209.639 462.326 Q 138.447 460.072 133 441.288 Z " fill="rgb(76,98,149)"/><linearGradient id="_lgradient_1" x1="0.15243736383442258" y1="0.7851430976430975" x2="1.0737109658678285" y2="-0.2716049382716046" gradientTransform="matrix(153.278,0,0,42.076,133,375.168)" gradientUnits="userSpaceOnUse"><stop offset="2.608695652173913%" stop-opacity="1" style="stop-color:rgb(91,118,181)"/><stop offset="95.65217391304348%" stop-opacity="1" style="stop-color:rgb(45,255,241)"/></linearGradient><ellipse vector-effect="non-scaling-stroke" cx="209.63878195904834" cy="396.2060298401807" rx="76.63878195904867" ry="21.03809700836632" fill="url(#_lgradient_1)"/><path d=" M 133 395.455 L 133 424.006 Q 137.696 442.603 209.639 445.044 Q 282.145 442.227 286.278 424.006 L 286.278 395.455 Q 285.714 413.112 209.639 416.493 Q 138.447 414.239 133 395.455 Z " fill="rgb(76,98,149)"/><linearGradient id="_lgradient_2" x1="0.15243736383442258" y1="0.7851430976430975" x2="1.0737109658678285" y2="-0.2716049382716046" gradientTransform="matrix(153.278,0,0,42.076,133,329.335)" gradientUnits="userSpaceOnUse"><stop offset="2.608695652173913%" stop-opacity="1" style="stop-color:rgb(91,118,181)"/><stop offset="95.65217391304348%" stop-opacity="1" style="stop-color:rgb(45,255,241)"/></linearGradient><ellipse vector-effect="non-scaling-stroke" cx="209.63878195904834" cy="350.3730327862385" rx="76.63878195904867" ry="21.03809700836632" fill="url(#_lgradient_2)"/><path d=" M 133 349.622 L 133 378.173 Q 137.696 396.77 209.639 399.211 Q 282.145 396.394 286.278 378.173 L 286.278 349.622 Q 285.714 367.279 209.639 370.66 Q 138.447 368.406 133 349.622 Z " fill="rgb(76,98,149)"/><path d=" M 186.722 340.274 L 186.722 348.811 Q 188.126 354.372 209.639 355.102 Q 231.32 354.26 232.555 348.811 L 232.555 340.274 Q 232.387 345.554 209.639 346.565 Q 188.351 345.891 186.722 340.274 Z " fill="rgb(76,98,149)"/><linearGradient id="_lgradient_3" x1="0.15243736383442258" y1="0.7851430976430975" x2="1.0737109658678285" y2="-0.2716049382716046" gradientTransform="matrix(45.457,0,0,12.478,186.91,334.786)" gradientUnits="userSpaceOnUse"><stop offset="2.608695652173913%" stop-opacity="1" style="stop-color:rgb(91,118,181)"/><stop offset="95.65217391304348%" stop-opacity="1" style="stop-color:rgb(45,255,241)"/></linearGradient><ellipse vector-effect="non-scaling-stroke" cx="209.6387819590493" cy="341.02521223767127" rx="22.728658375109973" ry="6.239239553951734" fill="url(#_lgradient_3)"/></g><g style="isolation:isolate"><linearGradient id="_lgradient_4" x1="0.15243736383442258" y1="0.7851430976430975" x2="1.0737109658678285" y2="-0.2716049382716046" gradientTransform="matrix(153.278,0,0,42.076,213,481.001)" gradientUnits="userSpaceOnUse"><stop offset="2.608695652173913%" stop-opacity="1" style="stop-color:rgb(91,118,181)"/><stop offset="95.65217391304348%" stop-opacity="1" style="stop-color:rgb(45,255,241)"/></linearGradient><ellipse vector-effect="non-scaling-stroke" cx="289.6387819590485" cy="502.03902689412155" rx="76.63878195904869" ry="21.03809700836632" fill="url(#_lgradient_4)"/><path d=" M 213 501.288 L 213 529.839 Q 217.696 548.436 289.639 550.877 Q 362.145 548.06 366.278 529.839 L 366.278 501.288 Q 365.714 518.945 289.639 522.326 Q 218.447 520.072 213 501.288 Z " fill="rgb(76,98,149)"/><linearGradient id="_lgradient_5" x1="0.15243736383442258" y1="0.7851430976430975" x2="1.0737109658678285" y2="-0.2716049382716046" gradientTransform="matrix(153.278,0,0,42.076,213,435.168)" gradientUnits="userSpaceOnUse"><stop offset="2.608695652173913%" stop-opacity="1" style="stop-color:rgb(91,118,181)"/><stop offset="95.65217391304348%" stop-opacity="1" style="stop-color:rgb(45,255,241)"/></linearGradient><ellipse vector-effect="non-scaling-stroke" cx="289.6387819590485" cy="456.20602984018086" rx="76.63878195904869" ry="21.03809700836632" fill="url(#_lgradient_5)"/><path d=" M 213 455.455 L 213 484.006 Q 217.696 502.603 289.639 505.044 Q 362.145 502.227 366.278 484.006 L 366.278 455.455 Q 365.714 473.112 289.639 476.493 Q 218.447 474.239 213 455.455 Z " fill="rgb(76,98,149)"/><linearGradient id="_lgradient_6" x1="0.15243736383442258" y1="0.7851430976430975" x2="1.0737109658678285" y2="-0.2716049382716046" gradientTransform="matrix(153.278,0,0,42.076,213,389.335)" gradientUnits="userSpaceOnUse"><stop offset="2.608695652173913%" stop-opacity="1" style="stop-color:rgb(91,118,181)"/><stop offset="95.65217391304348%" stop-opacity="1" style="stop-color:rgb(45,255,241)"/></linearGradient><ellipse vector-effect="non-scaling-stroke" cx="289.6387819590485" cy="410.3730327862392" rx="76.63878195904869" ry="21.03809700836632" fill="url(#_lgradient_6)"/><path d=" M 213 409.622 L 213 438.173 Q 217.696 456.77 289.639 459.211 Q 362.145 456.394 366.278 438.173 L 366.278 409.622 Q 365.714 427.279 289.639 430.66 Q 218.447 428.406 213 409.622 Z " fill="rgb(76,98,149)"/><path d=" M 266.722 400.274 L 266.722 408.811 Q 268.126 414.372 289.639 415.102 Q 311.32 414.26 312.555 408.811 L 312.555 400.274 Q 312.387 405.554 289.639 406.565 Q 268.351 405.891 266.722 400.274 Z " fill="rgb(76,98,149)"/><linearGradient id="_lgradient_7" x1="0.15243736383442258" y1="0.7851430976430975" x2="1.0737109658678285" y2="-0.2716049382716046" gradientTransform="matrix(45.457,0,0,12.478,266.91,394.786)" gradientUnits="userSpaceOnUse"><stop offset="2.608695652173913%" stop-opacity="1" style="stop-color:rgb(91,118,181)"/><stop offset="95.65217391304348%" stop-opacity="1" style="stop-color:rgb(45,255,241)"/></linearGradient><ellipse vector-effect="non-scaling-stroke" cx="289.6387819590492" cy="401.02521223767087" rx="22.728658375109944" ry="6.239239553951734" fill="url(#_lgradient_7)"/></g></g><g style="isolation:isolate"><g style="isolation:isolate"><g style="isolation:isolate"><radialGradient id="_rgradient_0" fx="0.5" fy="0.5" cx="0.5" cy="0.5" r="0.5" gradientTransform="matrix(145.584,0,0,84.053,479.184,252.745)" gradientUnits="userSpaceOnUse"><stop offset="1.7391304347826086%" stop-opacity="1" style="stop-color:rgb(0,213,255)"/><stop offset="100%" stop-opacity="1" style="stop-color:rgb(0,94,117)"/></radialGradient><path d=" M 479.184 294.771 L 551.976 252.745 L 624.767 294.771 L 551.976 336.797 L 479.184 294.771 Z " fill="url(#_rgradient_0)"/><path d=" M 624.767 294.771 L 624.767 298.974 L 551.976 341 L 551.976 336.797 L 624.767 294.771 Z " fill="rgb(0,97,119)"/><path d=" M 479.184 294.771 L 479.184 298.974 L 551.976 341 L 551.976 336.797 L 479.184 294.771 Z " fill="rgb(0,97,119)"/></g><g style="isolation:isolate"><linearGradient id="_lgradient_8" x1="0.2623749999999998" y1="0.7686172282542298" x2="0.7367500000000001" y2="0.26952088333459606" gradientTransform="matrix(72.792,0,0,210.132,549.792,112.026)" gradientUnits="userSpaceOnUse"><stop offset="1.7391304347826086%" stop-opacity="1" style="stop-color:rgb(0,84,115)"/><stop offset="97.82608695652173%" stop-opacity="1" style="stop-color:rgb(27,143,185)"/></linearGradient><path d=" M 622.584 280.132 L 549.792 322.158 L 549.792 154.053 L 622.584 112.026 L 622.584 280.132 Z " fill="url(#_lgradient_8)"/><linearGradient id="_lgradient_9" x1="0.2623749999999998" y1="0.7686172282542298" x2="0.7367500000000001" y2="0.26952088333459606" gradientTransform="matrix(145.584,0,0,84.053,477,70)" gradientUnits="userSpaceOnUse"><stop offset="1.7391304347826086%" stop-opacity="1" style="stop-color:rgb(0,100,136)"/><stop offset="97.3913043478261%" stop-opacity="1" style="stop-color:rgb(60,178,221)"/></linearGradient><path d=" M 477 112.026 L 549.792 70 L 622.584 112.026 L 549.792 154.053 L 477 112.026 Z " fill="url(#_lgradient_9)"/><path d=" M 477 280.132 L 549.792 322.158 L 549.792 154.053 L 477 112.026 L 477 280.132 Z " fill="rgb(8,91,121)"/></g><g style="isolation:isolate"><linearGradient id="_lgradient_10" x1="0.2623749999999998" y1="0.7686172282542298" x2="0.7367500000000001" y2="0.26952088333459606" gradientTransform="matrix(43.675,0,0,159.7,568.718,140.291)" gradientUnits="userSpaceOnUse"><stop offset="1.7391304347826086%" stop-opacity="1" style="stop-color:rgb(0,84,115)"/><stop offset="97.82608695652173%" stop-opacity="1" style="stop-color:rgb(27,143,185)"/></linearGradient><path d=" M 568.718 165.507 L 612.393 140.291 L 612.393 274.775 L 568.718 299.991 L 568.718 165.507 Z " fill="url(#_lgradient_10)"/><path d=" M 568.718 299.991 L 565.078 297.89 L 565.078 163.405 L 568.718 165.507 L 568.718 299.991 Z " fill="rgb(0,59,81)"/><linearGradient id="_lgradient_11" x1="0" y1="0.5" x2="1.038461538461538" y2="-0.40442888750692896" gradientTransform="matrix(47.315,0,0,27.317,565.078,138.189)" gradientUnits="userSpaceOnUse"><stop offset="0%" stop-opacity="1" style="stop-color:rgb(0,59,81)"/><stop offset="97.82608695652173%" stop-opacity="1" style="stop-color:rgb(14,92,121)"/></linearGradient><path d=" M 565.078 163.405 L 568.718 165.507 L 612.393 140.291 L 608.753 138.189 L 565.078 163.405 Z " fill="url(#_lgradient_11)"/><path d=" M 575.997 174.42 L 575.997 212.244 L 605.114 195.434 L 605.114 157.61 L 575.997 174.42 Z " fill="rgb(0,45,62)"/></g><g style="isolation:isolate"><path d=" M 578.909 177.587 L 581.82 175.906 L 581.82 177.587 L 578.909 179.269 L 578.909 177.587 Z " fill="rgb(94,179,210)"/><path d=" M 583.276 175.066 L 586.188 173.385 L 586.188 175.066 L 583.276 176.747 L 583.276 175.066 Z " fill="rgb(94,179,210)"/><path d=" M 587.644 179.269 L 590.555 177.587 L 590.555 179.269 L 587.644 180.95 L 587.644 179.269 Z " fill="rgb(94,179,210)"/><path d=" M 592.011 176.747 L 597.834 173.385 L 597.834 175.066 L 592.011 178.428 L 592.011 176.747 Z " fill="rgb(94,179,210)"/><path d=" M 578.909 191.036 L 584.732 187.674 L 584.732 189.355 L 578.909 192.717 L 578.909 191.036 Z " fill="rgb(94,179,210)"/><path d=" M 581.82 185.993 L 587.644 182.631 L 587.644 184.312 L 581.82 187.674 L 581.82 185.993 Z " fill="rgb(94,179,210)"/><path d=" M 578.909 180.95 L 583.276 178.428 L 583.276 180.109 L 578.909 182.631 L 578.909 180.95 Z " fill="rgb(94,179,210)"/><path d=" M 584.732 177.587 L 589.099 175.066 L 589.099 176.747 L 584.732 179.269 L 584.732 177.587 Z " fill="rgb(94,179,210)"/><path d=" M 578.909 184.424 L 583.276 181.903 L 583.276 183.584 L 578.909 186.105 L 578.909 184.424 Z " fill="rgb(94,179,210)"/><path d=" M 584.732 180.95 L 586.188 180.109 L 586.188 181.79 L 584.732 182.631 L 584.732 180.95 Z " fill="rgb(94,179,210)"/><path d=" M 578.909 187.786 L 580.364 186.946 L 580.364 188.627 L 578.909 189.467 L 578.909 187.786 Z " fill="rgb(94,179,210)"/><path d=" M 578.909 194.398 L 581.82 192.717 L 581.82 194.398 L 578.909 196.079 L 578.909 194.398 Z " fill="rgb(94,179,210)"/><path d=" M 583.276 191.876 L 584.732 191.036 L 584.732 192.717 L 583.276 193.557 L 583.276 191.876 Z " fill="rgb(94,179,210)"/><path d=" M 586.188 190.195 L 586.188 191.876 L 589.099 190.195 L 589.099 188.514 L 586.188 190.195 Z " fill="rgb(94,179,210)"/><path d=" M 590.555 187.674 L 594.923 185.152 L 594.923 186.833 L 590.555 189.355 L 590.555 187.674 Z " fill="rgb(94,179,210)"/><path d=" M 596.379 184.312 L 599.29 182.631 L 599.29 184.312 L 596.379 185.993 L 596.379 184.312 Z " fill="rgb(94,179,210)"/><path d=" M 578.909 197.76 L 578.909 199.441 L 583.276 196.92 L 583.276 195.239 L 578.909 197.76 Z " fill="rgb(94,179,210)"/><path d=" M 578.909 201.122 L 580.364 200.282 L 580.364 201.963 L 578.909 202.803 L 578.909 201.122 Z " fill="rgb(94,179,210)"/><path d=" M 578.909 204.484 L 586.188 200.282 L 586.188 201.963 L 578.909 206.165 L 578.909 204.484 Z " fill="rgb(94,179,210)"/><path d=" M 581.82 199.441 L 584.732 197.76 L 584.732 199.441 L 581.82 201.122 L 581.82 199.441 Z " fill="rgb(94,179,210)"/><path d=" M 587.644 199.441 L 590.555 197.76 L 590.555 199.441 L 587.644 201.122 L 587.644 199.441 Z " fill="rgb(94,179,210)"/><path d=" M 592.011 196.92 L 593.467 196.079 L 593.467 197.76 L 592.011 198.601 L 592.011 196.92 Z " fill="rgb(94,179,210)"/><path d=" M 584.732 194.398 L 587.644 192.717 L 587.644 194.398 L 584.732 196.079 L 584.732 194.398 Z " fill="rgb(94,179,210)"/><path d=" M 589.099 191.876 L 593.467 189.355 L 593.467 191.036 L 589.099 193.557 L 589.099 191.876 Z " fill="rgb(94,179,210)"/></g><g style="isolation:isolate"><g style="isolation:isolate"><path d=" M 482.095 131.093 L 482.095 144.542 L 543.241 179.844 L 543.241 166.396 L 482.095 131.093 Z " fill="rgb(20,127,165)"/><path d=" M 485.007 137.818 L 517.763 156.73 L 517.763 160.932 L 485.007 142.02 L 485.007 137.818 Z " fill="rgb(230,116,255)"/><path d=" M 521.403 158.831 L 525.043 160.932 L 525.043 165.135 L 521.403 163.033 L 521.403 158.831 Z " fill="rgb(0,210,56)"/><path d=" M 528.682 163.033 L 532.322 165.135 L 532.322 169.337 L 528.682 167.236 L 528.682 163.033 Z " fill="rgb(0,210,56)"/><path d=" M 535.961 167.236 L 539.601 169.337 L 539.601 173.54 L 535.961 171.439 L 535.961 167.236 Z " fill="rgb(229,255,113)"/><path d=" M 543.241 179.844 L 544.696 179.003 L 544.696 165.555 L 543.241 166.396 L 543.241 179.844 Z " fill="rgb(0,59,81)"/><path d=" M 544.696 165.555 L 483.551 130.253 L 482.095 131.093 L 543.241 166.396 L 544.696 165.555 Z " fill="rgb(0,59,81)"/></g><g style="isolation:isolate"><path d=" M 482.095 152.931 L 482.095 166.379 L 543.241 201.682 L 543.241 188.233 L 482.095 152.931 Z " fill="rgb(20,127,165)"/><path d=" M 485.007 159.655 L 517.763 178.567 L 517.763 182.77 L 485.007 163.858 L 485.007 159.655 Z " fill="rgb(230,116,255)"/><path d=" M 521.403 180.668 L 525.043 182.77 L 525.043 186.972 L 521.403 184.871 L 521.403 180.668 Z " fill="rgb(0,210,56)"/><path d=" M 528.682 184.871 L 532.322 186.972 L 532.322 191.175 L 528.682 189.074 L 528.682 184.871 Z " fill="rgb(0,210,56)"/><path d=" M 535.961 189.074 L 539.601 191.175 L 539.601 195.378 L 535.961 193.276 L 535.961 189.074 Z " fill="rgb(0,210,56)"/><path d=" M 543.241 201.682 L 544.696 200.841 L 544.696 187.393 L 543.241 188.233 L 543.241 201.682 Z " fill="rgb(0,59,81)"/><path d=" M 544.696 187.393 L 483.551 152.09 L 482.095 152.931 L 543.241 188.233 L 544.696 187.393 Z " fill="rgb(0,59,81)"/></g><g style="isolation:isolate"><path d=" M 482.095 174.768 L 482.095 188.217 L 543.241 223.519 L 543.241 210.071 L 482.095 174.768 Z " fill="rgb(20,127,165)"/><path d=" M 485.007 181.493 L 517.763 200.405 L 517.763 204.607 L 485.007 185.695 L 485.007 181.493 Z " fill="rgb(230,116,255)"/><path d=" M 521.403 202.506 L 525.043 204.607 L 525.043 208.81 L 521.403 206.709 L 521.403 202.506 Z " fill="rgb(0,210,56)"/><path d=" M 528.682 206.709 L 532.322 208.81 L 532.322 213.012 L 528.682 210.911 L 528.682 206.709 Z " fill="rgb(229,255,113)"/><path d=" M 535.961 210.911 L 539.601 213.012 L 539.601 217.215 L 535.961 215.114 L 535.961 210.911 Z " fill="rgb(229,255,113)"/><path d=" M 543.241 223.519 L 544.696 222.679 L 544.696 209.23 L 543.241 210.071 L 543.241 223.519 Z " fill="rgb(0,59,81)"/><path d=" M 544.696 209.23 L 483.551 173.928 L 482.095 174.768 L 543.241 210.071 L 544.696 209.23 Z " fill="rgb(0,59,81)"/></g><g style="isolation:isolate"><path d=" M 482.095 196.606 L 482.095 210.054 L 543.241 245.357 L 543.241 231.908 L 482.095 196.606 Z " fill="rgb(20,127,165)"/><path d=" M 485.007 203.33 L 517.763 222.242 L 517.763 226.445 L 485.007 207.533 L 485.007 203.33 Z " fill="rgb(230,116,255)"/><path d=" M 521.403 224.343 L 525.043 226.445 L 525.043 230.647 L 521.403 228.546 L 521.403 224.343 Z " fill="rgb(229,255,113)"/><path d=" M 528.682 228.546 L 532.322 230.647 L 532.322 234.85 L 528.682 232.749 L 528.682 228.546 Z " fill="rgb(0,210,56)"/><path d=" M 535.961 232.749 L 539.601 234.85 L 539.601 239.053 L 535.961 236.951 L 535.961 232.749 Z " fill="rgb(229,255,113)"/><path d=" M 543.241 245.357 L 544.696 244.516 L 544.696 231.068 L 543.241 231.908 L 543.241 245.357 Z " fill="rgb(0,59,81)"/><path d=" M 544.696 231.068 L 483.551 195.766 L 482.095 196.606 L 543.241 231.908 L 544.696 231.068 Z " fill="rgb(0,59,81)"/></g><g style="isolation:isolate"><path d=" M 482.095 218.444 L 482.095 231.892 L 543.241 267.194 L 543.241 253.746 L 482.095 218.444 Z " fill="rgb(20,127,165)"/><path d=" M 485.007 225.168 L 517.763 244.08 L 517.763 248.282 L 485.007 229.37 L 485.007 225.168 Z " fill="rgb(230,116,255)"/><path d=" M 521.403 246.181 L 525.043 248.282 L 525.043 252.485 L 521.403 250.384 L 521.403 246.181 Z " fill="rgb(0,210,56)"/><path d=" M 528.682 250.384 L 532.322 252.485 L 532.322 256.688 L 528.682 254.586 L 528.682 250.384 Z " fill="rgb(0,210,56)"/><path d=" M 535.961 254.586 L 539.601 256.688 L 539.601 260.89 L 535.961 258.789 L 535.961 254.586 Z " fill="rgb(229,255,113)"/><path d=" M 543.241 267.194 L 544.696 266.354 L 544.696 252.905 L 543.241 253.746 L 543.241 267.194 Z " fill="rgb(0,59,81)"/><path d=" M 544.696 252.905 L 483.551 217.603 L 482.095 218.444 L 543.241 253.746 L 544.696 252.905 Z " fill="rgb(0,59,81)"/></g><g style="isolation:isolate"><path d=" M 482.095 240.281 L 482.095 253.73 L 543.241 289.032 L 543.241 275.583 L 482.095 240.281 Z " fill="rgb(20,127,165)"/><path d=" M 485.007 247.005 L 517.763 265.917 L 517.763 270.12 L 485.007 251.208 L 485.007 247.005 Z " fill="rgb(230,116,255)"/><path d=" M 521.403 268.018 L 525.043 270.12 L 525.043 274.322 L 521.403 272.221 L 521.403 268.018 Z " fill="rgb(0,210,56)"/><path d=" M 528.682 272.221 L 532.322 274.322 L 532.322 278.525 L 528.682 276.424 L 528.682 272.221 Z " fill="rgb(229,255,113)"/><path d=" M 535.961 276.424 L 539.601 278.525 L 539.601 282.728 L 535.961 280.626 L 535.961 276.424 Z " fill="rgb(229,255,113)"/><path d=" M 543.241 289.032 L 544.696 288.191 L 544.696 274.743 L 543.241 275.583 L 543.241 289.032 Z " fill="rgb(0,59,81)"/><path d=" M 544.696 274.743 L 483.551 239.441 L 482.095 240.281 L 543.241 275.583 L 544.696 274.743 Z " fill="rgb(0,59,81)"/></g><g style="isolation:isolate"><path d=" M 482.095 262.119 L 482.095 275.567 L 543.241 310.869 L 543.241 297.421 L 482.095 262.119 Z " fill="rgb(20,127,165)"/><path d=" M 485.007 268.843 L 517.763 287.755 L 517.763 291.957 L 485.007 273.045 L 485.007 268.843 Z " fill="rgb(230,116,255)"/><path d=" M 521.403 289.856 L 525.043 291.957 L 525.043 296.16 L 521.403 294.059 L 521.403 289.856 Z " fill="rgb(0,210,56)"/><path d=" M 528.682 294.059 L 532.322 296.16 L 532.322 300.363 L 528.682 298.261 L 528.682 294.059 Z " fill="rgb(0,210,56)"/><path d=" M 535.961 298.261 L 539.601 300.363 L 539.601 304.565 L 535.961 302.464 L 535.961 298.261 Z " fill="rgb(0,210,56)"/><path d=" M 543.241 310.869 L 544.696 310.029 L 544.696 296.58 L 543.241 297.421 L 543.241 310.869 Z " fill="rgb(0,59,81)"/><path d=" M 544.696 296.58 L 483.551 261.278 L 482.095 262.119 L 543.241 297.421 L 544.696 296.58 Z " fill="rgb(0,59,81)"/></g></g><g style="isolation:isolate"><radialGradient id="_rgradient_1" fx="0.5" fy="0.5" cx="0.5" cy="0.5" r="0.5" gradientTransform="matrix(72.792,0,0,42.026,511.94,90.943)" gradientUnits="userSpaceOnUse"><stop offset="1.7391304347826086%" stop-opacity="1" style="stop-color:rgb(0,100,136)"/><stop offset="97.3913043478261%" stop-opacity="1" style="stop-color:rgb(60,178,221)"/></radialGradient><path d=" M 511.94 111.956 L 548.336 90.943 L 584.732 111.956 L 548.336 132.97 L 511.94 111.956 Z " fill="url(#_rgradient_1)"/><path d=" M 511.94 111.956 L 548.336 90.943 L 548.336 95.146 L 515.58 114.058 L 511.94 111.956 Z " fill="rgb(8,91,121)"/><path d=" M 548.336 90.943 L 548.336 95.146 L 581.092 114.058 L 584.732 111.956 L 548.336 90.943 Z " fill="rgb(8,91,121)"/><g style="isolation:isolate"><radialGradient id="_rgradient_2" fx="0.5" fy="0.5" cx="0.5" cy="0.5" r="0.5" gradientTransform="matrix(3.64,0,0,6.304,548.336,109.855)" gradientUnits="userSpaceOnUse"><stop offset="1.3043478260869565%" stop-opacity="1" style="stop-color:rgb(0,255,115)"/><stop offset="96.95652173913044%" stop-opacity="1" style="stop-color:rgb(34,181,32)"/></radialGradient><path d=" M 548.336 111.956 L 551.976 109.855 L 551.976 114.058 L 548.336 116.159 L 548.336 111.956 Z " fill="url(#_rgradient_2)"/><radialGradient id="_rgradient_3" fx="0.5" fy="0.5" cx="0.5" cy="0.5" r="0.5" gradientTransform="matrix(7.279,0,0,4.203,544.696,107.754)" gradientUnits="userSpaceOnUse"><stop offset="1.3043478260869565%" stop-opacity="1" style="stop-color:rgb(0,255,115)"/><stop offset="96.95652173913044%" stop-opacity="1" style="stop-color:rgb(34,181,32)"/></radialGradient><path d=" M 544.696 109.855 L 548.336 107.754 L 551.976 109.855 L 548.336 111.956 L 544.696 109.855 Z " fill="url(#_rgradient_3)"/><radialGradient id="_rgradient_4" fx="0.5" fy="0.5" cx="0.5" cy="0.5" r="0.5" gradientTransform="matrix(3.64,0,0,6.304,544.696,109.855)" gradientUnits="userSpaceOnUse"><stop offset="1.3043478260869565%" stop-opacity="1" style="stop-color:rgb(0,255,115)"/><stop offset="96.95652173913044%" stop-opacity="1" style="stop-color:rgb(34,181,32)"/></radialGradient><path d=" M 544.696 114.058 L 544.696 109.855 L 548.336 111.956 L 548.336 116.159 L 544.696 114.058 Z " fill="url(#_rgradient_4)"/></g></g></g><g style="isolation:isolate"><g style="isolation:isolate"><radialGradient id="_rgradient_5" fx="0.5" fy="0.5" cx="0.5" cy="0.5" r="0.5" gradientTransform="matrix(145.584,0,0,84.053,379.184,312.745)" gradientUnits="userSpaceOnUse"><stop offset="1.7391304347826086%" stop-opacity="1" style="stop-color:rgb(0,213,255)"/><stop offset="100%" stop-opacity="1" style="stop-color:rgb(0,94,117)"/></radialGradient><path d=" M 379.184 354.771 L 451.976 312.745 L 524.767 354.771 L 451.976 396.797 L 379.184 354.771 Z " fill="url(#_rgradient_5)"/><path d=" M 524.767 354.771 L 524.767 358.974 L 451.976 401 L 451.976 396.797 L 524.767 354.771 Z " fill="rgb(0,97,119)"/><path d=" M 379.184 354.771 L 379.184 358.974 L 451.976 401 L 451.976 396.797 L 379.184 354.771 Z " fill="rgb(0,97,119)"/></g><g style="isolation:isolate"><linearGradient id="_lgradient_12" x1="0.2623749999999998" y1="0.7686172282542298" x2="0.7367500000000001" y2="0.26952088333459606" gradientTransform="matrix(72.792,0,0,210.132,449.792,172.026)" gradientUnits="userSpaceOnUse"><stop offset="1.7391304347826086%" stop-opacity="1" style="stop-color:rgb(0,84,115)"/><stop offset="97.82608695652173%" stop-opacity="1" style="stop-color:rgb(27,143,185)"/></linearGradient><path d=" M 522.584 340.132 L 449.792 382.158 L 449.792 214.053 L 522.584 172.026 L 522.584 340.132 Z " fill="url(#_lgradient_12)"/><linearGradient id="_lgradient_13" x1="0.2623749999999998" y1="0.7686172282542298" x2="0.7367500000000001" y2="0.26952088333459606" gradientTransform="matrix(145.584,0,0,84.053,377,130)" gradientUnits="userSpaceOnUse"><stop offset="1.7391304347826086%" stop-opacity="1" style="stop-color:rgb(0,100,136)"/><stop offset="97.3913043478261%" stop-opacity="1" style="stop-color:rgb(60,178,221)"/></linearGradient><path d=" M 377 172.026 L 449.792 130 L 522.584 172.026 L 449.792 214.053 L 377 172.026 Z " fill="url(#_lgradient_13)"/><path d=" M 377 340.132 L 449.792 382.158 L 449.792 214.053 L 377 172.026 L 377 340.132 Z " fill="rgb(8,91,121)"/></g><g style="isolation:isolate"><linearGradient id="_lgradient_14" x1="0.2623749999999998" y1="0.7686172282542298" x2="0.7367500000000001" y2="0.26952088333459606" gradientTransform="matrix(43.675,0,0,159.7,468.718,200.291)" gradientUnits="userSpaceOnUse"><stop offset="1.7391304347826086%" stop-opacity="1" style="stop-color:rgb(0,84,115)"/><stop offset="97.82608695652173%" stop-opacity="1" style="stop-color:rgb(27,143,185)"/></linearGradient><path d=" M 468.718 225.507 L 512.393 200.291 L 512.393 334.775 L 468.718 359.991 L 468.718 225.507 Z " fill="url(#_lgradient_14)"/><path d=" M 468.718 359.991 L 465.078 357.89 L 465.078 223.405 L 468.718 225.507 L 468.718 359.991 Z " fill="rgb(0,59,81)"/><linearGradient id="_lgradient_15" x1="0" y1="0.5" x2="1.038461538461538" y2="-0.40442888750692896" gradientTransform="matrix(47.315,0,0,27.317,465.078,198.189)" gradientUnits="userSpaceOnUse"><stop offset="0%" stop-opacity="1" style="stop-color:rgb(0,59,81)"/><stop offset="97.82608695652173%" stop-opacity="1" style="stop-color:rgb(14,92,121)"/></linearGradient><path d=" M 465.078 223.405 L 468.718 225.507 L 512.393 200.291 L 508.753 198.189 L 465.078 223.405 Z " fill="url(#_lgradient_15)"/><path d=" M 475.997 234.42 L 475.997 272.244 L 505.114 255.434 L 505.114 217.61 L 475.997 234.42 Z " fill="rgb(0,45,62)"/></g><g style="isolation:isolate"><path d=" M 478.909 237.587 L 481.82 235.906 L 481.82 237.587 L 478.909 239.269 L 478.909 237.587 Z " fill="rgb(94,179,210)"/><path d=" M 483.276 235.066 L 486.188 233.385 L 486.188 235.066 L 483.276 236.747 L 483.276 235.066 Z " fill="rgb(94,179,210)"/><path d=" M 487.644 239.269 L 490.555 237.587 L 490.555 239.269 L 487.644 240.95 L 487.644 239.269 Z " fill="rgb(94,179,210)"/><path d=" M 492.011 236.747 L 497.834 233.385 L 497.834 235.066 L 492.011 238.428 L 492.011 236.747 Z " fill="rgb(94,179,210)"/><path d=" M 478.909 251.036 L 484.732 247.674 L 484.732 249.355 L 478.909 252.717 L 478.909 251.036 Z " fill="rgb(94,179,210)"/><path d=" M 481.82 245.993 L 487.644 242.631 L 487.644 244.312 L 481.82 247.674 L 481.82 245.993 Z " fill="rgb(94,179,210)"/><path d=" M 478.909 240.95 L 483.276 238.428 L 483.276 240.109 L 478.909 242.631 L 478.909 240.95 Z " fill="rgb(94,179,210)"/><path d=" M 484.732 237.587 L 489.099 235.066 L 489.099 236.747 L 484.732 239.269 L 484.732 237.587 Z " fill="rgb(94,179,210)"/><path d=" M 478.909 244.424 L 483.276 241.903 L 483.276 243.584 L 478.909 246.105 L 478.909 244.424 Z " fill="rgb(94,179,210)"/><path d=" M 484.732 240.95 L 486.188 240.109 L 486.188 241.79 L 484.732 242.631 L 484.732 240.95 Z " fill="rgb(94,179,210)"/><path d=" M 478.909 247.786 L 480.364 246.946 L 480.364 248.627 L 478.909 249.467 L 478.909 247.786 Z " fill="rgb(94,179,210)"/><path d=" M 478.909 254.398 L 481.82 252.717 L 481.82 254.398 L 478.909 256.079 L 478.909 254.398 Z " fill="rgb(94,179,210)"/><path d=" M 483.276 251.876 L 484.732 251.036 L 484.732 252.717 L 483.276 253.557 L 483.276 251.876 Z " fill="rgb(94,179,210)"/><path d=" M 486.188 250.195 L 486.188 251.876 L 489.099 250.195 L 489.099 248.514 L 486.188 250.195 Z " fill="rgb(94,179,210)"/><path d=" M 490.555 247.674 L 494.923 245.152 L 494.923 246.833 L 490.555 249.355 L 490.555 247.674 Z " fill="rgb(94,179,210)"/><path d=" M 496.379 244.312 L 499.29 242.631 L 499.29 244.312 L 496.379 245.993 L 496.379 244.312 Z " fill="rgb(94,179,210)"/><path d=" M 478.909 257.76 L 478.909 259.441 L 483.276 256.92 L 483.276 255.239 L 478.909 257.76 Z " fill="rgb(94,179,210)"/><path d=" M 478.909 261.122 L 480.364 260.282 L 480.364 261.963 L 478.909 262.803 L 478.909 261.122 Z " fill="rgb(94,179,210)"/><path d=" M 478.909 264.484 L 486.188 260.282 L 486.188 261.963 L 478.909 266.165 L 478.909 264.484 Z " fill="rgb(94,179,210)"/><path d=" M 481.82 259.441 L 484.732 257.76 L 484.732 259.441 L 481.82 261.122 L 481.82 259.441 Z " fill="rgb(94,179,210)"/><path d=" M 487.644 259.441 L 490.555 257.76 L 490.555 259.441 L 487.644 261.122 L 487.644 259.441 Z " fill="rgb(94,179,210)"/><path d=" M 492.011 256.92 L 493.467 256.079 L 493.467 257.76 L 492.011 258.601 L 492.011 256.92 Z " fill="rgb(94,179,210)"/><path d=" M 484.732 254.398 L 487.644 252.717 L 487.644 254.398 L 484.732 256.079 L 484.732 254.398 Z " fill="rgb(94,179,210)"/><path d=" M 489.099 251.876 L 493.467 249.355 L 493.467 251.036 L 489.099 253.557 L 489.099 251.876 Z " fill="rgb(94,179,210)"/></g><g style="isolation:isolate"><g style="isolation:isolate"><path d=" M 382.095 191.093 L 382.095 204.542 L 443.241 239.844 L 443.241 226.396 L 382.095 191.093 Z " fill="rgb(20,127,165)"/><path d=" M 385.007 197.818 L 417.763 216.73 L 417.763 220.932 L 385.007 202.02 L 385.007 197.818 Z " fill="rgb(230,116,255)"/><path d=" M 421.403 218.831 L 425.043 220.932 L 425.043 225.135 L 421.403 223.033 L 421.403 218.831 Z " fill="rgb(0,210,56)"/><path d=" M 428.682 223.033 L 432.322 225.135 L 432.322 229.337 L 428.682 227.236 L 428.682 223.033 Z " fill="rgb(0,210,56)"/><path d=" M 435.961 227.236 L 439.601 229.337 L 439.601 233.54 L 435.961 231.439 L 435.961 227.236 Z " fill="rgb(229,255,113)"/><path d=" M 443.241 239.844 L 444.696 239.003 L 444.696 225.555 L 443.241 226.396 L 443.241 239.844 Z " fill="rgb(0,59,81)"/><path d=" M 444.696 225.555 L 383.551 190.253 L 382.095 191.093 L 443.241 226.396 L 444.696 225.555 Z " fill="rgb(0,59,81)"/></g><g style="isolation:isolate"><path d=" M 382.095 212.931 L 382.095 226.379 L 443.241 261.682 L 443.241 248.233 L 382.095 212.931 Z " fill="rgb(20,127,165)"/><path d=" M 385.007 219.655 L 417.763 238.567 L 417.763 242.77 L 385.007 223.858 L 385.007 219.655 Z " fill="rgb(230,116,255)"/><path d=" M 421.403 240.668 L 425.043 242.77 L 425.043 246.972 L 421.403 244.871 L 421.403 240.668 Z " fill="rgb(0,210,56)"/><path d=" M 428.682 244.871 L 432.322 246.972 L 432.322 251.175 L 428.682 249.074 L 428.682 244.871 Z " fill="rgb(0,210,56)"/><path d=" M 435.961 249.074 L 439.601 251.175 L 439.601 255.378 L 435.961 253.276 L 435.961 249.074 Z " fill="rgb(0,210,56)"/><path d=" M 443.241 261.682 L 444.696 260.841 L 444.696 247.393 L 443.241 248.233 L 443.241 261.682 Z " fill="rgb(0,59,81)"/><path d=" M 444.696 247.393 L 383.551 212.09 L 382.095 212.931 L 443.241 248.233 L 444.696 247.393 Z " fill="rgb(0,59,81)"/></g><g style="isolation:isolate"><path d=" M 382.095 234.768 L 382.095 248.217 L 443.241 283.519 L 443.241 270.071 L 382.095 234.768 Z " fill="rgb(20,127,165)"/><path d=" M 385.007 241.493 L 417.763 260.405 L 417.763 264.607 L 385.007 245.695 L 385.007 241.493 Z " fill="rgb(230,116,255)"/><path d=" M 421.403 262.506 L 425.043 264.607 L 425.043 268.81 L 421.403 266.709 L 421.403 262.506 Z " fill="rgb(0,210,56)"/><path d=" M 428.682 266.709 L 432.322 268.81 L 432.322 273.012 L 428.682 270.911 L 428.682 266.709 Z " fill="rgb(229,255,113)"/><path d=" M 435.961 270.911 L 439.601 273.012 L 439.601 277.215 L 435.961 275.114 L 435.961 270.911 Z " fill="rgb(229,255,113)"/><path d=" M 443.241 283.519 L 444.696 282.679 L 444.696 269.23 L 443.241 270.071 L 443.241 283.519 Z " fill="rgb(0,59,81)"/><path d=" M 444.696 269.23 L 383.551 233.928 L 382.095 234.768 L 443.241 270.071 L 444.696 269.23 Z " fill="rgb(0,59,81)"/></g><g style="isolation:isolate"><path d=" M 382.095 256.606 L 382.095 270.054 L 443.241 305.357 L 443.241 291.908 L 382.095 256.606 Z " fill="rgb(20,127,165)"/><path d=" M 385.007 263.33 L 417.763 282.242 L 417.763 286.445 L 385.007 267.533 L 385.007 263.33 Z " fill="rgb(230,116,255)"/><path d=" M 421.403 284.343 L 425.043 286.445 L 425.043 290.647 L 421.403 288.546 L 421.403 284.343 Z " fill="rgb(229,255,113)"/><path d=" M 428.682 288.546 L 432.322 290.647 L 432.322 294.85 L 428.682 292.749 L 428.682 288.546 Z " fill="rgb(0,210,56)"/><path d=" M 435.961 292.749 L 439.601 294.85 L 439.601 299.053 L 435.961 296.951 L 435.961 292.749 Z " fill="rgb(229,255,113)"/><path d=" M 443.241 305.357 L 444.696 304.516 L 444.696 291.068 L 443.241 291.908 L 443.241 305.357 Z " fill="rgb(0,59,81)"/><path d=" M 444.696 291.068 L 383.551 255.766 L 382.095 256.606 L 443.241 291.908 L 444.696 291.068 Z " fill="rgb(0,59,81)"/></g><g style="isolation:isolate"><path d=" M 382.095 278.444 L 382.095 291.892 L 443.241 327.194 L 443.241 313.746 L 382.095 278.444 Z " fill="rgb(20,127,165)"/><path d=" M 385.007 285.168 L 417.763 304.08 L 417.763 308.282 L 385.007 289.37 L 385.007 285.168 Z " fill="rgb(230,116,255)"/><path d=" M 421.403 306.181 L 425.043 308.282 L 425.043 312.485 L 421.403 310.384 L 421.403 306.181 Z " fill="rgb(0,210,56)"/><path d=" M 428.682 310.384 L 432.322 312.485 L 432.322 316.688 L 428.682 314.586 L 428.682 310.384 Z " fill="rgb(0,210,56)"/><path d=" M 435.961 314.586 L 439.601 316.688 L 439.601 320.89 L 435.961 318.789 L 435.961 314.586 Z " fill="rgb(229,255,113)"/><path d=" M 443.241 327.194 L 444.696 326.354 L 444.696 312.905 L 443.241 313.746 L 443.241 327.194 Z " fill="rgb(0,59,81)"/><path d=" M 444.696 312.905 L 383.551 277.603 L 382.095 278.444 L 443.241 313.746 L 444.696 312.905 Z " fill="rgb(0,59,81)"/></g><g style="isolation:isolate"><path d=" M 382.095 300.281 L 382.095 313.73 L 443.241 349.032 L 443.241 335.583 L 382.095 300.281 Z " fill="rgb(20,127,165)"/><path d=" M 385.007 307.005 L 417.763 325.917 L 417.763 330.12 L 385.007 311.208 L 385.007 307.005 Z " fill="rgb(230,116,255)"/><path d=" M 421.403 328.018 L 425.043 330.12 L 425.043 334.322 L 421.403 332.221 L 421.403 328.018 Z " fill="rgb(0,210,56)"/><path d=" M 428.682 332.221 L 432.322 334.322 L 432.322 338.525 L 428.682 336.424 L 428.682 332.221 Z " fill="rgb(229,255,113)"/><path d=" M 435.961 336.424 L 439.601 338.525 L 439.601 342.728 L 435.961 340.626 L 435.961 336.424 Z " fill="rgb(229,255,113)"/><path d=" M 443.241 349.032 L 444.696 348.191 L 444.696 334.743 L 443.241 335.583 L 443.241 349.032 Z " fill="rgb(0,59,81)"/><path d=" M 444.696 334.743 L 383.551 299.441 L 382.095 300.281 L 443.241 335.583 L 444.696 334.743 Z " fill="rgb(0,59,81)"/></g><g style="isolation:isolate"><path d=" M 382.095 322.119 L 382.095 335.567 L 443.241 370.869 L 443.241 357.421 L 382.095 322.119 Z " fill="rgb(20,127,165)"/><path d=" M 385.007 328.843 L 417.763 347.755 L 417.763 351.957 L 385.007 333.045 L 385.007 328.843 Z " fill="rgb(230,116,255)"/><path d=" M 421.403 349.856 L 425.043 351.957 L 425.043 356.16 L 421.403 354.059 L 421.403 349.856 Z " fill="rgb(0,210,56)"/><path d=" M 428.682 354.059 L 432.322 356.16 L 432.322 360.363 L 428.682 358.261 L 428.682 354.059 Z " fill="rgb(0,210,56)"/><path d=" M 435.961 358.261 L 439.601 360.363 L 439.601 364.565 L 435.961 362.464 L 435.961 358.261 Z " fill="rgb(0,210,56)"/><path d=" M 443.241 370.869 L 444.696 370.029 L 444.696 356.58 L 443.241 357.421 L 443.241 370.869 Z " fill="rgb(0,59,81)"/><path d=" M 444.696 356.58 L 383.551 321.278 L 382.095 322.119 L 443.241 357.421 L 444.696 356.58 Z " fill="rgb(0,59,81)"/></g></g><g style="isolation:isolate"><radialGradient id="_rgradient_6" fx="0.5" fy="0.5" cx="0.5" cy="0.5" r="0.5" gradientTransform="matrix(72.792,0,0,42.026,411.94,150.943)" gradientUnits="userSpaceOnUse"><stop offset="1.7391304347826086%" stop-opacity="1" style="stop-color:rgb(0,100,136)"/><stop offset="97.3913043478261%" stop-opacity="1" style="stop-color:rgb(60,178,221)"/></radialGradient><path d=" M 411.94 171.956 L 448.336 150.943 L 484.732 171.956 L 448.336 192.97 L 411.94 171.956 Z " fill="url(#_rgradient_6)"/><path d=" M 411.94 171.956 L 448.336 150.943 L 448.336 155.146 L 415.58 174.058 L 411.94 171.956 Z " fill="rgb(8,91,121)"/><path d=" M 448.336 150.943 L 448.336 155.146 L 481.092 174.058 L 484.732 171.956 L 448.336 150.943 Z " fill="rgb(8,91,121)"/><g style="isolation:isolate"><radialGradient id="_rgradient_7" fx="0.5" fy="0.5" cx="0.5" cy="0.5" r="0.5" gradientTransform="matrix(3.64,0,0,6.304,448.336,169.855)" gradientUnits="userSpaceOnUse"><stop offset="1.3043478260869565%" stop-opacity="1" style="stop-color:rgb(0,255,115)"/><stop offset="96.95652173913044%" stop-opacity="1" style="stop-color:rgb(34,181,32)"/></radialGradient><path d=" M 448.336 171.956 L 451.976 169.855 L 451.976 174.058 L 448.336 176.159 L 448.336 171.956 Z " fill="url(#_rgradient_7)"/><radialGradient id="_rgradient_8" fx="0.5" fy="0.5" cx="0.5" cy="0.5" r="0.5" gradientTransform="matrix(7.279,0,0,4.203,444.696,167.754)" gradientUnits="userSpaceOnUse"><stop offset="1.3043478260869565%" stop-opacity="1" style="stop-color:rgb(0,255,115)"/><stop offset="96.95652173913044%" stop-opacity="1" style="stop-color:rgb(34,181,32)"/></radialGradient><path d=" M 444.696 169.855 L 448.336 167.754 L 451.976 169.855 L 448.336 171.956 L 444.696 169.855 Z " fill="url(#_rgradient_8)"/><radialGradient id="_rgradient_9" fx="0.5" fy="0.5" cx="0.5" cy="0.5" r="0.5" gradientTransform="matrix(3.64,0,0,6.304,444.696,169.855)" gradientUnits="userSpaceOnUse"><stop offset="1.3043478260869565%" stop-opacity="1" style="stop-color:rgb(0,255,115)"/><stop offset="96.95652173913044%" stop-opacity="1" style="stop-color:rgb(34,181,32)"/></radialGradient><path d=" M 444.696 174.058 L 444.696 169.855 L 448.336 171.956 L 448.336 176.159 L 444.696 174.058 Z " fill="url(#_rgradient_9)"/></g></g></g><g style="isolation:isolate"><g style="isolation:isolate"><radialGradient id="_rgradient_10" fx="0.5" fy="0.5" cx="0.5" cy="0.5" r="0.5" gradientTransform="matrix(145.584,0,0,84.053,578.184,312.745)" gradientUnits="userSpaceOnUse"><stop offset="1.7391304347826086%" stop-opacity="1" style="stop-color:rgb(0,213,255)"/><stop offset="100%" stop-opacity="1" style="stop-color:rgb(0,94,117)"/></radialGradient><path d=" M 578.184 354.771 L 650.976 312.745 L 723.767 354.771 L 650.976 396.797 L 578.184 354.771 Z " fill="url(#_rgradient_10)"/><path d=" M 723.767 354.771 L 723.767 358.974 L 650.976 401 L 650.976 396.797 L 723.767 354.771 Z " fill="rgb(0,97,119)"/><path d=" M 578.184 354.771 L 578.184 358.974 L 650.976 401 L 650.976 396.797 L 578.184 354.771 Z " fill="rgb(0,97,119)"/></g><g style="isolation:isolate"><linearGradient id="_lgradient_16" x1="0.2623749999999998" y1="0.7686172282542298" x2="0.7367500000000001" y2="0.26952088333459606" gradientTransform="matrix(72.792,0,0,210.132,648.792,172.026)" gradientUnits="userSpaceOnUse"><stop offset="1.7391304347826086%" stop-opacity="1" style="stop-color:rgb(0,84,115)"/><stop offset="97.82608695652173%" stop-opacity="1" style="stop-color:rgb(27,143,185)"/></linearGradient><path d=" M 721.584 340.132 L 648.792 382.158 L 648.792 214.053 L 721.584 172.026 L 721.584 340.132 Z " fill="url(#_lgradient_16)"/><linearGradient id="_lgradient_17" x1="0.2623749999999998" y1="0.7686172282542298" x2="0.7367500000000001" y2="0.26952088333459606" gradientTransform="matrix(145.584,0,0,84.053,576,130)" gradientUnits="userSpaceOnUse"><stop offset="1.7391304347826086%" stop-opacity="1" style="stop-color:rgb(0,100,136)"/><stop offset="97.3913043478261%" stop-opacity="1" style="stop-color:rgb(60,178,221)"/></linearGradient><path d=" M 576 172.026 L 648.792 130 L 721.584 172.026 L 648.792 214.053 L 576 172.026 Z " fill="url(#_lgradient_17)"/><path d=" M 576 340.132 L 648.792 382.158 L 648.792 214.053 L 576 172.026 L 576 340.132 Z " fill="rgb(8,91,121)"/></g><g style="isolation:isolate"><linearGradient id="_lgradient_18" x1="0.2623749999999998" y1="0.7686172282542298" x2="0.7367500000000001" y2="0.26952088333459606" gradientTransform="matrix(43.675,0,0,159.7,667.718,200.291)" gradientUnits="userSpaceOnUse"><stop offset="1.7391304347826086%" stop-opacity="1" style="stop-color:rgb(0,84,115)"/><stop offset="97.82608695652173%" stop-opacity="1" style="stop-color:rgb(27,143,185)"/></linearGradient><path d=" M 667.718 225.507 L 711.393 200.291 L 711.393 334.775 L 667.718 359.991 L 667.718 225.507 Z " fill="url(#_lgradient_18)"/><path d=" M 667.718 359.991 L 664.078 357.89 L 664.078 223.405 L 667.718 225.507 L 667.718 359.991 Z " fill="rgb(0,59,81)"/><linearGradient id="_lgradient_19" x1="0" y1="0.5" x2="1.038461538461538" y2="-0.40442888750692896" gradientTransform="matrix(47.315,0,0,27.317,664.078,198.189)" gradientUnits="userSpaceOnUse"><stop offset="0%" stop-opacity="1" style="stop-color:rgb(0,59,81)"/><stop offset="97.82608695652173%" stop-opacity="1" style="stop-color:rgb(14,92,121)"/></linearGradient><path d=" M 664.078 223.405 L 667.718 225.507 L 711.393 200.291 L 707.753 198.189 L 664.078 223.405 Z " fill="url(#_lgradient_19)"/><path d=" M 674.997 234.42 L 674.997 272.244 L 704.114 255.434 L 704.114 217.61 L 674.997 234.42 Z " fill="rgb(0,45,62)"/></g><g style="isolation:isolate"><path d=" M 677.909 237.587 L 680.82 235.906 L 680.82 237.587 L 677.909 239.269 L 677.909 237.587 Z " fill="rgb(94,179,210)"/><path d=" M 682.276 235.066 L 685.188 233.385 L 685.188 235.066 L 682.276 236.747 L 682.276 235.066 Z " fill="rgb(94,179,210)"/><path d=" M 686.644 239.269 L 689.555 237.587 L 689.555 239.269 L 686.644 240.95 L 686.644 239.269 Z " fill="rgb(94,179,210)"/><path d=" M 691.011 236.747 L 696.834 233.385 L 696.834 235.066 L 691.011 238.428 L 691.011 236.747 Z " fill="rgb(94,179,210)"/><path d=" M 677.909 251.036 L 683.732 247.674 L 683.732 249.355 L 677.909 252.717 L 677.909 251.036 Z " fill="rgb(94,179,210)"/><path d=" M 680.82 245.993 L 686.644 242.631 L 686.644 244.312 L 680.82 247.674 L 680.82 245.993 Z " fill="rgb(94,179,210)"/><path d=" M 677.909 240.95 L 682.276 238.428 L 682.276 240.109 L 677.909 242.631 L 677.909 240.95 Z " fill="rgb(94,179,210)"/><path d=" M 683.732 237.587 L 688.099 235.066 L 688.099 236.747 L 683.732 239.269 L 683.732 237.587 Z " fill="rgb(94,179,210)"/><path d=" M 677.909 244.424 L 682.276 241.903 L 682.276 243.584 L 677.909 246.105 L 677.909 244.424 Z " fill="rgb(94,179,210)"/><path d=" M 683.732 240.95 L 685.188 240.109 L 685.188 241.79 L 683.732 242.631 L 683.732 240.95 Z " fill="rgb(94,179,210)"/><path d=" M 677.909 247.786 L 679.364 246.946 L 679.364 248.627 L 677.909 249.467 L 677.909 247.786 Z " fill="rgb(94,179,210)"/><path d=" M 677.909 254.398 L 680.82 252.717 L 680.82 254.398 L 677.909 256.079 L 677.909 254.398 Z " fill="rgb(94,179,210)"/><path d=" M 682.276 251.876 L 683.732 251.036 L 683.732 252.717 L 682.276 253.557 L 682.276 251.876 Z " fill="rgb(94,179,210)"/><path d=" M 685.188 250.195 L 685.188 251.876 L 688.099 250.195 L 688.099 248.514 L 685.188 250.195 Z " fill="rgb(94,179,210)"/><path d=" M 689.555 247.674 L 693.923 245.152 L 693.923 246.833 L 689.555 249.355 L 689.555 247.674 Z " fill="rgb(94,179,210)"/><path d=" M 695.379 244.312 L 698.29 242.631 L 698.29 244.312 L 695.379 245.993 L 695.379 244.312 Z " fill="rgb(94,179,210)"/><path d=" M 677.909 257.76 L 677.909 259.441 L 682.276 256.92 L 682.276 255.239 L 677.909 257.76 Z " fill="rgb(94,179,210)"/><path d=" M 677.909 261.122 L 679.364 260.282 L 679.364 261.963 L 677.909 262.803 L 677.909 261.122 Z " fill="rgb(94,179,210)"/><path d=" M 677.909 264.484 L 685.188 260.282 L 685.188 261.963 L 677.909 266.165 L 677.909 264.484 Z " fill="rgb(94,179,210)"/><path d=" M 680.82 259.441 L 683.732 257.76 L 683.732 259.441 L 680.82 261.122 L 680.82 259.441 Z " fill="rgb(94,179,210)"/><path d=" M 686.644 259.441 L 689.555 257.76 L 689.555 259.441 L 686.644 261.122 L 686.644 259.441 Z " fill="rgb(94,179,210)"/><path d=" M 691.011 256.92 L 692.467 256.079 L 692.467 257.76 L 691.011 258.601 L 691.011 256.92 Z " fill="rgb(94,179,210)"/><path d=" M 683.732 254.398 L 686.644 252.717 L 686.644 254.398 L 683.732 256.079 L 683.732 254.398 Z " fill="rgb(94,179,210)"/><path d=" M 688.099 251.876 L 692.467 249.355 L 692.467 251.036 L 688.099 253.557 L 688.099 251.876 Z " fill="rgb(94,179,210)"/></g><g style="isolation:isolate"><g style="isolation:isolate"><path d=" M 581.095 191.093 L 581.095 204.542 L 642.241 239.844 L 642.241 226.396 L 581.095 191.093 Z " fill="rgb(20,127,165)"/><path d=" M 584.007 197.818 L 616.763 216.73 L 616.763 220.932 L 584.007 202.02 L 584.007 197.818 Z " fill="rgb(230,116,255)"/><path d=" M 620.403 218.831 L 624.043 220.932 L 624.043 225.135 L 620.403 223.033 L 620.403 218.831 Z " fill="rgb(0,210,56)"/><path d=" M 627.682 223.033 L 631.322 225.135 L 631.322 229.337 L 627.682 227.236 L 627.682 223.033 Z " fill="rgb(0,210,56)"/><path d=" M 634.961 227.236 L 638.601 229.337 L 638.601 233.54 L 634.961 231.439 L 634.961 227.236 Z " fill="rgb(229,255,113)"/><path d=" M 642.241 239.844 L 643.696 239.003 L 643.696 225.555 L 642.241 226.396 L 642.241 239.844 Z " fill="rgb(0,59,81)"/><path d=" M 643.696 225.555 L 582.551 190.253 L 581.095 191.093 L 642.241 226.396 L 643.696 225.555 Z " fill="rgb(0,59,81)"/></g><g style="isolation:isolate"><path d=" M 581.095 212.931 L 581.095 226.379 L 642.241 261.682 L 642.241 248.233 L 581.095 212.931 Z " fill="rgb(20,127,165)"/><path d=" M 584.007 219.655 L 616.763 238.567 L 616.763 242.77 L 584.007 223.858 L 584.007 219.655 Z " fill="rgb(230,116,255)"/><path d=" M 620.403 240.668 L 624.043 242.77 L 624.043 246.972 L 620.403 244.871 L 620.403 240.668 Z " fill="rgb(0,210,56)"/><path d=" M 627.682 244.871 L 631.322 246.972 L 631.322 251.175 L 627.682 249.074 L 627.682 244.871 Z " fill="rgb(0,210,56)"/><path d=" M 634.961 249.074 L 638.601 251.175 L 638.601 255.378 L 634.961 253.276 L 634.961 249.074 Z " fill="rgb(0,210,56)"/><path d=" M 642.241 261.682 L 643.696 260.841 L 643.696 247.393 L 642.241 248.233 L 642.241 261.682 Z " fill="rgb(0,59,81)"/><path d=" M 643.696 247.393 L 582.551 212.09 L 581.095 212.931 L 642.241 248.233 L 643.696 247.393 Z " fill="rgb(0,59,81)"/></g><g style="isolation:isolate"><path d=" M 581.095 234.768 L 581.095 248.217 L 642.241 283.519 L 642.241 270.071 L 581.095 234.768 Z " fill="rgb(20,127,165)"/><path d=" M 584.007 241.493 L 616.763 260.405 L 616.763 264.607 L 584.007 245.695 L 584.007 241.493 Z " fill="rgb(230,116,255)"/><path d=" M 620.403 262.506 L 624.043 264.607 L 624.043 268.81 L 620.403 266.709 L 620.403 262.506 Z " fill="rgb(0,210,56)"/><path d=" M 627.682 266.709 L 631.322 268.81 L 631.322 273.012 L 627.682 270.911 L 627.682 266.709 Z " fill="rgb(229,255,113)"/><path d=" M 634.961 270.911 L 638.601 273.012 L 638.601 277.215 L 634.961 275.114 L 634.961 270.911 Z " fill="rgb(229,255,113)"/><path d=" M 642.241 283.519 L 643.696 282.679 L 643.696 269.23 L 642.241 270.071 L 642.241 283.519 Z " fill="rgb(0,59,81)"/><path d=" M 643.696 269.23 L 582.551 233.928 L 581.095 234.768 L 642.241 270.071 L 643.696 269.23 Z " fill="rgb(0,59,81)"/></g><g style="isolation:isolate"><path d=" M 581.095 256.606 L 581.095 270.054 L 642.241 305.357 L 642.241 291.908 L 581.095 256.606 Z " fill="rgb(20,127,165)"/><path d=" M 584.007 263.33 L 616.763 282.242 L 616.763 286.445 L 584.007 267.533 L 584.007 263.33 Z " fill="rgb(230,116,255)"/><path d=" M 620.403 284.343 L 624.043 286.445 L 624.043 290.647 L 620.403 288.546 L 620.403 284.343 Z " fill="rgb(229,255,113)"/><path d=" M 627.682 288.546 L 631.322 290.647 L 631.322 294.85 L 627.682 292.749 L 627.682 288.546 Z " fill="rgb(0,210,56)"/><path d=" M 634.961 292.749 L 638.601 294.85 L 638.601 299.053 L 634.961 296.951 L 634.961 292.749 Z " fill="rgb(229,255,113)"/><path d=" M 642.241 305.357 L 643.696 304.516 L 643.696 291.068 L 642.241 291.908 L 642.241 305.357 Z " fill="rgb(0,59,81)"/><path d=" M 643.696 291.068 L 582.551 255.766 L 581.095 256.606 L 642.241 291.908 L 643.696 291.068 Z " fill="rgb(0,59,81)"/></g><g style="isolation:isolate"><path d=" M 581.095 278.444 L 581.095 291.892 L 642.241 327.194 L 642.241 313.746 L 581.095 278.444 Z " fill="rgb(20,127,165)"/><path d=" M 584.007 285.168 L 616.763 304.08 L 616.763 308.282 L 584.007 289.37 L 584.007 285.168 Z " fill="rgb(230,116,255)"/><path d=" M 620.403 306.181 L 624.043 308.282 L 624.043 312.485 L 620.403 310.384 L 620.403 306.181 Z " fill="rgb(0,210,56)"/><path d=" M 627.682 310.384 L 631.322 312.485 L 631.322 316.688 L 627.682 314.586 L 627.682 310.384 Z " fill="rgb(0,210,56)"/><path d=" M 634.961 314.586 L 638.601 316.688 L 638.601 320.89 L 634.961 318.789 L 634.961 314.586 Z " fill="rgb(229,255,113)"/><path d=" M 642.241 327.194 L 643.696 326.354 L 643.696 312.905 L 642.241 313.746 L 642.241 327.194 Z " fill="rgb(0,59,81)"/><path d=" M 643.696 312.905 L 582.551 277.603 L 581.095 278.444 L 642.241 313.746 L 643.696 312.905 Z " fill="rgb(0,59,81)"/></g><g style="isolation:isolate"><path d=" M 581.095 300.281 L 581.095 313.73 L 642.241 349.032 L 642.241 335.583 L 581.095 300.281 Z " fill="rgb(20,127,165)"/><path d=" M 584.007 307.005 L 616.763 325.917 L 616.763 330.12 L 584.007 311.208 L 584.007 307.005 Z " fill="rgb(230,116,255)"/><path d=" M 620.403 328.018 L 624.043 330.12 L 624.043 334.322 L 620.403 332.221 L 620.403 328.018 Z " fill="rgb(0,210,56)"/><path d=" M 627.682 332.221 L 631.322 334.322 L 631.322 338.525 L 627.682 336.424 L 627.682 332.221 Z " fill="rgb(229,255,113)"/><path d=" M 634.961 336.424 L 638.601 338.525 L 638.601 342.728 L 634.961 340.626 L 634.961 336.424 Z " fill="rgb(229,255,113)"/><path d=" M 642.241 349.032 L 643.696 348.191 L 643.696 334.743 L 642.241 335.583 L 642.241 349.032 Z " fill="rgb(0,59,81)"/><path d=" M 643.696 334.743 L 582.551 299.441 L 581.095 300.281 L 642.241 335.583 L 643.696 334.743 Z " fill="rgb(0,59,81)"/></g><g style="isolation:isolate"><path d=" M 581.095 322.119 L 581.095 335.567 L 642.241 370.869 L 642.241 357.421 L 581.095 322.119 Z " fill="rgb(20,127,165)"/><path d=" M 584.007 328.843 L 616.763 347.755 L 616.763 351.957 L 584.007 333.045 L 584.007 328.843 Z " fill="rgb(230,116,255)"/><path d=" M 620.403 349.856 L 624.043 351.957 L 624.043 356.16 L 620.403 354.059 L 620.403 349.856 Z " fill="rgb(0,210,56)"/><path d=" M 627.682 354.059 L 631.322 356.16 L 631.322 360.363 L 627.682 358.261 L 627.682 354.059 Z " fill="rgb(0,210,56)"/><path d=" M 634.961 358.261 L 638.601 360.363 L 638.601 364.565 L 634.961 362.464 L 634.961 358.261 Z " fill="rgb(0,210,56)"/><path d=" M 642.241 370.869 L 643.696 370.029 L 643.696 356.58 L 642.241 357.421 L 642.241 370.869 Z " fill="rgb(0,59,81)"/><path d=" M 643.696 356.58 L 582.551 321.278 L 581.095 322.119 L 642.241 357.421 L 643.696 356.58 Z " fill="rgb(0,59,81)"/></g></g><g style="isolation:isolate"><radialGradient id="_rgradient_11" fx="0.5" fy="0.5" cx="0.5" cy="0.5" r="0.5" gradientTransform="matrix(72.792,0,0,42.026,610.94,150.943)" gradientUnits="userSpaceOnUse"><stop offset="1.7391304347826086%" stop-opacity="1" style="stop-color:rgb(0,100,136)"/><stop offset="97.3913043478261%" stop-opacity="1" style="stop-color:rgb(60,178,221)"/></radialGradient><path d=" M 610.94 171.956 L 647.336 150.943 L 683.732 171.956 L 647.336 192.97 L 610.94 171.956 Z " fill="url(#_rgradient_11)"/><path d=" M 610.94 171.956 L 647.336 150.943 L 647.336 155.146 L 614.58 174.058 L 610.94 171.956 Z " fill="rgb(8,91,121)"/><path d=" M 647.336 150.943 L 647.336 155.146 L 680.092 174.058 L 683.732 171.956 L 647.336 150.943 Z " fill="rgb(8,91,121)"/><g style="isolation:isolate"><radialGradient id="_rgradient_12" fx="0.5" fy="0.5" cx="0.5" cy="0.5" r="0.5" gradientTransform="matrix(3.64,0,0,6.304,647.336,169.855)" gradientUnits="userSpaceOnUse"><stop offset="1.3043478260869565%" stop-opacity="1" style="stop-color:rgb(0,255,115)"/><stop offset="96.95652173913044%" stop-opacity="1" style="stop-color:rgb(34,181,32)"/></radialGradient><path d=" M 647.336 171.956 L 650.976 169.855 L 650.976 174.058 L 647.336 176.159 L 647.336 171.956 Z " fill="url(#_rgradient_12)"/><radialGradient id="_rgradient_13" fx="0.5" fy="0.5" cx="0.5" cy="0.5" r="0.5" gradientTransform="matrix(7.279,0,0,4.203,643.696,167.754)" gradientUnits="userSpaceOnUse"><stop offset="1.3043478260869565%" stop-opacity="1" style="stop-color:rgb(0,255,115)"/><stop offset="96.95652173913044%" stop-opacity="1" style="stop-color:rgb(34,181,32)"/></radialGradient><path d=" M 643.696 169.855 L 647.336 167.754 L 650.976 169.855 L 647.336 171.956 L 643.696 169.855 Z " fill="url(#_rgradient_13)"/><radialGradient id="_rgradient_14" fx="0.5" fy="0.5" cx="0.5" cy="0.5" r="0.5" gradientTransform="matrix(3.64,0,0,6.304,643.696,169.855)" gradientUnits="userSpaceOnUse"><stop offset="1.3043478260869565%" stop-opacity="1" style="stop-color:rgb(0,255,115)"/><stop offset="96.95652173913044%" stop-opacity="1" style="stop-color:rgb(34,181,32)"/></radialGradient><path d=" M 643.696 174.058 L 643.696 169.855 L 647.336 171.956 L 647.336 176.159 L 643.696 174.058 Z " fill="url(#_rgradient_14)"/></g></g></g><g style="isolation:isolate"><g style="isolation:isolate"><radialGradient id="_rgradient_15" fx="0.5" fy="0.5" cx="0.5" cy="0.5" r="0.5" gradientTransform="matrix(145.584,0,0,84.053,479.184,372.745)" gradientUnits="userSpaceOnUse"><stop offset="1.7391304347826086%" stop-opacity="1" style="stop-color:rgb(0,213,255)"/><stop offset="100%" stop-opacity="1" style="stop-color:rgb(0,94,117)"/></radialGradient><path d=" M 479.184 414.771 L 551.976 372.745 L 624.767 414.771 L 551.976 456.797 L 479.184 414.771 Z " fill="url(#_rgradient_15)"/><path d=" M 624.767 414.771 L 624.767 418.974 L 551.976 461 L 551.976 456.797 L 624.767 414.771 Z " fill="rgb(0,97,119)"/><path d=" M 479.184 414.771 L 479.184 418.974 L 551.976 461 L 551.976 456.797 L 479.184 414.771 Z " fill="rgb(0,97,119)"/></g><g style="isolation:isolate"><linearGradient id="_lgradient_20" x1="0.2623749999999998" y1="0.7686172282542298" x2="0.7367500000000001" y2="0.26952088333459606" gradientTransform="matrix(72.792,0,0,210.132,549.792,232.026)" gradientUnits="userSpaceOnUse"><stop offset="1.7391304347826086%" stop-opacity="1" style="stop-color:rgb(0,84,115)"/><stop offset="97.82608695652173%" stop-opacity="1" style="stop-color:rgb(27,143,185)"/></linearGradient><path d=" M 622.584 400.132 L 549.792 442.158 L 549.792 274.053 L 622.584 232.026 L 622.584 400.132 Z " fill="url(#_lgradient_20)"/><linearGradient id="_lgradient_21" x1="0.2623749999999998" y1="0.7686172282542298" x2="0.7367500000000001" y2="0.26952088333459606" gradientTransform="matrix(145.584,0,0,84.053,477,190)" gradientUnits="userSpaceOnUse"><stop offset="1.7391304347826086%" stop-opacity="1" style="stop-color:rgb(0,100,136)"/><stop offset="97.3913043478261%" stop-opacity="1" style="stop-color:rgb(60,178,221)"/></linearGradient><path d=" M 477 232.026 L 549.792 190 L 622.584 232.026 L 549.792 274.053 L 477 232.026 Z " fill="url(#_lgradient_21)"/><path d=" M 477 400.132 L 549.792 442.158 L 549.792 274.053 L 477 232.026 L 477 400.132 Z " fill="rgb(8,91,121)"/></g><g style="isolation:isolate"><linearGradient id="_lgradient_22" x1="0.2623749999999998" y1="0.7686172282542298" x2="0.7367500000000001" y2="0.26952088333459606" gradientTransform="matrix(43.675,0,0,159.7,568.718,260.291)" gradientUnits="userSpaceOnUse"><stop offset="1.7391304347826086%" stop-opacity="1" style="stop-color:rgb(0,84,115)"/><stop offset="97.82608695652173%" stop-opacity="1" style="stop-color:rgb(27,143,185)"/></linearGradient><path d=" M 568.718 285.507 L 612.393 260.291 L 612.393 394.775 L 568.718 419.991 L 568.718 285.507 Z " fill="url(#_lgradient_22)"/><path d=" M 568.718 419.991 L 565.078 417.89 L 565.078 283.405 L 568.718 285.507 L 568.718 419.991 Z " fill="rgb(0,59,81)"/><linearGradient id="_lgradient_23" x1="0" y1="0.5" x2="1.038461538461538" y2="-0.40442888750692896" gradientTransform="matrix(47.315,0,0,27.317,565.078,258.189)" gradientUnits="userSpaceOnUse"><stop offset="0%" stop-opacity="1" style="stop-color:rgb(0,59,81)"/><stop offset="97.82608695652173%" stop-opacity="1" style="stop-color:rgb(14,92,121)"/></linearGradient><path d=" M 565.078 283.405 L 568.718 285.507 L 612.393 260.291 L 608.753 258.189 L 565.078 283.405 Z " fill="url(#_lgradient_23)"/><path d=" M 575.997 294.42 L 575.997 332.244 L 605.114 315.434 L 605.114 277.61 L 575.997 294.42 Z " fill="rgb(0,45,62)"/></g><g style="isolation:isolate"><path d=" M 578.909 297.587 L 581.82 295.906 L 581.82 297.587 L 578.909 299.269 L 578.909 297.587 Z " fill="rgb(94,179,210)"/><path d=" M 583.276 295.066 L 586.188 293.385 L 586.188 295.066 L 583.276 296.747 L 583.276 295.066 Z " fill="rgb(94,179,210)"/><path d=" M 587.644 299.269 L 590.555 297.587 L 590.555 299.269 L 587.644 300.95 L 587.644 299.269 Z " fill="rgb(94,179,210)"/><path d=" M 592.011 296.747 L 597.834 293.385 L 597.834 295.066 L 592.011 298.428 L 592.011 296.747 Z " fill="rgb(94,179,210)"/><path d=" M 578.909 311.036 L 584.732 307.674 L 584.732 309.355 L 578.909 312.717 L 578.909 311.036 Z " fill="rgb(94,179,210)"/><path d=" M 581.82 305.993 L 587.644 302.631 L 587.644 304.312 L 581.82 307.674 L 581.82 305.993 Z " fill="rgb(94,179,210)"/><path d=" M 578.909 300.95 L 583.276 298.428 L 583.276 300.109 L 578.909 302.631 L 578.909 300.95 Z " fill="rgb(94,179,210)"/><path d=" M 584.732 297.587 L 589.099 295.066 L 589.099 296.747 L 584.732 299.269 L 584.732 297.587 Z " fill="rgb(94,179,210)"/><path d=" M 578.909 304.424 L 583.276 301.903 L 583.276 303.584 L 578.909 306.105 L 578.909 304.424 Z " fill="rgb(94,179,210)"/><path d=" M 584.732 300.95 L 586.188 300.109 L 586.188 301.79 L 584.732 302.631 L 584.732 300.95 Z " fill="rgb(94,179,210)"/><path d=" M 578.909 307.786 L 580.364 306.946 L 580.364 308.627 L 578.909 309.467 L 578.909 307.786 Z " fill="rgb(94,179,210)"/><path d=" M 578.909 314.398 L 581.82 312.717 L 581.82 314.398 L 578.909 316.079 L 578.909 314.398 Z " fill="rgb(94,179,210)"/><path d=" M 583.276 311.876 L 584.732 311.036 L 584.732 312.717 L 583.276 313.557 L 583.276 311.876 Z " fill="rgb(94,179,210)"/><path d=" M 586.188 310.195 L 586.188 311.876 L 589.099 310.195 L 589.099 308.514 L 586.188 310.195 Z " fill="rgb(94,179,210)"/><path d=" M 590.555 307.674 L 594.923 305.152 L 594.923 306.833 L 590.555 309.355 L 590.555 307.674 Z " fill="rgb(94,179,210)"/><path d=" M 596.379 304.312 L 599.29 302.631 L 599.29 304.312 L 596.379 305.993 L 596.379 304.312 Z " fill="rgb(94,179,210)"/><path d=" M 578.909 317.76 L 578.909 319.441 L 583.276 316.92 L 583.276 315.239 L 578.909 317.76 Z " fill="rgb(94,179,210)"/><path d=" M 578.909 321.122 L 580.364 320.282 L 580.364 321.963 L 578.909 322.803 L 578.909 321.122 Z " fill="rgb(94,179,210)"/><path d=" M 578.909 324.484 L 586.188 320.282 L 586.188 321.963 L 578.909 326.165 L 578.909 324.484 Z " fill="rgb(94,179,210)"/><path d=" M 581.82 319.441 L 584.732 317.76 L 584.732 319.441 L 581.82 321.122 L 581.82 319.441 Z " fill="rgb(94,179,210)"/><path d=" M 587.644 319.441 L 590.555 317.76 L 590.555 319.441 L 587.644 321.122 L 587.644 319.441 Z " fill="rgb(94,179,210)"/><path d=" M 592.011 316.92 L 593.467 316.079 L 593.467 317.76 L 592.011 318.601 L 592.011 316.92 Z " fill="rgb(94,179,210)"/><path d=" M 584.732 314.398 L 587.644 312.717 L 587.644 314.398 L 584.732 316.079 L 584.732 314.398 Z " fill="rgb(94,179,210)"/><path d=" M 589.099 311.876 L 593.467 309.355 L 593.467 311.036 L 589.099 313.557 L 589.099 311.876 Z " fill="rgb(94,179,210)"/></g><g style="isolation:isolate"><g style="isolation:isolate"><path d=" M 482.095 251.093 L 482.095 264.542 L 543.241 299.844 L 543.241 286.396 L 482.095 251.093 Z " fill="rgb(20,127,165)"/><path d=" M 485.007 257.818 L 517.763 276.73 L 517.763 280.932 L 485.007 262.02 L 485.007 257.818 Z " fill="rgb(230,116,255)"/><path d=" M 521.403 278.831 L 525.043 280.932 L 525.043 285.135 L 521.403 283.033 L 521.403 278.831 Z " fill="rgb(0,210,56)"/><path d=" M 528.682 283.033 L 532.322 285.135 L 532.322 289.337 L 528.682 287.236 L 528.682 283.033 Z " fill="rgb(0,210,56)"/><path d=" M 535.961 287.236 L 539.601 289.337 L 539.601 293.54 L 535.961 291.439 L 535.961 287.236 Z " fill="rgb(229,255,113)"/><path d=" M 543.241 299.844 L 544.696 299.003 L 544.696 285.555 L 543.241 286.396 L 543.241 299.844 Z " fill="rgb(0,59,81)"/><path d=" M 544.696 285.555 L 483.551 250.253 L 482.095 251.093 L 543.241 286.396 L 544.696 285.555 Z " fill="rgb(0,59,81)"/></g><g style="isolation:isolate"><path d=" M 482.095 272.931 L 482.095 286.379 L 543.241 321.682 L 543.241 308.233 L 482.095 272.931 Z " fill="rgb(20,127,165)"/><path d=" M 485.007 279.655 L 517.763 298.567 L 517.763 302.77 L 485.007 283.858 L 485.007 279.655 Z " fill="rgb(230,116,255)"/><path d=" M 521.403 300.668 L 525.043 302.77 L 525.043 306.972 L 521.403 304.871 L 521.403 300.668 Z " fill="rgb(0,210,56)"/><path d=" M 528.682 304.871 L 532.322 306.972 L 532.322 311.175 L 528.682 309.074 L 528.682 304.871 Z " fill="rgb(0,210,56)"/><path d=" M 535.961 309.074 L 539.601 311.175 L 539.601 315.378 L 535.961 313.276 L 535.961 309.074 Z " fill="rgb(0,210,56)"/><path d=" M 543.241 321.682 L 544.696 320.841 L 544.696 307.393 L 543.241 308.233 L 543.241 321.682 Z " fill="rgb(0,59,81)"/><path d=" M 544.696 307.393 L 483.551 272.09 L 482.095 272.931 L 543.241 308.233 L 544.696 307.393 Z " fill="rgb(0,59,81)"/></g><g style="isolation:isolate"><path d=" M 482.095 294.768 L 482.095 308.217 L 543.241 343.519 L 543.241 330.071 L 482.095 294.768 Z " fill="rgb(20,127,165)"/><path d=" M 485.007 301.493 L 517.763 320.405 L 517.763 324.607 L 485.007 305.695 L 485.007 301.493 Z " fill="rgb(230,116,255)"/><path d=" M 521.403 322.506 L 525.043 324.607 L 525.043 328.81 L 521.403 326.709 L 521.403 322.506 Z " fill="rgb(0,210,56)"/><path d=" M 528.682 326.709 L 532.322 328.81 L 532.322 333.012 L 528.682 330.911 L 528.682 326.709 Z " fill="rgb(229,255,113)"/><path d=" M 535.961 330.911 L 539.601 333.012 L 539.601 337.215 L 535.961 335.114 L 535.961 330.911 Z " fill="rgb(229,255,113)"/><path d=" M 543.241 343.519 L 544.696 342.679 L 544.696 329.23 L 543.241 330.071 L 543.241 343.519 Z " fill="rgb(0,59,81)"/><path d=" M 544.696 329.23 L 483.551 293.928 L 482.095 294.768 L 543.241 330.071 L 544.696 329.23 Z " fill="rgb(0,59,81)"/></g><g style="isolation:isolate"><path d=" M 482.095 316.606 L 482.095 330.054 L 543.241 365.357 L 543.241 351.908 L 482.095 316.606 Z " fill="rgb(20,127,165)"/><path d=" M 485.007 323.33 L 517.763 342.242 L 517.763 346.445 L 485.007 327.533 L 485.007 323.33 Z " fill="rgb(230,116,255)"/><path d=" M 521.403 344.343 L 525.043 346.445 L 525.043 350.647 L 521.403 348.546 L 521.403 344.343 Z " fill="rgb(229,255,113)"/><path d=" M 528.682 348.546 L 532.322 350.647 L 532.322 354.85 L 528.682 352.749 L 528.682 348.546 Z " fill="rgb(0,210,56)"/><path d=" M 535.961 352.749 L 539.601 354.85 L 539.601 359.053 L 535.961 356.951 L 535.961 352.749 Z " fill="rgb(229,255,113)"/><path d=" M 543.241 365.357 L 544.696 364.516 L 544.696 351.068 L 543.241 351.908 L 543.241 365.357 Z " fill="rgb(0,59,81)"/><path d=" M 544.696 351.068 L 483.551 315.766 L 482.095 316.606 L 543.241 351.908 L 544.696 351.068 Z " fill="rgb(0,59,81)"/></g><g style="isolation:isolate"><path d=" M 482.095 338.444 L 482.095 351.892 L 543.241 387.194 L 543.241 373.746 L 482.095 338.444 Z " fill="rgb(20,127,165)"/><path d=" M 485.007 345.168 L 517.763 364.08 L 517.763 368.282 L 485.007 349.37 L 485.007 345.168 Z " fill="rgb(230,116,255)"/><path d=" M 521.403 366.181 L 525.043 368.282 L 525.043 372.485 L 521.403 370.384 L 521.403 366.181 Z " fill="rgb(0,210,56)"/><path d=" M 528.682 370.384 L 532.322 372.485 L 532.322 376.688 L 528.682 374.586 L 528.682 370.384 Z " fill="rgb(0,210,56)"/><path d=" M 535.961 374.586 L 539.601 376.688 L 539.601 380.89 L 535.961 378.789 L 535.961 374.586 Z " fill="rgb(229,255,113)"/><path d=" M 543.241 387.194 L 544.696 386.354 L 544.696 372.905 L 543.241 373.746 L 543.241 387.194 Z " fill="rgb(0,59,81)"/><path d=" M 544.696 372.905 L 483.551 337.603 L 482.095 338.444 L 543.241 373.746 L 544.696 372.905 Z " fill="rgb(0,59,81)"/></g><g style="isolation:isolate"><path d=" M 482.095 360.281 L 482.095 373.73 L 543.241 409.032 L 543.241 395.583 L 482.095 360.281 Z " fill="rgb(20,127,165)"/><path d=" M 485.007 367.005 L 517.763 385.917 L 517.763 390.12 L 485.007 371.208 L 485.007 367.005 Z " fill="rgb(230,116,255)"/><path d=" M 521.403 388.018 L 525.043 390.12 L 525.043 394.322 L 521.403 392.221 L 521.403 388.018 Z " fill="rgb(0,210,56)"/><path d=" M 528.682 392.221 L 532.322 394.322 L 532.322 398.525 L 528.682 396.424 L 528.682 392.221 Z " fill="rgb(229,255,113)"/><path d=" M 535.961 396.424 L 539.601 398.525 L 539.601 402.728 L 535.961 400.626 L 535.961 396.424 Z " fill="rgb(229,255,113)"/><path d=" M 543.241 409.032 L 544.696 408.191 L 544.696 394.743 L 543.241 395.583 L 543.241 409.032 Z " fill="rgb(0,59,81)"/><path d=" M 544.696 394.743 L 483.551 359.441 L 482.095 360.281 L 543.241 395.583 L 544.696 394.743 Z " fill="rgb(0,59,81)"/></g><g style="isolation:isolate"><path d=" M 482.095 382.119 L 482.095 395.567 L 543.241 430.869 L 543.241 417.421 L 482.095 382.119 Z " fill="rgb(20,127,165)"/><path d=" M 485.007 388.843 L 517.763 407.755 L 517.763 411.957 L 485.007 393.045 L 485.007 388.843 Z " fill="rgb(230,116,255)"/><path d=" M 521.403 409.856 L 525.043 411.957 L 525.043 416.16 L 521.403 414.059 L 521.403 409.856 Z " fill="rgb(0,210,56)"/><path d=" M 528.682 414.059 L 532.322 416.16 L 532.322 420.363 L 528.682 418.261 L 528.682 414.059 Z " fill="rgb(0,210,56)"/><path d=" M 535.961 418.261 L 539.601 420.363 L 539.601 424.565 L 535.961 422.464 L 535.961 418.261 Z " fill="rgb(0,210,56)"/><path d=" M 543.241 430.869 L 544.696 430.029 L 544.696 416.58 L 543.241 417.421 L 543.241 430.869 Z " fill="rgb(0,59,81)"/><path d=" M 544.696 416.58 L 483.551 381.278 L 482.095 382.119 L 543.241 417.421 L 544.696 416.58 Z " fill="rgb(0,59,81)"/></g></g><g style="isolation:isolate"><radialGradient id="_rgradient_16" fx="0.5" fy="0.5" cx="0.5" cy="0.5" r="0.5" gradientTransform="matrix(72.792,0,0,42.026,511.94,210.943)" gradientUnits="userSpaceOnUse"><stop offset="1.7391304347826086%" stop-opacity="1" style="stop-color:rgb(0,100,136)"/><stop offset="97.3913043478261%" stop-opacity="1" style="stop-color:rgb(60,178,221)"/></radialGradient><path d=" M 511.94 231.956 L 548.336 210.943 L 584.732 231.956 L 548.336 252.97 L 511.94 231.956 Z " fill="url(#_rgradient_16)"/><path d=" M 511.94 231.956 L 548.336 210.943 L 548.336 215.146 L 515.58 234.058 L 511.94 231.956 Z " fill="rgb(8,91,121)"/><path d=" M 548.336 210.943 L 548.336 215.146 L 581.092 234.058 L 584.732 231.956 L 548.336 210.943 Z " fill="rgb(8,91,121)"/><g style="isolation:isolate"><radialGradient id="_rgradient_17" fx="0.5" fy="0.5" cx="0.5" cy="0.5" r="0.5" gradientTransform="matrix(3.64,0,0,6.304,548.336,229.855)" gradientUnits="userSpaceOnUse"><stop offset="1.3043478260869565%" stop-opacity="1" style="stop-color:rgb(0,255,115)"/><stop offset="96.95652173913044%" stop-opacity="1" style="stop-color:rgb(34,181,32)"/></radialGradient><path d=" M 548.336 231.956 L 551.976 229.855 L 551.976 234.058 L 548.336 236.159 L 548.336 231.956 Z " fill="url(#_rgradient_17)"/><radialGradient id="_rgradient_18" fx="0.5" fy="0.5" cx="0.5" cy="0.5" r="0.5" gradientTransform="matrix(7.279,0,0,4.203,544.696,227.754)" gradientUnits="userSpaceOnUse"><stop offset="1.3043478260869565%" stop-opacity="1" style="stop-color:rgb(0,255,115)"/><stop offset="96.95652173913044%" stop-opacity="1" style="stop-color:rgb(34,181,32)"/></radialGradient><path d=" M 544.696 229.855 L 548.336 227.754 L 551.976 229.855 L 548.336 231.956 L 544.696 229.855 Z " fill="url(#_rgradient_18)"/><radialGradient id="_rgradient_19" fx="0.5" fy="0.5" cx="0.5" cy="0.5" r="0.5" gradientTransform="matrix(3.64,0,0,6.304,544.696,229.855)" gradientUnits="userSpaceOnUse"><stop offset="1.3043478260869565%" stop-opacity="1" style="stop-color:rgb(0,255,115)"/><stop offset="96.95652173913044%" stop-opacity="1" style="stop-color:rgb(34,181,32)"/></radialGradient><path d=" M 544.696 234.058 L 544.696 229.855 L 548.336 231.956 L 548.336 236.159 L 544.696 234.058 Z " fill="url(#_rgradient_19)"/></g></g></g></g><g style="isolation:isolate"><path d=" M 328.535 106.229 L 91 256 L 62 241.675 Q 38.5 212.239 73 166.62 Q 66.5 94.5 123 69 Q 172.5 58.128 200 91.564 Q 252.5 60.628 283 91.564 Q 301.75 80.75 319 87 L 340 99 L 328.535 106.229 Z " fill="rgb(204,204,204)"/><path d=" M 284 89 C 275.231 82.774 263.75 78.25 255 77 Q 233 73.125 205 89 L 223 103 Q 267.875 95.25 284 89 Z " fill="rgb(204,204,204)"/><path d=" M 196 83 Q 162.25 61.5 131 67 Q 68.5 88.5 73 166 L 93 176.62 Q 96 57 196 83 Z " fill="rgb(204,204,204)"/><path d=" M 343 124.658 L 123 251.675 Q 103 263.35 83 251.675 Q 73 245.615 73 222.808 Q 73 200 93 176.62 Q 87.782 107.608 133 84.244 Q 177.5 61.25 223 101.564 Q 272 70.625 303 101.564 Q 327.875 87.5 343 101.564 Q 353.33 111.169 343 124.658 Z " fill="rgb(227,227,227)"/></g></g></svg>