<?xml version="1.0" encoding="UTF-8" standalone="no"?>
<svg xmlns="http://www.w3.org/2000/svg" viewBox="0 0 600 600" width="600pt" height="600pt">
<symbol id="services-icon" viewBox="0 0 600 600">
    <path d=" M 259.488 407.586 Q 299.902 391.626 317.713 391.906 Q 347.216 370.709 361.239 369.726 C 375.261 368.743 383.456 371.038 383.419 388.703 Q 374.673 400.033 355.903 414.278 Q 324.352 408.287 282.21 420.642 L 259.488 407.586 Z  M 282.21 420.642 C 299.608 414.581 334.745 409.257 355.903 414.278 Q 398.181 394.855 416.749 394.255 Q 445.201 371.667 459.16 370.012 C 473.12 368.357 481.415 370.256 482.226 387.902 Q 471.935 397.64 459.571 408.299 C 443.111 409.276 424.332 415.124 403.175 425.783 Q 344.5 420.525 303 434 Q 290.078 429.71 282.21 420.642 Z  M 403.131 425.783 Q 403.153 425.774 403.175 425.765 L 403 426 Q 353.5 452.35 302 434 C 338.938 424.455 371.992 421.726 403.131 425.783 Z  M 495 445 Q 532.1 420.801 548.973 420.129 C 565.845 419.457 575.601 422.509 574.917 443.717 Q 555.804 459.16 531.337 476.499 L 457.132 504.46 L 403 515 C 455.017 472.737 485.088 449.291 495 445 Z  M 25.049 429.324 Q 123.287 368.912 194.587 383.798 Q 242.751 393.119 288 426 C 320.063 449.3 365.633 446.326 423.922 416.911 Q 483.355 390.528 495 445 Q 449.22 472.207 411.261 504.598 Q 366.57 527.983 290.437 522.729 Q 214.305 517.475 40.646 504.598 L 25.049 429.324 Z  M 477.192 404.914 Q 512.51 379.284 529.349 378.023 C 546.187 376.763 556.044 379.473 556.101 400.692 Q 537.538 415.818 513.692 434 Q 493.78 443.432 495 442.205 Q 486.375 412.625 465 409 Q 464.692 404.777 477.192 404.914 Z " fill-rule="evenodd" stroke-width="10" stroke-linejoin="miter" stroke-linecap="square" stroke-miterlimit="3"/>
<path d=" M 140.021 152.663 C 143.203 147.935 146.796 143.557 150.736 139.564 L 136.704 113.22 L 184.353 87.84 L 198.279 113.984 L 198.279 113.984 C 203.664 112.919 209.175 112.335 214.749 112.263 L 223.267 84 L 223.267 84 L 274.958 99.579 L 266.531 127.537 C 271.432 130.793 275.961 134.489 280.08 138.554 L 305.78 124.865 L 331.16 172.514 L 305.659 186.098 L 305.659 186.098 C 306.758 191.656 307.345 197.348 307.385 203.105 L 335 211.428 L 335 211.428 L 319.421 263.119 L 291.806 254.796 C 288.479 259.74 284.702 264.3 280.55 268.438 L 294.135 293.941 L 294.135 293.941 L 246.486 319.322 L 232.795 293.62 C 227.302 294.659 221.681 295.198 215.998 295.203 L 207.572 323.161 L 155.881 307.582 L 164.399 279.319 L 164.399 279.319 C 159.628 276.067 155.219 272.394 151.207 268.368 L 125.059 282.296 L 125.059 282.296 L 99.678 234.647 L 126.023 220.614 C 125.017 215.293 124.479 209.853 124.441 204.354 L 95.839 195.733 L 111.418 144.042 L 140.021 152.663 L 140.021 152.663 Z  M 179.967 192.374 C 185.971 172.455 207.016 161.158 226.935 167.161 C 246.853 173.165 258.151 194.21 252.147 214.129 C 246.144 234.047 225.099 245.345 205.18 239.341 C 185.261 233.338 173.964 212.293 179.967 192.374 L 179.967 192.374 Z " fill-rule="evenodd" stroke-width="10" stroke-linejoin="miter" stroke-linecap="square" stroke-miterlimit="3" />
<path d=" M 394.6 246.066 C 396.373 243.819 398.338 241.763 400.462 239.913 L 394.434 226.191 L 419.255 215.289 L 425.237 228.907 L 425.237 228.907 C 427.973 228.578 430.755 228.494 433.548 228.67 L 438.885 214.841 L 438.885 214.841 L 438.885 214.841 L 438.885 214.841 L 438.885 214.841 L 438.885 214.841 L 438.885 214.841 L 438.885 214.841 L 464.176 224.601 L 458.897 238.28 C 461.228 240.096 463.355 242.119 465.264 244.31 L 478.65 238.43 L 489.553 263.25 L 476.269 269.085 L 476.269 269.085 C 476.608 271.91 476.687 274.782 476.488 277.666 L 490 282.881 L 490 282.881 L 490 282.881 L 490 282.881 L 490 282.881 L 490 282.881 L 490 282.881 L 480.24 308.172 L 466.729 302.958 C 464.875 305.307 462.811 307.447 460.576 309.361 L 466.411 322.646 L 466.411 322.646 L 466.411 322.646 L 466.411 322.646 L 466.411 322.646 L 441.591 333.548 L 435.71 320.16 C 432.92 320.472 430.085 320.529 427.239 320.316 L 421.961 333.996 L 396.669 324.236 L 402.006 310.407 L 402.006 310.407 C 399.74 308.598 397.671 306.592 395.815 304.424 L 382.195 310.407 L 382.195 310.407 L 382.195 310.407 L 371.293 285.586 L 385.016 279.559 C 384.714 276.856 384.651 274.112 384.84 271.357 L 370.845 265.956 L 380.605 240.665 L 394.6 246.066 L 394.6 246.066 Z  M 413.096 267.463 C 416.857 257.718 427.823 252.859 437.569 256.62 C 447.315 260.38 452.174 271.346 448.413 281.092 C 444.652 290.838 433.686 295.697 423.94 291.936 C 414.194 288.175 409.335 277.209 413.096 267.463 L 413.096 267.463 Z " fill-rule="evenodd" stroke-width="10" stroke-linejoin="miter" stroke-linecap="square" stroke-miterlimit="3" />

</symbol>
</svg>