<?xml version="1.0" encoding="UTF-8" standalone="no"?>
<svg xmlns="http://www.w3.org/2000/svg" xmlns:xlink="http://www.w3.org/1999/xlink" style="isolation:isolate" viewBox="0 0 600 600" width="600pt" height="600pt"><defs><clipPath id="_clipPath_vGACehJQrjgC2QzTXAULKmqEMIpE7juB"><rect width="600" height="600"/></clipPath></defs><g clip-path="url(#_clipPath_vGACehJQrjgC2QzTXAULKmqEMIpE7juB)"><g style="isolation:isolate"><path d=" M 166.277 407.017 C 178.224 406.434 250.049 405.927 260.976 408.987 Q 304.137 391.614 322.713 391.906 Q 352.216 370.709 366.239 369.726 C 380.261 368.743 388.456 371.038 388.419 388.703 Q 372.903 402.033 352.979 417.075 L 291.934 442.205 L 187.364 464.966 Q 154.331 407.599 166.277 407.017 Z " fill="rgb(0,0,0)" vector-effect="non-scaling-stroke" stroke-width="5.679" stroke="rgb(255,255,255)" stroke-linejoin="miter" stroke-linecap="square" stroke-miterlimit="3"/><path d=" M 259.865 424.096 C 271.77 422.941 334.974 410.181 355.903 414.278 Q 398.181 394.855 416.749 394.255 Q 445.201 371.667 459.16 370.012 C 473.12 368.357 481.415 370.256 482.226 387.902 Q 467.367 401.962 448.188 417.942 L 388.419 445.972 L 285.062 473.725 Q 247.961 425.251 259.865 424.096 Z " fill="rgb(0,0,0)" vector-effect="non-scaling-stroke" stroke-width="5.679" stroke="rgb(255,255,255)" stroke-linejoin="miter" stroke-linecap="square" stroke-miterlimit="3"/><path d=" M 273.496 437.036 C 287.843 436.268 350.592 420.262 403.131 425.783 Q 454.877 404.67 477.192 404.914 Q 512.51 379.284 529.349 378.023 C 546.187 376.763 556.044 379.473 556.101 400.692 Q 537.538 416.793 513.692 434.975 L 440.507 465.509 L 315.028 493.446 Q 259.149 437.804 273.496 437.036 Z " fill="rgb(0,0,0)" vector-effect="non-scaling-stroke" stroke-width="5.679" stroke="rgb(255,255,255)" stroke-linejoin="miter" stroke-linecap="square" stroke-miterlimit="3"/><path d=" M 307.534 457.658 C 321.899 457.392 408.156 459.384 421.165 463.454 Q 473.617 444.159 495.909 445.183 Q 532.1 420.801 548.973 420.129 C 565.845 419.457 575.601 422.509 574.917 443.717 Q 555.804 459.16 531.337 476.499 L 457.132 504.46 L 330.753 528 Q 293.169 457.925 307.534 457.658 Z " fill="rgb(0,0,0)" vector-effect="non-scaling-stroke" stroke-width="5.679" stroke="rgb(255,255,255)" stroke-linejoin="miter" stroke-linecap="square" stroke-miterlimit="3"/><path d=" M 25.049 429.324 Q 123.287 368.912 194.587 383.798 Q 243.889 392.064 288.334 426.024 Q 332.778 459.985 423.922 416.911 Q 483.877 391.138 495.522 445.611 Q 449.22 472.207 411.261 504.598 Q 366.57 527.983 290.437 522.729 Q 214.305 517.475 40.646 504.598 L 25.049 429.324 Z " fill="rgb(0,0,0)" vector-effect="non-scaling-stroke" stroke-width="5.679" stroke="rgb(255,255,255)" stroke-linejoin="miter" stroke-linecap="square" stroke-miterlimit="3"/></g><g style="isolation:isolate"><path d=" M 128.348 177.338 C 142.914 129.009 193.976 101.598 242.305 116.164 C 290.633 130.73 318.044 181.793 303.478 230.121 C 288.913 278.45 237.85 305.861 189.522 291.295 C 141.193 276.729 113.782 225.667 128.348 177.338 Z  M 179.967 192.374 C 185.971 172.455 207.016 161.158 226.935 167.161 C 246.853 173.165 258.151 194.21 252.147 214.129 C 246.144 234.047 225.099 245.345 205.18 239.341 C 185.261 233.338 173.964 212.293 179.967 192.374 Z " fill-rule="evenodd" fill="rgb(0,0,0)"/><rect x="216.149" y="90.91" width="53.987" height="41.371" transform="matrix(0.957,0.289,-0.289,0.957,42.547,-65.417)" fill="rgb(0,0,0)"/><rect x="160.702" y="274.881" width="53.987" height="41.371" transform="matrix(0.957,0.289,-0.289,0.957,93.277,-41.59)" fill="rgb(0,0,0)"/><rect x="280.411" y="210.619" width="53.987" height="41.371" transform="matrix(-0.289,0.957,-0.957,-0.289,617.578,3.725)" fill="rgb(0,0,0)"/><rect x="96.44" y="155.171" width="53.987" height="41.371" transform="matrix(-0.289,0.957,-0.957,-0.289,327.429,108.421)" fill="rgb(0,0,0)"/><rect x="233.592" y="267.689" width="53.987" height="41.371" transform="matrix(-0.883,0.47,-0.47,-0.883,626.15,420.386)" fill="rgb(0,0,0)"/><rect x="143.26" y="98.101" width="53.987" height="41.371" transform="matrix(-0.883,0.47,-0.47,-0.883,376.363,143.588)" fill="rgb(0,0,0)"/><rect x="103.632" y="228.061" width="53.987" height="41.371" transform="matrix(-0.47,-0.883,0.883,-0.47,-27.508,480.979)" fill="rgb(0,0,0)"/><rect x="273.219" y="137.729" width="53.987" height="41.371" transform="matrix(-0.47,-0.883,0.883,-0.47,301.534,497.857)" fill="rgb(0,0,0)"/></g><g style="isolation:isolate"><path d=" M 387.82 257.978 C 396.945 234.332 423.552 222.542 447.198 231.668 C 470.844 240.793 482.634 267.399 473.508 291.045 C 464.383 314.692 437.777 326.481 414.131 317.356 C 390.484 308.231 378.695 281.624 387.82 257.978 Z  M 413.096 267.463 C 416.857 257.718 427.823 252.859 437.569 256.62 C 447.315 260.38 452.174 271.346 448.413 281.092 C 444.652 290.838 433.686 295.697 423.94 291.936 C 414.194 288.175 409.335 277.209 413.096 267.463 Z " fill-rule="evenodd" fill="rgb(0,0,0)"/><rect x="434.236" y="219.025" width="27.109" height="20.774" transform="matrix(0.933,0.36,-0.36,0.933,112.621,-145.831)" fill="rgb(0,0,0)"/><rect x="399.5" y="309.038" width="27.109" height="20.774" transform="matrix(0.933,0.36,-0.36,0.933,142.698,-127.29)" fill="rgb(0,0,0)"/><rect x="461.875" y="281.4" width="27.109" height="20.774" transform="matrix(-0.36,0.933,-0.933,-0.36,918.815,-46.712)" fill="rgb(0,0,0)"/><rect x="371.861" y="246.663" width="27.109" height="20.774" transform="matrix(-0.36,0.933,-0.933,-0.36,763.988,-9.977)" fill="rgb(0,0,0)"/><rect x="436.269" y="308.2" width="27.109" height="20.774" transform="matrix(-0.916,0.402,-0.402,-0.916,989.791,429.375)" fill="rgb(0,0,0)"/><rect x="397.467" y="219.863" width="27.109" height="20.774" transform="matrix(-0.916,0.402,-0.402,-0.916,879.938,275.763)" fill="rgb(0,0,0)"/><rect x="372.699" y="283.432" width="27.109" height="20.774" transform="matrix(-0.402,-0.916,0.916,-0.402,272.578,765.624)" fill="rgb(0,0,0)"/><rect x="461.037" y="244.631" width="27.109" height="20.774" transform="matrix(-0.402,-0.916,0.916,-0.402,431.967,792.097)" fill="rgb(0,0,0)"/></g></g></svg>