<?xml version="1.0" encoding="UTF-8" standalone="no"?><!-- Generator: Gravit.io --><svg xmlns="http://www.w3.org/2000/svg" xmlns:xlink="http://www.w3.org/1999/xlink" style="isolation:isolate" viewBox="0 0 800 600" width="800pt" height="600pt"><defs><clipPath id="_clipPath_EUYtLgzTRutBCBgORT3ajRbosiXJbLG8"><rect width="800" height="600"/></clipPath></defs><g clip-path="url(#_clipPath_EUYtLgzTRutBCBgORT3ajRbosiXJbLG8)"><g style="isolation:isolate"><g style="isolation:isolate"><path d=" M 500 427.239 L 540 450.333 L 500 473.427 L 460 450.333 L 500 427.239 Z " fill="rgb(166,231,255)"/><path d=" M 520 484.974 L 560 461.88 L 600 484.974 L 560 508.068 L 520 484.974 Z " fill="rgb(166,231,255)"/><path d=" M 640 554.256 L 680 531.162 L 720 554.256 L 680 577.35 L 640 554.256 Z " fill="rgb(166,231,255)"/><path d=" M 440 438.786 L 480 415.692 L 440 392.598 L 400 415.692 L 440 438.786 Z " fill="rgb(239,251,255)"/><path d=" M 420 381.051 L 380 357.957 L 340 381.051 L 380 404.145 L 420 381.051 Z " fill="rgb(175,219,234)"/><path d=" M 300 311.769 L 260 334.863 L 220 311.769 L 260 288.675 L 300 311.769 Z " fill="rgb(239,251,255)"/><path d=" M 200 300.222 L 240 277.128 L 200 254.034 L 160 277.128 L 200 300.222 Z " fill="rgb(239,251,255)"/><path d=" M 140 265.581 L 180 242.487 L 140 219.393 L 100 242.487 L 140 265.581 Z " fill="rgb(175,219,234)"/><path d=" M 80 230.94 L 120 207.846 L 80 184.752 L 40 207.846 L 80 230.94 Z " fill="rgb(255,255,255)" vector-effect="non-scaling-stroke" stroke-width="1" stroke="rgb(0,0,0)" stroke-linejoin="miter" stroke-linecap="square" stroke-miterlimit="3"/></g><g style="isolation:isolate"><path d=" M 500 497.239 L 540 520.333 L 500 543.427 L 460 520.333 L 500 497.239 Z " fill="rgb(175,219,234)"/><path d=" M 520 554.974 L 560 531.88 L 600 554.974 L 560 578.068 L 520 554.974 Z " fill="rgb(166,231,255)"/><path d=" M 440 508.786 L 480 485.692 L 440 462.598 L 400 485.692 L 440 508.786 Z " fill="rgb(239,251,255)"/><path d=" M 420 451.051 L 380 427.957 L 340 451.051 L 380 474.145 L 420 451.051 Z " fill="rgb(255,255,255)" vector-effect="non-scaling-stroke" stroke-width="1" stroke="rgb(0,0,0)" stroke-linejoin="miter" stroke-linecap="square" stroke-miterlimit="3"/><path d=" M 360 416.41 L 320 439.504 L 280 416.41 L 320 393.316 L 360 416.41 Z " fill="rgb(255,255,255)" vector-effect="non-scaling-stroke" stroke-width="1" stroke="rgb(0,0,0)" stroke-linejoin="miter" stroke-linecap="square" stroke-miterlimit="3"/><path d=" M 300 381.769 L 260 404.863 L 220 381.769 L 260 358.675 L 300 381.769 Z " fill="rgb(255,255,255)" vector-effect="non-scaling-stroke" stroke-width="1" stroke="rgb(0,0,0)" stroke-linejoin="miter" stroke-linecap="square" stroke-miterlimit="3"/><path d=" M 140 335.581 L 180 312.487 L 140 289.393 L 100 312.487 L 140 335.581 Z " fill="rgb(166,231,255)"/><path d=" M 80 300.94 L 120 277.846 L 80 254.752 L 40 277.846 L 80 300.94 Z " fill="rgb(239,251,255)"/></g><g style="isolation:isolate"><path d=" M 380 542.786 L 420 519.692 L 380 496.598 L 340 519.692 L 380 542.786 Z " fill="rgb(175,219,234)"/><path d=" M 360 485.051 L 320 461.957 L 280 485.051 L 320 508.145 L 360 485.051 Z " fill="rgb(255,255,255)" vector-effect="non-scaling-stroke" stroke-width="1" stroke="rgb(0,0,0)" stroke-linejoin="miter" stroke-linecap="square" stroke-miterlimit="3"/><path d=" M 300 450.41 L 260 473.504 L 220 450.41 L 260 427.316 L 300 450.41 Z " fill="rgb(255,255,255)" vector-effect="non-scaling-stroke" stroke-width="1" stroke="rgb(0,0,0)" stroke-linejoin="miter" stroke-linecap="square" stroke-miterlimit="3"/><path d=" M 80 369.581 L 120 346.487 L 80 323.393 L 40 346.487 L 80 369.581 Z " fill="rgb(239,251,255)"/></g><g style="isolation:isolate"><path d=" M 180 450.769 L 140 473.863 L 100 450.769 L 140 427.675 L 180 450.769 Z " fill="rgb(166,231,255)"/><path d=" M 80 439.222 L 120 416.128 L 80 393.034 L 40 416.128 L 80 439.222 Z " fill="rgb(175,219,234)"/></g><g style="isolation:isolate"><path d=" M 240 554.051 L 200 530.957 L 160 554.051 L 200 577.145 L 240 554.051 Z " fill="rgb(166,231,255)"/><path d=" M 120 484.769 L 80 507.863 L 40 484.769 L 80 461.675 L 120 484.769 Z " fill="rgb(239,251,255)"/></g><g style="isolation:isolate"><path d=" M 120 554.41 L 80 577.504 L 40 554.41 L 80 531.316 L 120 554.41 Z " fill="rgb(239,251,255)"/></g><g style="isolation:isolate"><path d=" M 560 254.239 L 600 277.333 L 560 300.427 L 520 277.333 L 560 254.239 Z " fill="rgb(255,255,255)" vector-effect="non-scaling-stroke" stroke-width="1" stroke="rgb(0,0,0)" stroke-linejoin="miter" stroke-linecap="square" stroke-miterlimit="3"/><path d=" M 580 311.974 L 620 288.88 L 660 311.974 L 620 335.068 L 580 311.974 Z " fill="rgb(255,255,255)" vector-effect="non-scaling-stroke" stroke-width="1" stroke="rgb(0,0,0)" stroke-linejoin="miter" stroke-linecap="square" stroke-miterlimit="3"/><path d=" M 640 346.615 L 680 323.521 L 720 346.615 L 680 369.709 L 640 346.615 Z " fill="rgb(255,255,255)" vector-effect="non-scaling-stroke" stroke-width="1" stroke="rgb(0,0,0)" stroke-linejoin="miter" stroke-linecap="square" stroke-miterlimit="3"/><path d=" M 700 381.256 L 740 358.162 L 780 381.256 L 740 404.35 L 700 381.256 Z " fill="rgb(239,251,255)"/><path d=" M 500 265.786 L 540 242.692 L 500 219.598 L 460 242.692 L 500 265.786 Z " fill="rgb(255,255,255)" vector-effect="non-scaling-stroke" stroke-width="1" stroke="rgb(0,0,0)" stroke-linejoin="miter" stroke-linecap="square" stroke-miterlimit="3"/><path d=" M 480 208.051 L 440 184.957 L 400 208.051 L 440 231.145 L 480 208.051 Z " fill="rgb(255,255,255)" vector-effect="non-scaling-stroke" stroke-width="1" stroke="rgb(0,0,0)" stroke-linejoin="miter" stroke-linecap="square" stroke-miterlimit="3"/><path d=" M 420 173.41 L 380 196.504 L 340 173.41 L 380 150.316 L 420 173.41 Z " fill="rgb(175,219,234)"/><path d=" M 360 138.769 L 320 161.863 L 280 138.769 L 320 115.675 L 360 138.769 Z " fill="rgb(166,231,255)"/><path d=" M 260 127.222 L 300 104.128 L 260 81.034 L 220 104.128 L 260 127.222 Z " fill="rgb(255,255,255)" vector-effect="non-scaling-stroke" stroke-width="1" stroke="rgb(0,0,0)" stroke-linejoin="miter" stroke-linecap="square" stroke-miterlimit="3"/><path d=" M 200 92.581 L 240 69.487 L 200 46.393 L 160 69.487 L 200 92.581 Z " fill="rgb(255,255,255)" vector-effect="non-scaling-stroke" stroke-width="1" stroke="rgb(0,0,0)" stroke-linejoin="miter" stroke-linecap="square" stroke-miterlimit="3"/><path d=" M 140 57.94 L 180 34.846 L 140 11.752 L 100 34.846 L 140 57.94 Z " fill="rgb(166,231,255)"/></g><g style="isolation:isolate"><path d=" M 560 324.239 L 600 347.333 L 560 370.427 L 520 347.333 L 560 324.239 Z " fill="rgb(255,255,255)" vector-effect="non-scaling-stroke" stroke-width="1" stroke="rgb(0,0,0)" stroke-linejoin="miter" stroke-linecap="square" stroke-miterlimit="3"/><path d=" M 700 451.256 L 740 428.162 L 780 451.256 L 740 474.35 L 700 451.256 Z " fill="rgb(166,231,255)"/><path d=" M 500 335.786 L 540 312.692 L 500 289.598 L 460 312.692 L 500 335.786 Z " fill="rgb(255,255,255)" vector-effect="non-scaling-stroke" stroke-width="1" stroke="rgb(0,0,0)" stroke-linejoin="miter" stroke-linecap="square" stroke-miterlimit="3"/><path d=" M 480 278.051 L 440 254.957 L 400 278.051 L 440 301.145 L 480 278.051 Z " fill="rgb(255,255,255)" vector-effect="non-scaling-stroke" stroke-width="1" stroke="rgb(0,0,0)" stroke-linejoin="miter" stroke-linecap="square" stroke-miterlimit="3"/><path d=" M 360 208.769 L 320 231.863 L 280 208.769 L 320 185.675 L 360 208.769 Z " fill="rgb(175,219,234)"/><path d=" M 260 197.222 L 300 174.128 L 260 151.034 L 220 174.128 L 260 197.222 Z " fill="rgb(239,251,255)"/><path d=" M 200 162.581 L 240 139.487 L 200 116.393 L 160 139.487 L 200 162.581 Z " fill="rgb(255,255,255)" vector-effect="non-scaling-stroke" stroke-width="1" stroke="rgb(0,0,0)" stroke-linejoin="miter" stroke-linecap="square" stroke-miterlimit="3"/><path d=" M 140 127.94 L 180 104.846 L 140 81.752 L 100 104.846 L 140 127.94 Z " fill="rgb(255,255,255)" vector-effect="non-scaling-stroke" stroke-width="1" stroke="rgb(0,0,0)" stroke-linejoin="miter" stroke-linecap="square" stroke-miterlimit="3"/></g><g style="isolation:isolate"><path d=" M 580 450.615 L 620 427.521 L 660 450.615 L 620 473.709 L 580 450.615 Z " fill="rgb(239,251,255)"/><path d=" M 360 277.41 L 320 300.504 L 280 277.41 L 320 254.316 L 360 277.41 Z " fill="rgb(166,231,255)"/><path d=" M 200 231.222 L 240 208.128 L 200 185.034 L 160 208.128 L 200 231.222 Z " fill="rgb(166,231,255)"/><path d=" M 80 161.94 L 120 138.846 L 80 115.752 L 40 138.846 L 80 161.94 Z " fill="rgb(255,255,255)" vector-effect="non-scaling-stroke" stroke-width="1" stroke="rgb(0,0,0)" stroke-linejoin="miter" stroke-linecap="square" stroke-miterlimit="3"/></g><g style="isolation:isolate"><path d=" M 621 150.239 L 661 173.333 L 621 196.427 L 581 173.333 L 621 150.239 Z " fill="rgb(255,255,255)" vector-effect="non-scaling-stroke" stroke-width="1" stroke="rgb(0,0,0)" stroke-linejoin="miter" stroke-linecap="square" stroke-miterlimit="3"/><path d=" M 641 207.974 L 681 184.88 L 721 207.974 L 681 231.068 L 641 207.974 Z " fill="rgb(255,255,255)" vector-effect="non-scaling-stroke" stroke-width="1" stroke="rgb(0,0,0)" stroke-linejoin="miter" stroke-linecap="square" stroke-miterlimit="3"/><path d=" M 701 242.615 L 741 219.521 L 781 242.615 L 741 265.709 L 701 242.615 Z " fill="rgb(175,219,234)"/><path d=" M 561 161.786 L 601 138.692 L 561 115.598 L 521 138.692 L 561 161.786 Z " fill="rgb(255,255,255)" vector-effect="non-scaling-stroke" stroke-width="1" stroke="rgb(0,0,0)" stroke-linejoin="miter" stroke-linecap="square" stroke-miterlimit="3"/><path d=" M 481 69.41 L 441 92.504 L 401 69.41 L 441 46.316 L 481 69.41 Z " fill="rgb(166,231,255)"/><path d=" M 421 34.769 L 381 57.863 L 341 34.769 L 381 11.675 L 421 34.769 Z " fill="rgb(239,251,255)"/></g><g style="isolation:isolate"><path d=" M 561 184.239 L 601 207.333 L 561 230.427 L 521 207.333 L 561 184.239 Z " fill="rgb(255,255,255)" vector-effect="non-scaling-stroke" stroke-width="1" stroke="rgb(0,0,0)" stroke-linejoin="miter" stroke-linecap="square" stroke-miterlimit="3"/><path d=" M 581 241.974 L 621 218.88 L 661 241.974 L 621 265.068 L 581 241.974 Z " fill="rgb(255,255,255)" vector-effect="non-scaling-stroke" stroke-width="1" stroke="rgb(0,0,0)" stroke-linejoin="miter" stroke-linecap="square" stroke-miterlimit="3"/><path d=" M 641 276.615 L 681 253.521 L 721 276.615 L 681 299.709 L 641 276.615 Z " fill="rgb(255,255,255)" vector-effect="non-scaling-stroke" stroke-width="1" stroke="rgb(0,0,0)" stroke-linejoin="miter" stroke-linecap="square" stroke-miterlimit="3"/><path d=" M 701 311.256 L 741 288.162 L 781 311.256 L 741 334.35 L 701 311.256 Z " fill="rgb(175,219,234)"/><path d=" M 501 195.786 L 541 172.692 L 501 149.598 L 461 172.692 L 501 195.786 Z " fill="rgb(255,255,255)" vector-effect="non-scaling-stroke" stroke-width="1" stroke="rgb(0,0,0)" stroke-linejoin="miter" stroke-linecap="square" stroke-miterlimit="3"/><path d=" M 421 103.41 L 381 126.504 L 341 103.41 L 381 80.316 L 421 103.41 Z " fill="rgb(175,219,234)"/></g><g style="isolation:isolate"><path d=" M 779 104.051 L 739 80.957 L 699 104.051 L 739 127.145 L 779 104.051 Z " fill="rgb(166,231,255)"/><path d=" M 719 69.41 L 679 92.504 L 639 69.41 L 679 46.316 L 719 69.41 Z " fill="rgb(166,231,255)"/><path d=" M 659 34.769 L 619 57.863 L 579 34.769 L 619 11.675 L 659 34.769 Z " fill="rgb(239,251,255)"/></g><g style="isolation:isolate"><path d=" M 739 195.786 L 779 172.692 L 739 149.598 L 699 172.692 L 739 195.786 Z " fill="rgb(239,251,255)"/><path d=" M 719 138.051 L 679 114.957 L 639 138.051 L 679 161.145 L 719 138.051 Z " fill="rgb(255,255,255)" vector-effect="non-scaling-stroke" stroke-width="1" stroke="rgb(0,0,0)" stroke-linejoin="miter" stroke-linecap="square" stroke-miterlimit="3"/><path d=" M 599 68.769 L 559 91.863 L 519 68.769 L 559 45.675 L 599 68.769 Z " fill="rgb(175,219,234)"/></g></g><g style="isolation:isolate"><g style="isolation:isolate"><g style="isolation:isolate"><radialGradient id="_rgradient_0" fx="0.5" fy="0.5" cx="0.5" cy="0.5" r="0.5" gradientTransform="matrix(145.584,0,0,84.053,499.184,232.745)" gradientUnits="userSpaceOnUse"><stop offset="1.7391304347826086%" stop-opacity="1" style="stop-color:rgb(0,213,255)"/><stop offset="100%" stop-opacity="1" style="stop-color:rgb(0,94,117)"/></radialGradient><path d=" M 499.184 274.771 L 571.976 232.745 L 644.767 274.771 L 571.976 316.797 L 499.184 274.771 Z " fill="url(#_rgradient_0)"/><path d=" M 644.767 274.771 L 644.767 278.974 L 571.976 321 L 571.976 316.797 L 644.767 274.771 Z " fill="rgb(0,97,119)"/><path d=" M 499.184 274.771 L 499.184 278.974 L 571.976 321 L 571.976 316.797 L 499.184 274.771 Z " fill="rgb(0,97,119)"/></g><g style="isolation:isolate"><linearGradient id="_lgradient_0" x1="0.2623749999999998" y1="0.7686172282542298" x2="0.7367500000000001" y2="0.26952088333459606" gradientTransform="matrix(72.792,0,0,210.132,569.792,92.026)" gradientUnits="userSpaceOnUse"><stop offset="1.7391304347826086%" stop-opacity="1" style="stop-color:rgb(0,84,115)"/><stop offset="97.82608695652173%" stop-opacity="1" style="stop-color:rgb(27,143,185)"/></linearGradient><path d=" M 642.584 260.132 L 569.792 302.158 L 569.792 134.053 L 642.584 92.026 L 642.584 260.132 Z " fill="url(#_lgradient_0)"/><linearGradient id="_lgradient_1" x1="0.2623749999999998" y1="0.7686172282542298" x2="0.7367500000000001" y2="0.26952088333459606" gradientTransform="matrix(145.584,0,0,84.053,497,50)" gradientUnits="userSpaceOnUse"><stop offset="1.7391304347826086%" stop-opacity="1" style="stop-color:rgb(0,100,136)"/><stop offset="97.3913043478261%" stop-opacity="1" style="stop-color:rgb(60,178,221)"/></linearGradient><path d=" M 497 92.026 L 569.792 50 L 642.584 92.026 L 569.792 134.053 L 497 92.026 Z " fill="url(#_lgradient_1)"/><path d=" M 497 260.132 L 569.792 302.158 L 569.792 134.053 L 497 92.026 L 497 260.132 Z " fill="rgb(8,91,121)"/></g><g style="isolation:isolate"><linearGradient id="_lgradient_2" x1="0.2623749999999998" y1="0.7686172282542298" x2="0.7367500000000001" y2="0.26952088333459606" gradientTransform="matrix(43.675,0,0,159.7,588.718,120.291)" gradientUnits="userSpaceOnUse"><stop offset="1.7391304347826086%" stop-opacity="1" style="stop-color:rgb(0,84,115)"/><stop offset="97.82608695652173%" stop-opacity="1" style="stop-color:rgb(27,143,185)"/></linearGradient><path d=" M 588.718 145.507 L 632.393 120.291 L 632.393 254.775 L 588.718 279.991 L 588.718 145.507 Z " fill="url(#_lgradient_2)"/><path d=" M 588.718 279.991 L 585.078 277.89 L 585.078 143.405 L 588.718 145.507 L 588.718 279.991 Z " fill="rgb(0,59,81)"/><linearGradient id="_lgradient_3" x1="0" y1="0.5" x2="1.038461538461538" y2="-0.40442888750692896" gradientTransform="matrix(47.315,0,0,27.317,585.078,118.189)" gradientUnits="userSpaceOnUse"><stop offset="0%" stop-opacity="1" style="stop-color:rgb(0,59,81)"/><stop offset="97.82608695652173%" stop-opacity="1" style="stop-color:rgb(14,92,121)"/></linearGradient><path d=" M 585.078 143.405 L 588.718 145.507 L 632.393 120.291 L 628.753 118.189 L 585.078 143.405 Z " fill="url(#_lgradient_3)"/><path d=" M 595.997 154.42 L 595.997 192.244 L 625.114 175.434 L 625.114 137.61 L 595.997 154.42 Z " fill="rgb(0,45,62)"/></g><g style="isolation:isolate"><path d=" M 598.909 157.587 L 601.82 155.906 L 601.82 157.587 L 598.909 159.269 L 598.909 157.587 Z " fill="rgb(94,179,210)"/><path d=" M 603.276 155.066 L 606.188 153.385 L 606.188 155.066 L 603.276 156.747 L 603.276 155.066 Z " fill="rgb(94,179,210)"/><path d=" M 607.644 159.269 L 610.555 157.587 L 610.555 159.269 L 607.644 160.95 L 607.644 159.269 Z " fill="rgb(94,179,210)"/><path d=" M 612.011 156.747 L 617.834 153.385 L 617.834 155.066 L 612.011 158.428 L 612.011 156.747 Z " fill="rgb(94,179,210)"/><path d=" M 598.909 171.036 L 604.732 167.674 L 604.732 169.355 L 598.909 172.717 L 598.909 171.036 Z " fill="rgb(94,179,210)"/><path d=" M 601.82 165.993 L 607.644 162.631 L 607.644 164.312 L 601.82 167.674 L 601.82 165.993 Z " fill="rgb(94,179,210)"/><path d=" M 598.909 160.95 L 603.276 158.428 L 603.276 160.109 L 598.909 162.631 L 598.909 160.95 Z " fill="rgb(94,179,210)"/><path d=" M 604.732 157.587 L 609.099 155.066 L 609.099 156.747 L 604.732 159.269 L 604.732 157.587 Z " fill="rgb(94,179,210)"/><path d=" M 598.909 164.424 L 603.276 161.903 L 603.276 163.584 L 598.909 166.105 L 598.909 164.424 Z " fill="rgb(94,179,210)"/><path d=" M 604.732 160.95 L 606.188 160.109 L 606.188 161.79 L 604.732 162.631 L 604.732 160.95 Z " fill="rgb(94,179,210)"/><path d=" M 598.909 167.786 L 600.364 166.946 L 600.364 168.627 L 598.909 169.467 L 598.909 167.786 Z " fill="rgb(94,179,210)"/><path d=" M 598.909 174.398 L 601.82 172.717 L 601.82 174.398 L 598.909 176.079 L 598.909 174.398 Z " fill="rgb(94,179,210)"/><path d=" M 603.276 171.876 L 604.732 171.036 L 604.732 172.717 L 603.276 173.557 L 603.276 171.876 Z " fill="rgb(94,179,210)"/><path d=" M 606.188 170.195 L 606.188 171.876 L 609.099 170.195 L 609.099 168.514 L 606.188 170.195 Z " fill="rgb(94,179,210)"/><path d=" M 610.555 167.674 L 614.923 165.152 L 614.923 166.833 L 610.555 169.355 L 610.555 167.674 Z " fill="rgb(94,179,210)"/><path d=" M 616.379 164.312 L 619.29 162.631 L 619.29 164.312 L 616.379 165.993 L 616.379 164.312 Z " fill="rgb(94,179,210)"/><path d=" M 598.909 177.76 L 598.909 179.441 L 603.276 176.92 L 603.276 175.239 L 598.909 177.76 Z " fill="rgb(94,179,210)"/><path d=" M 598.909 181.122 L 600.364 180.282 L 600.364 181.963 L 598.909 182.803 L 598.909 181.122 Z " fill="rgb(94,179,210)"/><path d=" M 598.909 184.484 L 606.188 180.282 L 606.188 181.963 L 598.909 186.165 L 598.909 184.484 Z " fill="rgb(94,179,210)"/><path d=" M 601.82 179.441 L 604.732 177.76 L 604.732 179.441 L 601.82 181.122 L 601.82 179.441 Z " fill="rgb(94,179,210)"/><path d=" M 607.644 179.441 L 610.555 177.76 L 610.555 179.441 L 607.644 181.122 L 607.644 179.441 Z " fill="rgb(94,179,210)"/><path d=" M 612.011 176.92 L 613.467 176.079 L 613.467 177.76 L 612.011 178.601 L 612.011 176.92 Z " fill="rgb(94,179,210)"/><path d=" M 604.732 174.398 L 607.644 172.717 L 607.644 174.398 L 604.732 176.079 L 604.732 174.398 Z " fill="rgb(94,179,210)"/><path d=" M 609.099 171.876 L 613.467 169.355 L 613.467 171.036 L 609.099 173.557 L 609.099 171.876 Z " fill="rgb(94,179,210)"/></g><g style="isolation:isolate"><g style="isolation:isolate"><path d=" M 502.095 111.093 L 502.095 124.542 L 563.241 159.844 L 563.241 146.396 L 502.095 111.093 Z " fill="rgb(20,127,165)"/><path d=" M 505.007 117.818 L 537.763 136.73 L 537.763 140.932 L 505.007 122.02 L 505.007 117.818 Z " fill="rgb(230,116,255)"/><path d=" M 541.403 138.831 L 545.043 140.932 L 545.043 145.135 L 541.403 143.033 L 541.403 138.831 Z " fill="rgb(0,210,56)"/><path d=" M 548.682 143.033 L 552.322 145.135 L 552.322 149.337 L 548.682 147.236 L 548.682 143.033 Z " fill="rgb(0,210,56)"/><path d=" M 555.961 147.236 L 559.601 149.337 L 559.601 153.54 L 555.961 151.439 L 555.961 147.236 Z " fill="rgb(229,255,113)"/><path d=" M 563.241 159.844 L 564.696 159.003 L 564.696 145.555 L 563.241 146.396 L 563.241 159.844 Z " fill="rgb(0,59,81)"/><path d=" M 564.696 145.555 L 503.551 110.253 L 502.095 111.093 L 563.241 146.396 L 564.696 145.555 Z " fill="rgb(0,59,81)"/></g><g style="isolation:isolate"><path d=" M 502.095 132.931 L 502.095 146.379 L 563.241 181.682 L 563.241 168.233 L 502.095 132.931 Z " fill="rgb(20,127,165)"/><path d=" M 505.007 139.655 L 537.763 158.567 L 537.763 162.77 L 505.007 143.858 L 505.007 139.655 Z " fill="rgb(230,116,255)"/><path d=" M 541.403 160.668 L 545.043 162.77 L 545.043 166.972 L 541.403 164.871 L 541.403 160.668 Z " fill="rgb(0,210,56)"/><path d=" M 548.682 164.871 L 552.322 166.972 L 552.322 171.175 L 548.682 169.074 L 548.682 164.871 Z " fill="rgb(0,210,56)"/><path d=" M 555.961 169.074 L 559.601 171.175 L 559.601 175.378 L 555.961 173.276 L 555.961 169.074 Z " fill="rgb(0,210,56)"/><path d=" M 563.241 181.682 L 564.696 180.841 L 564.696 167.393 L 563.241 168.233 L 563.241 181.682 Z " fill="rgb(0,59,81)"/><path d=" M 564.696 167.393 L 503.551 132.09 L 502.095 132.931 L 563.241 168.233 L 564.696 167.393 Z " fill="rgb(0,59,81)"/></g><g style="isolation:isolate"><path d=" M 502.095 154.768 L 502.095 168.217 L 563.241 203.519 L 563.241 190.071 L 502.095 154.768 Z " fill="rgb(20,127,165)"/><path d=" M 505.007 161.493 L 537.763 180.405 L 537.763 184.607 L 505.007 165.695 L 505.007 161.493 Z " fill="rgb(230,116,255)"/><path d=" M 541.403 182.506 L 545.043 184.607 L 545.043 188.81 L 541.403 186.709 L 541.403 182.506 Z " fill="rgb(0,210,56)"/><path d=" M 548.682 186.709 L 552.322 188.81 L 552.322 193.012 L 548.682 190.911 L 548.682 186.709 Z " fill="rgb(229,255,113)"/><path d=" M 555.961 190.911 L 559.601 193.012 L 559.601 197.215 L 555.961 195.114 L 555.961 190.911 Z " fill="rgb(229,255,113)"/><path d=" M 563.241 203.519 L 564.696 202.679 L 564.696 189.23 L 563.241 190.071 L 563.241 203.519 Z " fill="rgb(0,59,81)"/><path d=" M 564.696 189.23 L 503.551 153.928 L 502.095 154.768 L 563.241 190.071 L 564.696 189.23 Z " fill="rgb(0,59,81)"/></g><g style="isolation:isolate"><path d=" M 502.095 176.606 L 502.095 190.054 L 563.241 225.357 L 563.241 211.908 L 502.095 176.606 Z " fill="rgb(20,127,165)"/><path d=" M 505.007 183.33 L 537.763 202.242 L 537.763 206.445 L 505.007 187.533 L 505.007 183.33 Z " fill="rgb(230,116,255)"/><path d=" M 541.403 204.343 L 545.043 206.445 L 545.043 210.647 L 541.403 208.546 L 541.403 204.343 Z " fill="rgb(229,255,113)"/><path d=" M 548.682 208.546 L 552.322 210.647 L 552.322 214.85 L 548.682 212.749 L 548.682 208.546 Z " fill="rgb(0,210,56)"/><path d=" M 555.961 212.749 L 559.601 214.85 L 559.601 219.053 L 555.961 216.951 L 555.961 212.749 Z " fill="rgb(229,255,113)"/><path d=" M 563.241 225.357 L 564.696 224.516 L 564.696 211.068 L 563.241 211.908 L 563.241 225.357 Z " fill="rgb(0,59,81)"/><path d=" M 564.696 211.068 L 503.551 175.766 L 502.095 176.606 L 563.241 211.908 L 564.696 211.068 Z " fill="rgb(0,59,81)"/></g><g style="isolation:isolate"><path d=" M 502.095 198.444 L 502.095 211.892 L 563.241 247.194 L 563.241 233.746 L 502.095 198.444 Z " fill="rgb(20,127,165)"/><path d=" M 505.007 205.168 L 537.763 224.08 L 537.763 228.282 L 505.007 209.37 L 505.007 205.168 Z " fill="rgb(230,116,255)"/><path d=" M 541.403 226.181 L 545.043 228.282 L 545.043 232.485 L 541.403 230.384 L 541.403 226.181 Z " fill="rgb(0,210,56)"/><path d=" M 548.682 230.384 L 552.322 232.485 L 552.322 236.688 L 548.682 234.586 L 548.682 230.384 Z " fill="rgb(0,210,56)"/><path d=" M 555.961 234.586 L 559.601 236.688 L 559.601 240.89 L 555.961 238.789 L 555.961 234.586 Z " fill="rgb(229,255,113)"/><path d=" M 563.241 247.194 L 564.696 246.354 L 564.696 232.905 L 563.241 233.746 L 563.241 247.194 Z " fill="rgb(0,59,81)"/><path d=" M 564.696 232.905 L 503.551 197.603 L 502.095 198.444 L 563.241 233.746 L 564.696 232.905 Z " fill="rgb(0,59,81)"/></g><g style="isolation:isolate"><path d=" M 502.095 220.281 L 502.095 233.73 L 563.241 269.032 L 563.241 255.583 L 502.095 220.281 Z " fill="rgb(20,127,165)"/><path d=" M 505.007 227.005 L 537.763 245.917 L 537.763 250.12 L 505.007 231.208 L 505.007 227.005 Z " fill="rgb(230,116,255)"/><path d=" M 541.403 248.018 L 545.043 250.12 L 545.043 254.322 L 541.403 252.221 L 541.403 248.018 Z " fill="rgb(0,210,56)"/><path d=" M 548.682 252.221 L 552.322 254.322 L 552.322 258.525 L 548.682 256.424 L 548.682 252.221 Z " fill="rgb(229,255,113)"/><path d=" M 555.961 256.424 L 559.601 258.525 L 559.601 262.728 L 555.961 260.626 L 555.961 256.424 Z " fill="rgb(229,255,113)"/><path d=" M 563.241 269.032 L 564.696 268.191 L 564.696 254.743 L 563.241 255.583 L 563.241 269.032 Z " fill="rgb(0,59,81)"/><path d=" M 564.696 254.743 L 503.551 219.441 L 502.095 220.281 L 563.241 255.583 L 564.696 254.743 Z " fill="rgb(0,59,81)"/></g><g style="isolation:isolate"><path d=" M 502.095 242.119 L 502.095 255.567 L 563.241 290.869 L 563.241 277.421 L 502.095 242.119 Z " fill="rgb(20,127,165)"/><path d=" M 505.007 248.843 L 537.763 267.755 L 537.763 271.957 L 505.007 253.045 L 505.007 248.843 Z " fill="rgb(230,116,255)"/><path d=" M 541.403 269.856 L 545.043 271.957 L 545.043 276.16 L 541.403 274.059 L 541.403 269.856 Z " fill="rgb(0,210,56)"/><path d=" M 548.682 274.059 L 552.322 276.16 L 552.322 280.363 L 548.682 278.261 L 548.682 274.059 Z " fill="rgb(0,210,56)"/><path d=" M 555.961 278.261 L 559.601 280.363 L 559.601 284.565 L 555.961 282.464 L 555.961 278.261 Z " fill="rgb(0,210,56)"/><path d=" M 563.241 290.869 L 564.696 290.029 L 564.696 276.58 L 563.241 277.421 L 563.241 290.869 Z " fill="rgb(0,59,81)"/><path d=" M 564.696 276.58 L 503.551 241.278 L 502.095 242.119 L 563.241 277.421 L 564.696 276.58 Z " fill="rgb(0,59,81)"/></g></g><g style="isolation:isolate"><radialGradient id="_rgradient_1" fx="0.5" fy="0.5" cx="0.5" cy="0.5" r="0.5" gradientTransform="matrix(72.792,0,0,42.026,531.94,70.943)" gradientUnits="userSpaceOnUse"><stop offset="1.7391304347826086%" stop-opacity="1" style="stop-color:rgb(0,100,136)"/><stop offset="97.3913043478261%" stop-opacity="1" style="stop-color:rgb(60,178,221)"/></radialGradient><path d=" M 531.94 91.956 L 568.336 70.943 L 604.732 91.956 L 568.336 112.97 L 531.94 91.956 Z " fill="url(#_rgradient_1)"/><path d=" M 531.94 91.956 L 568.336 70.943 L 568.336 75.146 L 535.58 94.058 L 531.94 91.956 Z " fill="rgb(8,91,121)"/><path d=" M 568.336 70.943 L 568.336 75.146 L 601.092 94.058 L 604.732 91.956 L 568.336 70.943 Z " fill="rgb(8,91,121)"/><g style="isolation:isolate"><radialGradient id="_rgradient_2" fx="0.5" fy="0.5" cx="0.5" cy="0.5" r="0.5" gradientTransform="matrix(3.64,0,0,6.304,568.336,89.855)" gradientUnits="userSpaceOnUse"><stop offset="1.3043478260869565%" stop-opacity="1" style="stop-color:rgb(0,255,115)"/><stop offset="96.95652173913044%" stop-opacity="1" style="stop-color:rgb(34,181,32)"/></radialGradient><path d=" M 568.336 91.956 L 571.976 89.855 L 571.976 94.058 L 568.336 96.159 L 568.336 91.956 Z " fill="url(#_rgradient_2)"/><radialGradient id="_rgradient_3" fx="0.5" fy="0.5" cx="0.5" cy="0.5" r="0.5" gradientTransform="matrix(7.279,0,0,4.203,564.696,87.754)" gradientUnits="userSpaceOnUse"><stop offset="1.3043478260869565%" stop-opacity="1" style="stop-color:rgb(0,255,115)"/><stop offset="96.95652173913044%" stop-opacity="1" style="stop-color:rgb(34,181,32)"/></radialGradient><path d=" M 564.696 89.855 L 568.336 87.754 L 571.976 89.855 L 568.336 91.956 L 564.696 89.855 Z " fill="url(#_rgradient_3)"/><radialGradient id="_rgradient_4" fx="0.5" fy="0.5" cx="0.5" cy="0.5" r="0.5" gradientTransform="matrix(3.64,0,0,6.304,564.696,89.855)" gradientUnits="userSpaceOnUse"><stop offset="1.3043478260869565%" stop-opacity="1" style="stop-color:rgb(0,255,115)"/><stop offset="96.95652173913044%" stop-opacity="1" style="stop-color:rgb(34,181,32)"/></radialGradient><path d=" M 564.696 94.058 L 564.696 89.855 L 568.336 91.956 L 568.336 96.159 L 564.696 94.058 Z " fill="url(#_rgradient_4)"/></g></g></g><g style="isolation:isolate"><g style="isolation:isolate"><radialGradient id="_rgradient_5" fx="0.5" fy="0.5" cx="0.5" cy="0.5" r="0.5" gradientTransform="matrix(145.584,0,0,84.053,399.184,292.745)" gradientUnits="userSpaceOnUse"><stop offset="1.7391304347826086%" stop-opacity="1" style="stop-color:rgb(0,213,255)"/><stop offset="100%" stop-opacity="1" style="stop-color:rgb(0,94,117)"/></radialGradient><path d=" M 399.184 334.771 L 471.976 292.745 L 544.767 334.771 L 471.976 376.797 L 399.184 334.771 Z " fill="url(#_rgradient_5)"/><path d=" M 544.767 334.771 L 544.767 338.974 L 471.976 381 L 471.976 376.797 L 544.767 334.771 Z " fill="rgb(0,97,119)"/><path d=" M 399.184 334.771 L 399.184 338.974 L 471.976 381 L 471.976 376.797 L 399.184 334.771 Z " fill="rgb(0,97,119)"/></g><g style="isolation:isolate"><linearGradient id="_lgradient_4" x1="0.2623749999999998" y1="0.7686172282542298" x2="0.7367500000000001" y2="0.26952088333459606" gradientTransform="matrix(72.792,0,0,210.132,469.792,152.026)" gradientUnits="userSpaceOnUse"><stop offset="1.7391304347826086%" stop-opacity="1" style="stop-color:rgb(0,84,115)"/><stop offset="97.82608695652173%" stop-opacity="1" style="stop-color:rgb(27,143,185)"/></linearGradient><path d=" M 542.584 320.132 L 469.792 362.158 L 469.792 194.053 L 542.584 152.026 L 542.584 320.132 Z " fill="url(#_lgradient_4)"/><linearGradient id="_lgradient_5" x1="0.2623749999999998" y1="0.7686172282542298" x2="0.7367500000000001" y2="0.26952088333459606" gradientTransform="matrix(145.584,0,0,84.053,397,110)" gradientUnits="userSpaceOnUse"><stop offset="1.7391304347826086%" stop-opacity="1" style="stop-color:rgb(0,100,136)"/><stop offset="97.3913043478261%" stop-opacity="1" style="stop-color:rgb(60,178,221)"/></linearGradient><path d=" M 397 152.026 L 469.792 110 L 542.584 152.026 L 469.792 194.053 L 397 152.026 Z " fill="url(#_lgradient_5)"/><path d=" M 397 320.132 L 469.792 362.158 L 469.792 194.053 L 397 152.026 L 397 320.132 Z " fill="rgb(8,91,121)"/></g><g style="isolation:isolate"><linearGradient id="_lgradient_6" x1="0.2623749999999998" y1="0.7686172282542298" x2="0.7367500000000001" y2="0.26952088333459606" gradientTransform="matrix(43.675,0,0,159.7,488.718,180.291)" gradientUnits="userSpaceOnUse"><stop offset="1.7391304347826086%" stop-opacity="1" style="stop-color:rgb(0,84,115)"/><stop offset="97.82608695652173%" stop-opacity="1" style="stop-color:rgb(27,143,185)"/></linearGradient><path d=" M 488.718 205.507 L 532.393 180.291 L 532.393 314.775 L 488.718 339.991 L 488.718 205.507 Z " fill="url(#_lgradient_6)"/><path d=" M 488.718 339.991 L 485.078 337.89 L 485.078 203.405 L 488.718 205.507 L 488.718 339.991 Z " fill="rgb(0,59,81)"/><linearGradient id="_lgradient_7" x1="0" y1="0.5" x2="1.038461538461538" y2="-0.40442888750692896" gradientTransform="matrix(47.315,0,0,27.317,485.078,178.189)" gradientUnits="userSpaceOnUse"><stop offset="0%" stop-opacity="1" style="stop-color:rgb(0,59,81)"/><stop offset="97.82608695652173%" stop-opacity="1" style="stop-color:rgb(14,92,121)"/></linearGradient><path d=" M 485.078 203.405 L 488.718 205.507 L 532.393 180.291 L 528.753 178.189 L 485.078 203.405 Z " fill="url(#_lgradient_7)"/><path d=" M 495.997 214.42 L 495.997 252.244 L 525.114 235.434 L 525.114 197.61 L 495.997 214.42 Z " fill="rgb(0,45,62)"/></g><g style="isolation:isolate"><path d=" M 498.909 217.587 L 501.82 215.906 L 501.82 217.587 L 498.909 219.269 L 498.909 217.587 Z " fill="rgb(94,179,210)"/><path d=" M 503.276 215.066 L 506.188 213.385 L 506.188 215.066 L 503.276 216.747 L 503.276 215.066 Z " fill="rgb(94,179,210)"/><path d=" M 507.644 219.269 L 510.555 217.587 L 510.555 219.269 L 507.644 220.95 L 507.644 219.269 Z " fill="rgb(94,179,210)"/><path d=" M 512.011 216.747 L 517.834 213.385 L 517.834 215.066 L 512.011 218.428 L 512.011 216.747 Z " fill="rgb(94,179,210)"/><path d=" M 498.909 231.036 L 504.732 227.674 L 504.732 229.355 L 498.909 232.717 L 498.909 231.036 Z " fill="rgb(94,179,210)"/><path d=" M 501.82 225.993 L 507.644 222.631 L 507.644 224.312 L 501.82 227.674 L 501.82 225.993 Z " fill="rgb(94,179,210)"/><path d=" M 498.909 220.95 L 503.276 218.428 L 503.276 220.109 L 498.909 222.631 L 498.909 220.95 Z " fill="rgb(94,179,210)"/><path d=" M 504.732 217.587 L 509.099 215.066 L 509.099 216.747 L 504.732 219.269 L 504.732 217.587 Z " fill="rgb(94,179,210)"/><path d=" M 498.909 224.424 L 503.276 221.903 L 503.276 223.584 L 498.909 226.105 L 498.909 224.424 Z " fill="rgb(94,179,210)"/><path d=" M 504.732 220.95 L 506.188 220.109 L 506.188 221.79 L 504.732 222.631 L 504.732 220.95 Z " fill="rgb(94,179,210)"/><path d=" M 498.909 227.786 L 500.364 226.946 L 500.364 228.627 L 498.909 229.467 L 498.909 227.786 Z " fill="rgb(94,179,210)"/><path d=" M 498.909 234.398 L 501.82 232.717 L 501.82 234.398 L 498.909 236.079 L 498.909 234.398 Z " fill="rgb(94,179,210)"/><path d=" M 503.276 231.876 L 504.732 231.036 L 504.732 232.717 L 503.276 233.557 L 503.276 231.876 Z " fill="rgb(94,179,210)"/><path d=" M 506.188 230.195 L 506.188 231.876 L 509.099 230.195 L 509.099 228.514 L 506.188 230.195 Z " fill="rgb(94,179,210)"/><path d=" M 510.555 227.674 L 514.923 225.152 L 514.923 226.833 L 510.555 229.355 L 510.555 227.674 Z " fill="rgb(94,179,210)"/><path d=" M 516.379 224.312 L 519.29 222.631 L 519.29 224.312 L 516.379 225.993 L 516.379 224.312 Z " fill="rgb(94,179,210)"/><path d=" M 498.909 237.76 L 498.909 239.441 L 503.276 236.92 L 503.276 235.239 L 498.909 237.76 Z " fill="rgb(94,179,210)"/><path d=" M 498.909 241.122 L 500.364 240.282 L 500.364 241.963 L 498.909 242.803 L 498.909 241.122 Z " fill="rgb(94,179,210)"/><path d=" M 498.909 244.484 L 506.188 240.282 L 506.188 241.963 L 498.909 246.165 L 498.909 244.484 Z " fill="rgb(94,179,210)"/><path d=" M 501.82 239.441 L 504.732 237.76 L 504.732 239.441 L 501.82 241.122 L 501.82 239.441 Z " fill="rgb(94,179,210)"/><path d=" M 507.644 239.441 L 510.555 237.76 L 510.555 239.441 L 507.644 241.122 L 507.644 239.441 Z " fill="rgb(94,179,210)"/><path d=" M 512.011 236.92 L 513.467 236.079 L 513.467 237.76 L 512.011 238.601 L 512.011 236.92 Z " fill="rgb(94,179,210)"/><path d=" M 504.732 234.398 L 507.644 232.717 L 507.644 234.398 L 504.732 236.079 L 504.732 234.398 Z " fill="rgb(94,179,210)"/><path d=" M 509.099 231.876 L 513.467 229.355 L 513.467 231.036 L 509.099 233.557 L 509.099 231.876 Z " fill="rgb(94,179,210)"/></g><g style="isolation:isolate"><g style="isolation:isolate"><path d=" M 402.095 171.093 L 402.095 184.542 L 463.241 219.844 L 463.241 206.396 L 402.095 171.093 Z " fill="rgb(20,127,165)"/><path d=" M 405.007 177.818 L 437.763 196.73 L 437.763 200.932 L 405.007 182.02 L 405.007 177.818 Z " fill="rgb(230,116,255)"/><path d=" M 441.403 198.831 L 445.043 200.932 L 445.043 205.135 L 441.403 203.033 L 441.403 198.831 Z " fill="rgb(0,210,56)"/><path d=" M 448.682 203.033 L 452.322 205.135 L 452.322 209.337 L 448.682 207.236 L 448.682 203.033 Z " fill="rgb(0,210,56)"/><path d=" M 455.961 207.236 L 459.601 209.337 L 459.601 213.54 L 455.961 211.439 L 455.961 207.236 Z " fill="rgb(229,255,113)"/><path d=" M 463.241 219.844 L 464.696 219.003 L 464.696 205.555 L 463.241 206.396 L 463.241 219.844 Z " fill="rgb(0,59,81)"/><path d=" M 464.696 205.555 L 403.551 170.253 L 402.095 171.093 L 463.241 206.396 L 464.696 205.555 Z " fill="rgb(0,59,81)"/></g><g style="isolation:isolate"><path d=" M 402.095 192.931 L 402.095 206.379 L 463.241 241.682 L 463.241 228.233 L 402.095 192.931 Z " fill="rgb(20,127,165)"/><path d=" M 405.007 199.655 L 437.763 218.567 L 437.763 222.77 L 405.007 203.858 L 405.007 199.655 Z " fill="rgb(230,116,255)"/><path d=" M 441.403 220.668 L 445.043 222.77 L 445.043 226.972 L 441.403 224.871 L 441.403 220.668 Z " fill="rgb(0,210,56)"/><path d=" M 448.682 224.871 L 452.322 226.972 L 452.322 231.175 L 448.682 229.074 L 448.682 224.871 Z " fill="rgb(0,210,56)"/><path d=" M 455.961 229.074 L 459.601 231.175 L 459.601 235.378 L 455.961 233.276 L 455.961 229.074 Z " fill="rgb(0,210,56)"/><path d=" M 463.241 241.682 L 464.696 240.841 L 464.696 227.393 L 463.241 228.233 L 463.241 241.682 Z " fill="rgb(0,59,81)"/><path d=" M 464.696 227.393 L 403.551 192.09 L 402.095 192.931 L 463.241 228.233 L 464.696 227.393 Z " fill="rgb(0,59,81)"/></g><g style="isolation:isolate"><path d=" M 402.095 214.768 L 402.095 228.217 L 463.241 263.519 L 463.241 250.071 L 402.095 214.768 Z " fill="rgb(20,127,165)"/><path d=" M 405.007 221.493 L 437.763 240.405 L 437.763 244.607 L 405.007 225.695 L 405.007 221.493 Z " fill="rgb(230,116,255)"/><path d=" M 441.403 242.506 L 445.043 244.607 L 445.043 248.81 L 441.403 246.709 L 441.403 242.506 Z " fill="rgb(0,210,56)"/><path d=" M 448.682 246.709 L 452.322 248.81 L 452.322 253.012 L 448.682 250.911 L 448.682 246.709 Z " fill="rgb(229,255,113)"/><path d=" M 455.961 250.911 L 459.601 253.012 L 459.601 257.215 L 455.961 255.114 L 455.961 250.911 Z " fill="rgb(229,255,113)"/><path d=" M 463.241 263.519 L 464.696 262.679 L 464.696 249.23 L 463.241 250.071 L 463.241 263.519 Z " fill="rgb(0,59,81)"/><path d=" M 464.696 249.23 L 403.551 213.928 L 402.095 214.768 L 463.241 250.071 L 464.696 249.23 Z " fill="rgb(0,59,81)"/></g><g style="isolation:isolate"><path d=" M 402.095 236.606 L 402.095 250.054 L 463.241 285.357 L 463.241 271.908 L 402.095 236.606 Z " fill="rgb(20,127,165)"/><path d=" M 405.007 243.33 L 437.763 262.242 L 437.763 266.445 L 405.007 247.533 L 405.007 243.33 Z " fill="rgb(230,116,255)"/><path d=" M 441.403 264.343 L 445.043 266.445 L 445.043 270.647 L 441.403 268.546 L 441.403 264.343 Z " fill="rgb(229,255,113)"/><path d=" M 448.682 268.546 L 452.322 270.647 L 452.322 274.85 L 448.682 272.749 L 448.682 268.546 Z " fill="rgb(0,210,56)"/><path d=" M 455.961 272.749 L 459.601 274.85 L 459.601 279.053 L 455.961 276.951 L 455.961 272.749 Z " fill="rgb(229,255,113)"/><path d=" M 463.241 285.357 L 464.696 284.516 L 464.696 271.068 L 463.241 271.908 L 463.241 285.357 Z " fill="rgb(0,59,81)"/><path d=" M 464.696 271.068 L 403.551 235.766 L 402.095 236.606 L 463.241 271.908 L 464.696 271.068 Z " fill="rgb(0,59,81)"/></g><g style="isolation:isolate"><path d=" M 402.095 258.444 L 402.095 271.892 L 463.241 307.194 L 463.241 293.746 L 402.095 258.444 Z " fill="rgb(20,127,165)"/><path d=" M 405.007 265.168 L 437.763 284.08 L 437.763 288.282 L 405.007 269.37 L 405.007 265.168 Z " fill="rgb(230,116,255)"/><path d=" M 441.403 286.181 L 445.043 288.282 L 445.043 292.485 L 441.403 290.384 L 441.403 286.181 Z " fill="rgb(0,210,56)"/><path d=" M 448.682 290.384 L 452.322 292.485 L 452.322 296.688 L 448.682 294.586 L 448.682 290.384 Z " fill="rgb(0,210,56)"/><path d=" M 455.961 294.586 L 459.601 296.688 L 459.601 300.89 L 455.961 298.789 L 455.961 294.586 Z " fill="rgb(229,255,113)"/><path d=" M 463.241 307.194 L 464.696 306.354 L 464.696 292.905 L 463.241 293.746 L 463.241 307.194 Z " fill="rgb(0,59,81)"/><path d=" M 464.696 292.905 L 403.551 257.603 L 402.095 258.444 L 463.241 293.746 L 464.696 292.905 Z " fill="rgb(0,59,81)"/></g><g style="isolation:isolate"><path d=" M 402.095 280.281 L 402.095 293.73 L 463.241 329.032 L 463.241 315.583 L 402.095 280.281 Z " fill="rgb(20,127,165)"/><path d=" M 405.007 287.005 L 437.763 305.917 L 437.763 310.12 L 405.007 291.208 L 405.007 287.005 Z " fill="rgb(230,116,255)"/><path d=" M 441.403 308.018 L 445.043 310.12 L 445.043 314.322 L 441.403 312.221 L 441.403 308.018 Z " fill="rgb(0,210,56)"/><path d=" M 448.682 312.221 L 452.322 314.322 L 452.322 318.525 L 448.682 316.424 L 448.682 312.221 Z " fill="rgb(229,255,113)"/><path d=" M 455.961 316.424 L 459.601 318.525 L 459.601 322.728 L 455.961 320.626 L 455.961 316.424 Z " fill="rgb(229,255,113)"/><path d=" M 463.241 329.032 L 464.696 328.191 L 464.696 314.743 L 463.241 315.583 L 463.241 329.032 Z " fill="rgb(0,59,81)"/><path d=" M 464.696 314.743 L 403.551 279.441 L 402.095 280.281 L 463.241 315.583 L 464.696 314.743 Z " fill="rgb(0,59,81)"/></g><g style="isolation:isolate"><path d=" M 402.095 302.119 L 402.095 315.567 L 463.241 350.869 L 463.241 337.421 L 402.095 302.119 Z " fill="rgb(20,127,165)"/><path d=" M 405.007 308.843 L 437.763 327.755 L 437.763 331.957 L 405.007 313.045 L 405.007 308.843 Z " fill="rgb(230,116,255)"/><path d=" M 441.403 329.856 L 445.043 331.957 L 445.043 336.16 L 441.403 334.059 L 441.403 329.856 Z " fill="rgb(0,210,56)"/><path d=" M 448.682 334.059 L 452.322 336.16 L 452.322 340.363 L 448.682 338.261 L 448.682 334.059 Z " fill="rgb(0,210,56)"/><path d=" M 455.961 338.261 L 459.601 340.363 L 459.601 344.565 L 455.961 342.464 L 455.961 338.261 Z " fill="rgb(0,210,56)"/><path d=" M 463.241 350.869 L 464.696 350.029 L 464.696 336.58 L 463.241 337.421 L 463.241 350.869 Z " fill="rgb(0,59,81)"/><path d=" M 464.696 336.58 L 403.551 301.278 L 402.095 302.119 L 463.241 337.421 L 464.696 336.58 Z " fill="rgb(0,59,81)"/></g></g><g style="isolation:isolate"><radialGradient id="_rgradient_6" fx="0.5" fy="0.5" cx="0.5" cy="0.5" r="0.5" gradientTransform="matrix(72.792,0,0,42.026,431.94,130.943)" gradientUnits="userSpaceOnUse"><stop offset="1.7391304347826086%" stop-opacity="1" style="stop-color:rgb(0,100,136)"/><stop offset="97.3913043478261%" stop-opacity="1" style="stop-color:rgb(60,178,221)"/></radialGradient><path d=" M 431.94 151.956 L 468.336 130.943 L 504.732 151.956 L 468.336 172.97 L 431.94 151.956 Z " fill="url(#_rgradient_6)"/><path d=" M 431.94 151.956 L 468.336 130.943 L 468.336 135.146 L 435.58 154.058 L 431.94 151.956 Z " fill="rgb(8,91,121)"/><path d=" M 468.336 130.943 L 468.336 135.146 L 501.092 154.058 L 504.732 151.956 L 468.336 130.943 Z " fill="rgb(8,91,121)"/><g style="isolation:isolate"><radialGradient id="_rgradient_7" fx="0.5" fy="0.5" cx="0.5" cy="0.5" r="0.5" gradientTransform="matrix(3.64,0,0,6.304,468.336,149.855)" gradientUnits="userSpaceOnUse"><stop offset="1.3043478260869565%" stop-opacity="1" style="stop-color:rgb(0,255,115)"/><stop offset="96.95652173913044%" stop-opacity="1" style="stop-color:rgb(34,181,32)"/></radialGradient><path d=" M 468.336 151.956 L 471.976 149.855 L 471.976 154.058 L 468.336 156.159 L 468.336 151.956 Z " fill="url(#_rgradient_7)"/><radialGradient id="_rgradient_8" fx="0.5" fy="0.5" cx="0.5" cy="0.5" r="0.5" gradientTransform="matrix(7.279,0,0,4.203,464.696,147.754)" gradientUnits="userSpaceOnUse"><stop offset="1.3043478260869565%" stop-opacity="1" style="stop-color:rgb(0,255,115)"/><stop offset="96.95652173913044%" stop-opacity="1" style="stop-color:rgb(34,181,32)"/></radialGradient><path d=" M 464.696 149.855 L 468.336 147.754 L 471.976 149.855 L 468.336 151.956 L 464.696 149.855 Z " fill="url(#_rgradient_8)"/><radialGradient id="_rgradient_9" fx="0.5" fy="0.5" cx="0.5" cy="0.5" r="0.5" gradientTransform="matrix(3.64,0,0,6.304,464.696,149.855)" gradientUnits="userSpaceOnUse"><stop offset="1.3043478260869565%" stop-opacity="1" style="stop-color:rgb(0,255,115)"/><stop offset="96.95652173913044%" stop-opacity="1" style="stop-color:rgb(34,181,32)"/></radialGradient><path d=" M 464.696 154.058 L 464.696 149.855 L 468.336 151.956 L 468.336 156.159 L 464.696 154.058 Z " fill="url(#_rgradient_9)"/></g></g></g><g style="isolation:isolate"><g style="isolation:isolate"><radialGradient id="_rgradient_10" fx="0.5" fy="0.5" cx="0.5" cy="0.5" r="0.5" gradientTransform="matrix(145.584,0,0,84.053,598.184,292.745)" gradientUnits="userSpaceOnUse"><stop offset="1.7391304347826086%" stop-opacity="1" style="stop-color:rgb(0,213,255)"/><stop offset="100%" stop-opacity="1" style="stop-color:rgb(0,94,117)"/></radialGradient><path d=" M 598.184 334.771 L 670.976 292.745 L 743.767 334.771 L 670.976 376.797 L 598.184 334.771 Z " fill="url(#_rgradient_10)"/><path d=" M 743.767 334.771 L 743.767 338.974 L 670.976 381 L 670.976 376.797 L 743.767 334.771 Z " fill="rgb(0,97,119)"/><path d=" M 598.184 334.771 L 598.184 338.974 L 670.976 381 L 670.976 376.797 L 598.184 334.771 Z " fill="rgb(0,97,119)"/></g><g style="isolation:isolate"><linearGradient id="_lgradient_8" x1="0.2623749999999998" y1="0.7686172282542298" x2="0.7367500000000001" y2="0.26952088333459606" gradientTransform="matrix(72.792,0,0,210.132,668.792,152.026)" gradientUnits="userSpaceOnUse"><stop offset="1.7391304347826086%" stop-opacity="1" style="stop-color:rgb(0,84,115)"/><stop offset="97.82608695652173%" stop-opacity="1" style="stop-color:rgb(27,143,185)"/></linearGradient><path d=" M 741.584 320.132 L 668.792 362.158 L 668.792 194.053 L 741.584 152.026 L 741.584 320.132 Z " fill="url(#_lgradient_8)"/><linearGradient id="_lgradient_9" x1="0.2623749999999998" y1="0.7686172282542298" x2="0.7367500000000001" y2="0.26952088333459606" gradientTransform="matrix(145.584,0,0,84.053,596,110)" gradientUnits="userSpaceOnUse"><stop offset="1.7391304347826086%" stop-opacity="1" style="stop-color:rgb(0,100,136)"/><stop offset="97.3913043478261%" stop-opacity="1" style="stop-color:rgb(60,178,221)"/></linearGradient><path d=" M 596 152.026 L 668.792 110 L 741.584 152.026 L 668.792 194.053 L 596 152.026 Z " fill="url(#_lgradient_9)"/><path d=" M 596 320.132 L 668.792 362.158 L 668.792 194.053 L 596 152.026 L 596 320.132 Z " fill="rgb(8,91,121)"/></g><g style="isolation:isolate"><linearGradient id="_lgradient_10" x1="0.2623749999999998" y1="0.7686172282542298" x2="0.7367500000000001" y2="0.26952088333459606" gradientTransform="matrix(43.675,0,0,159.7,687.718,180.291)" gradientUnits="userSpaceOnUse"><stop offset="1.7391304347826086%" stop-opacity="1" style="stop-color:rgb(0,84,115)"/><stop offset="97.82608695652173%" stop-opacity="1" style="stop-color:rgb(27,143,185)"/></linearGradient><path d=" M 687.718 205.507 L 731.393 180.291 L 731.393 314.775 L 687.718 339.991 L 687.718 205.507 Z " fill="url(#_lgradient_10)"/><path d=" M 687.718 339.991 L 684.078 337.89 L 684.078 203.405 L 687.718 205.507 L 687.718 339.991 Z " fill="rgb(0,59,81)"/><linearGradient id="_lgradient_11" x1="0" y1="0.5" x2="1.038461538461538" y2="-0.40442888750692896" gradientTransform="matrix(47.315,0,0,27.317,684.078,178.189)" gradientUnits="userSpaceOnUse"><stop offset="0%" stop-opacity="1" style="stop-color:rgb(0,59,81)"/><stop offset="97.82608695652173%" stop-opacity="1" style="stop-color:rgb(14,92,121)"/></linearGradient><path d=" M 684.078 203.405 L 687.718 205.507 L 731.393 180.291 L 727.753 178.189 L 684.078 203.405 Z " fill="url(#_lgradient_11)"/><path d=" M 694.997 214.42 L 694.997 252.244 L 724.114 235.434 L 724.114 197.61 L 694.997 214.42 Z " fill="rgb(0,45,62)"/></g><g style="isolation:isolate"><path d=" M 697.909 217.587 L 700.82 215.906 L 700.82 217.587 L 697.909 219.269 L 697.909 217.587 Z " fill="rgb(94,179,210)"/><path d=" M 702.276 215.066 L 705.188 213.385 L 705.188 215.066 L 702.276 216.747 L 702.276 215.066 Z " fill="rgb(94,179,210)"/><path d=" M 706.644 219.269 L 709.555 217.587 L 709.555 219.269 L 706.644 220.95 L 706.644 219.269 Z " fill="rgb(94,179,210)"/><path d=" M 711.011 216.747 L 716.834 213.385 L 716.834 215.066 L 711.011 218.428 L 711.011 216.747 Z " fill="rgb(94,179,210)"/><path d=" M 697.909 231.036 L 703.732 227.674 L 703.732 229.355 L 697.909 232.717 L 697.909 231.036 Z " fill="rgb(94,179,210)"/><path d=" M 700.82 225.993 L 706.644 222.631 L 706.644 224.312 L 700.82 227.674 L 700.82 225.993 Z " fill="rgb(94,179,210)"/><path d=" M 697.909 220.95 L 702.276 218.428 L 702.276 220.109 L 697.909 222.631 L 697.909 220.95 Z " fill="rgb(94,179,210)"/><path d=" M 703.732 217.587 L 708.099 215.066 L 708.099 216.747 L 703.732 219.269 L 703.732 217.587 Z " fill="rgb(94,179,210)"/><path d=" M 697.909 224.424 L 702.276 221.903 L 702.276 223.584 L 697.909 226.105 L 697.909 224.424 Z " fill="rgb(94,179,210)"/><path d=" M 703.732 220.95 L 705.188 220.109 L 705.188 221.79 L 703.732 222.631 L 703.732 220.95 Z " fill="rgb(94,179,210)"/><path d=" M 697.909 227.786 L 699.364 226.946 L 699.364 228.627 L 697.909 229.467 L 697.909 227.786 Z " fill="rgb(94,179,210)"/><path d=" M 697.909 234.398 L 700.82 232.717 L 700.82 234.398 L 697.909 236.079 L 697.909 234.398 Z " fill="rgb(94,179,210)"/><path d=" M 702.276 231.876 L 703.732 231.036 L 703.732 232.717 L 702.276 233.557 L 702.276 231.876 Z " fill="rgb(94,179,210)"/><path d=" M 705.188 230.195 L 705.188 231.876 L 708.099 230.195 L 708.099 228.514 L 705.188 230.195 Z " fill="rgb(94,179,210)"/><path d=" M 709.555 227.674 L 713.923 225.152 L 713.923 226.833 L 709.555 229.355 L 709.555 227.674 Z " fill="rgb(94,179,210)"/><path d=" M 715.379 224.312 L 718.29 222.631 L 718.29 224.312 L 715.379 225.993 L 715.379 224.312 Z " fill="rgb(94,179,210)"/><path d=" M 697.909 237.76 L 697.909 239.441 L 702.276 236.92 L 702.276 235.239 L 697.909 237.76 Z " fill="rgb(94,179,210)"/><path d=" M 697.909 241.122 L 699.364 240.282 L 699.364 241.963 L 697.909 242.803 L 697.909 241.122 Z " fill="rgb(94,179,210)"/><path d=" M 697.909 244.484 L 705.188 240.282 L 705.188 241.963 L 697.909 246.165 L 697.909 244.484 Z " fill="rgb(94,179,210)"/><path d=" M 700.82 239.441 L 703.732 237.76 L 703.732 239.441 L 700.82 241.122 L 700.82 239.441 Z " fill="rgb(94,179,210)"/><path d=" M 706.644 239.441 L 709.555 237.76 L 709.555 239.441 L 706.644 241.122 L 706.644 239.441 Z " fill="rgb(94,179,210)"/><path d=" M 711.011 236.92 L 712.467 236.079 L 712.467 237.76 L 711.011 238.601 L 711.011 236.92 Z " fill="rgb(94,179,210)"/><path d=" M 703.732 234.398 L 706.644 232.717 L 706.644 234.398 L 703.732 236.079 L 703.732 234.398 Z " fill="rgb(94,179,210)"/><path d=" M 708.099 231.876 L 712.467 229.355 L 712.467 231.036 L 708.099 233.557 L 708.099 231.876 Z " fill="rgb(94,179,210)"/></g><g style="isolation:isolate"><g style="isolation:isolate"><path d=" M 601.095 171.093 L 601.095 184.542 L 662.241 219.844 L 662.241 206.396 L 601.095 171.093 Z " fill="rgb(20,127,165)"/><path d=" M 604.007 177.818 L 636.763 196.73 L 636.763 200.932 L 604.007 182.02 L 604.007 177.818 Z " fill="rgb(230,116,255)"/><path d=" M 640.403 198.831 L 644.043 200.932 L 644.043 205.135 L 640.403 203.033 L 640.403 198.831 Z " fill="rgb(0,210,56)"/><path d=" M 647.682 203.033 L 651.322 205.135 L 651.322 209.337 L 647.682 207.236 L 647.682 203.033 Z " fill="rgb(0,210,56)"/><path d=" M 654.961 207.236 L 658.601 209.337 L 658.601 213.54 L 654.961 211.439 L 654.961 207.236 Z " fill="rgb(229,255,113)"/><path d=" M 662.241 219.844 L 663.696 219.003 L 663.696 205.555 L 662.241 206.396 L 662.241 219.844 Z " fill="rgb(0,59,81)"/><path d=" M 663.696 205.555 L 602.551 170.253 L 601.095 171.093 L 662.241 206.396 L 663.696 205.555 Z " fill="rgb(0,59,81)"/></g><g style="isolation:isolate"><path d=" M 601.095 192.931 L 601.095 206.379 L 662.241 241.682 L 662.241 228.233 L 601.095 192.931 Z " fill="rgb(20,127,165)"/><path d=" M 604.007 199.655 L 636.763 218.567 L 636.763 222.77 L 604.007 203.858 L 604.007 199.655 Z " fill="rgb(230,116,255)"/><path d=" M 640.403 220.668 L 644.043 222.77 L 644.043 226.972 L 640.403 224.871 L 640.403 220.668 Z " fill="rgb(0,210,56)"/><path d=" M 647.682 224.871 L 651.322 226.972 L 651.322 231.175 L 647.682 229.074 L 647.682 224.871 Z " fill="rgb(0,210,56)"/><path d=" M 654.961 229.074 L 658.601 231.175 L 658.601 235.378 L 654.961 233.276 L 654.961 229.074 Z " fill="rgb(0,210,56)"/><path d=" M 662.241 241.682 L 663.696 240.841 L 663.696 227.393 L 662.241 228.233 L 662.241 241.682 Z " fill="rgb(0,59,81)"/><path d=" M 663.696 227.393 L 602.551 192.09 L 601.095 192.931 L 662.241 228.233 L 663.696 227.393 Z " fill="rgb(0,59,81)"/></g><g style="isolation:isolate"><path d=" M 601.095 214.768 L 601.095 228.217 L 662.241 263.519 L 662.241 250.071 L 601.095 214.768 Z " fill="rgb(20,127,165)"/><path d=" M 604.007 221.493 L 636.763 240.405 L 636.763 244.607 L 604.007 225.695 L 604.007 221.493 Z " fill="rgb(230,116,255)"/><path d=" M 640.403 242.506 L 644.043 244.607 L 644.043 248.81 L 640.403 246.709 L 640.403 242.506 Z " fill="rgb(0,210,56)"/><path d=" M 647.682 246.709 L 651.322 248.81 L 651.322 253.012 L 647.682 250.911 L 647.682 246.709 Z " fill="rgb(229,255,113)"/><path d=" M 654.961 250.911 L 658.601 253.012 L 658.601 257.215 L 654.961 255.114 L 654.961 250.911 Z " fill="rgb(229,255,113)"/><path d=" M 662.241 263.519 L 663.696 262.679 L 663.696 249.23 L 662.241 250.071 L 662.241 263.519 Z " fill="rgb(0,59,81)"/><path d=" M 663.696 249.23 L 602.551 213.928 L 601.095 214.768 L 662.241 250.071 L 663.696 249.23 Z " fill="rgb(0,59,81)"/></g><g style="isolation:isolate"><path d=" M 601.095 236.606 L 601.095 250.054 L 662.241 285.357 L 662.241 271.908 L 601.095 236.606 Z " fill="rgb(20,127,165)"/><path d=" M 604.007 243.33 L 636.763 262.242 L 636.763 266.445 L 604.007 247.533 L 604.007 243.33 Z " fill="rgb(230,116,255)"/><path d=" M 640.403 264.343 L 644.043 266.445 L 644.043 270.647 L 640.403 268.546 L 640.403 264.343 Z " fill="rgb(229,255,113)"/><path d=" M 647.682 268.546 L 651.322 270.647 L 651.322 274.85 L 647.682 272.749 L 647.682 268.546 Z " fill="rgb(0,210,56)"/><path d=" M 654.961 272.749 L 658.601 274.85 L 658.601 279.053 L 654.961 276.951 L 654.961 272.749 Z " fill="rgb(229,255,113)"/><path d=" M 662.241 285.357 L 663.696 284.516 L 663.696 271.068 L 662.241 271.908 L 662.241 285.357 Z " fill="rgb(0,59,81)"/><path d=" M 663.696 271.068 L 602.551 235.766 L 601.095 236.606 L 662.241 271.908 L 663.696 271.068 Z " fill="rgb(0,59,81)"/></g><g style="isolation:isolate"><path d=" M 601.095 258.444 L 601.095 271.892 L 662.241 307.194 L 662.241 293.746 L 601.095 258.444 Z " fill="rgb(20,127,165)"/><path d=" M 604.007 265.168 L 636.763 284.08 L 636.763 288.282 L 604.007 269.37 L 604.007 265.168 Z " fill="rgb(230,116,255)"/><path d=" M 640.403 286.181 L 644.043 288.282 L 644.043 292.485 L 640.403 290.384 L 640.403 286.181 Z " fill="rgb(0,210,56)"/><path d=" M 647.682 290.384 L 651.322 292.485 L 651.322 296.688 L 647.682 294.586 L 647.682 290.384 Z " fill="rgb(0,210,56)"/><path d=" M 654.961 294.586 L 658.601 296.688 L 658.601 300.89 L 654.961 298.789 L 654.961 294.586 Z " fill="rgb(229,255,113)"/><path d=" M 662.241 307.194 L 663.696 306.354 L 663.696 292.905 L 662.241 293.746 L 662.241 307.194 Z " fill="rgb(0,59,81)"/><path d=" M 663.696 292.905 L 602.551 257.603 L 601.095 258.444 L 662.241 293.746 L 663.696 292.905 Z " fill="rgb(0,59,81)"/></g><g style="isolation:isolate"><path d=" M 601.095 280.281 L 601.095 293.73 L 662.241 329.032 L 662.241 315.583 L 601.095 280.281 Z " fill="rgb(20,127,165)"/><path d=" M 604.007 287.005 L 636.763 305.917 L 636.763 310.12 L 604.007 291.208 L 604.007 287.005 Z " fill="rgb(230,116,255)"/><path d=" M 640.403 308.018 L 644.043 310.12 L 644.043 314.322 L 640.403 312.221 L 640.403 308.018 Z " fill="rgb(0,210,56)"/><path d=" M 647.682 312.221 L 651.322 314.322 L 651.322 318.525 L 647.682 316.424 L 647.682 312.221 Z " fill="rgb(229,255,113)"/><path d=" M 654.961 316.424 L 658.601 318.525 L 658.601 322.728 L 654.961 320.626 L 654.961 316.424 Z " fill="rgb(229,255,113)"/><path d=" M 662.241 329.032 L 663.696 328.191 L 663.696 314.743 L 662.241 315.583 L 662.241 329.032 Z " fill="rgb(0,59,81)"/><path d=" M 663.696 314.743 L 602.551 279.441 L 601.095 280.281 L 662.241 315.583 L 663.696 314.743 Z " fill="rgb(0,59,81)"/></g><g style="isolation:isolate"><path d=" M 601.095 302.119 L 601.095 315.567 L 662.241 350.869 L 662.241 337.421 L 601.095 302.119 Z " fill="rgb(20,127,165)"/><path d=" M 604.007 308.843 L 636.763 327.755 L 636.763 331.957 L 604.007 313.045 L 604.007 308.843 Z " fill="rgb(230,116,255)"/><path d=" M 640.403 329.856 L 644.043 331.957 L 644.043 336.16 L 640.403 334.059 L 640.403 329.856 Z " fill="rgb(0,210,56)"/><path d=" M 647.682 334.059 L 651.322 336.16 L 651.322 340.363 L 647.682 338.261 L 647.682 334.059 Z " fill="rgb(0,210,56)"/><path d=" M 654.961 338.261 L 658.601 340.363 L 658.601 344.565 L 654.961 342.464 L 654.961 338.261 Z " fill="rgb(0,210,56)"/><path d=" M 662.241 350.869 L 663.696 350.029 L 663.696 336.58 L 662.241 337.421 L 662.241 350.869 Z " fill="rgb(0,59,81)"/><path d=" M 663.696 336.58 L 602.551 301.278 L 601.095 302.119 L 662.241 337.421 L 663.696 336.58 Z " fill="rgb(0,59,81)"/></g></g><g style="isolation:isolate"><radialGradient id="_rgradient_11" fx="0.5" fy="0.5" cx="0.5" cy="0.5" r="0.5" gradientTransform="matrix(72.792,0,0,42.026,630.94,130.943)" gradientUnits="userSpaceOnUse"><stop offset="1.7391304347826086%" stop-opacity="1" style="stop-color:rgb(0,100,136)"/><stop offset="97.3913043478261%" stop-opacity="1" style="stop-color:rgb(60,178,221)"/></radialGradient><path d=" M 630.94 151.956 L 667.336 130.943 L 703.732 151.956 L 667.336 172.97 L 630.94 151.956 Z " fill="url(#_rgradient_11)"/><path d=" M 630.94 151.956 L 667.336 130.943 L 667.336 135.146 L 634.58 154.058 L 630.94 151.956 Z " fill="rgb(8,91,121)"/><path d=" M 667.336 130.943 L 667.336 135.146 L 700.092 154.058 L 703.732 151.956 L 667.336 130.943 Z " fill="rgb(8,91,121)"/><g style="isolation:isolate"><radialGradient id="_rgradient_12" fx="0.5" fy="0.5" cx="0.5" cy="0.5" r="0.5" gradientTransform="matrix(3.64,0,0,6.304,667.336,149.855)" gradientUnits="userSpaceOnUse"><stop offset="1.3043478260869565%" stop-opacity="1" style="stop-color:rgb(0,255,115)"/><stop offset="96.95652173913044%" stop-opacity="1" style="stop-color:rgb(34,181,32)"/></radialGradient><path d=" M 667.336 151.956 L 670.976 149.855 L 670.976 154.058 L 667.336 156.159 L 667.336 151.956 Z " fill="url(#_rgradient_12)"/><radialGradient id="_rgradient_13" fx="0.5" fy="0.5" cx="0.5" cy="0.5" r="0.5" gradientTransform="matrix(7.279,0,0,4.203,663.696,147.754)" gradientUnits="userSpaceOnUse"><stop offset="1.3043478260869565%" stop-opacity="1" style="stop-color:rgb(0,255,115)"/><stop offset="96.95652173913044%" stop-opacity="1" style="stop-color:rgb(34,181,32)"/></radialGradient><path d=" M 663.696 149.855 L 667.336 147.754 L 670.976 149.855 L 667.336 151.956 L 663.696 149.855 Z " fill="url(#_rgradient_13)"/><radialGradient id="_rgradient_14" fx="0.5" fy="0.5" cx="0.5" cy="0.5" r="0.5" gradientTransform="matrix(3.64,0,0,6.304,663.696,149.855)" gradientUnits="userSpaceOnUse"><stop offset="1.3043478260869565%" stop-opacity="1" style="stop-color:rgb(0,255,115)"/><stop offset="96.95652173913044%" stop-opacity="1" style="stop-color:rgb(34,181,32)"/></radialGradient><path d=" M 663.696 154.058 L 663.696 149.855 L 667.336 151.956 L 667.336 156.159 L 663.696 154.058 Z " fill="url(#_rgradient_14)"/></g></g></g><g style="isolation:isolate"><g style="isolation:isolate"><radialGradient id="_rgradient_15" fx="0.5" fy="0.5" cx="0.5" cy="0.5" r="0.5" gradientTransform="matrix(145.584,0,0,84.053,499.184,352.745)" gradientUnits="userSpaceOnUse"><stop offset="1.7391304347826086%" stop-opacity="1" style="stop-color:rgb(0,213,255)"/><stop offset="100%" stop-opacity="1" style="stop-color:rgb(0,94,117)"/></radialGradient><path d=" M 499.184 394.771 L 571.976 352.745 L 644.767 394.771 L 571.976 436.797 L 499.184 394.771 Z " fill="url(#_rgradient_15)"/><path d=" M 644.767 394.771 L 644.767 398.974 L 571.976 441 L 571.976 436.797 L 644.767 394.771 Z " fill="rgb(0,97,119)"/><path d=" M 499.184 394.771 L 499.184 398.974 L 571.976 441 L 571.976 436.797 L 499.184 394.771 Z " fill="rgb(0,97,119)"/></g><g style="isolation:isolate"><linearGradient id="_lgradient_12" x1="0.2623749999999998" y1="0.7686172282542298" x2="0.7367500000000001" y2="0.26952088333459606" gradientTransform="matrix(72.792,0,0,210.132,569.792,212.026)" gradientUnits="userSpaceOnUse"><stop offset="1.7391304347826086%" stop-opacity="1" style="stop-color:rgb(0,84,115)"/><stop offset="97.82608695652173%" stop-opacity="1" style="stop-color:rgb(27,143,185)"/></linearGradient><path d=" M 642.584 380.132 L 569.792 422.158 L 569.792 254.053 L 642.584 212.026 L 642.584 380.132 Z " fill="url(#_lgradient_12)"/><linearGradient id="_lgradient_13" x1="0.2623749999999998" y1="0.7686172282542298" x2="0.7367500000000001" y2="0.26952088333459606" gradientTransform="matrix(145.584,0,0,84.053,497,170)" gradientUnits="userSpaceOnUse"><stop offset="1.7391304347826086%" stop-opacity="1" style="stop-color:rgb(0,100,136)"/><stop offset="97.3913043478261%" stop-opacity="1" style="stop-color:rgb(60,178,221)"/></linearGradient><path d=" M 497 212.026 L 569.792 170 L 642.584 212.026 L 569.792 254.053 L 497 212.026 Z " fill="url(#_lgradient_13)"/><path d=" M 497 380.132 L 569.792 422.158 L 569.792 254.053 L 497 212.026 L 497 380.132 Z " fill="rgb(8,91,121)"/></g><g style="isolation:isolate"><linearGradient id="_lgradient_14" x1="0.2623749999999998" y1="0.7686172282542298" x2="0.7367500000000001" y2="0.26952088333459606" gradientTransform="matrix(43.675,0,0,159.7,588.718,240.291)" gradientUnits="userSpaceOnUse"><stop offset="1.7391304347826086%" stop-opacity="1" style="stop-color:rgb(0,84,115)"/><stop offset="97.82608695652173%" stop-opacity="1" style="stop-color:rgb(27,143,185)"/></linearGradient><path d=" M 588.718 265.507 L 632.393 240.291 L 632.393 374.775 L 588.718 399.991 L 588.718 265.507 Z " fill="url(#_lgradient_14)"/><path d=" M 588.718 399.991 L 585.078 397.89 L 585.078 263.405 L 588.718 265.507 L 588.718 399.991 Z " fill="rgb(0,59,81)"/><linearGradient id="_lgradient_15" x1="0" y1="0.5" x2="1.038461538461538" y2="-0.40442888750692896" gradientTransform="matrix(47.315,0,0,27.317,585.078,238.189)" gradientUnits="userSpaceOnUse"><stop offset="0%" stop-opacity="1" style="stop-color:rgb(0,59,81)"/><stop offset="97.82608695652173%" stop-opacity="1" style="stop-color:rgb(14,92,121)"/></linearGradient><path d=" M 585.078 263.405 L 588.718 265.507 L 632.393 240.291 L 628.753 238.189 L 585.078 263.405 Z " fill="url(#_lgradient_15)"/><path d=" M 595.997 274.42 L 595.997 312.244 L 625.114 295.434 L 625.114 257.61 L 595.997 274.42 Z " fill="rgb(0,45,62)"/></g><g style="isolation:isolate"><path d=" M 598.909 277.587 L 601.82 275.906 L 601.82 277.587 L 598.909 279.269 L 598.909 277.587 Z " fill="rgb(94,179,210)"/><path d=" M 603.276 275.066 L 606.188 273.385 L 606.188 275.066 L 603.276 276.747 L 603.276 275.066 Z " fill="rgb(94,179,210)"/><path d=" M 607.644 279.269 L 610.555 277.587 L 610.555 279.269 L 607.644 280.95 L 607.644 279.269 Z " fill="rgb(94,179,210)"/><path d=" M 612.011 276.747 L 617.834 273.385 L 617.834 275.066 L 612.011 278.428 L 612.011 276.747 Z " fill="rgb(94,179,210)"/><path d=" M 598.909 291.036 L 604.732 287.674 L 604.732 289.355 L 598.909 292.717 L 598.909 291.036 Z " fill="rgb(94,179,210)"/><path d=" M 601.82 285.993 L 607.644 282.631 L 607.644 284.312 L 601.82 287.674 L 601.82 285.993 Z " fill="rgb(94,179,210)"/><path d=" M 598.909 280.95 L 603.276 278.428 L 603.276 280.109 L 598.909 282.631 L 598.909 280.95 Z " fill="rgb(94,179,210)"/><path d=" M 604.732 277.587 L 609.099 275.066 L 609.099 276.747 L 604.732 279.269 L 604.732 277.587 Z " fill="rgb(94,179,210)"/><path d=" M 598.909 284.424 L 603.276 281.903 L 603.276 283.584 L 598.909 286.105 L 598.909 284.424 Z " fill="rgb(94,179,210)"/><path d=" M 604.732 280.95 L 606.188 280.109 L 606.188 281.79 L 604.732 282.631 L 604.732 280.95 Z " fill="rgb(94,179,210)"/><path d=" M 598.909 287.786 L 600.364 286.946 L 600.364 288.627 L 598.909 289.467 L 598.909 287.786 Z " fill="rgb(94,179,210)"/><path d=" M 598.909 294.398 L 601.82 292.717 L 601.82 294.398 L 598.909 296.079 L 598.909 294.398 Z " fill="rgb(94,179,210)"/><path d=" M 603.276 291.876 L 604.732 291.036 L 604.732 292.717 L 603.276 293.557 L 603.276 291.876 Z " fill="rgb(94,179,210)"/><path d=" M 606.188 290.195 L 606.188 291.876 L 609.099 290.195 L 609.099 288.514 L 606.188 290.195 Z " fill="rgb(94,179,210)"/><path d=" M 610.555 287.674 L 614.923 285.152 L 614.923 286.833 L 610.555 289.355 L 610.555 287.674 Z " fill="rgb(94,179,210)"/><path d=" M 616.379 284.312 L 619.29 282.631 L 619.29 284.312 L 616.379 285.993 L 616.379 284.312 Z " fill="rgb(94,179,210)"/><path d=" M 598.909 297.76 L 598.909 299.441 L 603.276 296.92 L 603.276 295.239 L 598.909 297.76 Z " fill="rgb(94,179,210)"/><path d=" M 598.909 301.122 L 600.364 300.282 L 600.364 301.963 L 598.909 302.803 L 598.909 301.122 Z " fill="rgb(94,179,210)"/><path d=" M 598.909 304.484 L 606.188 300.282 L 606.188 301.963 L 598.909 306.165 L 598.909 304.484 Z " fill="rgb(94,179,210)"/><path d=" M 601.82 299.441 L 604.732 297.76 L 604.732 299.441 L 601.82 301.122 L 601.82 299.441 Z " fill="rgb(94,179,210)"/><path d=" M 607.644 299.441 L 610.555 297.76 L 610.555 299.441 L 607.644 301.122 L 607.644 299.441 Z " fill="rgb(94,179,210)"/><path d=" M 612.011 296.92 L 613.467 296.079 L 613.467 297.76 L 612.011 298.601 L 612.011 296.92 Z " fill="rgb(94,179,210)"/><path d=" M 604.732 294.398 L 607.644 292.717 L 607.644 294.398 L 604.732 296.079 L 604.732 294.398 Z " fill="rgb(94,179,210)"/><path d=" M 609.099 291.876 L 613.467 289.355 L 613.467 291.036 L 609.099 293.557 L 609.099 291.876 Z " fill="rgb(94,179,210)"/></g><g style="isolation:isolate"><g style="isolation:isolate"><path d=" M 502.095 231.093 L 502.095 244.542 L 563.241 279.844 L 563.241 266.396 L 502.095 231.093 Z " fill="rgb(20,127,165)"/><path d=" M 505.007 237.818 L 537.763 256.73 L 537.763 260.932 L 505.007 242.02 L 505.007 237.818 Z " fill="rgb(230,116,255)"/><path d=" M 541.403 258.831 L 545.043 260.932 L 545.043 265.135 L 541.403 263.033 L 541.403 258.831 Z " fill="rgb(0,210,56)"/><path d=" M 548.682 263.033 L 552.322 265.135 L 552.322 269.337 L 548.682 267.236 L 548.682 263.033 Z " fill="rgb(0,210,56)"/><path d=" M 555.961 267.236 L 559.601 269.337 L 559.601 273.54 L 555.961 271.439 L 555.961 267.236 Z " fill="rgb(229,255,113)"/><path d=" M 563.241 279.844 L 564.696 279.003 L 564.696 265.555 L 563.241 266.396 L 563.241 279.844 Z " fill="rgb(0,59,81)"/><path d=" M 564.696 265.555 L 503.551 230.253 L 502.095 231.093 L 563.241 266.396 L 564.696 265.555 Z " fill="rgb(0,59,81)"/></g><g style="isolation:isolate"><path d=" M 502.095 252.931 L 502.095 266.379 L 563.241 301.682 L 563.241 288.233 L 502.095 252.931 Z " fill="rgb(20,127,165)"/><path d=" M 505.007 259.655 L 537.763 278.567 L 537.763 282.77 L 505.007 263.858 L 505.007 259.655 Z " fill="rgb(230,116,255)"/><path d=" M 541.403 280.668 L 545.043 282.77 L 545.043 286.972 L 541.403 284.871 L 541.403 280.668 Z " fill="rgb(0,210,56)"/><path d=" M 548.682 284.871 L 552.322 286.972 L 552.322 291.175 L 548.682 289.074 L 548.682 284.871 Z " fill="rgb(0,210,56)"/><path d=" M 555.961 289.074 L 559.601 291.175 L 559.601 295.378 L 555.961 293.276 L 555.961 289.074 Z " fill="rgb(0,210,56)"/><path d=" M 563.241 301.682 L 564.696 300.841 L 564.696 287.393 L 563.241 288.233 L 563.241 301.682 Z " fill="rgb(0,59,81)"/><path d=" M 564.696 287.393 L 503.551 252.09 L 502.095 252.931 L 563.241 288.233 L 564.696 287.393 Z " fill="rgb(0,59,81)"/></g><g style="isolation:isolate"><path d=" M 502.095 274.768 L 502.095 288.217 L 563.241 323.519 L 563.241 310.071 L 502.095 274.768 Z " fill="rgb(20,127,165)"/><path d=" M 505.007 281.493 L 537.763 300.405 L 537.763 304.607 L 505.007 285.695 L 505.007 281.493 Z " fill="rgb(230,116,255)"/><path d=" M 541.403 302.506 L 545.043 304.607 L 545.043 308.81 L 541.403 306.709 L 541.403 302.506 Z " fill="rgb(0,210,56)"/><path d=" M 548.682 306.709 L 552.322 308.81 L 552.322 313.012 L 548.682 310.911 L 548.682 306.709 Z " fill="rgb(229,255,113)"/><path d=" M 555.961 310.911 L 559.601 313.012 L 559.601 317.215 L 555.961 315.114 L 555.961 310.911 Z " fill="rgb(229,255,113)"/><path d=" M 563.241 323.519 L 564.696 322.679 L 564.696 309.23 L 563.241 310.071 L 563.241 323.519 Z " fill="rgb(0,59,81)"/><path d=" M 564.696 309.23 L 503.551 273.928 L 502.095 274.768 L 563.241 310.071 L 564.696 309.23 Z " fill="rgb(0,59,81)"/></g><g style="isolation:isolate"><path d=" M 502.095 296.606 L 502.095 310.054 L 563.241 345.357 L 563.241 331.908 L 502.095 296.606 Z " fill="rgb(20,127,165)"/><path d=" M 505.007 303.33 L 537.763 322.242 L 537.763 326.445 L 505.007 307.533 L 505.007 303.33 Z " fill="rgb(230,116,255)"/><path d=" M 541.403 324.343 L 545.043 326.445 L 545.043 330.647 L 541.403 328.546 L 541.403 324.343 Z " fill="rgb(229,255,113)"/><path d=" M 548.682 328.546 L 552.322 330.647 L 552.322 334.85 L 548.682 332.749 L 548.682 328.546 Z " fill="rgb(0,210,56)"/><path d=" M 555.961 332.749 L 559.601 334.85 L 559.601 339.053 L 555.961 336.951 L 555.961 332.749 Z " fill="rgb(229,255,113)"/><path d=" M 563.241 345.357 L 564.696 344.516 L 564.696 331.068 L 563.241 331.908 L 563.241 345.357 Z " fill="rgb(0,59,81)"/><path d=" M 564.696 331.068 L 503.551 295.766 L 502.095 296.606 L 563.241 331.908 L 564.696 331.068 Z " fill="rgb(0,59,81)"/></g><g style="isolation:isolate"><path d=" M 502.095 318.444 L 502.095 331.892 L 563.241 367.194 L 563.241 353.746 L 502.095 318.444 Z " fill="rgb(20,127,165)"/><path d=" M 505.007 325.168 L 537.763 344.08 L 537.763 348.282 L 505.007 329.37 L 505.007 325.168 Z " fill="rgb(230,116,255)"/><path d=" M 541.403 346.181 L 545.043 348.282 L 545.043 352.485 L 541.403 350.384 L 541.403 346.181 Z " fill="rgb(0,210,56)"/><path d=" M 548.682 350.384 L 552.322 352.485 L 552.322 356.688 L 548.682 354.586 L 548.682 350.384 Z " fill="rgb(0,210,56)"/><path d=" M 555.961 354.586 L 559.601 356.688 L 559.601 360.89 L 555.961 358.789 L 555.961 354.586 Z " fill="rgb(229,255,113)"/><path d=" M 563.241 367.194 L 564.696 366.354 L 564.696 352.905 L 563.241 353.746 L 563.241 367.194 Z " fill="rgb(0,59,81)"/><path d=" M 564.696 352.905 L 503.551 317.603 L 502.095 318.444 L 563.241 353.746 L 564.696 352.905 Z " fill="rgb(0,59,81)"/></g><g style="isolation:isolate"><path d=" M 502.095 340.281 L 502.095 353.73 L 563.241 389.032 L 563.241 375.583 L 502.095 340.281 Z " fill="rgb(20,127,165)"/><path d=" M 505.007 347.005 L 537.763 365.917 L 537.763 370.12 L 505.007 351.208 L 505.007 347.005 Z " fill="rgb(230,116,255)"/><path d=" M 541.403 368.018 L 545.043 370.12 L 545.043 374.322 L 541.403 372.221 L 541.403 368.018 Z " fill="rgb(0,210,56)"/><path d=" M 548.682 372.221 L 552.322 374.322 L 552.322 378.525 L 548.682 376.424 L 548.682 372.221 Z " fill="rgb(229,255,113)"/><path d=" M 555.961 376.424 L 559.601 378.525 L 559.601 382.728 L 555.961 380.626 L 555.961 376.424 Z " fill="rgb(229,255,113)"/><path d=" M 563.241 389.032 L 564.696 388.191 L 564.696 374.743 L 563.241 375.583 L 563.241 389.032 Z " fill="rgb(0,59,81)"/><path d=" M 564.696 374.743 L 503.551 339.441 L 502.095 340.281 L 563.241 375.583 L 564.696 374.743 Z " fill="rgb(0,59,81)"/></g><g style="isolation:isolate"><path d=" M 502.095 362.119 L 502.095 375.567 L 563.241 410.869 L 563.241 397.421 L 502.095 362.119 Z " fill="rgb(20,127,165)"/><path d=" M 505.007 368.843 L 537.763 387.755 L 537.763 391.957 L 505.007 373.045 L 505.007 368.843 Z " fill="rgb(230,116,255)"/><path d=" M 541.403 389.856 L 545.043 391.957 L 545.043 396.16 L 541.403 394.059 L 541.403 389.856 Z " fill="rgb(0,210,56)"/><path d=" M 548.682 394.059 L 552.322 396.16 L 552.322 400.363 L 548.682 398.261 L 548.682 394.059 Z " fill="rgb(0,210,56)"/><path d=" M 555.961 398.261 L 559.601 400.363 L 559.601 404.565 L 555.961 402.464 L 555.961 398.261 Z " fill="rgb(0,210,56)"/><path d=" M 563.241 410.869 L 564.696 410.029 L 564.696 396.58 L 563.241 397.421 L 563.241 410.869 Z " fill="rgb(0,59,81)"/><path d=" M 564.696 396.58 L 503.551 361.278 L 502.095 362.119 L 563.241 397.421 L 564.696 396.58 Z " fill="rgb(0,59,81)"/></g></g><g style="isolation:isolate"><radialGradient id="_rgradient_16" fx="0.5" fy="0.5" cx="0.5" cy="0.5" r="0.5" gradientTransform="matrix(72.792,0,0,42.026,531.94,190.943)" gradientUnits="userSpaceOnUse"><stop offset="1.7391304347826086%" stop-opacity="1" style="stop-color:rgb(0,100,136)"/><stop offset="97.3913043478261%" stop-opacity="1" style="stop-color:rgb(60,178,221)"/></radialGradient><path d=" M 531.94 211.956 L 568.336 190.943 L 604.732 211.956 L 568.336 232.97 L 531.94 211.956 Z " fill="url(#_rgradient_16)"/><path d=" M 531.94 211.956 L 568.336 190.943 L 568.336 195.146 L 535.58 214.058 L 531.94 211.956 Z " fill="rgb(8,91,121)"/><path d=" M 568.336 190.943 L 568.336 195.146 L 601.092 214.058 L 604.732 211.956 L 568.336 190.943 Z " fill="rgb(8,91,121)"/><g style="isolation:isolate"><radialGradient id="_rgradient_17" fx="0.5" fy="0.5" cx="0.5" cy="0.5" r="0.5" gradientTransform="matrix(3.64,0,0,6.304,568.336,209.855)" gradientUnits="userSpaceOnUse"><stop offset="1.3043478260869565%" stop-opacity="1" style="stop-color:rgb(0,255,115)"/><stop offset="96.95652173913044%" stop-opacity="1" style="stop-color:rgb(34,181,32)"/></radialGradient><path d=" M 568.336 211.956 L 571.976 209.855 L 571.976 214.058 L 568.336 216.159 L 568.336 211.956 Z " fill="url(#_rgradient_17)"/><radialGradient id="_rgradient_18" fx="0.5" fy="0.5" cx="0.5" cy="0.5" r="0.5" gradientTransform="matrix(7.279,0,0,4.203,564.696,207.754)" gradientUnits="userSpaceOnUse"><stop offset="1.3043478260869565%" stop-opacity="1" style="stop-color:rgb(0,255,115)"/><stop offset="96.95652173913044%" stop-opacity="1" style="stop-color:rgb(34,181,32)"/></radialGradient><path d=" M 564.696 209.855 L 568.336 207.754 L 571.976 209.855 L 568.336 211.956 L 564.696 209.855 Z " fill="url(#_rgradient_18)"/><radialGradient id="_rgradient_19" fx="0.5" fy="0.5" cx="0.5" cy="0.5" r="0.5" gradientTransform="matrix(3.64,0,0,6.304,564.696,209.855)" gradientUnits="userSpaceOnUse"><stop offset="1.3043478260869565%" stop-opacity="1" style="stop-color:rgb(0,255,115)"/><stop offset="96.95652173913044%" stop-opacity="1" style="stop-color:rgb(34,181,32)"/></radialGradient><path d=" M 564.696 214.058 L 564.696 209.855 L 568.336 211.956 L 568.336 216.159 L 564.696 214.058 Z " fill="url(#_rgradient_19)"/></g></g></g></g><g style="isolation:isolate"><g style="isolation:isolate"><linearGradient id="_lgradient_16" x1="0.15243736383442258" y1="0.7851430976430975" x2="1.0737109658678285" y2="-0.2716049382716046" gradientTransform="matrix(153.278,0,0,42.076,183,431.001)" gradientUnits="userSpaceOnUse"><stop offset="2.608695652173913%" stop-opacity="1" style="stop-color:rgb(91,118,181)"/><stop offset="95.65217391304348%" stop-opacity="1" style="stop-color:rgb(45,255,241)"/></linearGradient><ellipse vector-effect="non-scaling-stroke" cx="259.6387819590484" cy="452.0390268941209" rx="76.63878195904869" ry="21.03809700836632" fill="url(#_lgradient_16)"/><path d=" M 183 451.288 L 183 479.839 Q 187.696 498.436 259.639 500.877 Q 332.145 498.06 336.278 479.839 L 336.278 451.288 Q 335.714 468.945 259.639 472.326 Q 188.447 470.072 183 451.288 Z " fill="rgb(76,98,149)"/><linearGradient id="_lgradient_17" x1="0.15243736383442258" y1="0.7851430976430975" x2="1.0737109658678285" y2="-0.2716049382716046" gradientTransform="matrix(153.278,0,0,42.076,183,385.168)" gradientUnits="userSpaceOnUse"><stop offset="2.608695652173913%" stop-opacity="1" style="stop-color:rgb(91,118,181)"/><stop offset="95.65217391304348%" stop-opacity="1" style="stop-color:rgb(45,255,241)"/></linearGradient><ellipse vector-effect="non-scaling-stroke" cx="259.6387819590484" cy="406.20602984018024" rx="76.63878195904869" ry="21.03809700836632" fill="url(#_lgradient_17)"/><path d=" M 183 405.455 L 183 434.006 Q 187.696 452.603 259.639 455.044 Q 332.145 452.227 336.278 434.006 L 336.278 405.455 Q 335.714 423.112 259.639 426.493 Q 188.447 424.239 183 405.455 Z " fill="rgb(76,98,149)"/><linearGradient id="_lgradient_18" x1="0.15243736383442258" y1="0.7851430976430975" x2="1.0737109658678285" y2="-0.2716049382716046" gradientTransform="matrix(153.278,0,0,42.076,183,339.335)" gradientUnits="userSpaceOnUse"><stop offset="2.608695652173913%" stop-opacity="1" style="stop-color:rgb(91,118,181)"/><stop offset="95.65217391304348%" stop-opacity="1" style="stop-color:rgb(45,255,241)"/></linearGradient><ellipse vector-effect="non-scaling-stroke" cx="259.6387819590484" cy="360.3730327862385" rx="76.63878195904869" ry="21.03809700836632" fill="url(#_lgradient_18)"/><path d=" M 183 359.622 L 183 388.173 Q 187.696 406.77 259.639 409.211 Q 332.145 406.394 336.278 388.173 L 336.278 359.622 Q 335.714 377.279 259.639 380.66 Q 188.447 378.406 183 359.622 Z " fill="rgb(76,98,149)"/><path d=" M 236.722 350.274 L 236.722 358.811 Q 238.126 364.372 259.639 365.102 Q 281.32 364.26 282.555 358.811 L 282.555 350.274 Q 282.387 355.554 259.639 356.565 Q 238.351 355.891 236.722 350.274 Z " fill="rgb(76,98,149)"/><linearGradient id="_lgradient_19" x1="0.15243736383442258" y1="0.7851430976430975" x2="1.0737109658678285" y2="-0.2716049382716046" gradientTransform="matrix(45.457,0,0,12.478,236.91,344.786)" gradientUnits="userSpaceOnUse"><stop offset="2.608695652173913%" stop-opacity="1" style="stop-color:rgb(91,118,181)"/><stop offset="95.65217391304348%" stop-opacity="1" style="stop-color:rgb(45,255,241)"/></linearGradient><ellipse vector-effect="non-scaling-stroke" cx="259.6387819590496" cy="351.02521223767127" rx="22.728658375109987" ry="6.239239553951734" fill="url(#_lgradient_19)"/></g><g style="isolation:isolate"><linearGradient id="_lgradient_20" x1="0.15243736383442258" y1="0.7851430976430975" x2="1.0737109658678285" y2="-0.2716049382716046" gradientTransform="matrix(153.278,0,0,42.076,263,491.001)" gradientUnits="userSpaceOnUse"><stop offset="2.608695652173913%" stop-opacity="1" style="stop-color:rgb(91,118,181)"/><stop offset="95.65217391304348%" stop-opacity="1" style="stop-color:rgb(45,255,241)"/></linearGradient><ellipse vector-effect="non-scaling-stroke" cx="339.6387819590485" cy="512.0390268941212" rx="76.63878195904869" ry="21.03809700836632" fill="url(#_lgradient_20)"/><path d=" M 263 511.288 L 263 539.839 Q 267.696 558.436 339.639 560.877 Q 412.145 558.06 416.278 539.839 L 416.278 511.288 Q 415.714 528.945 339.639 532.326 Q 268.447 530.072 263 511.288 Z " fill="rgb(76,98,149)"/><linearGradient id="_lgradient_21" x1="0.15243736383442258" y1="0.7851430976430975" x2="1.0737109658678285" y2="-0.2716049382716046" gradientTransform="matrix(153.278,0,0,42.076,263,445.168)" gradientUnits="userSpaceOnUse"><stop offset="2.608695652173913%" stop-opacity="1" style="stop-color:rgb(91,118,181)"/><stop offset="95.65217391304348%" stop-opacity="1" style="stop-color:rgb(45,255,241)"/></linearGradient><ellipse vector-effect="non-scaling-stroke" cx="339.6387819590485" cy="466.20602984018024" rx="76.63878195904869" ry="21.03809700836632" fill="url(#_lgradient_21)"/><path d=" M 263 465.455 L 263 494.006 Q 267.696 512.603 339.639 515.044 Q 412.145 512.227 416.278 494.006 L 416.278 465.455 Q 415.714 483.112 339.639 486.493 Q 268.447 484.239 263 465.455 Z " fill="rgb(76,98,149)"/><linearGradient id="_lgradient_22" x1="0.15243736383442258" y1="0.7851430976430975" x2="1.0737109658678285" y2="-0.2716049382716046" gradientTransform="matrix(153.278,0,0,42.076,263,399.335)" gradientUnits="userSpaceOnUse"><stop offset="2.608695652173913%" stop-opacity="1" style="stop-color:rgb(91,118,181)"/><stop offset="95.65217391304348%" stop-opacity="1" style="stop-color:rgb(45,255,241)"/></linearGradient><ellipse vector-effect="non-scaling-stroke" cx="339.6387819590485" cy="420.37303278623875" rx="76.63878195904869" ry="21.03809700836632" fill="url(#_lgradient_22)"/><path d=" M 263 419.622 L 263 448.173 Q 267.696 466.77 339.639 469.211 Q 412.145 466.394 416.278 448.173 L 416.278 419.622 Q 415.714 437.279 339.639 440.66 Q 268.447 438.406 263 419.622 Z " fill="rgb(76,98,149)"/><path d=" M 316.722 410.274 L 316.722 418.811 Q 318.126 424.372 339.639 425.102 Q 361.32 424.26 362.555 418.811 L 362.555 410.274 Q 362.387 415.554 339.639 416.565 Q 318.351 415.891 316.722 410.274 Z " fill="rgb(76,98,149)"/><linearGradient id="_lgradient_23" x1="0.15243736383442258" y1="0.7851430976430975" x2="1.0737109658678285" y2="-0.2716049382716046" gradientTransform="matrix(45.457,0,0,12.478,316.91,404.786)" gradientUnits="userSpaceOnUse"><stop offset="2.608695652173913%" stop-opacity="1" style="stop-color:rgb(91,118,181)"/><stop offset="95.65217391304348%" stop-opacity="1" style="stop-color:rgb(45,255,241)"/></linearGradient><ellipse vector-effect="non-scaling-stroke" cx="339.63878195904937" cy="411.0252122376712" rx="22.72865837511" ry="6.239239553951734" fill="url(#_lgradient_23)"/></g></g><g style="isolation:isolate"><path d=" M 298.535 76.229 L 61 226 L 32 211.675 Q 8.5 182.239 43 136.62 Q 36.5 64.5 93 39 Q 142.5 28.128 170 61.564 Q 222.5 30.628 253 61.564 Q 271.75 50.75 289 57 L 310 69 L 298.535 76.229 Z " fill="rgb(204,204,204)"/><path d=" M 254 59 C 245.231 52.774 233.75 48.25 225 47 Q 203 43.125 175 59 L 193 73 Q 237.875 65.25 254 59 Z " fill="rgb(204,204,204)"/><path d=" M 166 53 Q 132.25 31.5 101 37 Q 38.5 58.5 43 136 L 63 146.62 Q 66 27 166 53 Z " fill="rgb(204,204,204)"/><path d=" M 313 94.658 L 93 221.675 Q 73 233.35 53 221.675 Q 43 215.615 43 192.808 Q 43 170 63 146.62 Q 57.782 77.608 103 54.244 Q 147.5 31.25 193 71.564 Q 242 40.625 273 71.564 Q 297.875 57.5 313 71.564 Q 323.33 81.169 313 94.658 Z " fill="rgb(255,255,255)"/></g></g></svg>