<svg height="64" width="64" xmlns="http://www.w3.org/2000/svg" xmlns:xlink="http://www.w3.org/1999/xlink"><defs><path id="a" d="m256 44.334c116.894 0 211.676 94.77 211.676 211.664s-94.782 211.675-211.676 211.675-211.665-94.783-211.665-211.675 94.772-211.664 211.665-211.664z"/><path id="b" d="m452.182 255.998c0 108.338-87.844 196.2-196.182 196.2s-196.18-87.853-196.18-196.2 87.84-196.166 196.18-196.166 196.182 87.83 196.182 196.166z"/><path id="c" d="m256 80.5c-96.922 0-175.5 78.578-175.5 175.5s78.58 175.5 175.5 175.5 175.5-78.58 175.5-175.5-78.578-175.5-175.5-175.5z"/><clipPath id="d"><path d="m512 274.094v-36.19l-31.6-5.743c-1.443-13.75-4.13-27.128-7.93-40.03l26.958-17.377-13.852-33.438-31.354 6.776c-6.55-12.005-14.164-23.34-22.705-33.898l18.286-26.415-25.594-25.59-26.409 18.281c-10.56-8.54-21.896-16.157-33.898-22.706l6.773-31.354-33.437-13.85-17.376 26.958a224.75 224.75 0 0 0 -40.032-7.931l-5.732-31.587h-36.193l-5.744 31.6a224.51 224.51 0 0 0 -40.033 7.931l-17.376-26.96-33.438 13.85 6.776 31.354c-12.004 6.55-23.34 14.165-33.9 22.706l-26.414-18.296-25.59 25.6 18.286 26.415a226.09 226.09 0 0 0 -22.705 33.898l-31.355-6.776-13.85 33.438 26.96 17.377c-3.8 12.902-6.486 26.28-7.93 40.03l-31.592 5.735v36.19l31.6 5.744c1.444 13.75 4.13 27.13 7.93 40.032l-26.96 17.378 13.85 33.435 31.355-6.773c6.55 12.005 14.165 23.34 22.705 33.898l-18.295 26.414 25.59 25.593 26.415-18.287c10.558 8.542 21.895 16.157 33.9 22.706l-6.776 31.354 33.438 13.852 17.377-26.958c12.902 3.8 26.28 6.483 40.03 7.93l5.744 31.6h36.192l5.744-31.6a224.62 224.62 0 0 0 40.03-7.93l17.378 26.957 33.436-13.852-6.772-31.354a226.06 226.06 0 0 0 33.897-22.706l26.414 18.286 25.593-25.593-18.286-26.412c8.54-10.56 16.154-21.896 22.706-33.9l31.354 6.772 13.853-33.435-26.958-17.377c3.8-12.902 6.483-26.282 7.93-40.032z"/></clipPath><linearGradient id="e"><stop offset="0" stop-color="#bdc6c9"/><stop offset=".092" stop-color="#abb4b7"/><stop offset=".277" stop-color="#7d8588"/><stop offset=".483" stop-color="#444a4d"/><stop offset=".584" stop-color="#5e6669"/><stop offset=".772" stop-color="#899396"/><stop offset=".916" stop-color="#a3afb2"/><stop offset="1" stop-color="#adbabd"/></linearGradient><linearGradient id="f" gradientUnits="userSpaceOnUse" x1="480.818" x2="31.183" xlink:href="#e" y1="380.617" y2="131.38"/><radialGradient id="g" cx="256" cy="255.999" gradientUnits="userSpaceOnUse" r="257"><stop offset=".73" stop-color="#004ed4" stop-opacity=".4"/><stop offset=".784" stop-color="#437cde" stop-opacity=".32"/><stop offset=".842" stop-color="#83a8e7" stop-opacity=".234"/><stop offset=".894" stop-color="#b5caee" stop-opacity=".157"/><stop offset=".94" stop-color="#dae3f4" stop-opacity=".09"/><stop offset=".977" stop-color="#f0f2f7" stop-opacity=".035"/><stop offset="1" stop-color="#f8f8f8" stop-opacity="0"/></radialGradient><linearGradient id="h"><stop offset="0" stop-color="#fff" stop-opacity="0"/><stop offset=".5" stop-color="#4d5057" stop-opacity=".75"/><stop offset="1" stop-color="#fff" stop-opacity="0"/></linearGradient><linearGradient id="i" gradientUnits="userSpaceOnUse" x1="352.299" x2="159.701" xlink:href="#h" y1="494.346" y2="17.65"/><radialGradient id="j" cx="256" cy="255.999" gradientUnits="userSpaceOnUse" r="257"><stop offset=".8" stop-color="#6b6b6b" stop-opacity="0"/><stop offset=".826" stop-color="#848484" stop-opacity=".02"/><stop offset=".883" stop-color="#b5b5b5" stop-opacity=".066"/><stop offset=".933" stop-color="#dadada" stop-opacity=".107"/><stop offset=".974" stop-color="#f0f0f0" stop-opacity=".14"/><stop offset="1" stop-color="#f8f8f8" stop-opacity=".16"/></radialGradient><linearGradient id="k"><stop offset="0" stop-color="#fff" stop-opacity="0"/><stop offset=".5" stop-color="#828282" stop-opacity=".6"/><stop offset="1" stop-color="#fff" stop-opacity="0"/></linearGradient><linearGradient id="l" gradientUnits="userSpaceOnUse" x1="74.274" x2="437.726" xlink:href="#k" y1="437.724" y2="74.272"/><linearGradient id="m"><stop offset=".2" stop-color="#fff" stop-opacity="0"/><stop offset=".5" stop-color="#fff" stop-opacity=".36"/><stop offset=".8" stop-color="#fff" stop-opacity="0"/></linearGradient><linearGradient id="n" gradientUnits="userSpaceOnUse" x1="45.46" x2="466.539" xlink:href="#m" y1="403.419" y2="108.576"/><clipPath id="o"><path d="m256 51c-113.224 0-205 91.775-205 205s91.777 205 205 205 205-91.775 205-205-91.774-205-205-205z"/></clipPath><linearGradient id="p" gradientUnits="userSpaceOnUse" x1="358.64" x2="153.366" xlink:href="#e" y1="70.842" y2="441.165"/><radialGradient id="q" cx="255.997" cy="256.006" gradientTransform="matrix(0 -.971 .971 0 7.396 504.601)" gradientUnits="userSpaceOnUse" r="217.969"><stop offset=".86" stop-color="#0058d4" stop-opacity=".6"/><stop offset="1" stop-color="#f8f8f8" stop-opacity="0"/></radialGradient><linearGradient id="r" gradientUnits="userSpaceOnUse" x1="452.313" x2="59.7" xlink:href="#h" y1="176.687" y2="335.314"/><linearGradient id="s" gradientUnits="userSpaceOnUse" x1="405.673" x2="106.333" xlink:href="#k" y1="405.671" y2="106.331"/><linearGradient id="t" gradientUnits="userSpaceOnUse" x1="377.421" x2="134.588" xlink:href="#m" y1="429.401" y2="82.599"/><clipPath id="u"><path d="m446 256c0-104.932-85.066-190-190-190s-190 85.067-190 190 85.066 189.998 190 189.998 190-85.065 190-189.998z"/></clipPath><linearGradient id="v" gradientUnits="userSpaceOnUse" x1="427.61" x2="84.388" xlink:href="#e" y1="351.133" y2="160.881"/><radialGradient id="w" cx="260.722161" cy="260.7319" gradientUnits="userSpaceOnUse" r="185.908631"><stop offset=".88" stop-color="#0037d4"/><stop offset="1" stop-color="#f8f8f8" stop-opacity="0"/></radialGradient><radialGradient id="x" cx="256.049" cy="256.048" gradientUnits="userSpaceOnUse" r="192.038091"><stop offset=".88" stop-color="#0066d4"/><stop offset="1" stop-color="#f8f8f8" stop-opacity="0"/></radialGradient><linearGradient id="y" gradientUnits="userSpaceOnUse" x1="329.512" x2="182.495" xlink:href="#h" y1="437.945" y2="74.067"/><linearGradient id="z" gradientUnits="userSpaceOnUse" x1="117.285" x2="394.718" xlink:href="#k" y1="394.722" y2="117.289"/><linearGradient id="A" gradientUnits="userSpaceOnUse" x1="95.291" x2="416.713" xlink:href="#m" y1="368.536" y2="143.474"/><clipPath id="B"><path d="m256 81c-96.646 0-175 78.355-175 175s78.355 175 175 175 175-78.355 175-175-78.354-175-175-175z"/></clipPath><linearGradient id="C" gradientUnits="userSpaceOnUse" x1="131.906" x2="380.096" y1="131.904" y2="380.094"><stop offset="0" stop-color="#14b9ff"/><stop offset="1" stop-color="#48007f"/></linearGradient><radialGradient id="D" cx="256" cy="255.999" gradientUnits="userSpaceOnUse" r="175.5"><stop offset=".33" stop-color="#006cc2" stop-opacity="0"/><stop offset=".628" stop-color="#016ec3" stop-opacity=".232"/><stop offset=".736" stop-color="#0575c7" stop-opacity=".315"/><stop offset=".813" stop-color="#0d80ce" stop-opacity=".374"/><stop offset=".874" stop-color="#1791d8" stop-opacity=".422"/><stop offset=".927" stop-color="#25a7e4" stop-opacity=".464"/><stop offset=".974" stop-color="#36c2f4" stop-opacity=".5"/><stop offset="1" stop-color="#42d5ff" stop-opacity=".52"/></radialGradient><radialGradient id="E" cx="202" cy="192.999" gradientUnits="userSpaceOnUse" r="127"><stop offset="0" stop-color="#e1ffff" stop-opacity=".5"/><stop offset=".093" stop-color="#d9f9fd" stop-opacity=".453"/><stop offset=".239" stop-color="#c3e7f6" stop-opacity=".38"/><stop offset=".42" stop-color="#9ecaec" stop-opacity=".3"/><stop offset=".628" stop-color="#6ca2de" stop-opacity=".186"/><stop offset=".855" stop-color="#2c6fcc" stop-opacity=".072"/><stop offset="1" stop-color="#004cbf" stop-opacity="0"/></radialGradient><clipPath id="F"><circle cx="231.267" cy="242.166" r="34.333"/></clipPath><linearGradient id="G"><stop offset="0" stop-color="#fff"/><stop offset="1" stop-color="#b8c4d1"/></linearGradient><radialGradient id="H" cx="219.436" cy="230.335" gradientUnits="userSpaceOnUse" r="51.497" xlink:href="#G"/><radialGradient id="I" cx="229.910492" cy="240.804958" gradientUnits="userSpaceOnUse" r="36.829761"><stop offset="0" stop-color="#fff" stop-opacity="0"/><stop offset=".265" stop-color="#fcfdfe" stop-opacity=".212"/><stop offset=".449" stop-color="#f3f6fd" stop-opacity=".36"/><stop offset=".609" stop-color="#e4ebf9" stop-opacity=".487"/><stop offset=".755" stop-color="#cedbf5" stop-opacity=".604"/><stop offset=".89" stop-color="#b2c7ef" stop-opacity=".712"/><stop offset="1" stop-color="#95b2e9" stop-opacity=".8"/></radialGradient><clipPath id="J"><circle cx="180.568" cy="312.5" r="24.033"/></clipPath><radialGradient id="K" cx="172.285" cy="304.218" gradientUnits="userSpaceOnUse" r="36.048" xlink:href="#G"/><radialGradient id="L" cx="179.61571" cy="311.531663" gradientUnits="userSpaceOnUse" r="25.779876"><stop offset="0" stop-color="#fff" stop-opacity="0"/><stop offset=".265" stop-color="#fcfdfe" stop-opacity=".212"/><stop offset=".449" stop-color="#f3f6fd" stop-opacity=".36"/><stop offset=".609" stop-color="#e4eaf9" stop-opacity=".487"/><stop offset=".755" stop-color="#ced9f5" stop-opacity=".604"/><stop offset=".89" stop-color="#b2c4ef" stop-opacity=".712"/><stop offset="1" stop-color="#95aee9" stop-opacity=".8"/></radialGradient><clipPath id="M"><circle cx="288.801" cy="306.5" r="24.033"/></clipPath><radialGradient id="N" cx="280.519" cy="298.218" gradientUnits="userSpaceOnUse" r="36.048" xlink:href="#G"/><radialGradient id="O" cx="287.837614" cy="305.532091" gradientUnits="userSpaceOnUse" r="25.780939"><stop offset="0" stop-color="#fff" stop-opacity="0"/><stop offset=".265" stop-color="#fcfdfe" stop-opacity=".212"/><stop offset=".449" stop-color="#f3f5fd" stop-opacity=".36"/><stop offset=".609" stop-color="#e4e7f9" stop-opacity=".487"/><stop offset=".755" stop-color="#ced4f5" stop-opacity=".604"/><stop offset=".89" stop-color="#b2bbef" stop-opacity=".712"/><stop offset="1" stop-color="#95a2e9" stop-opacity=".8"/></radialGradient><clipPath id="P"><circle cx="146.035" cy="218.167" r="17.167"/></clipPath><radialGradient id="Q" cx="140.119" cy="212.251" gradientUnits="userSpaceOnUse" r="25.749" xlink:href="#G"/><linearGradient id="R"><stop offset="0" stop-color="#fff" stop-opacity="0"/><stop offset=".265" stop-color="#fcfefe" stop-opacity=".212"/><stop offset=".449" stop-color="#f3f9fd" stop-opacity=".36"/><stop offset=".609" stop-color="#e4f1f9" stop-opacity=".487"/><stop offset=".755" stop-color="#cee5f5" stop-opacity=".604"/><stop offset=".89" stop-color="#b2d6ef" stop-opacity=".712"/><stop offset="1" stop-color="#95c7e9" stop-opacity=".8"/></linearGradient><radialGradient id="S" cx="145.353094" cy="217.475297" gradientUnits="userSpaceOnUse" r="18.414349" xlink:href="#R"/><clipPath id="T"><circle cx="296.603" cy="187.667" r="17.167"/></clipPath><radialGradient id="U" cx="290.687" cy="181.751" gradientUnits="userSpaceOnUse" r="25.749" xlink:href="#G"/><radialGradient id="V" cx="295.905784" cy="186.977827" gradientUnits="userSpaceOnUse" r="18.414349"><stop offset="0" stop-color="#fff" stop-opacity="0"/><stop offset=".265" stop-color="#fcfdfe" stop-opacity=".212"/><stop offset=".449" stop-color="#f3f7fd" stop-opacity=".36"/><stop offset=".609" stop-color="#e4ecf9" stop-opacity=".487"/><stop offset=".755" stop-color="#cedef5" stop-opacity=".604"/><stop offset=".89" stop-color="#b2cbef" stop-opacity=".712"/><stop offset="1" stop-color="#95b7e9" stop-opacity=".8"/></radialGradient><clipPath id="W"><circle cx="253.304" cy="369.533" r="17.167"/></clipPath><radialGradient id="X" cx="247.388" cy="363.618" gradientUnits="userSpaceOnUse" r="25.749" xlink:href="#G"/><radialGradient id="Y" cx="252.610857" cy="368.8263" gradientUnits="userSpaceOnUse" r="18.414349"><stop offset="0" stop-color="#fff" stop-opacity="0"/><stop offset=".265" stop-color="#fcfcfe" stop-opacity=".212"/><stop offset=".449" stop-color="#f3f3fd" stop-opacity=".36"/><stop offset=".609" stop-color="#e4e4f9" stop-opacity=".487"/><stop offset=".755" stop-color="#cecff5" stop-opacity=".604"/><stop offset=".89" stop-color="#b2b4ef" stop-opacity=".712"/><stop offset="1" stop-color="#9598e9" stop-opacity=".8"/></radialGradient><clipPath id="Z"><circle cx="360.868" cy="330.533" r="17.167"/></clipPath><radialGradient id="aa" cx="354.952" cy="324.618" gradientUnits="userSpaceOnUse" r="25.749" xlink:href="#G"/><radialGradient id="ab" cx="360.165197" cy="329.830145" gradientUnits="userSpaceOnUse" r="18.413286"><stop offset="0" stop-color="#fff" stop-opacity="0"/><stop offset=".265" stop-color="#fdfcfe" stop-opacity=".212"/><stop offset=".449" stop-color="#f5f3fd" stop-opacity=".36"/><stop offset=".609" stop-color="#e9e4f9" stop-opacity=".487"/><stop offset=".755" stop-color="#d7cef5" stop-opacity=".604"/><stop offset=".89" stop-color="#c0b2ef" stop-opacity=".712"/><stop offset="1" stop-color="#a995e9" stop-opacity=".8"/></radialGradient><clipPath id="ac"><circle cx="245.867" cy="136.5" r="13.733"/></clipPath><radialGradient id="ad" cx="241.135" cy="131.768" gradientUnits="userSpaceOnUse" r="20.599" xlink:href="#G"/><radialGradient id="ae" cx="245.30911" cy="135.950638" gradientUnits="userSpaceOnUse" r="14.732117" xlink:href="#R"/><clipPath id="af"><circle cx="316.102" cy="138.438" r="13.733"/></clipPath><radialGradient id="ag" cx="311.369" cy="133.706" gradientUnits="userSpaceOnUse" r="20.599" xlink:href="#G"/><radialGradient id="ah" cx="315.536205" cy="137.88955" gradientUnits="userSpaceOnUse" r="14.732117"><stop offset="0" stop-color="#fff" stop-opacity="0"/><stop offset=".265" stop-color="#fcfdfe" stop-opacity=".212"/><stop offset=".449" stop-color="#f3f7fd" stop-opacity=".36"/><stop offset=".609" stop-color="#e4ecf9" stop-opacity=".487"/><stop offset=".755" stop-color="#ceddf5" stop-opacity=".604"/><stop offset=".89" stop-color="#b2c9ef" stop-opacity=".712"/><stop offset="1" stop-color="#95b5e9" stop-opacity=".8"/></radialGradient></defs><circle clip-path="url(#d)" cx="256" cy="255.998" fill="url(#f)" r="257" transform="scale(.125)"/><circle clip-path="url(#d)" cx="256" cy="255.998" fill="url(#g)" r="257" transform="scale(.125)"/><circle clip-path="url(#d)" cx="256" cy="255.998" fill="url(#i)" r="257" transform="scale(.125)"/><circle clip-path="url(#d)" cx="256" cy="255.998" fill="url(#j)" r="257" transform="scale(.125)"/><circle clip-path="url(#d)" cx="256" cy="255.998" fill="url(#l)" r="257" transform="scale(.125)"/><circle clip-path="url(#d)" cx="256" cy="255.998" fill="url(#n)" r="257" transform="scale(.125)"/><use clip-path="url(#o)" fill="url(#p)" transform="scale(.125)" xlink:href="#a"/><use clip-path="url(#o)" fill="url(#q)" transform="scale(.125)" xlink:href="#a"/><use clip-path="url(#o)" fill="url(#r)" transform="scale(.125)" xlink:href="#a"/><use clip-path="url(#o)" fill="url(#s)" transform="scale(.125)" xlink:href="#a"/><use clip-path="url(#o)" fill="url(#t)" transform="scale(.125)" xlink:href="#a"/><use clip-path="url(#u)" fill="url(#v)" transform="scale(.125)" xlink:href="#b"/><path clip-path="url(#u)" d="m446.68 260.746c0 102.678-83.253 185.94-185.93 185.94s-185.93-83.263-185.93-185.94 83.25-185.916 185.928-185.916 185.93 83.24 185.93 185.915z" fill="url(#w)" transform="scale(.125)"/><path clip-path="url(#u)" d="m448 255.987c0 106.033-85.968 192.013-192 192.013s-192-85.98-192-192.013 85.967-191.987 192-191.987 192 85.957 192 191.987z" fill="url(#x)" transform="scale(.125)"/><use clip-path="url(#u)" fill="url(#y)" transform="scale(.125)" xlink:href="#b"/><use clip-path="url(#u)" fill="url(#z)" transform="scale(.125)" xlink:href="#b"/><use clip-path="url(#u)" fill="url(#A)" transform="scale(.125)" xlink:href="#b"/><use clip-path="url(#B)" fill="url(#C)" transform="scale(.125)" xlink:href="#c"/><use clip-path="url(#B)" fill="url(#D)" transform="scale(.125)" xlink:href="#c"/><g clip-path="url(#B)" transform="scale(.125)"><path d="m202 66c-70.134 0-127 56.867-127 127s56.867 127 127 127c70.13 0 127-56.87 127-127s-56.87-127-127-127z" fill="url(#E)"/><path d="m256 67c-104.38 0-189 84.62-189 189s84.62 189 189 189 189-84.62 189-189-84.618-189-189-189zm0 361.48c-95.26 0-172.485-77.224-172.485-172.48s77.227-172.484 172.485-172.484 172.48 77.226 172.48 172.484-77.22 172.48-172.48 172.48z" fill="#191919" opacity=".3"/></g><path d="m28.908 30.27 8.167-6.812m0 0-6.342-6.396m6.342 6.396 2.438-6.154m-10.605 12.966-10.654-3m10.654 3-6.337 8.792m6.337-8.792 7.075 7.925m0 .001 9.042 3.038m-9.042-3.038-4.32 7.996" fill="none" stroke="#e4eaf4" stroke-miterlimit="10" stroke-width=".375"/><circle clip-path="url(#F)" cx="219.436" cy="230.335" fill="url(#H)" r="51.498" transform="scale(.125)"/><circle clip-path="url(#F)" cx="229.934" cy="240.833" fill="url(#I)" r="36.833" transform="scale(.125)"/><circle clip-path="url(#J)" cx="172.285" cy="304.219" fill="url(#K)" r="36.048" transform="scale(.125)"/><circle clip-path="url(#J)" cx="179.634" cy="311.566" fill="url(#L)" r="25.783" transform="scale(.125)"/><circle clip-path="url(#M)" cx="280.519" cy="298.219" fill="url(#N)" r="36.048" transform="scale(.125)"/><circle clip-path="url(#M)" cx="287.867" cy="305.566" fill="url(#O)" r="25.783" transform="scale(.125)"/><circle clip-path="url(#P)" cx="140.119" cy="212.252" fill="url(#Q)" r="25.749" transform="scale(.125)"/><circle clip-path="url(#P)" cx="145.368" cy="217.5" fill="url(#S)" r="18.416" transform="scale(.125)"/><circle clip-path="url(#T)" cx="290.687" cy="181.751" fill="url(#U)" r="25.749" transform="scale(.125)"/><circle clip-path="url(#T)" cx="295.936" cy="187" fill="url(#V)" r="18.416" transform="scale(.125)"/><circle clip-path="url(#W)" cx="247.388" cy="363.619" fill="url(#X)" r="25.749" transform="scale(.125)"/><circle clip-path="url(#W)" cx="252.637" cy="368.867" fill="url(#Y)" r="18.416" transform="scale(.125)"/><circle clip-path="url(#Z)" cx="354.952" cy="324.619" fill="url(#aa)" r="25.749" transform="scale(.125)"/><circle clip-path="url(#Z)" cx="360.201" cy="329.867" fill="url(#ab)" r="18.416" transform="scale(.125)"/><circle clip-path="url(#ac)" cx="241.135" cy="131.768" fill="url(#ad)" r="20.599" transform="scale(.125)"/><circle clip-path="url(#ac)" cx="245.334" cy="135.967" fill="url(#ae)" r="14.733" transform="scale(.125)"/><circle clip-path="url(#af)" cx="311.369" cy="133.707" fill="url(#ag)" r="20.599" transform="scale(.125)"/><circle clip-path="url(#af)" cx="315.568" cy="137.905" fill="url(#ah)" r="14.733" transform="scale(.125)"/></svg>