<svg height="60" width="120" xmlns="http://www.w3.org/2000/svg" xmlns:xlink="http://www.w3.org/1999/xlink"><g image-rendering="optimizeQuality" shape-rendering="geometricPrecision" text-rendering="geometricPrecision" transform="matrix(.534524 0 0 .53452 8.899327 6.074383)"><g transform="matrix(.24 0 0 .24 0 8.4)"><g stroke="#000"><g id="a" transform="translate(150 150)"><path id="b" d="m-84.15-15.85a22.417 22.417 0 1 0 0 31.703h168.3a22.417 22.417 0 1 0 0-31.703z" fill="#eda921" stroke-width="38.009"/><g stroke-width="38.009"><use transform="matrix(.707107 .707107 -.707107 .707107 0 0)" xlink:href="#b"/><use transform="rotate(90)" xlink:href="#b"/><use transform="matrix(-.707107 .707107 -.707107 -.707107 0 0)" xlink:href="#b"/></g></g></g><use xlink:href="#a"/></g><path d="m5.482 31.32a18.27 18.27 0 0 1 -5.373-12.962 18.34 18.34 0 0 1 18.334-18.334c10.126 0 18.34 8.208 18.34 18.334h-10.74a7.6 7.6 0 0 0 -7.599-7.593c-4.194 0-7.593 3.4-7.593 7.593a7.57 7.57 0 0 0 2.22 5.363h.005c1.375 1.38 2.52 1.78 5.368 2.23 5.066.527 9.648 2.054 12.966 5.372s5.373 7.9 5.373 12.962c0 10.126-8.213 18.34-18.34 18.34a18.34 18.34 0 0 1 -18.333-18.339h10.74a7.6 7.6 0 0 0 7.593 7.598c4.195 0 7.6-3.404 7.6-7.598 0-2.095-.85-3.988-2.22-5.363h-.005c-1.375-1.375-3.348-1.85-5.373-2.226v-.005c-4.9-.753-9.643-2.054-12.96-5.373zm67.97-31.296-12.97 62.6h-10.74l-12.96-62.6h10.74l7.6 36.663 7.6-36.663h10.74zm18.34 25.928h18.334l.005 18.334c0 10.127-8.213 18.34-18.34 18.34s-18.334-8.213-18.334-18.34l-.005-25.927a18.34 18.34 0 0 1 18.34-18.334 18.34 18.34 0 0 1 18.334 18.334h-10.74a7.6 7.6 0 0 0 -7.593-7.594 7.6 7.6 0 0 0 -7.594 7.594v25.927c0 4.195 3.4 7.594 7.594 7.594a7.6 7.6 0 0 0 7.593-7.589v-7.593h-7.593v-10.746z" fill="#005a9c" transform="matrix(1.08 0 0 1.08 70.2 10.8)"/></g></svg>